<?xml version="1.0" encoding="utf-8"?>
<!DOCTYPE svg PUBLIC "-//W3C//DTD SVG 1.1//EN" "http://www.w3.org/Graphics/SVG/1.1/DTD/svg11.dtd">
<svg xmlns="http://www.w3.org/2000/svg" xmlns:xlink="http://www.w3.org/1999/xlink" version="1.1" baseProfile="full" width="176.479" height="25.9833" viewBox="0 0 176.48 25.98" enable-background="new 0 0 176.48 25.98" xml:space="preserve">
	<g>
		<path fill="#FFFFFF" fill-opacity="1" stroke-width="0.2" stroke-linejoin="round" d="M 20.0692,23.6671C 19.7996,23.8912 19.3006,24.1932 18.5723,24.5731C 17.844,24.953 16.9528,25.2892 15.8989,25.5815C 14.8449,25.8739 13.6806,26.0079 12.406,25.9833C 10.4557,25.9378 8.71277,25.5851 7.17733,24.925C 5.6419,24.265 4.34194,23.3633 3.27747,22.22C 2.21298,21.0768 1.40063,19.7654 0.84037,18.286C 0.280121,16.8066 0,15.2266 0,13.5458C 0,11.6655 0.285378,9.94092 0.856133,8.37225C 1.42689,6.80353 2.2445,5.44757 3.30898,4.30429C 4.37345,3.16101 5.64539,2.27515 7.12481,1.64661C 8.60422,1.01807 10.2403,0.703827 12.0331,0.703827C 13.6929,0.703827 15.1609,0.927917 16.4372,1.3761C 17.7135,1.82431 18.7561,2.30753 19.565,2.82574L 17.6479,7.42682C 17.0876,7.00311 16.3427,6.56104 15.413,6.10059C 14.4833,5.64014 13.4127,5.40991 12.2012,5.40991C 11.2593,5.40991 10.3576,5.60602 9.49624,5.99817C 8.63486,6.39035 7.87326,6.94534 7.21146,7.66318C 6.54967,8.38098 6.02795,9.21613 5.64627,10.1685C 5.2646,11.121 5.07376,12.1574 5.07376,13.2779C 5.07376,14.465 5.24796,15.5513 5.59637,16.537C 5.94479,17.5227 6.44376,18.3692 7.09329,19.0765C 7.74283,19.7838 8.52106,20.3275 9.42796,20.7074C 10.3349,21.0873 11.3608,21.2773 12.5058,21.2773C 13.8259,21.2773 14.9569,21.0645 15.8989,20.6391C 16.8408,20.2137 17.5586,19.7663 18.0523,19.2971L 20.0692,23.6671 Z "/>
		<path fill="#FFFFFF" fill-opacity="1" stroke-width="0.2" stroke-linejoin="round" d="M 23.5305,13.3777C 23.5305,11.676 23.8553,10.0626 24.5048,8.53769C 25.1544,7.01276 26.056,5.66202 27.2098,4.4855C 28.3635,3.30896 29.7029,2.38455 31.2278,1.71225C 32.7528,1.03998 34.3889,0.703827 36.1361,0.703827C 37.8624,0.703827 39.4871,1.03998 41.0103,1.71225C 42.5335,2.38455 43.8833,3.30896 45.0599,4.4855C 46.2364,5.66202 47.1556,7.01276 47.8174,8.53769C 48.4792,10.0626 48.81,11.676 48.81,13.3777C 48.81,15.125 48.4792,16.7611 47.8174,18.286C 47.1556,19.811 46.2364,21.1503 45.0599,22.3041C 43.8833,23.4579 42.5335,24.3595 41.0103,25.009C 39.4871,25.6586 37.8624,25.9833 36.1361,25.9833C 34.3889,25.9833 32.7528,25.6586 31.2278,25.009C 29.7029,24.3595 28.3635,23.4579 27.2098,22.3041C 26.056,21.1503 25.1544,19.811 24.5048,18.286C 23.8553,16.7611 23.5305,15.125 23.5305,13.3777 Z M 28.5728,13.3777C 28.5728,14.4772 28.7688,15.5032 29.161,16.4556C 29.5532,17.408 30.1021,18.2484 30.8076,18.9767C 31.5132,19.705 32.3308,20.2706 33.2605,20.6732C 34.1901,21.0759 35.2047,21.2773 36.3042,21.2773C 37.3582,21.2773 38.3386,21.0759 39.2455,20.6732C 40.1524,20.2706 40.942,19.705 41.6143,18.9767C 42.2866,18.2484 42.8136,17.408 43.1953,16.4556C 43.577,15.5032 43.7678,14.4772 43.7678,13.3777C 43.7678,12.2572 43.5717,11.2155 43.1795,10.2526C 42.7874,9.28964 42.249,8.44403 41.5644,7.7157C 40.8799,6.98737 40.0789,6.42099 39.1615,6.01654C 38.2441,5.61212 37.2461,5.40991 36.1676,5.40991C 35.0927,5.40991 34.0956,5.61212 33.1764,6.01654C 32.2573,6.42099 31.451,6.98737 30.7577,7.7157C 30.0644,8.44403 29.5269,9.28964 29.1453,10.2526C 28.7636,11.2155 28.5728,12.2572 28.5728,13.3777 Z "/>
		<path fill="#FFFFFF" fill-opacity="1" stroke-width="0.2" stroke-linejoin="round" d="M 50.827,25.7155L 61.9882,0L 62.2561,0L 73.4173,25.7155L 67.7658,25.7155L 60.6436,7.63165L 64.1732,5.21033L 55.6329,25.7155L 50.827,25.7155 Z M 58.4586,16.776L 65.8854,16.776L 67.5977,20.8728L 56.9459,20.8728L 58.4586,16.776 Z "/>
		<path fill="#FFFFFF" fill-opacity="1" stroke-width="0.2" stroke-linejoin="round" d="M 95.703,23.6671C 95.4334,23.8912 94.9344,24.1932 94.2061,24.5731C 93.4778,24.953 92.5866,25.2892 91.5326,25.5815C 90.4787,25.8739 89.3144,26.0079 88.0398,25.9833C 86.0895,25.9378 84.3465,25.5851 82.8111,24.925C 81.2757,24.265 79.9757,23.3633 78.9112,22.22C 77.8468,21.0768 77.0344,19.7654 76.4742,18.286C 75.9139,16.8066 75.6338,15.2266 75.6338,13.5458C 75.6338,11.6655 75.9192,9.94092 76.4899,8.37225C 77.0607,6.80353 77.8783,5.44757 78.9428,4.30429C 80.0072,3.16101 81.2792,2.27515 82.7586,1.64661C 84.238,1.01807 85.8741,0.703827 87.6669,0.703827C 89.3266,0.703827 90.7947,0.927917 92.071,1.3761C 93.3473,1.82431 94.3899,2.30753 95.1988,2.82574L 93.2817,7.42682C 92.7214,7.00311 91.9765,6.56104 91.0468,6.10059C 90.1171,5.64014 89.0465,5.40991 87.835,5.40991C 86.8931,5.40991 85.9914,5.60602 85.13,5.99817C 84.2686,6.39035 83.507,6.94534 82.8453,7.66318C 82.1835,8.38098 81.6617,9.21613 81.2801,10.1685C 80.8984,11.121 80.7076,12.1574 80.7076,13.2779C 80.7076,14.465 80.8818,15.5513 81.2301,16.537C 81.5786,17.5227 82.0775,18.3692 82.7271,19.0765C 83.3766,19.7838 84.1548,20.3275 85.0618,20.7074C 85.9687,21.0873 86.9946,21.2773 88.1396,21.2773C 89.4597,21.2773 90.5907,21.0645 91.5326,20.6391C 92.4746,20.2137 93.1924,19.7663 93.6861,19.2971L 95.703,23.6671 Z "/>
		<path fill="#FFFFFF" fill-opacity="1" stroke-width="0.2" stroke-linejoin="round" d="M 121.487,0.976929L 121.487,25.7155L 116.613,25.7155L 116.613,15.6625L 105.551,15.6625L 105.551,25.7155L 100.677,25.7155L 100.677,0.976929L 105.551,0.976929L 105.551,10.9564L 116.613,10.9564L 116.613,0.976929L 121.487,0.976929 Z "/>
		<path fill="#FFFFFF" fill-opacity="1" stroke-width="0.2" stroke-linejoin="round" d="M 125.216,23.2942C 125.216,22.6008 125.468,22.0187 125.972,21.5477C 126.477,21.0768 127.032,20.8413 127.637,20.8413C 128.198,20.8413 128.73,21.0768 129.234,21.5477C 129.738,22.0187 129.99,22.6008 129.99,23.2942C 129.99,24.033 129.738,24.6212 129.234,25.059C 128.73,25.4966 128.198,25.7155 127.637,25.7155C 127.032,25.7155 126.477,25.4966 125.972,25.059C 125.468,24.6212 125.216,24.033 125.216,23.2942 Z "/>
		<path fill="#FFFFFF" fill-opacity="1" stroke-width="0.2" stroke-linejoin="round" d="M 133.62,0.976929L 150.495,0.976929L 150.495,5.68304L 138.494,5.68304L 138.494,10.9564L 149.114,10.9564L 149.114,15.6625L 138.494,15.6625L 138.494,21.0094L 150.963,21.0094L 150.963,25.7155L 133.62,25.7155L 133.62,0.976929 Z "/>
		<path fill="#FFFFFF" fill-opacity="1" stroke-width="0.2" stroke-linejoin="round" d="M 154.125,0.976929L 160.344,0.976929L 176.479,25.7155L 170.192,25.7155L 154.125,0.976929 Z M 153.789,25.7155L 162.597,11.8651L 164.882,16.776L 159.839,25.7155L 153.789,25.7155 Z M 165.218,10.053L 170.328,0.976929L 176.242,0.976929L 167.739,14.2549L 165.218,10.053 Z "/>
	</g>
</svg>
