<?xml version="1.0" encoding="utf-8"?>
<!DOCTYPE svg PUBLIC "-//W3C//DTD SVG 1.1//EN" "http://www.w3.org/Graphics/SVG/1.1/DTD/svg11.dtd">
<svg xmlns="http://www.w3.org/2000/svg" xmlns:xlink="http://www.w3.org/1999/xlink" version="1.1" baseProfile="full" width="64" height="64" viewBox="0 0 64.00 64.00" enable-background="new 0 0 64.00 64.00" xml:space="preserve">
	<g>
		<rect x="1.57356e-005" y="0" fill="#FF684B" fill-opacity="1" stroke-width="2.05464" stroke-linecap="round" stroke-linejoin="round" width="64" height="64"/>
		<g>
			<path fill="#343B43" fill-opacity="1" stroke-width="2.05464" stroke-linecap="round" stroke-linejoin="round" d="M 19.7826,10.8069C 21.7597,8.40463 24.3921,6.60272 27.522,5.92538C 30.581,5.26331 33.7993,5.58786 36.8012,6.46939C 38.1003,6.85034 39.5365,7.50864 39.8839,8.80157C 40.1498,7.09567 41.1464,5.51245 42.5788,4.52194C 42.7761,6.08386 42.6077,7.68997 42.0911,9.17947C 43.4831,7.89645 45.5936,6.9989 47.4778,6.71851C 46.9018,8.13568 45.9669,9.40881 44.783,10.3901C 45.7163,9.61606 47.7688,15.2199 47.9197,15.7121C 48.6496,18.0923 48.9666,20.5974 48.8355,23.082C 48.4843,22.912 48.098,22.8138 47.7071,22.7955C 47.2782,23.9833 47.4405,25.5742 47.2546,26.8359C 47.0252,28.3909 46.7449,29.9376 46.463,31.4843C 45.8687,34.7391 45.0466,37.9292 43.1997,40.7261C 41.551,43.2222 38.2214,44.0351 35.3826,44.384C 32.4241,44.7475 29.362,44.7208 26.5315,43.7936C 21.7971,42.2423 19.2264,38.5799 18.4591,33.9033C 18.1193,31.8294 17.9433,29.7319 17.874,27.6328C 17.8633,27.2587 17.7087,22.778 17.81,22.765C 16.9285,22.8763 16.0462,22.9883 15.1647,23.0995C 15.4679,19.6648 16.6047,15.6854 18.4127,12.733C 18.8264,12.058 19.2835,11.4134 19.7826,10.8069 Z "/>
			<path fill="#C36449" fill-opacity="1" stroke-width="2.05464" stroke-linecap="round" stroke-linejoin="round" d="M 37.6035,51.1376L 37.6035,40.3322C 37.6035,37.7661 35.6866,35.6671 33.3437,35.6671L 30.5033,35.6671C 28.1605,35.6671 26.2435,37.7661 26.2435,40.3322L 26.2435,51.1376C 24.0843,51.9917 22.6938,53.3197 22.6938,54.813C 22.6938,57.3898 26.8264,59.4781 31.9235,59.4781C 37.0207,59.4781 41.1532,57.3898 41.1532,54.813C 41.1532,53.3197 39.7635,51.9917 37.6035,51.1376 Z "/>
			<path fill="#D6744C" fill-opacity="1" stroke-width="2.05464" stroke-linecap="round" stroke-linejoin="round" d="M 43.5471,34.6408C 43.2736,34.2835 43.1075,33.8561 42.9948,33.4225C 42.7868,32.6195 42.7548,31.7555 43.0222,30.9692C 43.3734,29.9406 44.2511,29.1033 45.3041,28.7909C 45.9784,28.5921 46.7464,28.6119 47.343,28.9807C 49.4519,30.2865 49.0633,34.2332 47.1014,35.3974C 45.813,36.1616 44.4165,35.7791 43.5471,34.6408 Z "/>
			<path fill="#BA3E3A" fill-opacity="1" stroke-width="2.05464" stroke-linecap="round" stroke-linejoin="round" d="M 45.3742,32.3315C 45.349,32.3162 45.3414,32.2835 45.3567,32.2591L 45.4184,32.2362C 45.9235,32.3886 46.4706,32.2263 46.7807,31.9078C 46.7456,31.6267 46.6641,31.3517 46.5277,31.1078C 46.3311,30.7627 46.047,30.4579 45.6188,30.3292L 45.6119,30.3269C 45.5769,30.3162 45.5471,30.2873 45.5388,30.2492C 45.5258,30.1921 45.5616,30.1349 45.6195,30.1219C 46.1651,30.0001 46.7365,30.3262 47.0603,30.7551C 47.3978,31.1962 47.5471,31.7509 47.5045,32.2926C 47.4679,32.8321 47.2218,33.3738 46.8188,33.7303C 46.4271,34.0915 45.8968,34.3002 45.3826,34.1753C 45.826,33.9962 46.1757,33.7144 46.4203,33.3768C 46.6214,33.098 46.7365,32.7878 46.7791,32.4633C 46.2953,32.6271 45.7704,32.5707 45.3742,32.3315 Z "/>
			<path fill="#D6744C" fill-opacity="1" stroke-width="2.05464" stroke-linecap="round" stroke-linejoin="round" d="M 21.3163,34.6408C 21.5898,34.2835 21.7559,33.8561 21.8687,33.4225C 22.0767,32.6195 22.1094,31.7555 21.8412,30.9692C 21.4908,29.9406 20.6123,29.1033 19.5593,28.7909C 18.885,28.5921 18.117,28.6119 17.5205,28.9807C 15.4115,30.2865 15.8009,34.2332 17.762,35.3974C 19.0504,36.1616 20.447,35.7791 21.3163,34.6408 Z "/>
			<path fill="#BA3E3A" fill-opacity="1" stroke-width="2.05464" stroke-linecap="round" stroke-linejoin="round" d="M 19.4892,32.3315C 19.5144,32.3162 19.522,32.2835 19.5068,32.2591L 19.445,32.2362C 18.9399,32.3886 18.3928,32.2263 18.0835,31.9078C 18.1178,31.6267 18.1993,31.3517 18.3357,31.1078C 18.5331,30.7627 18.8165,30.4579 19.2447,30.3292L 19.2515,30.3269C 19.2873,30.3162 19.3163,30.2873 19.3247,30.2492C 19.3376,30.1921 19.3018,30.1349 19.2439,30.1219C 18.6984,30.0001 18.1269,30.3262 17.8031,30.7551C 17.4656,31.1962 17.3163,31.7509 17.3597,32.2926C 17.3963,32.8321 17.6416,33.3738 18.0447,33.7303C 18.437,34.0915 18.9666,34.3002 19.4809,34.1753C 19.0374,33.9962 18.6877,33.7144 18.4431,33.3768C 18.242,33.098 18.1269,32.7878 18.0843,32.4633C 18.5681,32.6271 19.093,32.5707 19.4892,32.3315 Z "/>
			<path fill="#D6744C" fill-opacity="1" stroke-width="2.05464" stroke-linecap="round" stroke-linejoin="round" d="M 41.8351,21.8682C 41.634,20.6339 41.4336,19.3997 41.2332,18.1646C 40.8439,19.1498 40.4546,20.1349 40.066,21.1201C 40.0089,21.264 39.9456,21.4172 39.8169,21.5063C 39.6576,21.6161 39.445,21.5985 39.2523,21.5772C 37.3567,21.3616 35.4618,21.146 33.567,20.9311C 33.349,19.2976 33.1311,17.664 32.914,16.0298C 32.2397,17.7006 31.5662,19.3707 30.8927,21.0408C 27.2934,21.2595 23.7132,21.776 20.2001,22.5768C 20.2024,24.0846 20.261,25.5955 20.2359,27.0873C 20.2001,29.2046 20.2511,31.3227 20.3898,33.4355C 20.591,36.4922 21.0291,39.6831 22.8294,42.1776C 26.8279,47.7151 36.9506,48.1425 41.1639,42.7361C 42.581,40.9174 43.4291,38.7315 44.0934,36.5319C 44.8744,33.9445 45.0047,31.5353 45.2172,28.8854C 45.3734,26.9486 45.6043,24.7589 45.6591,22.5448C 44.4134,22.186 43.1296,21.9582 41.8351,21.8682 Z "/>
			<path fill="#2E2C35" fill-opacity="1" stroke-width="2.05464" stroke-linecap="round" stroke-linejoin="round" d="M 28.2268,28.7787C 28.2268,29.8104 27.6675,30.6461 26.9788,30.6461C 26.29,30.6461 25.7308,29.8104 25.7308,28.7787C 25.7308,27.7471 26.29,26.9113 26.9788,26.9113C 27.6675,26.9113 28.2268,27.7471 28.2268,28.7787 Z "/>
			<path fill="#2E2C35" fill-opacity="1" stroke-width="2.05464" stroke-linecap="round" stroke-linejoin="round" d="M 38.546,28.7787C 38.546,29.8104 37.9875,30.6461 37.2988,30.6461C 36.6092,30.6461 36.0508,29.8104 36.0508,28.7787C 36.0508,27.7471 36.6092,26.9113 37.2988,26.9113C 37.9875,26.9113 38.546,27.7471 38.546,28.7787 Z "/>
			<path fill="#7E2824" fill-opacity="1" stroke-width="2.05464" stroke-linecap="round" stroke-linejoin="round" d="M 36.4363,23.9422C 37.8062,23.9048 39.061,24.6286 39.6919,25.709C 39.7658,25.8362 39.7231,25.9993 39.5959,26.074C 39.4831,26.1395 39.3422,26.1128 39.2599,26.0176L 39.2561,26.0138C 38.5757,25.2244 37.4633,24.8961 36.5666,25.1086C 36.2488,25.1841 35.9296,24.9875 35.8549,24.6698C 35.7795,24.3521 35.9761,24.0336 36.2938,23.9582C 36.3327,23.949 36.3715,23.9437 36.4104,23.9422L 36.4363,23.9422 Z "/>
			<path fill="#7E2824" fill-opacity="1" stroke-width="2.05464" stroke-linecap="round" stroke-linejoin="round" d="M 27.6119,25.1086C 26.7151,24.8961 25.6028,25.2244 24.9224,26.0138L 24.9186,26.0176C 24.8226,26.1288 24.6542,26.1418 24.543,26.045C 24.4439,25.9597 24.4233,25.818 24.4866,25.709C 25.1174,24.6286 26.3723,23.9048 27.7422,23.9422L 27.765,23.9422C 28.0911,23.9513 28.3487,24.2233 28.3395,24.5494C 28.3304,24.8763 28.0591,25.1338 27.7323,25.1246C 27.6919,25.1231 27.65,25.1178 27.6119,25.1086 Z "/>
			<path fill="#BA3E3A" fill-opacity="1" stroke-width="2.05464" stroke-linecap="round" stroke-linejoin="round" d="M 32.4713,27.7319C 32.4119,27.7235 32.3517,27.7281 32.2931,27.7486C 31.0991,28.1555 30.437,30.7338 30.2024,31.5985C 29.9837,32.4062 29.8854,33.2839 30.3708,34.0222C 30.9193,34.8564 32.3144,35.2823 33.4252,34.8008C 34.4873,34.3399 34.7563,33.1978 34.6961,32.3353C 34.6329,31.4294 34.229,30.5235 33.8702,29.6686C 33.7117,29.2922 33.0892,27.8157 32.4713,27.7319 Z "/>
			<path fill="#BA3E3A" fill-opacity="1" stroke-width="2.05464" stroke-linecap="round" stroke-linejoin="round" d="M 28.0919,38.1738C 28.6123,38.7711 29.3018,39.0111 30.0698,39.2397C 30.8538,39.4972 31.5403,39.6381 32.3129,39.645C 33.0664,39.6412 33.8268,39.5216 34.5353,39.2565C 35.2416,38.9943 35.9037,38.5898 36.354,37.9635L 36.3601,37.9551C 36.4127,37.8812 36.5155,37.8637 36.5902,37.917C 36.6511,37.9612 36.6732,38.0389 36.6488,38.1068C 36.3487,38.9448 35.634,39.5901 34.8538,39.9734C 34.0698,40.378 33.1913,40.5593 32.3144,40.5738C 31.4489,40.5981 30.5224,40.3459 29.7879,40.0084C 29.4047,39.8423 29.0092,39.6503 28.6504,39.3783C 28.2931,39.1063 27.9921,38.7391 27.8329,38.3315C 27.8016,38.2523 27.8405,38.1631 27.9197,38.1319C 27.9814,38.1068 28.0507,38.1265 28.0919,38.1738 Z "/>
			<path fill="#BA3E3A" fill-opacity="1" stroke-width="2.05464" stroke-linecap="round" stroke-linejoin="round" d="M 31.1121,42.0046C 31.461,42.2332 31.8214,42.3536 32.2039,42.3239C 32.3967,42.3292 32.5841,42.2713 32.7791,42.2195C 32.9704,42.1585 33.1685,42.0702 33.3567,41.978L 33.3711,41.9711C 33.4298,41.9421 33.5007,41.9665 33.5296,42.0252C 33.5487,42.0648 33.5441,42.1105 33.5205,42.1448C 33.234,42.5601 32.754,42.8123 32.229,42.8503C 31.711,42.8824 31.1319,42.6226 30.9391,42.1174C 30.9178,42.0641 30.9452,42.0031 30.9993,41.9825C 31.0313,41.9703 31.0664,41.9749 31.093,41.9924L 31.1121,42.0046 Z "/>
			<path fill="#D6744C" fill-opacity="1" stroke-width="2.05464" stroke-linecap="round" stroke-linejoin="round" d="M 22.9727,22.4816L 24.3106,17.6221L 25.1852,22.4816"/>
		</g>
	</g>
</svg>
