<?xml version="1.0" encoding="utf-8"?>
<!DOCTYPE svg PUBLIC "-//W3C//DTD SVG 1.1//EN" "http://www.w3.org/Graphics/SVG/1.1/DTD/svg11.dtd">
<svg xmlns="http://www.w3.org/2000/svg" xmlns:xlink="http://www.w3.org/1999/xlink" version="1.1" baseProfile="full" width="60" height="60" viewBox="0 0 60.00 60.00" enable-background="new 0 0 60.00 60.00" xml:space="preserve">
	<g>
		<path fill="#9A9A9A" fill-opacity="1" stroke-width="0.2" stroke-linejoin="round" d="M 15,6.10352e-005L 45,6.10352e-005C 53.2842,6.10352e-005 60,6.71576 60,15.0001L 60,45.0001C 60,53.2843 53.2842,60.0001 45,60.0001L 15,60.0001C 6.71564,60.0001 0,53.2843 0,45.0001L 0,15.0001C 0,6.71576 6.71564,6.10352e-005 15,6.10352e-005 Z "/>
		<defs>
			<path id="SVG_CLIPPER1_" d="M 15,6.10352e-005L 45,6.10352e-005C 53.2842,6.10352e-005 60,6.71576 60,15.0001L 60,45.0001C 60,53.2843 53.2842,60.0001 45,60.0001L 15,60.0001C 6.71564,60.0001 0,53.2843 0,45.0001L 0,15.0001C 0,6.71576 6.71564,6.10352e-005 15,6.10352e-005 Z "/>
		</defs>
		<clipPath id="SVG_CLIPPER2_">
			<use xlink:href="#SVG_CLIPPER1_" overflow="visible"/>
		</clipPath>
		<g clip-path="url(#SVG_CLIPPER2_)">
			<g>
				<path fill="#E7DF94" fill-opacity="1" stroke-width="0.2" stroke-linejoin="round" d="M 15.0001,6.10352e-005L 45.0001,6.10352e-005C 53.2844,6.10352e-005 60.0001,6.71582 60.0001,15.0001L 60.0001,45.0001C 60.0001,53.2844 53.2844,60.0001 45.0001,60.0001L 15.0001,60.0001C 6.71576,60.0001 6.10352e-005,53.2844 6.10352e-005,45.0001L 6.10352e-005,15.0001C 6.10352e-005,6.71582 6.71576,6.10352e-005 15.0001,6.10352e-005 Z "/>
				<g>
					<g>
						<g>
							<path fill="#A4E4FF" fill-opacity="1" stroke-linejoin="round" stroke="#000000" stroke-opacity="1" d="M 41.1899,30.363C 41.1899,30.363 45.6517,25.5332 48.0807,26.0449C 50.5097,26.5565 55.8143,26.8203 52.6619,30.2199C 49.5099,33.6196 46.8028,32.8305 46.8028,32.8305C 46.8028,32.8305 57.0808,32.1155 56.5159,34.8101C 55.9512,37.5049 48.0032,37.6042 48.0032,37.6042C 48.0032,37.6042 59.9644,40.2106 56.9683,43.0389C 53.9724,45.8673 42.2725,41.1833 41.0967,40.2724"/>
							<path fill="#A4E4FF" fill-opacity="1" stroke-linejoin="round" stroke="#000000" stroke-opacity="1" d="M 18.0154,29.2863C 18.0154,29.2863 10.3089,22.8571 8.45721,24.2093C 6.60553,25.5616 11.3687,32.1279 11.7507,32.2568C 12.133,32.3859 5.10468,26.9197 3.21484,27.1236C 1.3252,27.3275 6.44733,33.1486 6.44733,33.1486C 6.44733,33.1486 0.587097,32.0953 1.50024,33.6957C 2.41357,35.2963 13.3779,38.1951 16.8986,36.7259"/>
							<g>
								<linearGradient id="SVGID_Fill1_" gradientUnits="objectBoundingBox" x1="0.539949" y1="0.857193" x2="1.01465" y2="0.857193" gradientTransform="rotate(-90.000000 0.539949 0.857193)">
									<stop offset="0" stop-color="#B6B6B6" stop-opacity="1"/>
									<stop offset="0.513043" stop-color="#DADADA" stop-opacity="1"/>
									<stop offset="1" stop-color="#FFFFFF" stop-opacity="1"/>
								</linearGradient>
								<path fill="url(#SVGID_Fill1_)" stroke-width="2" stroke-linejoin="round" stroke="#000000" stroke-opacity="1" d="M 12.9219,61.4387C 12.9219,61.4387 14.5784,27.7313 17.3787,23.701C 20.179,19.6707 37.0099,19.2087 37.0099,19.2087C 37.01,19.2087 42.7913,28.0081 43.8274,31.7913C 44.8633,35.5744 47.9217,61.1262 47.9217,61.1262"/>
								<linearGradient id="SVGID_Fill2_" gradientUnits="objectBoundingBox" x1="0.569962" y1="1.13423" x2="1.11664" y2="1.13423" gradientTransform="rotate(-90.000000 0.569962 1.134228)">
									<stop offset="0" stop-color="#B6B6B6" stop-opacity="1"/>
									<stop offset="0.513043" stop-color="#DADADA" stop-opacity="1"/>
									<stop offset="1" stop-color="#FFFFFF" stop-opacity="1"/>
								</linearGradient>
								<path fill="url(#SVGID_Fill2_)" stroke-width="2" stroke-linejoin="round" stroke="#000000" stroke-opacity="1" d="M 46.5149,50.4858C 46.5149,50.4858 43.9871,30.2839 42.0395,26.0363C 40.0918,21.7886 33.4438,14.951 30.2928,14.951C 27.1418,14.951 16.623,11.7837 14.0331,16.0313C 11.4431,20.2789 12.3408,22.1105 13.377,22.2141C 14.1592,22.2923 22.7514,25.6309 28.3633,26.7269C 30.1841,27.0825 30.3693,26.007 31.1942,25.7025"/>
								<path fill="#EAAFAF" fill-opacity="0.803922" stroke-width="0.2" stroke-linejoin="round" d="M 28.4085,22.9932C 29.1002,22.9932 29.6608,23.5538 29.6608,24.2455C 29.6608,24.9371 29.1002,25.4977 28.4085,25.4977C 27.717,25.4977 27.1563,24.9371 27.1563,24.2455C 27.1563,23.5538 27.717,22.9932 28.4085,22.9932 Z "/>
							</g>
							<path fill="none" stroke-width="2" stroke-linejoin="round" stroke="#000000" stroke-opacity="1" d="M 32.9878,43.0619C 32.9878,43.0619 27.0167,43.9335 25.2775,40.2593C 23.5384,36.5851 23.5918,33.0988 23.5918,33.0988L 23.8449,29.7295L 24.9463,30.4839L 23.1785,32.4355L 24.7308,31.811L 24.2847,31.3788L 22.9173,30.0535L 23.2627,31.0059L 22.5544,32.1107L 23.7612,32.3867C 23.7612,32.3867 22.486,37.3399 19.3599,38.564C 16.2339,39.7883 14.1819,39.5331 14.1819,39.5331"/>
						</g>
						<path fill="none" stroke-linejoin="round" stroke="#000000" stroke-opacity="1" d="M 23.0779,21.5747C 23.0779,21.5747 22.8071,24.4051 26.8188,23.076"/>
						<path fill="none" stroke-linejoin="round" stroke="#000000" stroke-opacity="1" d="M 15.3502,18.9658C 15.3502,18.9658 15.0793,21.7961 19.0911,20.467"/>
					</g>
					<g>
						<g>
							<path fill="none" stroke-width="1.5" stroke-linejoin="round" stroke="#000000" stroke-opacity="1" d="M 33.5425,14.7874C 33.5425,14.7874 35.3854,7.79999 37.5084,7.23035C 40.1563,6.51996 45.0623,9.82776 45.8846,15.1668C 46.707,20.5059 49.2642,18.1311 50.841,16.5793"/>
							<path fill="none" stroke-width="1.5" stroke-linejoin="round" stroke="#000000" stroke-opacity="1" d="M 35.5232,14.4632C 35.5232,14.4632 38.0784,4.84149 39.4016,10.462C 40.7248,16.0825 40.6936,25.6096 43.7966,23.1667C 46.8996,20.7239 47.7261,20.6454 47.7261,20.6454"/>
							<path fill="none" stroke-width="1.5" stroke-linejoin="round" stroke="#000000" stroke-opacity="1" d="M 36.3774,16.149C 36.3774,16.149 41.9191,11.5027 43.4065,13.7918C 45.9831,17.7571 42.8647,17.3047 42.6675,19.4127C 42.4913,21.2979 45.7414,24.1796 47.5349,23.5657C 49.3284,22.952 51.2819,22.7396 51.2819,22.7396"/>
							<path fill="none" stroke-width="1.5" stroke-linejoin="round" stroke="#000000" stroke-opacity="1" d="M 35.7522,14.9249C 35.7522,14.9249 41.0541,8.38837 41.9647,12.2812C 42.8753,16.174 36.1661,18.2202 38.8784,19.7971C 41.5908,21.374 45.187,18.7766 45.187,18.7766"/>
							<path fill="#FF8383" fill-opacity="1" stroke-width="0.2" stroke-linejoin="round" d="M 34.3627,13.8945C 33.3454,14.2134 32.2322,15.2653 33.0986,15.8865C 34.4126,16.8286 34.4807,16.5107 35.5174,17.5784C 36.2602,18.3433 37.1008,16.1763 36.782,15.1591C 36.4631,14.1418 35.3801,13.5756 34.3627,13.8945 Z "/>
						</g>
						<path fill="#E90080" fill-opacity="1" stroke-linejoin="round" stroke="#000000" stroke-opacity="1" d="M 34.6126,16.1877C 34.6126,16.1876 29.6232,15.2704 30.1611,11.7825C 30.699,8.29468 33.1186,9.1557 33.9538,11.6407C 34.7889,14.1259 34.6335,16.2006 34.6126,16.1877 Z "/>
						<path fill="#E90080" fill-opacity="1" stroke-linejoin="round" stroke="#000000" stroke-opacity="1" d="M 32.7736,14.936C 32.7737,14.9359 35.6461,19.1175 38.6113,17.2039C 41.5765,15.2903 39.8036,13.4323 37.1941,13.6832C 34.5843,13.9341 32.7534,14.9221 32.7736,14.936 Z "/>
					</g>
				</g>
			</g>
		</g>
	</g>
</svg>
