<?xml version="1.0" encoding="utf-8"?>
<!DOCTYPE svg PUBLIC "-//W3C//DTD SVG 1.1//EN" "http://www.w3.org/Graphics/SVG/1.1/DTD/svg11.dtd">
<svg xmlns="http://www.w3.org/2000/svg" xmlns:xlink="http://www.w3.org/1999/xlink" version="1.1" baseProfile="full" width="64" height="64" viewBox="0 0 64.00 64.00" enable-background="new 0 0 64.00 64.00" xml:space="preserve">
	<g>
		<rect x="0" y="0" fill="#97C153" fill-opacity="1" stroke-width="2.05464" stroke-linecap="round" stroke-linejoin="round" width="64" height="64"/>
		<g>
			<path fill="#D06A48" fill-opacity="1" stroke-width="0.68488" stroke-linejoin="round" d="M 37.1932,51.1379L 37.1932,40.6244C 37.1932,38.1284 35.328,36.0857 33.0484,36.0857L 30.2857,36.0857C 28.0061,36.0857 26.141,38.1284 26.141,40.6244L 26.141,51.1379C 24.0396,51.9684 22.6873,53.2613 22.6873,54.7142C 22.6873,57.2209 26.7078,59.2529 31.6671,59.2529C 36.6263,59.2529 40.6469,57.2209 40.6469,54.7142C 40.6469,53.2613 39.2945,51.9684 37.1932,51.1379 Z "/>
			<path fill="#DF8758" fill-opacity="1" stroke-width="0.68488" stroke-linejoin="round" d="M 21.0095,34.1291C 21.2755,33.7817 21.4377,33.3657 21.5467,32.9436C 21.7501,32.1619 21.7813,31.3215 21.52,30.5573C 21.1794,29.5562 20.3253,28.7409 19.3006,28.4377C 18.6446,28.2434 17.8972,28.2632 17.3174,28.6221C 15.2648,29.8929 15.6434,33.7329 17.552,34.8651C 18.8046,35.6087 20.1638,35.2369 21.0095,34.1291 Z "/>
			<path fill="#DF8758" fill-opacity="1" stroke-width="0.68488" stroke-linejoin="round" d="M 42.9806,33.2788C 42.7155,32.9314 42.5532,32.5154 42.4442,32.0933C 42.2408,31.3116 42.2095,30.4712 42.4701,29.7062C 42.8114,28.7059 43.6655,27.8906 44.6903,27.5874C 45.3463,27.3931 46.0937,27.4129 46.6735,27.7718C 48.7261,29.0419 48.3474,32.8819 46.4389,34.0148C 45.1855,34.7584 43.8271,34.3859 42.9806,33.2788 Z "/>
			<path fill="#D64B42" fill-opacity="1" stroke-width="0.68488" stroke-linejoin="round" d="M 44.7589,31.032C 44.7345,31.0167 44.7269,30.9855 44.7413,30.9611L 44.8015,30.939C 45.293,31.0876 45.8255,30.9299 46.1265,30.6198C 46.093,30.3463 46.0137,30.0781 45.8812,29.8411C 45.6891,29.5059 45.4133,29.2087 44.9966,29.0838L 44.9897,29.0815C 44.9554,29.0708 44.9272,29.0426 44.9189,29.0053C 44.9059,28.9497 44.941,28.8948 44.9973,28.8826C 45.5284,28.7638 46.0838,29.0807 46.3992,29.4983C 46.7276,29.9272 46.8732,30.4666 46.8312,30.9946C 46.7954,31.5188 46.5562,32.0461 46.1646,32.3935C 45.7829,32.7448 45.2671,32.9474 44.7665,32.8262C 45.1985,32.6518 45.5383,32.3767 45.7768,32.0491C 45.9718,31.7779 46.0838,31.4754 46.1257,31.1608C 45.6549,31.3192 45.1444,31.2643 44.7589,31.032 Z "/>
			<path fill="#DF8758" fill-opacity="1" stroke-width="0.68488" stroke-linejoin="round" d="M 42.0495,29.0487C 40.6537,29.0023 40.7421,26.942 40.7383,25.9775C 40.7353,25.1729 40.7353,24.363 40.6118,23.5661C 40.3695,21.9988 39.5756,20.6693 37.8248,20.5763C 36.9943,20.5322 36.2004,20.8803 35.4316,21.1942C 33.7265,21.8906 31.7471,22.4461 30.0846,21.6552C 29.44,21.3489 28.899,20.8598 28.2644,20.5337C 26.8076,19.7847 24.8907,20.027 23.6724,21.1135C 21.76,22.8186 22.5722,25.4228 22.4686,27.6483C 22.448,28.0956 22.4038,28.5558 22.1966,28.955C 21.9893,29.3535 21.584,29.6811 21.1299,29.6758C 20.7528,29.6704 20.416,29.438 20.1935,29.1325C 20.2781,31.5157 20.3558,33.8998 20.512,36.28C 20.6941,39.0716 20.7177,41.5531 21.9512,44.1642C 23.0331,46.4545 25.9543,47.979 28.3734,48.5238C 30.9554,49.1051 33.8232,49.019 36.3345,48.1596C 41.1871,46.5002 43.104,42.4179 43.1185,37.5775C 43.1276,34.5573 43.104,31.4761 43.2693,28.4293C 43.011,28.8179 42.6286,29.0685 42.0495,29.0487 Z "/>
			<path fill="#372527" fill-opacity="1" stroke-width="0.68488" stroke-linejoin="round" d="M 47.3775,9.33826C 47.1063,9.17825 46.7627,9.17371 46.4579,9.25671C 45.6503,9.47614 43.9368,10.4019 43.4484,11.0739C 44.1196,10.2244 44.6103,9.23465 44.8785,8.19006C 44.9981,7.7215 45.0522,7.16452 44.7155,6.81406C 44.2956,6.37595 43.5634,6.53824 42.9989,6.76758C 40.9707,7.59119 39.1391,8.88113 37.6907,10.5055C 38.2446,9.41599 38.7977,8.32645 39.3509,7.23691C 39.5886,6.7699 39.8225,6.19464 39.5391,5.75427C 39.1467,5.14548 38.1989,5.36951 37.5551,5.71158C 35.5093,6.79807 33.7333,8.37595 32.4236,10.2701C 33.0415,9.13864 33.5238,7.93561 33.8575,6.69293C 34.0556,5.95465 34.0145,4.89789 33.2556,4.74701C 32.9547,4.68759 32.6507,4.81482 32.3741,4.94739C 29.7097,6.2251 27.4476,8.30817 25.9726,10.843C 26.2095,10.1832 27.4911,6.21823 25.6495,6.62891C 25.4614,6.67084 25.2945,6.77673 25.1375,6.88797C 24.1448,7.59274 23.1169,8.7699 22.4107,9.75882C 21.4819,11.0579 20.8815,12.667 20.4991,14.1992C 19.6457,17.6118 19.8248,21.1821 20.0092,24.6929C 20.0861,26.1664 20.141,27.6483 20.1935,29.1325C 20.416,29.438 20.7528,29.6704 21.1299,29.6758C 21.584,29.6811 21.9893,29.3535 22.1966,28.955C 22.4038,28.5558 22.448,28.0956 22.4686,27.6483C 22.5722,25.4228 21.76,22.8186 23.6724,21.1135C 24.8907,20.027 26.8076,19.7847 28.2644,20.5337C 28.899,20.8598 29.44,21.3489 30.0846,21.6552C 31.7471,22.4461 33.7265,21.8906 35.4316,21.1942C 36.2004,20.8803 36.9943,20.5322 37.8248,20.5763C 39.5756,20.6693 40.3695,21.9988 40.6118,23.5661C 40.7353,24.363 40.7353,25.1729 40.7383,25.9775C 40.7421,26.942 40.6537,29.0023 42.0495,29.0487C 42.6286,29.0685 43.011,28.8179 43.2693,28.4293C 43.5566,23.1523 44.413,17.9805 47.0057,13.4182C 47.6198,12.3364 48.9074,10.2442 47.3775,9.33826 Z "/>
			<path fill="#D64B42" fill-opacity="1" stroke-width="0.68488" stroke-linejoin="round" d="M 31.4705,26.0011C 30.8556,26.6 30.5569,28.4857 30.4236,29.1158C 30.1646,30.3432 30.0343,31.5958 29.9551,32.8461C 29.9086,33.5684 29.9307,34.3173 30.2316,34.9771C 30.5334,35.6362 31.1688,36.1885 31.9017,36.2114C 34.5577,36.2944 33.7471,32.011 33.5848,30.4042C 33.4979,29.5463 33.2861,25.3024 31.7151,25.8419C 31.6282,25.8716 31.5467,25.9264 31.4705,26.0011 Z "/>
			<path fill="#2E2C35" fill-opacity="1" stroke-width="0.68488" stroke-linejoin="round" d="M 37.757,28.9032C 37.757,29.7687 37.3059,30.4697 36.7482,30.4697C 36.1913,30.4697 35.7402,29.7687 35.7402,28.9032C 35.7402,28.0377 36.1913,27.336 36.7482,27.336C 37.3059,27.336 37.757,28.0377 37.757,28.9032 Z "/>
			<path fill="#2E2C35" fill-opacity="1" stroke-width="0.68488" stroke-linejoin="round" d="M 27.5939,28.9032C 27.5939,29.7687 27.1429,30.4697 26.5859,30.4697C 26.0282,30.4697 25.5771,29.7687 25.5771,28.9032C 25.5771,28.0377 26.0282,27.336 26.5859,27.336C 27.1429,27.336 27.5939,28.0377 27.5939,28.9032 Z "/>
			<path fill="#D64B42" fill-opacity="1" stroke-width="0.68488" stroke-linejoin="round" d="M 27.8674,38.0323C 28.0579,38.1443 28.3886,38.3021 28.6873,38.3798C 28.9928,38.4788 29.3135,38.5527 29.6419,38.5969C 30.2956,38.699 30.9737,38.7318 31.6534,38.728C 32.3337,38.7287 33.0065,38.6724 33.6663,38.571C 34.3071,38.4659 34.9981,38.2686 35.4949,38.0049L 35.5657,37.9684C 35.7471,37.8716 35.9734,37.9409 36.0693,38.123C 36.1524,38.2792 36.1128,38.4674 35.9848,38.5786C 35.325,39.1523 34.624,39.3916 33.8857,39.595C 33.1528,39.7863 32.4031,39.8586 31.6625,39.8685C 30.9211,39.8708 30.1714,39.8213 29.4316,39.6331C 28.688,39.4312 27.9718,39.211 27.3212,38.552C 27.1779,38.4072 27.1794,38.1733 27.3242,38.0308C 27.4461,37.9105 27.6297,37.8922 27.7699,37.9752L 27.8674,38.0323 Z "/>
			<path fill="#2D2023" fill-opacity="1" stroke-width="0.68488" stroke-linejoin="round" d="M 24.4648,25.2438C 25.216,24.3973 26.3513,23.8838 27.5581,23.9013L 27.581,23.9013C 27.9444,23.9066 28.2347,24.2061 28.2293,24.5695C 28.224,24.9329 27.9254,25.2232 27.5619,25.2186C 27.5215,25.2179 27.4789,25.2126 27.4408,25.2049C 26.6431,25.0434 25.709,25.2537 25.0141,25.8083L 25.0073,25.8144C 24.8366,25.9501 24.5882,25.9226 24.4518,25.752C 24.3299,25.5996 24.3398,25.3847 24.4648,25.2438 Z "/>
			<path fill="#2D2023" fill-opacity="1" stroke-width="0.68488" stroke-linejoin="round" d="M 37.8545,25.8076C 37.1589,25.2529 36.2248,25.0442 35.4278,25.2065C 35.0713,25.2788 34.7238,25.0487 34.6507,24.6922C 34.5783,24.3356 34.8084,23.9882 35.165,23.9158C 35.2046,23.9074 35.2434,23.9036 35.2823,23.9028L 35.309,23.9021C 36.5158,23.8838 37.6511,24.3965 38.4031,25.2422C 38.5478,25.4053 38.5334,25.6544 38.3703,25.8C 38.224,25.9295 38.0092,25.931 37.8613,25.8137L 37.8545,25.8076 Z "/>
			<path fill="#D64B42" fill-opacity="1" stroke-width="0.68488" stroke-linejoin="round" d="M 30.0808,41.3497C 30.3566,41.544 30.6773,41.6841 30.9722,41.7748C 31.2747,41.8617 31.5833,41.8929 31.9017,41.8792C 32.5334,41.8602 33.1848,41.6202 33.824,41.3055L 33.8484,41.2933C 33.9467,41.2453 34.0648,41.2857 34.1128,41.3832C 34.1455,41.4495 34.1371,41.5257 34.0983,41.5828C 33.8537,41.9356 33.5421,42.2038 33.1718,42.4095C 32.8046,42.6144 32.381,42.7417 31.9436,42.763C 31.5093,42.7889 31.0545,42.7021 30.6636,42.4887C 30.2705,42.2762 29.9612,41.9554 29.792,41.5379C 29.7554,41.4495 29.7989,41.3481 29.8873,41.3116C 29.9436,41.2888 30.0053,41.2979 30.0518,41.3299L 30.0808,41.3497 Z "/>
		</g>
	</g>
</svg>
