<?xml version="1.0" encoding="utf-8"?>
<!DOCTYPE svg PUBLIC "-//W3C//DTD SVG 1.1//EN" "http://www.w3.org/Graphics/SVG/1.1/DTD/svg11.dtd">
<svg xmlns="http://www.w3.org/2000/svg" xmlns:xlink="http://www.w3.org/1999/xlink" version="1.1" baseProfile="full" width="60" height="60" viewBox="0 0 60.00 60.00" enable-background="new 0 0 60.00 60.00" xml:space="preserve">
	<g>
		<path fill="#9A9A9A" fill-opacity="1" stroke-width="0.2" stroke-linejoin="round" d="M 15,6.10352e-005L 45,6.10352e-005C 53.2843,6.10352e-005 60,6.71576 60,15.0001L 60,45.0001C 60,53.2842 53.2843,60 45,60L 15,60C 6.7157,60 0,53.2842 0,45.0001L 0,15.0001C 0,6.71576 6.7157,6.10352e-005 15,6.10352e-005 Z "/>
		<defs>
			<path id="SVG_CLIPPER1_" d="M 15,6.10352e-005L 45,6.10352e-005C 53.2843,6.10352e-005 60,6.71576 60,15.0001L 60,45.0001C 60,53.2842 53.2843,60 45,60L 15,60C 6.7157,60 0,53.2842 0,45.0001L 0,15.0001C 0,6.71576 6.7157,6.10352e-005 15,6.10352e-005 Z "/>
		</defs>
		<clipPath id="SVG_CLIPPER2_">
			<use xlink:href="#SVG_CLIPPER1_" overflow="visible"/>
		</clipPath>
		<g clip-path="url(#SVG_CLIPPER2_)">
			<g>
				<path fill="#76CE7B" fill-opacity="1" stroke-width="0.2" stroke-linejoin="round" d="M 15,0.00012207L 45,0.00012207C 53.2843,0.00012207 60,6.71588 60,15.0001L 60,45.0001C 60,53.2844 53.2843,60.0001 45,60.0001L 15,60.0001C 6.71558,60.0001 0,53.2844 0,45.0001L 0,15.0001C 0,6.71588 6.71558,0.00012207 15,0.00012207 Z "/>
				<g>
					<g>
						<linearGradient id="SVGID_Fill1_" gradientUnits="objectBoundingBox" x1="0.416345" y1="1.10459" x2="1.02805" y2="1.10459" gradientTransform="rotate(-90.000000 0.416345 1.104594)">
							<stop offset="0" stop-color="#B6B6B6" stop-opacity="1"/>
							<stop offset="0.513043" stop-color="#DADADA" stop-opacity="1"/>
							<stop offset="1" stop-color="#FFFFFF" stop-opacity="1"/>
						</linearGradient>
						<path fill="url(#SVGID_Fill1_)" stroke-width="2" stroke-linejoin="round" stroke="#000000" stroke-opacity="1" d="M 50.2556,59.512C 50.2556,59.512 47.6287,28.1915 44.073,23.074C 40.5173,17.9565 17.1062,17.9565 17.1062,17.9565C 17.106,17.9565 9.76526,29.1295 8.44971,33.9331C 7.13428,38.7368 4.75,59.5679 4.75,59.5679"/>
						<linearGradient id="SVGID_Fill2_" gradientUnits="objectBoundingBox" x1="0.395772" y1="1.13728" x2="0.9549" y2="1.13728" gradientTransform="rotate(-90.000000 0.395772 1.137285)">
							<stop offset="0" stop-color="#B6B6B6" stop-opacity="1"/>
							<stop offset="0.513043" stop-color="#DADADA" stop-opacity="1"/>
							<stop offset="1" stop-color="#FFFFFF" stop-opacity="1"/>
						</linearGradient>
						<path fill="url(#SVGID_Fill2_)" stroke-width="2" stroke-linejoin="round" stroke="#000000" stroke-opacity="1" d="M 5.03687,57.6703C 5.03687,57.6703 8.24658,32.019 10.7196,26.6257C 13.1926,21.2323 21.634,12.5504 25.6348,12.5504C 29.6357,12.5504 43.7112,10.4456 46.9998,15.8389C 50.2883,21.2323 53.1722,28.0453 51.8567,28.1768C 50.5409,28.3084 27.0872,29.2977 22.8119,27.7191"/>
						<path fill="#000000" fill-opacity="1" stroke-width="0.2" stroke-linejoin="round" d="M 45.6726,21.7259C 45.1643,21.7259 44.7524,22.1379 44.7524,22.6462C 44.7524,23.1544 45.1643,23.5665 45.6726,23.5665C 46.1809,23.5665 46.5929,23.1544 46.5929,22.6462C 46.5929,22.1379 46.1809,21.7259 45.6726,21.7259 Z "/>
						<path fill="#000000" fill-opacity="1" stroke-width="0.2" stroke-linejoin="round" d="M 31.4659,22.466C 30.9576,22.466 30.5457,22.878 30.5457,23.3862C 30.5457,23.8945 30.9576,24.3065 31.4659,24.3065C 31.9742,24.3065 32.3862,23.8945 32.3862,23.3862C 32.3862,22.878 31.9742,22.466 31.4659,22.466 Z "/>
						<path fill="#EAAFAF" fill-opacity="0.803922" stroke-width="0.2" stroke-linejoin="round" d="M 26.9653,22.7618C 26.0872,22.7618 25.3752,23.4738 25.3752,24.3519C 25.3752,25.2301 26.0872,25.942 26.9653,25.942C 27.8435,25.942 28.5554,25.2301 28.5554,24.3519C 28.5554,23.4738 27.8435,22.7618 26.9653,22.7618 Z "/>
						<path fill="none" stroke-width="2" stroke-linejoin="round" stroke="#000000" stroke-opacity="1" d="M 49.1522,40.2563L 50.0073,41.9664C 50.0071,41.9664 42.678,50.9115 41.2781,50.8458C 39.8782,50.78 37.905,51.0431 37.905,51.0431L 38.9574,48.0507L 41.2781,52.3585L 38.8258,52.7532L 38.8258,49.7276L 39.6809,51.635"/>
					</g>
					<path fill="none" stroke-width="2" stroke-linejoin="round" stroke="#000000" stroke-opacity="1" d="M 18.6487,40.9686C 18.6487,40.9686 25.5859,56.0313 27.4612,55.0936C 29.1226,54.2627 34.8574,43.6662 36.1423,41.2632C 36.3074,40.9544 36.3989,40.7809 36.3988,40.7809L 33.6176,37.5934L 36.1801,40.8643L 35.4301,34.0934L 36.5134,41.6559L 38.5967,32.7601L 36.7426,39.5518C 36.7426,39.5518 39.1591,37.1561 39.6801,38.2601C 40.2009,39.3643 40.3676,40.2184 40.3676,40.2184C 40.3676,40.2184 40.2007,38.6769 39.0967,38.4476C 37.9926,38.2184 37.2426,39.8018 37.2426,39.8018C 37.2426,39.8018 36.4716,42.1978 37.3467,42.5726C 38.2217,42.9476 39.4716,42.6978 39.8259,42.1559C 40.1804,41.614 36.5966,43.4686 36.2217,42.9893"/>
				</g>
			</g>
		</g>
	</g>
</svg>
