<?xml version="1.0" encoding="utf-8"?>
<!DOCTYPE svg PUBLIC "-//W3C//DTD SVG 1.1//EN" "http://www.w3.org/Graphics/SVG/1.1/DTD/svg11.dtd">
<svg xmlns="http://www.w3.org/2000/svg" xmlns:xlink="http://www.w3.org/1999/xlink" version="1.1" baseProfile="full" width="60" height="60" viewBox="0 0 60.00 60.00" enable-background="new 0 0 60.00 60.00" xml:space="preserve">
	<g>
		<path fill="#9A9A9A" fill-opacity="1" stroke-width="0.2" stroke-linejoin="round" d="M 15,6.10352e-005L 44.9999,6.10352e-005C 53.2842,6.10352e-005 59.9999,6.71576 59.9999,15.0001L 59.9999,45.0001C 59.9999,53.2842 53.2842,60 44.9999,60L 15,60C 6.71558,60 0,53.2842 0,45.0001L 0,15.0001C 0,6.71576 6.71558,6.10352e-005 15,6.10352e-005 Z "/>
		<defs>
			<path id="SVG_CLIPPER1_" d="M 15,6.10352e-005L 44.9999,6.10352e-005C 53.2842,6.10352e-005 59.9999,6.71576 59.9999,15.0001L 59.9999,45.0001C 59.9999,53.2842 53.2842,60 44.9999,60L 15,60C 6.71558,60 0,53.2842 0,45.0001L 0,15.0001C 0,6.71576 6.71558,6.10352e-005 15,6.10352e-005 Z "/>
		</defs>
		<clipPath id="SVG_CLIPPER2_">
			<use xlink:href="#SVG_CLIPPER1_" overflow="visible"/>
		</clipPath>
		<g clip-path="url(#SVG_CLIPPER2_)">
			<g>
				<path fill="#A28BE0" fill-opacity="1" stroke-width="0.2" stroke-linejoin="round" d="M 14.9999,0.00012207L 44.9999,0.00012207C 53.2842,0.00012207 59.9999,6.71588 59.9999,15.0001L 59.9999,45.0001C 59.9999,53.2844 53.2842,60.0001 44.9999,60.0001L 14.9999,60.0001C 6.71558,60.0001 -0.00012207,53.2844 -0.00012207,45.0001L -0.00012207,15.0001C -0.00012207,6.71588 6.71558,0.00012207 14.9999,0.00012207 Z "/>
				<g>
					<linearGradient id="SVGID_Fill1_" gradientUnits="objectBoundingBox" x1="0.583657" y1="1.10459" x2="1.19536" y2="1.10459" gradientTransform="rotate(-90.000000 0.583657 1.104592)">
						<stop offset="0" stop-color="#B6B6B6" stop-opacity="1"/>
						<stop offset="0.513043" stop-color="#DADADA" stop-opacity="1"/>
						<stop offset="1" stop-color="#FFFFFF" stop-opacity="1"/>
					</linearGradient>
					<path fill="url(#SVGID_Fill1_)" stroke-width="2" stroke-linejoin="round" stroke="#000000" stroke-opacity="1" d="M 7.39758,59.6338C 7.39758,59.6338 10.0245,28.3133 13.5802,23.1958C 17.136,18.0782 40.5472,18.0782 40.5472,18.0782C 40.5472,18.0782 47.888,29.2512 49.2036,34.0549C 50.519,38.8585 52.9033,59.6898 52.9033,59.6898"/>
					<linearGradient id="SVGID_Fill2_" gradientUnits="objectBoundingBox" x1="0.583946" y1="1.13728" x2="1.14307" y2="1.13728" gradientTransform="rotate(-90.000000 0.583946 1.137285)">
						<stop offset="0" stop-color="#B6B6B6" stop-opacity="1"/>
						<stop offset="0.513043" stop-color="#DADADA" stop-opacity="1"/>
						<stop offset="1" stop-color="#FFFFFF" stop-opacity="1"/>
					</linearGradient>
					<path fill="url(#SVGID_Fill2_)" stroke-width="2" stroke-linejoin="round" stroke="#000000" stroke-opacity="1" d="M 52.616,57.7922C 52.616,57.7922 49.4064,32.1409 46.9333,26.7476C 44.4603,21.3542 36.0189,12.6722 32.0181,12.6722C 28.0171,12.6722 13.9417,10.5674 10.6532,15.9608C 7.3645,21.3542 7.23291,26.4844 8.54846,26.616C 9.86426,26.7476 30.5657,29.4196 34.8411,27.841"/>
					<path fill="#000000" fill-opacity="1" stroke-width="0.2" stroke-linejoin="round" d="M 11.9801,21.8478C 12.4883,21.8478 12.9004,22.2598 12.9004,22.7681C 12.9004,23.2763 12.4883,23.6883 11.9801,23.6883C 11.4718,23.6883 11.0598,23.2763 11.0598,22.7681C 11.0598,22.2598 11.4718,21.8478 11.9801,21.8478 Z "/>
					<path fill="#000000" fill-opacity="1" stroke-width="0.2" stroke-linejoin="round" d="M 26.1871,22.5878C 26.6953,22.5878 27.1074,22.9998 27.1074,23.5081C 27.1074,24.0163 26.6953,24.4283 26.1871,24.4283C 25.6788,24.4283 25.2668,24.0163 25.2668,23.5081C 25.2668,22.9998 25.6788,22.5878 26.1871,22.5878 Z "/>
					<path fill="#EAAFAF" fill-opacity="0.803922" stroke-width="0.2" stroke-linejoin="round" d="M 30.6877,22.8837C 31.5659,22.8837 32.2778,23.5956 32.2778,24.4738C 32.2778,25.3519 31.5659,26.0638 30.6877,26.0638C 29.8096,26.0638 29.0977,25.3519 29.0977,24.4738C 29.0977,23.5956 29.8096,22.8837 30.6877,22.8837 Z "/>
					<path fill="none" stroke-width="2" stroke-linejoin="round" stroke="#000000" stroke-opacity="1" d="M 38.9534,41.0359L 19.7478,52.7434L 20.9976,49.5206L 23.2339,52.1514L 21.1292,54.1246L 20.7345,51.428L 21.6553,51.2964"/>
					<path fill="none" stroke-width="2" stroke-linejoin="round" stroke="#000000" stroke-opacity="1" d="M 8.50073,40.3782L 7.64563,42.0883C 7.64575,42.0883 14.9749,51.0333 16.3749,50.9675C 17.7748,50.9018 19.7479,51.1649 19.7479,51.1649L 18.6956,48.1725L 16.3749,52.4803L 18.8271,52.8749L 18.8271,49.8494L 17.972,51.7568"/>
				</g>
			</g>
		</g>
	</g>
</svg>
