<?xml version="1.0" encoding="utf-8"?>
<!DOCTYPE svg PUBLIC "-//W3C//DTD SVG 1.1//EN" "http://www.w3.org/Graphics/SVG/1.1/DTD/svg11.dtd">
<svg xmlns="http://www.w3.org/2000/svg" xmlns:xlink="http://www.w3.org/1999/xlink" version="1.1" baseProfile="full" width="64" height="64" viewBox="0 0 64.00 64.00" enable-background="new 0 0 64.00 64.00" xml:space="preserve">
	<g>
		<rect x="1.52588e-005" y="0" fill="#52ADAE" fill-opacity="1" stroke-width="2.05464" stroke-linecap="round" stroke-linejoin="round" width="64" height="64"/>
		<g>
			<path fill="#D7852D" fill-opacity="1" stroke-width="2.05464" stroke-linecap="round" stroke-linejoin="round" d="M 11.6712,32.2262C 10.8956,25.1199 13.0403,17.6273 17.7497,12.4396C 22.4598,7.25177 29.7337,4.60947 36.4323,6.06317C 38.9222,6.60413 41.5942,7.82928 42.2022,10.5127C 42.4697,10.9462 43.6057,10.8144 44.0338,10.9059C 45.0258,11.1176 45.9935,11.603 46.8179,12.1782C 48.9946,13.6959 50.4156,17.4117 51.1432,19.8278C 52.8331,25.4392 52.731,31.4415 51.1127,37.0559C 50.0689,40.6788 48.9641,44.5767 46.4308,47.4285C 45.5866,48.3794 44.9039,49.4491 43.9836,50.3154C 43.7938,50.4937 42.5382,51.3706 42.5436,51.5664C 42.5131,50.499 42.3371,49.4819 42.1687,48.4327C 41.8152,48.9821 41.6049,49.6175 41.2689,50.1805C 41.0838,50.4906 40.1443,51.4178 40.1451,51.7158C 40.1428,50.7535 40.1413,49.7912 40.1397,48.8297C 39.6887,49.8887 39.0883,50.8853 38.3615,51.7828C 38.5093,50.6681 38.2754,49.6418 38.2754,48.5295C 37.7733,49.6099 37.1896,50.6483 36.5314,51.6327C 36.254,50.9066 35.9767,50.1805 35.7001,49.4544C 35.4716,50.1378 35.1165,50.7748 34.6601,51.3196C 34.1253,50.3763 33.4274,49.5337 32.6106,48.8456C 32.5238,49.7142 32.3424,50.5737 32.072,51.4003C 31.5051,50.3611 30.9619,49.3036 30.3615,48.2834C 30.3211,48.9622 28.8354,50.7878 29.0327,51.2464C 28.5611,50.147 27.9226,49.1176 27.1462,48.2018C 26.9695,49.1619 26.8346,50.1295 26.7409,51.1002C 25.8731,50.1203 25.0053,49.1405 24.1375,48.1607C 24.0994,49.2982 24.1481,50.4388 24.283,51.5695C 23.3176,50.0281 22.2777,48.5333 21.1683,47.0902C 21.32,48.4601 21.5264,49.8247 21.7862,51.1794C 20.6068,49.8194 19.2186,48.8731 18.0819,47.4514C 15.8533,44.6651 14.0849,41.4674 12.9451,38.0342C 12.3211,36.1539 11.8876,34.2042 11.6712,32.2262 Z "/>
			<path fill="#DF8C62" fill-opacity="1" stroke-width="2.05464" stroke-linecap="round" stroke-linejoin="round" d="M 36.6327,50.1729L 36.6327,42.9661C 36.6327,40.7802 34.8201,38.9919 32.6045,38.9919L 30.6624,38.9919C 28.4476,38.9919 26.635,40.7802 26.635,42.9661L 26.635,50.3512C 24.3302,51.1443 22.8262,52.4426 22.8262,53.91C 22.8262,56.3253 26.894,58.2834 31.9119,58.2834C 36.9298,58.2834 40.9977,56.3253 40.9977,53.91C 40.9977,52.3268 39.2498,50.9401 36.6327,50.1729 Z "/>
			<path fill="#ECA375" fill-opacity="1" stroke-width="2.05464" stroke-linecap="round" stroke-linejoin="round" d="M 43.2057,25.8239C 42.6243,25.4536 42.0217,25.1199 41.6788,24.8274C 39.4266,22.9073 37.8891,20.5119 36.8316,17.7843C 34.68,20.4335 31.8777,22.1912 28.7599,23.5817C 27.947,23.9436 19.3047,26.5919 19.3047,26.6468C 19.3154,29.6639 19.8655,32.4479 20.68,35.3417C 21.8693,39.5672 23.95,44.1714 27.9843,46.4236C 30.3935,47.7676 34.3622,47.6014 36.4742,45.8293C 38.3462,44.2582 39.4777,42.7336 40.5733,40.502C 42.4209,36.7352 43.7992,32.7435 44.6662,28.6468C 44.7599,28.2026 44.8476,27.7371 44.7219,27.3005C 44.568,26.7626 43.902,26.2674 43.2057,25.8239 Z "/>
			<path fill="#ECA375" fill-opacity="1" stroke-width="2.05464" stroke-linecap="round" stroke-linejoin="round" d="M 42.3858,35.0224C 42.2175,34.7192 42.139,34.3755 42.1017,34.0319C 42.0331,33.3965 42.1062,32.7344 42.3988,32.1638C 42.7821,31.4178 43.5462,30.8754 44.3851,30.7527C 44.9215,30.675 45.5051,30.774 45.9181,31.1207C 47.3801,32.3481 46.6388,35.3157 45.0114,35.9885C 43.9432,36.4304 42.9207,35.9855 42.3858,35.0224 Z "/>
			<path fill="#E16150" fill-opacity="1" stroke-width="2.05464" stroke-linecap="round" stroke-linejoin="round" d="M 44.0399,33.4605L 44.0841,33.3934C 44.4521,33.5649 44.8872,33.5009 45.1599,33.2921C 45.1653,33.0742 45.134,32.8548 45.0571,32.6537C 44.9459,32.3694 44.7638,32.1051 44.4514,31.9603L 44.4468,31.9581C 44.4209,31.9459 44.4018,31.9207 44.3996,31.8902C 44.3958,31.8453 44.43,31.8064 44.4758,31.8026C 44.9055,31.7698 45.3047,32.0807 45.5036,32.4434C 45.7108,32.8167 45.7626,33.2563 45.6681,33.6647C 45.5798,34.0723 45.3314,34.4586 44.9839,34.6864C 44.6441,34.9188 44.216,35.0201 43.838,34.8685C 44.1969,34.7802 44.4948,34.6034 44.7196,34.3733C 44.9039,34.1828 45.0274,33.9581 45.0959,33.7158C 44.7089,33.7874 44.315,33.6868 44.0399,33.4605 Z "/>
			<path fill="#ECA375" fill-opacity="1" stroke-width="2.05464" stroke-linecap="round" stroke-linejoin="round" d="M 21.294,35.0224C 21.4624,34.7192 21.5409,34.3755 21.5782,34.0319C 21.6468,33.3965 21.5736,32.7344 21.2811,32.1638C 20.8979,31.4178 20.1337,30.8754 19.2956,30.7527C 18.7584,30.675 18.1748,30.774 17.7618,31.1207C 16.2997,32.3481 17.0411,35.3157 18.6685,35.9885C 19.7367,36.4304 20.7592,35.9855 21.294,35.0224 Z "/>
			<path fill="#E16150" fill-opacity="1" stroke-width="2.05464" stroke-linecap="round" stroke-linejoin="round" d="M 19.6407,33.4605L 19.5965,33.3934C 19.2278,33.5649 18.7927,33.5009 18.5207,33.2921C 18.5154,33.0742 18.5466,32.8548 18.6228,32.6537C 18.734,32.3694 18.9169,32.1051 19.2285,31.9603L 19.2339,31.9581C 19.259,31.9459 19.278,31.9207 19.2803,31.8902C 19.2841,31.8453 19.2498,31.8064 19.2049,31.8026C 18.7744,31.7698 18.3759,32.0807 18.1771,32.4434C 17.9691,32.8167 17.9181,33.2563 18.0117,33.6647C 18.1001,34.0723 18.3485,34.4586 18.696,34.6864C 19.0357,34.9188 19.464,35.0201 19.8419,34.8685C 19.483,34.7802 19.1851,34.6034 18.9603,34.3733C 18.7759,34.1828 18.6525,33.9581 18.584,33.7158C 18.971,33.7874 19.3657,33.6868 19.6407,33.4605 Z "/>
			<path fill="#2E2C35" fill-opacity="1" stroke-width="2.05464" stroke-linecap="round" stroke-linejoin="round" d="M 39.5394,29.7272C 39.2323,29.9177 38.8278,29.9474 38.4826,29.8278C 38.4818,29.7919 38.4773,29.7584 38.475,29.7226C 38.5855,29.7241 38.6967,29.7333 38.8057,29.7158C 39.1562,29.6586 39.4906,29.5032 39.7504,29.2609C 39.8685,29.1497 39.8738,28.9645 39.7611,28.848C 39.6491,28.7314 39.4617,28.7268 39.3436,28.8373C 39.0975,29.0674 38.7401,29.174 38.3988,29.1473C 38.2297,28.3954 37.8289,27.8636 37.3672,27.8712C 36.7683,27.8819 36.2982,28.7893 36.3173,29.8986C 36.3371,31.0079 36.8377,31.8994 37.4357,31.8895C 37.9287,31.8811 38.3287,31.2617 38.446,30.4258C 38.6944,30.4868 38.9542,30.5013 39.2072,30.4601C 39.435,30.4228 39.6559,30.3436 39.8533,30.2209C 39.9919,30.1356 40.0338,29.9557 39.947,29.8194C 39.8609,29.6822 39.6758,29.6418 39.5394,29.7272 Z "/>
			<path fill="#2E2C35" fill-opacity="1" stroke-width="2.05464" stroke-linecap="round" stroke-linejoin="round" d="M 24.5557,29.7272C 24.8628,29.9177 25.2681,29.9474 25.6133,29.8278C 25.614,29.7919 25.6186,29.7584 25.6201,29.7226C 25.5097,29.7241 25.3992,29.7333 25.2895,29.7158C 24.9398,29.6586 24.6053,29.5032 24.3455,29.2609C 24.2266,29.1497 24.222,28.9645 24.334,28.848C 24.4468,28.7314 24.6342,28.7268 24.7516,28.8373C 24.9984,29.0674 25.3558,29.174 25.6971,29.1473C 25.8655,28.3954 26.267,27.8636 26.7287,27.8712C 27.3276,27.8819 27.7969,28.7893 27.7778,29.8986C 27.7588,31.0079 27.2582,31.8994 26.6594,31.8895C 26.1672,31.8811 25.7664,31.2617 25.6491,30.4258C 25.4015,30.4868 25.1417,30.5013 24.8887,30.4601C 24.6609,30.4228 24.4392,30.3436 24.2426,30.2209C 24.1039,30.1356 24.062,29.9557 24.1489,29.8194C 24.235,29.6822 24.4194,29.6418 24.5557,29.7272 Z "/>
			<path fill="#D51D59" fill-opacity="1" stroke-width="2.05464" stroke-linecap="round" stroke-linejoin="round" d="M 30.3599,39.1161C 30.8514,39.0925 31.3192,39.2678 31.7611,39.4384C 32.3249,39.0598 33.1318,38.8769 33.8304,39.0689C 35.8792,39.6327 35.0776,41.1984 33.4876,41.7622C 32.2518,42.2003 30.4826,42.0952 29.4502,41.366C 28.2335,40.5066 28.6578,39.1962 30.3599,39.1161 Z "/>
			<path fill="#BA3F3D" fill-opacity="1" stroke-width="2.05464" stroke-linecap="round" stroke-linejoin="round" d="M 27.6239,39.2746C 28.2639,39.6259 28.9977,39.8491 29.7108,40.0167C 30.4354,40.1691 31.1737,40.2552 31.9181,40.2651C 32.6594,40.2872 33.3939,40.2202 34.1085,40.0518C 34.8125,39.8712 35.5287,39.6038 36.1199,39.1359L 36.1306,39.1268C 36.1664,39.0986 36.219,39.1047 36.2472,39.1405C 36.2693,39.1687 36.27,39.2076 36.2518,39.2365C 35.8045,39.9375 35.0883,40.4182 34.3226,40.7184C 33.5531,41.0239 32.7234,41.1473 31.9097,41.1459C 31.099,41.139 30.2807,41.0316 29.502,40.7786C 28.7241,40.5219 27.9874,40.1485 27.3878,39.5497C 27.3169,39.4788 27.3169,39.3645 27.3878,39.2936C 27.4456,39.2357 27.534,39.2251 27.6026,39.2632L 27.6239,39.2746 Z "/>
			<path fill="#E16150" fill-opacity="1" stroke-width="2.05464" stroke-linecap="round" stroke-linejoin="round" d="M 30.1542,34.2239C 30.238,35.4308 30.8575,36.8609 32.296,36.5752C 33.9241,36.2521 33.8121,33.6182 33.4708,32.3969C 33.1516,31.2533 33.1318,30.0266 32.8415,28.8677C 32.7775,28.6148 32.7036,28.3557 32.5382,28.1523C 32.0102,27.5039 31.3062,27.9679 31.1706,28.5988C 30.907,29.8239 30.6441,31.0491 30.3805,32.2742C 30.2578,32.8456 30.1352,33.4224 30.1443,34.006C 30.1458,34.0776 30.1489,34.15 30.1542,34.2239 Z "/>
			<path fill="#CE7327" fill-opacity="1" stroke-width="2.05464" stroke-linecap="round" stroke-linejoin="round" d="M 36.8087,25.3531C 38.222,25.0331 39.6468,25.8117 40.142,27.0354C 40.1916,27.1588 40.1321,27.2982 40.0095,27.3477C 39.8959,27.3935 39.7687,27.347 39.71,27.2434L 39.707,27.238C 39.1889,26.3177 37.9447,25.9329 37.0914,26.2895C 36.8407,26.3946 36.5527,26.2765 36.4476,26.0258C 36.3432,25.7752 36.4613,25.4872 36.7119,25.3828C 36.7379,25.3714 36.7638,25.363 36.7904,25.3569L 36.8087,25.3531 Z "/>
			<path fill="#CE7327" fill-opacity="1" stroke-width="2.05464" stroke-linecap="round" stroke-linejoin="round" d="M 27.2872,26.2895C 26.4339,25.9329 25.1896,26.3177 24.6708,27.238L 24.6685,27.2434C 24.603,27.3584 24.4567,27.3996 24.3417,27.3348C 24.235,27.2746 24.1916,27.1458 24.2365,27.0354C 24.7318,25.8117 26.1565,25.0331 27.5699,25.3531L 27.5851,25.3569C 27.8502,25.4163 28.0163,25.6799 27.9561,25.9443C 27.8967,26.2095 27.6331,26.3755 27.3687,26.3154C 27.3413,26.3093 27.3123,26.3001 27.2872,26.2895 Z "/>
		</g>
	</g>
</svg>
