<?xml version="1.0" encoding="utf-8"?>
<!DOCTYPE svg PUBLIC "-//W3C//DTD SVG 1.1//EN" "http://www.w3.org/Graphics/SVG/1.1/DTD/svg11.dtd">
<svg xmlns="http://www.w3.org/2000/svg" xmlns:xlink="http://www.w3.org/1999/xlink" version="1.1" baseProfile="full" width="64" height="64" viewBox="0 0 64.00 64.00" enable-background="new 0 0 64.00 64.00" xml:space="preserve">
	<g>
		<rect x="1.52588e-005" y="0" fill="#919191" fill-opacity="1" stroke-width="2.05464" stroke-linecap="round" stroke-linejoin="round" width="64" height="64"/>
		<g>
			<path fill="#E79C6C" fill-opacity="1" stroke-width="2.05464" stroke-linecap="round" stroke-linejoin="round" d="M 45.2198,35.0261C 44.963,34.6901 44.8068,34.2886 44.7009,33.881C 44.5043,33.1259 44.4747,32.3145 44.7261,31.5754C 45.056,30.6094 45.8811,29.8216 46.8708,29.529C 47.504,29.3416 48.2263,29.3599 48.7863,29.7065C 50.7687,30.934 50.403,34.6429 48.56,35.737C 47.3493,36.4547 46.0365,36.0958 45.2198,35.0261 Z "/>
			<path fill="#E16150" fill-opacity="1" stroke-width="2.05464" stroke-linecap="round" stroke-linejoin="round" d="M 46.9371,32.8555L 46.9203,32.7877L 46.9783,32.7663C 47.4529,32.9095 47.9664,32.7572 48.2583,32.4578C 48.2255,32.1934 48.1485,31.9343 48.0206,31.7057C 47.8354,31.3812 47.5687,31.0947 47.1664,30.9736L 47.1604,30.972C 47.1268,30.9614 47.0994,30.9347 47.091,30.8989C 47.0788,30.8448 47.1131,30.7914 47.1672,30.7793C 47.68,30.665 48.2164,30.9713 48.5211,31.3743C 48.8381,31.7888 48.979,32.3099 48.9379,32.8196C 48.9036,33.3263 48.6727,33.8353 48.2941,34.1705C 47.9261,34.5096 47.4278,34.7061 46.944,34.5888C 47.3615,34.4204 47.6899,34.1553 47.92,33.8383C 48.1082,33.5762 48.2171,33.2844 48.2567,32.9797C 47.8019,33.1335 47.3089,33.0802 46.9371,32.8555 Z "/>
			<path fill="#DA7F59" fill-opacity="1" stroke-width="2.05464" stroke-linecap="round" stroke-linejoin="round" d="M 37.6678,51.4383L 37.6678,41.1815C 37.6678,38.7465 35.8484,36.7534 33.6243,36.7534L 30.9288,36.7534C 28.7047,36.7534 26.8853,38.7465 26.8853,41.1815L 26.8853,51.4383C 24.835,52.249 23.5154,53.5099 23.5154,54.9271C 23.5154,57.3728 27.4377,59.3553 32.2765,59.3553C 37.1146,59.3553 41.0369,57.3728 41.0369,54.9271C 41.0369,53.5099 39.7181,52.249 37.6678,51.4383 Z "/>
			<path fill="#E79C6C" fill-opacity="1" stroke-width="2.05464" stroke-linecap="round" stroke-linejoin="round" d="M 46.3931,21.8993C 45.6723,14.3313 41.6655,7.47644 33.0544,7.2829C 25.6594,7.11755 20.3466,12.3122 18.7718,19.0833C 17.872,22.95 17.9184,27.1625 18.3695,31.0947C 18.8358,35.1617 19.7386,39.9465 22.5432,43.132C 25.1001,46.0356 29.0392,47.7004 32.9333,47.5229C 34.3444,47.4589 35.7394,47.1519 37.0529,46.6406C 45.3508,43.4071 46.8022,30.8829 46.4899,23.3217C 46.47,22.8456 46.4381,22.3709 46.3931,21.8993 Z "/>
			<path fill="#E79C6C" fill-opacity="1" stroke-width="2.05464" stroke-linecap="round" stroke-linejoin="round" d="M 18.7802,35.0261C 19.0369,34.6901 19.1931,34.2886 19.299,33.881C 19.4948,33.1259 19.5253,32.3145 19.2731,31.5754C 18.944,30.6094 18.1188,29.8216 17.1291,29.529C 16.496,29.3416 15.7737,29.3599 15.2137,29.7065C 13.2312,30.934 13.5969,34.6429 15.44,35.737C 16.6506,36.4547 17.9634,36.0958 18.7802,35.0261 Z "/>
			<path fill="#E16150" fill-opacity="1" stroke-width="2.05464" stroke-linecap="round" stroke-linejoin="round" d="M 17.0628,32.8555L 17.0796,32.7877L 17.0217,32.7663C 16.547,32.9095 16.0335,32.7572 15.7417,32.4578C 15.7744,32.1934 15.8514,31.9343 15.9794,31.7057C 16.1645,31.3812 16.4312,31.0947 16.8335,30.9736L 16.8396,30.972C 16.8731,30.9614 16.9005,30.9347 16.9089,30.8989C 16.9211,30.8448 16.8868,30.7914 16.8327,30.7793C 16.32,30.665 15.7836,30.9713 15.4788,31.3743C 15.1619,31.7888 15.0209,32.3099 15.0621,32.8196C 15.0964,33.3263 15.3272,33.8353 15.7059,34.1705C 16.0739,34.5096 16.5722,34.7061 17.056,34.5888C 16.6384,34.4204 16.3101,34.1553 16.08,33.8383C 15.8918,33.5762 15.7828,33.2844 15.7432,32.9797C 16.1981,33.1335 16.691,33.0802 17.0628,32.8555 Z "/>
			<path fill="#A4322B" fill-opacity="1" stroke-width="2.05464" stroke-linecap="round" stroke-linejoin="round" d="M 15.488,28.6482C 15.5299,28.8699 15.6,29.084 15.7059,29.2844C 15.9268,29.7034 16.2918,30.0334 16.6903,30.2947C 17.4598,30.7991 18.4419,31.0749 19.3211,30.7938C 20.2484,30.4974 20.9043,29.6158 21.0986,28.6741C 21.2929,27.7324 21.0803,26.7458 20.6941,25.8627C 20.7977,26.0997 22.3901,25.4924 22.5683,25.4101C 23.1276,25.1503 23.6137,24.809 23.9771,24.3061C 24.7504,23.2379 24.8099,21.7126 24.1219,20.5896C 26.2803,21.1968 28.8053,19.8619 29.4895,17.7522C 31.0766,19.1595 33.744,19.1656 35.3379,17.7652C 34.7847,18.2513 36.8564,19.6372 37.1527,19.7446C 38.2415,20.1385 39.2449,19.8795 40.2057,19.3134C 39.9946,20.2901 40.1204,21.3446 40.611,22.2185C 41.0758,23.046 41.8286,23.8619 42.8038,24.0463C 42.9394,24.0722 43.0994,24.1019 43.1588,24.2254C 43.1908,24.2924 43.1832,24.3701 43.1763,24.4433C 43.0582,25.6913 43.3135,27.4863 44.0906,28.5134C 45.2754,30.0806 47.4971,30.0494 48.4708,28.3671C 49.4506,26.6741 49.3828,24.428 48.0541,22.921C 48.0045,22.8654 47.952,22.8067 47.9337,22.7343C 47.9093,22.6383 47.9512,22.5385 47.9901,22.4471C 48.8617,20.4296 48.9714,18.3275 47.7333,16.4128C 47.6518,16.2856 46.5745,15.0856 46.531,15.1633C 47.7371,13.001 45.7485,9.87869 43.251,10.0121C 42.8465,8.38309 42.0381,6.74347 40.579,5.88251C 39.1199,5.02155 36.9211,5.26993 36.0884,6.73203C 33.9604,4.1149 29.4362,3.91528 27.0796,6.33508C 27.3234,6.08517 25.4247,5.39795 25.2541,5.37738C 24.5074,5.289 23.7181,5.45508 23.0522,5.79337C 21.616,6.52328 20.4731,7.9968 20.3482,9.60748C 20.3345,9.78348 20.4647,11.3004 20.6605,11.2669C 19.1604,11.5229 18.1554,11.9694 17.4125,13.3865C 17.1306,13.9229 16.8906,14.5995 16.9432,15.212C 16.9935,15.8086 17.4255,16.3694 17.2411,16.985C 17.1588,17.2593 16.9508,17.4756 16.7657,17.6959C 15.1413,19.625 14.9973,22.6277 16.4289,24.6993C 15.6922,25.8353 15.2274,27.2943 15.488,28.6482 Z "/>
			<path fill="#2E2C35" fill-opacity="1" stroke-width="2.05464" stroke-linecap="round" stroke-linejoin="round" d="M 28.6263,29.3347C 28.6263,30.3655 28.0678,31.2021 27.379,31.2021C 26.6903,31.2021 26.131,30.3655 26.131,29.3347C 26.131,28.3031 26.6903,27.4665 27.379,27.4665C 28.0678,27.4665 28.6263,28.3031 28.6263,29.3347 Z "/>
			<path fill="#2E2C35" fill-opacity="1" stroke-width="2.05464" stroke-linecap="round" stroke-linejoin="round" d="M 38.9462,29.3347C 38.9462,30.3655 38.3878,31.2021 37.6982,31.2021C 37.0095,31.2021 36.451,30.3655 36.451,29.3347C 36.451,28.3031 37.0095,27.4665 37.6982,27.4665C 38.3878,27.4665 38.9462,28.3031 38.9462,29.3347 Z "/>
			<path fill="#7E2824" fill-opacity="1" stroke-width="2.05464" stroke-linecap="round" stroke-linejoin="round" d="M 36.8365,24.4974C 38.2065,24.46 39.4613,25.1846 40.0922,26.265C 40.1661,26.3922 40.1234,26.5553 39.9962,26.6292C 39.8834,26.6955 39.7424,26.6688 39.6602,26.5736L 39.6564,26.569C 38.976,25.7797 37.8628,25.452 36.9668,25.6646C 36.6491,25.74 36.3299,25.5435 36.2545,25.2257C 36.1798,24.9081 36.3756,24.5896 36.6933,24.5141C 36.7329,24.505 36.7718,24.4997 36.8107,24.4981L 36.8365,24.4974 Z "/>
			<path fill="#7E2824" fill-opacity="1" stroke-width="2.05464" stroke-linecap="round" stroke-linejoin="round" d="M 28.0122,25.6646C 27.1154,25.452 26.003,25.7797 25.3226,26.569L 25.3188,26.5736C 25.2228,26.6848 25.0544,26.697 24.9432,26.601C 24.8442,26.5157 24.8236,26.3739 24.8868,26.265C 25.5177,25.1846 26.7725,24.46 28.1424,24.4974L 28.1653,24.4981C 28.4914,24.5073 28.7489,24.7793 28.7398,25.1054C 28.7306,25.4315 28.4594,25.689 28.1325,25.6806C 28.0921,25.6791 28.0502,25.673 28.0122,25.6646 Z "/>
			<path fill="#E16150" fill-opacity="1" stroke-width="2.05464" stroke-linecap="round" stroke-linejoin="round" d="M 32.8465,28.2871C 32.8007,28.2794 32.755,28.2841 32.7093,28.3046C 31.7943,28.7107 31.2868,31.2897 31.107,32.1545C 30.9394,32.9621 30.864,33.8398 31.2358,34.5781C 31.6564,35.4117 32.7261,35.8376 33.5771,35.356C 34.3916,34.8958 34.5981,33.7537 34.5516,32.8905C 34.5036,31.9854 34.1935,31.0787 33.9184,30.2238C 33.7973,29.8475 33.3196,28.3716 32.8465,28.2871 Z "/>
			<path fill="#E16150" fill-opacity="1" stroke-width="2.05464" stroke-linecap="round" stroke-linejoin="round" d="M 28.3382,38.3405C 28.851,39.1252 29.5123,39.5739 30.3398,39.9305L 30.9699,40.2109C 31.1718,40.278 31.3531,40.3686 31.5543,40.4143C 31.9436,40.5446 32.3573,40.5667 32.7642,40.5812C 33.587,40.5766 34.4061,40.329 35.1344,39.8985C 35.8605,39.4581 36.467,38.8227 36.9066,38.0273L 36.9097,38.0212C 36.9646,37.9221 37.0903,37.8856 37.1893,37.9412C 37.2693,37.9854 37.3082,38.0745 37.2922,38.1599C 37.1055,39.1427 36.512,40.0593 35.6944,40.6978C 34.8785,41.3393 33.8422,41.7164 32.7809,41.737C 32.2529,41.7454 31.7158,41.6753 31.2145,41.4977C 30.9569,41.4338 30.723,41.2905 30.4884,41.1862C 30.2826,41.0711 30.0693,40.9598 29.8605,40.8296C 29.4423,40.5728 29.0125,40.2642 28.6712,39.8589C 28.3314,39.4528 28.099,38.9751 27.9916,38.4897C 27.9672,38.3869 28.0304,38.2833 28.1333,38.2589C 28.2133,38.2399 28.2948,38.2764 28.3382,38.3405 Z "/>
		</g>
	</g>
</svg>
