<?xml version="1.0" encoding="utf-8"?>
<!DOCTYPE svg PUBLIC "-//W3C//DTD SVG 1.1//EN" "http://www.w3.org/Graphics/SVG/1.1/DTD/svg11.dtd">
<svg xmlns="http://www.w3.org/2000/svg" xmlns:xlink="http://www.w3.org/1999/xlink" version="1.1" baseProfile="full" width="60" height="60" viewBox="0 0 60.00 60.00" enable-background="new 0 0 60.00 60.00" xml:space="preserve">
	<g>
		<path fill="#9A9A9A" fill-opacity="1" stroke-width="0.2" stroke-linejoin="round" d="M 15,6.10352e-005L 45,6.10352e-005C 53.2843,6.10352e-005 60,6.71576 60,15.0001L 60,45.0001C 60,53.2843 53.2843,60.0001 45,60.0001L 15,60.0001C 6.7157,60.0001 0,53.2843 0,45.0001L 0,15.0001C 0,6.71576 6.7157,6.10352e-005 15,6.10352e-005 Z "/>
		<defs>
			<path id="SVG_CLIPPER1_" d="M 15,6.10352e-005L 45,6.10352e-005C 53.2843,6.10352e-005 60,6.71576 60,15.0001L 60,45.0001C 60,53.2843 53.2843,60.0001 45,60.0001L 15,60.0001C 6.7157,60.0001 0,53.2843 0,45.0001L 0,15.0001C 0,6.71576 6.7157,6.10352e-005 15,6.10352e-005 Z "/>
		</defs>
		<clipPath id="SVG_CLIPPER2_">
			<use xlink:href="#SVG_CLIPPER1_" overflow="visible"/>
		</clipPath>
		<g clip-path="url(#SVG_CLIPPER2_)">
			<g>
				<path fill="#869BCB" fill-opacity="1" stroke-width="0.2" stroke-linejoin="round" d="M 15,6.10352e-005L 45,6.10352e-005C 53.2843,6.10352e-005 60,6.71582 60,15.0001L 60,45.0001C 60,53.2844 53.2843,60.0001 45,60.0001L 15,60.0001C 6.71558,60.0001 0,53.2844 0,45.0001L 0,15.0001C 0,6.71582 6.71558,6.10352e-005 15,6.10352e-005 Z "/>
				<g>
					<g>
						<linearGradient id="SVGID_Fill1_" gradientUnits="objectBoundingBox" x1="0.583659" y1="1.10459" x2="1.19536" y2="1.10459" gradientTransform="rotate(-90.000000 0.583659 1.104593)">
							<stop offset="0" stop-color="#B6B6B6" stop-opacity="1"/>
							<stop offset="0.513043" stop-color="#DADADA" stop-opacity="1"/>
							<stop offset="1" stop-color="#FFFFFF" stop-opacity="1"/>
						</linearGradient>
						<path fill="url(#SVGID_Fill1_)" stroke-width="2" stroke-linejoin="round" stroke="#000000" stroke-opacity="1" d="M 8.46436,59.5482C 8.46436,59.5482 11.1523,27.4995 14.7908,22.2631C 18.4292,17.0266 42.3845,17.0266 42.3845,17.0266C 42.3848,17.0266 49.8961,28.4593 51.2422,33.3746C 52.5883,38.2899 55.028,59.6054 55.028,59.6054"/>
						<linearGradient id="SVGID_Fill2_" gradientUnits="objectBoundingBox" x1="0.569962" y1="1.13423" x2="1.11664" y2="1.13423" gradientTransform="rotate(-90.000000 0.569962 1.134229)">
							<stop offset="0" stop-color="#B6B6B6" stop-opacity="1"/>
							<stop offset="0.513043" stop-color="#DADADA" stop-opacity="1"/>
							<stop offset="1" stop-color="#FFFFFF" stop-opacity="1"/>
						</linearGradient>
						<path fill="url(#SVGID_Fill2_)" stroke-width="2" stroke-linejoin="round" stroke="#000000" stroke-opacity="1" d="M 54.7341,57.6638C 54.7341,57.6638 51.4498,31.4161 48.9193,25.8974C 46.3888,20.3787 37.7512,11.4948 33.6573,11.4948C 29.5634,11.4948 15.8967,7.37958 12.5317,12.8983C 9.16663,18.4171 10.333,20.7968 11.6792,20.9314C 13.0254,21.066 32.1711,28.6315 36.5459,27.0163"/>
						<path fill="#000000" fill-opacity="1" stroke-width="0.2" stroke-linejoin="round" d="M 15.4128,16.3056C 15.9329,16.3056 16.3545,16.7272 16.3545,17.2473C 16.3545,17.7673 15.9329,18.1889 15.4128,18.1889C 14.8927,18.1889 14.4711,17.7673 14.4711,17.2473C 14.4711,16.7272 14.8927,16.3056 15.4128,16.3056 Z "/>
						<path fill="#000000" fill-opacity="1" stroke-width="0.2" stroke-linejoin="round" d="M 27.6908,21.6409C 28.2109,21.6409 28.6324,22.0625 28.6324,22.5826C 28.6324,23.1027 28.2109,23.5242 27.6908,23.5242C 27.1707,23.5242 26.7491,23.1027 26.7491,22.5826C 26.7491,22.0625 27.1707,21.6409 27.6908,21.6409 Z "/>
						<path fill="#EAAFAF" fill-opacity="0.803922" stroke-width="0.2" stroke-linejoin="round" d="M 32.2959,21.9437C 33.1945,21.9437 33.9229,22.6722 33.9229,23.5707C 33.9229,24.4694 33.1945,25.1978 32.2959,25.1978C 31.3972,25.1978 30.6688,24.4694 30.6688,23.5707C 30.6688,22.6722 31.3972,21.9437 32.2959,21.9437 Z "/>
					</g>
					<path fill="none" stroke-width="2" stroke-linejoin="round" stroke="#000000" stroke-opacity="1" d="M 10.2299,40.2685L 3.57874,45.0437L 26.8574,55.1908L 27.2838,52.0358L 23.3613,54.5086L 25.8342,55.4466L 27.2838,55.9583"/>
					<path fill="none" stroke-width="2" stroke-linejoin="round" stroke="#000000" stroke-opacity="1" d="M 33.9351,45.129L 26.687,54.8498L 5.28394,47.687L 6.39246,44.4467L 6.68481,47.4111L 6.98938,50.5009L 4.09021,48.7955L 7.84204,46.3226"/>
					<path fill="#000000" fill-opacity="1" stroke-width="2" stroke-linejoin="round" stroke="#000000" stroke-opacity="1" d="M 37.7939,25.4865L 35.8408,22.7685L 29.9916,20.1639L 13.7156,13.6551L 14.6108,17.3004L 19.2476,19.0591L 21.9016,17.2684L 22.541,20.8498L 27.3055,23.0242L 30.9829,20.9777"/>
				</g>
			</g>
		</g>
	</g>
</svg>
