<?xml version="1.0" encoding="utf-8"?>
<!DOCTYPE svg PUBLIC "-//W3C//DTD SVG 1.1//EN" "http://www.w3.org/Graphics/SVG/1.1/DTD/svg11.dtd">
<svg xmlns="http://www.w3.org/2000/svg" xmlns:xlink="http://www.w3.org/1999/xlink" version="1.1" baseProfile="full" width="60" height="60" viewBox="0 0 60.00 60.00" enable-background="new 0 0 60.00 60.00" xml:space="preserve">
	<g>
		<path fill="#9A9A9A" fill-opacity="1" stroke-width="0.2" stroke-linejoin="round" d="M 15,6.10352e-005L 45,6.10352e-005C 53.2842,6.10352e-005 60,6.71576 60,15.0001L 60,45.0001C 60,53.2842 53.2842,60 45,60L 15,60C 6.71564,60 0,53.2842 0,45.0001L 0,15.0001C 0,6.71576 6.71564,6.10352e-005 15,6.10352e-005 Z "/>
		<defs>
			<path id="SVG_CLIPPER1_" d="M 15,6.10352e-005L 45,6.10352e-005C 53.2842,6.10352e-005 60,6.71576 60,15.0001L 60,45.0001C 60,53.2842 53.2842,60 45,60L 15,60C 6.71564,60 0,53.2842 0,45.0001L 0,15.0001C 0,6.71576 6.71564,6.10352e-005 15,6.10352e-005 Z "/>
		</defs>
		<clipPath id="SVG_CLIPPER2_">
			<use xlink:href="#SVG_CLIPPER1_" overflow="visible"/>
		</clipPath>
		<g clip-path="url(#SVG_CLIPPER2_)">
			<g>
				<path fill="#CE5555" fill-opacity="1" stroke-width="0.2" stroke-linejoin="round" d="M 15.0001,0.00012207L 45.0001,0.00012207C 53.2844,0.00012207 60.0001,6.71588 60.0001,15.0001L 60.0001,45.0001C 60.0001,53.2844 53.2844,60.0001 45.0001,60.0001L 15.0001,60.0001C 6.71576,60.0001 6.10352e-005,53.2844 6.10352e-005,45.0001L 6.10352e-005,15.0001C 6.10352e-005,6.71588 6.71576,0.00012207 15.0001,0.00012207 Z "/>
				<g>
					<g>
						<linearGradient id="SVGID_Fill1_" gradientUnits="objectBoundingBox" x1="0.416343" y1="1.10459" x2="1.02805" y2="1.10459" gradientTransform="rotate(-90.000000 0.416343 1.104593)">
							<stop offset="0" stop-color="#B6B6B6" stop-opacity="1"/>
							<stop offset="0.513043" stop-color="#DADADA" stop-opacity="1"/>
							<stop offset="1" stop-color="#FFFFFF" stop-opacity="1"/>
						</linearGradient>
						<path fill="url(#SVGID_Fill1_)" stroke-width="2" stroke-linejoin="round" stroke="#000000" stroke-opacity="1" d="M 46.2731,60.136C 46.2731,60.136 43.597,28.2296 39.9749,23.0164C 36.3526,17.8032 12.5035,17.8032 12.5035,17.8032C 12.5034,17.8032 5.02539,29.1851 3.68524,34.0786C 2.34515,38.9721 -0.0837402,60.193 -0.0837402,60.193"/>
						<linearGradient id="SVGID_Fill2_" gradientUnits="objectBoundingBox" x1="0.416055" y1="1.13729" x2="0.975183" y2="1.13729" gradientTransform="rotate(-90.000000 0.416055 1.137286)">
							<stop offset="0" stop-color="#B6B6B6" stop-opacity="1"/>
							<stop offset="0.513043" stop-color="#DADADA" stop-opacity="1"/>
							<stop offset="1" stop-color="#FFFFFF" stop-opacity="1"/>
						</linearGradient>
						<path fill="url(#SVGID_Fill2_)" stroke-width="2" stroke-linejoin="round" stroke="#000000" stroke-opacity="1" d="M 0.208984,58.2599C 0.208984,58.2599 3.47858,32.1288 5.99786,26.6346C 8.51715,21.1404 17.1165,12.296 21.1921,12.296C 25.2679,12.296 39.6066,10.1519 42.9566,15.6461C 46.3068,21.1404 46.4409,26.3666 45.1008,26.5006C 44.0604,26.6046 28.7393,29.517 21.1257,28.8439C 18.9301,28.6498 18.643,26.5411 18.9186,25.2997"/>
						<path fill="#000000" fill-opacity="1" stroke-width="0.2" stroke-linejoin="round" d="M 41.6046,21.6432C 41.0867,21.6432 40.6671,22.0629 40.6671,22.5807C 40.6671,23.0984 41.0867,23.5182 41.6046,23.5182C 42.1223,23.5182 42.5421,23.0984 42.5421,22.5807C 42.5421,22.0629 42.1223,21.6432 41.6046,21.6432 Z "/>
						<path fill="#000000" fill-opacity="1" stroke-width="0.2" stroke-linejoin="round" d="M 27.1323,22.397C 26.6144,22.397 26.1948,22.8168 26.1948,23.3345C 26.1948,23.8523 26.6144,24.272 27.1323,24.272C 27.65,24.272 28.0698,23.8523 28.0698,23.3345C 28.0698,22.8168 27.65,22.397 27.1323,22.397 Z "/>
						<path fill="#EAAFAF" fill-opacity="0.803922" stroke-width="0.2" stroke-linejoin="round" d="M 21.6667,20.0904C 20.2863,20.0904 19.1673,21.2094 19.1673,22.5898C 19.1673,23.9703 20.2863,25.0893 21.6667,25.0893C 23.0472,25.0893 24.1663,23.9703 24.1663,22.5898C 24.1663,21.2094 23.0472,20.0904 21.6667,20.0904 Z "/>
					</g>
					<path fill="none" stroke-width="2" stroke-linejoin="round" stroke="#000000" stroke-opacity="1" d="M 17.5085,40.9418L 23.6845,52.1177L 38.419,50.8442L 35.0814,52.0539L 38.419,54.0913L 33.8716,50.685L 34.3492,54.2823L 33.0759,52.0539"/>
					<path fill="none" stroke-width="2" stroke-linejoin="round" stroke="#000000" stroke-opacity="1" d="M 42.8956,36.5654L 47.0179,36.4565L 54.019,49.484L 53.204,46.0287L 56.7363,47.7064L 51.3962,45.7658L 54.668,44.196L 52.106,44.3504"/>
					<path fill="#7BD0D3" fill-opacity="1" stroke-width="0.2" stroke-linejoin="round" d="M 23.8892,30.0786C 23.8892,30.0786 23.3889,33.8615 24.5439,34.0704C 25.699,34.2794 26.7068,33.3123 27.2924,32.4299C 27.8777,31.5479 29.4489,29.1189 30.2427,30.1664C 31.0361,31.2141 33.379,29.2529 33.379,29.2529L 23.9545,29.9467"/>
				</g>
			</g>
		</g>
	</g>
</svg>
