<?xml version="1.0" encoding="utf-8"?>
<!DOCTYPE svg PUBLIC "-//W3C//DTD SVG 1.1//EN" "http://www.w3.org/Graphics/SVG/1.1/DTD/svg11.dtd">
<svg xmlns="http://www.w3.org/2000/svg" xmlns:xlink="http://www.w3.org/1999/xlink" version="1.1" baseProfile="full" width="64" height="64" viewBox="0 0 64.00 64.00" enable-background="new 0 0 64.00 64.00" xml:space="preserve">
	<g>
		<rect x="1.52588e-005" y="0" fill="#919191" fill-opacity="1" stroke-width="2.05464" stroke-linecap="round" stroke-linejoin="round" width="64" height="64"/>
		<g>
			<path fill="#343B43" fill-opacity="1" stroke-width="0.68488" stroke-linejoin="round" d="M 31.3298,5.60855C 25.022,4.58987 18.3477,7.66418 14.6905,12.8367C 11.0334,18.0085 10.35,24.9746 12.4703,30.9236C 13.694,34.3545 15.79,37.5331 16.2425,41.143C 16.5541,43.6306 16.0338,46.2135 14.782,48.3948C 14.0787,49.62 13.1507,50.7263 12.6212,52.033C 12.0917,53.3404 12.0482,54.9792 13.0121,56.017C 13.8235,56.8909 15.1713,57.1217 16.3431,56.8634C 17.5157,56.6044 18.5473,55.9316 19.505,55.2162C 20.2768,56.6531 22.3378,57.015 23.8448,56.356C 26.8406,55.0455 26.734,51.4227 29.7222,50.0398C 31.5218,49.207 35.2094,49.121 36.5077,50.9122C 37.8601,52.7796 39.1942,58.308 42.7561,55.38C 43.5995,54.6866 43.953,53.4669 43.6086,52.4383C 44.132,53.796 45.2132,54.9907 46.6189,55.4203C 49.0525,56.1647 51.1263,54.3925 50.8216,51.9606C 50.4216,48.772 48.6045,45.7975 48.7248,42.5869C 48.814,40.2288 49.9401,38.0512 50.7835,35.8425C 53.1568,29.6284 53.2216,23.4425 50.814,17.2703C 48.9968,12.6097 44.8825,6.78418 39.0883,7.57501C 38.1382,7.70456 37.198,8.04514 36.4825,8.6752C 35.7039,6.81921 33.1904,5.90875 31.3298,5.60855 Z "/>
			<path fill="#DF8C62" fill-opacity="1" stroke-width="0.68488" stroke-linejoin="round" d="M 36.0963,50.3087L 36.0963,43.1019C 36.0963,40.916 34.7203,39.1278 33.0387,39.1278L 31.5652,39.1278C 29.8837,39.1278 28.5077,40.916 28.5077,43.1019L 28.5077,50.4871C 26.7583,51.2802 25.617,52.5785 25.617,54.0459C 25.617,56.4619 28.7042,58.4192 32.513,58.4192C 36.3225,58.4192 39.4098,56.4619 39.4098,54.0459C 39.4098,52.4626 38.0833,51.076 36.0963,50.3087 Z "/>
			<path fill="#ECA375" fill-opacity="1" stroke-width="0.68488" stroke-linejoin="round" d="M 45.7694,33.2436C 45.5256,33.7145 45.1919,34.1221 44.7294,34.3849C 41.5637,36.1823 41.2102,28.3377 44.6578,28.3758C 45.3945,28.3842 46.0223,28.9868 46.2563,29.6763C 46.4901,30.3659 46.4048,31.1202 46.2509,31.831C 46.1473,32.3118 45.9972,32.8047 45.7694,33.2436 Z "/>
			<path fill="#E16150" fill-opacity="1" stroke-width="0.68488" stroke-linejoin="round" d="M 43.8799,31.377L 43.9286,31.3046C 44.3218,31.4973 44.7911,31.4371 45.089,31.2177C 45.0989,30.9838 45.07,30.7469 44.9922,30.5289C 44.878,30.2204 44.6875,29.9331 44.3553,29.7701L 44.35,29.7678C 44.3218,29.7541 44.302,29.7266 44.3004,29.6939C 44.2974,29.6451 44.3347,29.604 44.3842,29.601C 44.8475,29.5743 45.2704,29.9171 45.4768,30.3118C 45.6924,30.7179 45.7382,31.1918 45.6284,31.6299C 45.5248,32.0665 45.249,32.4771 44.8703,32.7156C 44.4993,32.9586 44.0368,33.0585 43.633,32.8878C 44.0208,32.8002 44.3454,32.6158 44.5923,32.3727C 44.7949,32.1716 44.932,31.9324 45.0113,31.6725C 44.593,31.7419 44.1709,31.6253 43.8799,31.377 Z "/>
			<path fill="#ECA375" fill-opacity="1" stroke-width="0.68488" stroke-linejoin="round" d="M 19.0555,33.2436C 19.2993,33.7145 19.633,34.1221 20.0955,34.3849C 23.2612,36.1823 23.6155,28.3377 20.1679,28.3758C 19.4303,28.3842 18.8033,28.9868 18.5686,29.6763C 18.3347,30.3659 18.4201,31.1202 18.574,31.831C 18.6783,32.3118 18.8277,32.8047 19.0555,33.2436 Z "/>
			<path fill="#E16150" fill-opacity="1" stroke-width="0.68488" stroke-linejoin="round" d="M 20.9458,31.377L 20.8962,31.3046C 20.5039,31.4973 20.0338,31.4371 19.7366,31.2177C 19.726,30.9838 19.7549,30.7469 19.8334,30.5289C 19.9469,30.2204 20.1374,29.9331 20.4703,29.7701L 20.4757,29.7678C 20.5031,29.7541 20.5229,29.7266 20.5244,29.6939C 20.5275,29.6451 20.4902,29.604 20.4406,29.601C 19.9774,29.5743 19.5545,29.9171 19.3488,30.3118C 19.1332,30.7179 19.0867,31.1918 19.1964,31.6299C 19.3008,32.0665 19.5759,32.4771 19.9553,32.7156C 20.3256,32.9586 20.7881,33.0585 21.1919,32.8878C 20.8041,32.8002 20.4795,32.6158 20.2326,32.3727C 20.03,32.1716 19.8928,31.9324 19.8136,31.6725C 20.2319,31.7419 20.654,31.6253 20.9458,31.377 Z "/>
			<path fill="#ECA375" fill-opacity="1" stroke-width="0.68488" stroke-linejoin="round" d="M 40.0033,18.5205C 39.2841,19.0806 38.5039,19.6649 37.5888,19.7289C 36.6745,19.7922 35.6513,19.063 35.79,18.1686C 35.2437,18.9274 34.6654,19.7137 33.8281,20.1411C 32.9907,20.5678 31.8136,20.5045 31.2658,19.7472C 30.8582,19.1849 30.9031,18.4109 31.1309,17.7571C 30.654,19.127 29.2886,20.3811 27.8364,20.6623C 27.0677,20.8109 25.8403,20.5472 25.2421,20.0611C 24.7972,19.7 24.4863,19.2047 24.2166,18.7027C 23.8715,20.375 23.5073,22.0443 23.1256,23.7099C 22.817,25.0547 22.7591,26.5274 22.2052,27.7952C 22.0513,28.1472 21.8143,28.5244 21.4311,28.5853C 21.3374,28.5998 21.2368,28.596 21.1568,28.6455C 21.0181,28.7308 21.0143,28.9251 21.0265,29.0859C 21.2101,31.4653 21.5736,33.7731 22.286,36.0619C 22.9404,38.1632 23.8509,40.1594 25.0227,41.943C 27.23,45.3015 32.1686,47.0988 35.9652,45.4737C 39.217,44.0825 40.7903,39.9072 41.9431,36.8657C 42.5229,35.3373 43.0136,33.7747 43.3907,32.1861C 43.3907,31.2725 43.8433,30.4863 43.9606,29.6071C 44.0673,28.8093 43.4509,28.7324 43.2315,27.9316C 43.1042,27.4699 43.1111,26.9853 43.1195,26.5076C 43.1271,26.0291 43.1347,25.5507 43.1423,25.0722C 43.1454,24.8863 43.1461,24.6897 43.0517,24.5282C 42.974,24.3941 42.8414,24.3019 42.7172,24.2082C 41.8494,23.5507 41.3884,22.6257 40.9016,21.6939C 40.7043,21.3167 39.5751,18.8535 40.0033,18.5205 Z "/>
			<path fill="#2E2C35" fill-opacity="1" stroke-width="0.68488" stroke-linejoin="round" d="M 39.2079,27.7556C 38.9374,27.8951 38.5808,27.9171 38.2768,27.8295C 38.2761,27.8029 38.2715,27.7784 38.27,27.7526C 38.3675,27.7533 38.465,27.7602 38.561,27.7472C 38.8696,27.7053 39.1644,27.591 39.393,27.4128C 39.4974,27.3312 39.502,27.1956 39.4029,27.1095C 39.3039,27.0234 39.1385,27.0204 39.0349,27.1019C 38.8178,27.271 38.5031,27.3495 38.2029,27.3297C 38.0543,26.7773 37.7008,26.3864 37.294,26.3925C 36.7675,26.3994 36.3538,27.0661 36.3705,27.8813C 36.3873,28.6966 36.8277,29.351 37.3549,29.3442C 37.7885,29.3381 38.1412,28.8824 38.2448,28.2684C 38.4635,28.3133 38.6921,28.324 38.9145,28.2935C 39.1149,28.2668 39.31,28.2082 39.4837,28.1183C 39.6056,28.0558 39.6422,27.9232 39.566,27.8227C 39.4898,27.7221 39.3275,27.6924 39.2079,27.7556 Z "/>
			<path fill="#2E2C35" fill-opacity="1" stroke-width="0.68488" stroke-linejoin="round" d="M 26.2288,27.7556C 26.4993,27.8951 26.8559,27.9171 27.1599,27.8295C 27.1606,27.8029 27.1644,27.7784 27.1667,27.7526C 27.0692,27.7533 26.9717,27.7602 26.8749,27.7472C 26.5671,27.7053 26.2722,27.591 26.0437,27.4128C 25.9393,27.3312 25.9347,27.1956 26.0338,27.1095C 26.1328,27.0234 26.2974,27.0204 26.4018,27.1019C 26.6189,27.271 26.9336,27.3495 27.2338,27.3297C 27.3823,26.7773 27.7359,26.3864 28.142,26.3925C 28.6692,26.3994 29.0829,27.0661 29.0662,27.8813C 29.0494,28.6966 28.609,29.351 28.0818,29.3442C 27.6483,29.3381 27.2955,28.8824 27.1919,28.2684C 26.9732,28.3133 26.7446,28.324 26.5222,28.2935C 26.3218,28.2668 26.1267,28.2082 25.953,28.1183C 25.8311,28.0558 25.7938,27.9232 25.8707,27.8227C 25.9462,27.7221 26.1092,27.6924 26.2288,27.7556 Z "/>
			<path fill="#E16150" fill-opacity="1" stroke-width="0.68488" stroke-linejoin="round" d="M 31.0029,31.3777C 30.9549,31.7937 30.9587,32.2036 31.0418,32.5929C 31.1263,32.9922 31.3953,33.3846 31.8387,33.5697C 32.4795,33.7861 33.2909,33.5956 33.6902,33.1346C 34.0574,32.7095 34.0635,32.1495 34.0246,31.6314C 33.9835,31.0889 33.7206,26.8687 32.1473,28.0878C 31.9599,28.2333 31.8723,28.4413 31.7961,28.6417C 31.4791,29.4729 31.1104,30.4406 31.0029,31.3777 Z "/>
			<path fill="none" stroke-width="2.05464" stroke-linecap="round" stroke-linejoin="round" stroke="#343B43" stroke-opacity="1" d="M 37.3092,22.6227C 38.1785,22.6927 39.0044,23.1773 39.4814,23.8988"/>
			<path fill="#AB1E49" fill-opacity="1" stroke-width="2.05464" stroke-linecap="round" stroke-linejoin="round" d="M 32.0802,35.7206C 32.2326,35.7731 32.3736,35.8226 32.5435,35.7861C 32.7439,35.7434 32.9404,35.623 33.1393,35.591C 33.3983,35.5491 33.7161,35.6467 33.9515,35.7465C 34.6151,36.0269 34.3896,36.7469 33.8075,36.9998C 33.2033,37.2626 32.4208,37.2184 31.7793,37.1636C 31.5568,37.1445 31.3313,37.1217 31.1195,37.0508C 30.9077,36.98 30.7073,36.8566 30.5823,36.6729C 30.3385,36.3134 30.4993,35.9286 30.8696,35.748C 31.201,35.5872 31.5774,35.572 31.9294,35.6718C 31.982,35.6863 32.0315,35.7038 32.0802,35.7206 Z "/>
			<path fill="#AB1E49" fill-opacity="1" stroke-width="2.05464" stroke-linecap="round" stroke-linejoin="round" d="M 33.8715,41.5026C 34.0559,41.5964 34.1221,41.8402 34.062,42.036C 34.0018,42.231 33.8433,42.3826 33.6726,42.4992C 32.9336,42.9998 31.8273,42.9823 31.198,42.324C 30.2006,41.2809 32.4071,41.0806 32.9984,41.1141C 33.329,41.1324 33.7046,41.2208 33.8715,41.5026 Z "/>
			<path fill="none" stroke-width="2.05464" stroke-linecap="round" stroke-linejoin="round" stroke="#343B43" stroke-opacity="1" d="M 27.7892,23.0112C 26.9191,23.0813 26.094,23.5667 25.617,24.2874"/>
			<path fill="#FEFEFE" fill-opacity="1" stroke-width="2.05464" stroke-linecap="round" stroke-linejoin="round" d="M 28.4361,40.241C 30.3903,42.1647 33.8075,42.7377 35.8082,40.7308C 35.8875,40.6516 35.9652,40.5685 36.0422,40.4847C 33.518,40.8482 30.9305,40.7621 28.4361,40.241 Z "/>
			<path fill="#FEFEFE" fill-opacity="1" stroke-width="2.05464" stroke-linecap="round" stroke-linejoin="round" d="M 37.457,37.6771C 37.4654,37.5537 37.4738,37.4302 37.4661,37.3038C 37.4494,37.0104 37.3816,36.7057 37.1896,36.4802C 36.8064,36.0322 36.1122,36.0604 35.5202,36.1144C 33.329,36.3141 31.1218,36.3423 28.9252,36.199C 28.5587,36.1747 28.174,36.1487 27.8387,36.2981C 27.3976,36.4939 27.1301,36.9701 27.0875,37.4455C 27.0761,37.5728 27.0798,37.6992 27.0936,37.825C 30.4627,38.7781 34.1183,38.7293 37.457,37.6771 Z "/>
			<path fill="#CE3C97" fill-opacity="1" stroke-width="2.05464" stroke-linecap="round" stroke-linejoin="round" d="M 34.0604,39.7678C 33.8624,39.6459 33.6429,39.5598 33.4182,39.4973C 32.6304,39.2787 31.7656,39.3427 31.0197,39.6756C 30.5922,39.8668 30.2075,40.148 29.889,40.4886C 31.5393,40.7194 33.2147,40.7643 34.8749,40.6166C 34.6525,40.2844 34.3995,39.9773 34.0604,39.7678 Z "/>
			<path fill="#4B191B" fill-opacity="1" stroke-width="2.05464" stroke-linecap="round" stroke-linejoin="round" d="M 37.457,37.6771C 34.1183,38.7293 30.4627,38.7781 27.0936,37.825C 27.1317,38.1708 27.2521,38.5099 27.406,38.826C 27.662,39.3525 28.0155,39.8272 28.4361,40.241C 28.9168,40.3415 29.4022,40.4208 29.889,40.4886C 30.2075,40.148 30.5922,39.8668 31.0197,39.6756C 31.7656,39.3427 32.6304,39.2787 33.4182,39.4973C 33.6429,39.5598 33.8624,39.6459 34.0604,39.7678C 34.3995,39.9773 34.6525,40.2844 34.8749,40.6166C 35.265,40.5823 35.6543,40.5411 36.0422,40.4847C 36.7774,39.6886 37.3839,38.724 37.457,37.6771 Z "/>
		</g>
	</g>
</svg>
