<?xml version="1.0" encoding="utf-8"?>
<!DOCTYPE svg PUBLIC "-//W3C//DTD SVG 1.1//EN" "http://www.w3.org/Graphics/SVG/1.1/DTD/svg11.dtd">
<svg xmlns="http://www.w3.org/2000/svg" xmlns:xlink="http://www.w3.org/1999/xlink" version="1.1" baseProfile="full" width="64" height="64" viewBox="0 0 64.00 64.00" enable-background="new 0 0 64.00 64.00" xml:space="preserve">
	<g>
		<rect x="0" y="0" fill="#FF684B" fill-opacity="1" stroke-width="2.05464" stroke-linecap="round" stroke-linejoin="round" width="64" height="64"/>
		<g>
			<path fill="#ECA375" fill-opacity="1" stroke-width="0.68488" stroke-linejoin="round" d="M 17.8288,34.1318C 18.0901,34.6354 18.4471,35.072 18.9424,35.3531C 22.3309,37.2777 22.71,28.8792 19.0191,28.9204C 18.2303,28.9295 17.5584,29.5748 17.3076,30.3132C 17.057,31.0507 17.1483,31.8583 17.3133,32.6194C 17.4247,33.1337 17.5851,33.6617 17.8288,34.1318 Z "/>
			<path fill="#E16150" fill-opacity="1" stroke-width="0.68488" stroke-linejoin="round" d="M 19.8519,32.1326L 19.8566,32.0671L 19.7994,32.0564C 19.3789,32.2621 18.8759,32.1981 18.5575,31.9626C 18.5464,31.712 18.5775,31.459 18.6613,31.2259C 18.783,30.8952 18.987,30.5874 19.3429,30.413L 19.3488,30.4099C 19.3783,30.3954 19.3996,30.3665 19.4014,30.3314C 19.4046,30.2796 19.3645,30.2354 19.3119,30.2316C 18.8159,30.2034 18.3633,30.5707 18.1423,30.9928C 17.9116,31.4278 17.8622,31.9352 17.9798,32.4038C 18.0911,32.8716 18.386,33.3112 18.7918,33.5665C 19.1886,33.8263 19.6837,33.9329 20.116,33.7501C 19.7008,33.6571 19.3531,33.4598 19.0889,33.1992C 18.872,32.9836 18.7253,32.7276 18.6403,32.4503C 19.0883,32.5242 19.5401,32.3992 19.8519,32.1326 Z "/>
			<path fill="#ECA375" fill-opacity="1" stroke-width="0.68488" stroke-linejoin="round" d="M 45.8465,34.1318C 45.5851,34.6354 45.2278,35.072 44.7326,35.3531C 41.3444,37.2777 40.965,28.8792 44.6556,28.9204C 45.445,28.9295 46.117,29.5748 46.3676,30.3132C 46.6183,31.0507 46.5269,31.8583 46.3615,32.6194C 46.2503,33.1337 46.0903,33.6617 45.8465,34.1318 Z "/>
			<path fill="#E16150" fill-opacity="1" stroke-width="0.68488" stroke-linejoin="round" d="M 43.8229,32.1326L 43.8183,32.0671L 43.8754,32.0564C 44.296,32.2621 44.7989,32.1981 45.1173,31.9626C 45.1288,31.712 45.0975,31.459 45.0137,31.2259C 44.8918,30.8952 44.6884,30.5874 44.3318,30.413L 44.3265,30.4099C 44.2968,30.3954 44.2755,30.3665 44.2739,30.3314C 44.2709,30.2796 44.3105,30.2354 44.3631,30.2316C 44.8591,30.2034 45.3116,30.5707 45.5326,30.9928C 45.7635,31.4278 45.813,31.9352 45.6956,32.4038C 45.5836,32.8716 45.2888,33.3112 44.8835,33.5665C 44.4865,33.8263 43.9912,33.9329 43.5592,33.7501C 43.9745,33.6571 44.3219,33.4598 44.5863,33.1992C 44.8035,32.9836 44.9497,32.7276 45.0351,32.4503C 44.5871,32.5242 44.1353,32.3992 43.8229,32.1326 Z "/>
			<path fill="#4D2723" fill-opacity="1" stroke-width="0.68488" stroke-linejoin="round" d="M 30.5374,55.7143C 26.9856,55.6625 23.4333,55.4347 19.9027,55.0766C 17.8021,54.8632 15.1769,54.4572 13.7778,52.7002C 12.9261,51.6312 12.8835,50.448 12.8655,49.1688C 12.8385,47.2465 12.6941,45.325 12.6753,43.4011C 12.601,35.7989 13.1902,28.2057 14.0137,20.6484C 14.7835,13.5847 18.1137,6.89905 26.2124,5.80875C 28.0881,5.55658 30.2023,5.6983 31.563,6.96304C 31.4041,6.81525 35.1371,5.57944 35.5044,5.53448C 37.045,5.34552 38.6411,5.51923 40.0911,6.05789C 42.6435,7.0065 45.0907,10.013 46.325,12.2971C 47.6172,14.6888 48.28,17.3417 48.8477,19.9802C 50.3539,26.9791 51.272,34.1112 51.3246,41.2632C 51.3391,43.1832 51.2949,45.1048 51.1768,47.0225C 51.08,48.5974 51.2636,50.3116 50.7173,51.8202C 49.9859,53.8415 48.0705,54.3566 46.072,54.6743C 40.9413,55.4911 35.7398,55.7913 30.5374,55.7143 Z "/>
			<path fill="#DF8C62" fill-opacity="1" stroke-width="0.68488" stroke-linejoin="round" d="M 37.3634,49.7828L 37.3634,42.0686C 37.3634,39.728 35.4229,37.8134 33.0518,37.8134L 30.9729,37.8134C 28.6015,37.8134 26.6611,39.728 26.6611,42.0686L 26.6611,49.9741C 24.1937,50.8229 22.5838,52.2126 22.5838,53.7844C 22.5838,56.3695 26.9385,58.4655 32.3102,58.4655C 37.6819,58.4655 42.037,56.3695 42.037,53.7844C 42.037,52.0892 40.1657,50.605 37.3634,49.7828 Z "/>
			<path fill="#ECA375" fill-opacity="1" stroke-width="0.68488" stroke-linejoin="round" d="M 20.897,23.8819C 20.8275,23.904 20.7628,23.9352 20.7086,23.984C 20.5448,24.131 20.5337,24.3771 20.5344,24.5958C 20.5428,27.5177 20.4488,30.4183 20.6382,33.3478C 20.8596,36.7695 21.4298,40.4686 23.9272,42.8533C 27.86,46.608 36.3082,46.4617 40.2198,42.7482C 42.4362,40.6438 43.0221,37.4011 43.3025,34.3794C 43.4777,32.4944 43.5798,30.6034 43.6088,28.7109C 43.6141,28.3558 44.1497,23.9596 43.7901,23.8911C 42.197,23.5886 40.4895,23.4636 38.8621,23.3242C 38.7783,23.3174 38.6861,23.3067 38.6282,23.2457C 38.584,23.1985 38.5703,23.1307 38.5596,23.0667C 38.3943,22.1341 38.0674,21.2434 37.8998,20.3352C 37.7688,21.2853 37.6888,22.2461 37.5867,23.2C 37.5867,23.2091 33.5932,23.1162 33.3018,23.1048C 33.197,23.1002 33.0773,23.0888 33.0155,23.0049C 32.9733,22.9478 32.9708,22.8716 32.9697,22.8008C 32.9385,20.6659 32.7446,18.5326 32.3903,16.4259C 32.3366,16.9524 31.7624,23.1871 31.7238,23.1863C 30.4108,23.1665 29.0978,23.1474 27.7849,23.1284C 27.72,23.1269 27.6492,23.1238 27.6003,23.0819C 27.5464,23.0354 27.5374,22.9577 27.5319,22.8869C 27.4161,21.3859 27.236,19.9093 27.1068,18.4091C 27.1068,19.952 26.515,21.4773 26.1898,22.963C 26.1668,23.0682 26.139,23.1817 26.0551,23.2503C 25.9833,23.309 25.8852,23.3227 25.7925,23.3341C 24.2539,23.5246 22.7183,23.6701 21.1768,23.8332C 21.0834,23.843 20.9862,23.8545 20.897,23.8819 Z "/>
			<path fill="#492420" fill-opacity="1" stroke-width="0.68488" stroke-linejoin="round" d="M 38.7516,26.8617C 37.8777,26.208 36.7417,25.9741 35.7589,26.1768C 35.4175,26.2469 35.0833,26.0274 35.0128,25.6853C 34.9423,25.344 35.1623,25.0096 35.5037,24.9387C 35.541,24.9311 35.5775,24.9272 35.6141,24.9265L 35.6347,24.9257C 37.0031,24.896 38.3021,25.4552 39.1813,26.3871C 39.3033,26.5158 39.2979,26.7192 39.1684,26.8412C 39.0533,26.9501 38.8781,26.957 38.7554,26.8648L 38.7516,26.8617 Z "/>
			<path fill="#492420" fill-opacity="1" stroke-width="0.68488" stroke-linejoin="round" d="M 24.791,26.2194C 25.7513,25.3714 27.0953,24.9303 28.4563,25.0827L 28.4732,25.0842C 28.82,25.123 29.0696,25.4354 29.0309,25.7821C 28.9922,26.1288 28.6797,26.3787 28.3329,26.3398C 28.2954,26.336 28.2556,26.3276 28.2206,26.317C 27.2598,26.0274 26.1065,26.1592 25.1766,26.7322L 25.1724,26.7345C 25.0212,26.8274 24.8231,26.7802 24.73,26.6293C 24.6468,26.4937 24.6758,26.3215 24.791,26.2194 Z "/>
			<path fill="#2E2C35" fill-opacity="1" stroke-width="0.68488" stroke-linejoin="round" d="M 38.6374,29.0903C 38.3478,29.2693 37.9661,29.2975 37.6408,29.1848C 37.64,29.1512 37.6362,29.1193 37.6339,29.0857C 37.7383,29.0872 37.8427,29.0956 37.9456,29.0789C 38.2755,29.0255 38.5909,28.8792 38.8362,28.6499C 38.9482,28.5455 38.9528,28.3711 38.8469,28.2613C 38.7402,28.1508 38.5642,28.147 38.4529,28.2507C 38.2206,28.4678 37.8838,28.5684 37.5616,28.5432C 37.4031,27.8347 37.0252,27.3333 36.5894,27.341C 36.0248,27.3501 35.5821,28.2057 35.6004,29.2518C 35.6179,30.2979 36.0903,31.1375 36.6541,31.1284C 37.1189,31.1208 37.496,30.5364 37.6072,29.7486C 37.8404,29.8065 38.0857,29.8195 38.3234,29.7806C 38.5383,29.7463 38.7471,29.6708 38.933,29.5558C 39.064,29.475 39.1028,29.3052 39.0214,29.1764C 38.9398,29.0476 38.7661,29.0095 38.6374,29.0903 Z "/>
			<path fill="#2E2C35" fill-opacity="1" stroke-width="0.68488" stroke-linejoin="round" d="M 25.5144,29.0903C 25.8039,29.2693 26.1856,29.2975 26.5108,29.1848C 26.5117,29.1512 26.5161,29.1193 26.518,29.0857C 26.4136,29.0872 26.3092,29.0956 26.2062,29.0789C 25.8761,29.0255 25.5609,28.8792 25.3161,28.6499C 25.2041,28.5455 25.1995,28.3711 25.3055,28.2613C 25.4114,28.1508 25.5879,28.147 25.6991,28.2507C 25.9316,28.4678 26.2683,28.5684 26.59,28.5432C 26.7492,27.8347 27.1272,27.3333 27.5626,27.341C 28.1269,27.3501 28.5697,28.2057 28.5517,29.2518C 28.5338,30.2979 28.0619,31.1375 27.4976,31.1284C 27.0334,31.1208 26.6558,30.5364 26.545,29.7486C 26.3113,29.8065 26.0664,29.8195 25.8282,29.7806C 25.6134,29.7463 25.4047,29.6708 25.2188,29.5558C 25.088,29.475 25.0489,29.3052 25.1308,29.1764C 25.2119,29.0476 25.386,29.0095 25.5144,29.0903 Z "/>
			<path fill="#E16150" fill-opacity="1" stroke-width="0.68488" stroke-linejoin="round" d="M 30.5324,32.6255C 30.12,34.1059 30.4086,35.5367 32.289,35.459C 33.3841,35.4141 33.7391,34.4076 33.6405,33.4522C 33.5324,32.4053 33.4463,31.3554 33.2467,30.3292C 33.1376,29.7676 33.0118,29.1733 32.6127,28.7596C 32.4429,28.5836 32.1838,28.4442 31.9565,28.5371C 31.8561,28.5783 31.7784,28.6591 31.7085,28.7413C 31.2826,29.2427 31.1494,29.7966 31.0005,30.4122C 30.8405,31.0743 30.7665,31.7562 30.5929,32.4053C 30.5736,32.4777 30.5531,32.5516 30.5324,32.6255 Z "/>
			<path fill="#D51D59" fill-opacity="1" stroke-width="0.68488" stroke-linejoin="round" d="M 30.9901,37.1992C 31.4102,37.1749 31.8097,37.3623 32.1875,37.5444C 32.6688,37.1398 33.3579,36.9432 33.9551,37.149C 35.7056,37.7524 35.0203,39.4286 33.6624,40.032C 32.6065,40.5013 31.0948,40.3886 30.2132,39.6084C 29.1736,38.688 29.5364,37.2853 30.9901,37.1992 Z "/>
			<path fill="#BA3F3D" fill-opacity="1" stroke-width="0.68488" stroke-linejoin="round" d="M 28.6793,37.3989C 29.2082,37.7631 29.8306,38.0206 30.4408,38.2034C 31.0607,38.3779 31.6999,38.4709 32.3472,38.4808C 32.9902,38.5036 33.6208,38.4099 34.2293,38.2209C 34.8229,38.0099 35.4206,37.7021 35.8998,37.2335L 35.9075,37.2259C 35.9387,37.1946 35.989,37.1954 36.0194,37.2267C 36.0438,37.251 36.0484,37.2869 36.0347,37.3158C 35.7246,37.9825 35.1524,38.4983 34.491,38.8373C 33.825,39.1703 33.0735,39.3273 32.3396,39.3227C 30.8927,39.3181 29.3583,38.8107 28.4252,37.6351C 28.3658,37.5596 28.3783,37.4514 28.4532,37.392C 28.5142,37.3433 28.5977,37.3425 28.6587,37.3844L 28.6793,37.3989 Z "/>
		</g>
	</g>
</svg>
