<?xml version="1.0" encoding="utf-8"?>
<!DOCTYPE svg PUBLIC "-//W3C//DTD SVG 1.1//EN" "http://www.w3.org/Graphics/SVG/1.1/DTD/svg11.dtd">
<svg xmlns="http://www.w3.org/2000/svg" xmlns:xlink="http://www.w3.org/1999/xlink" version="1.1" baseProfile="full" width="64" height="64" viewBox="0 0 64.00 64.00" enable-background="new 0 0 64.00 64.00" xml:space="preserve">
	<g>
		<rect x="6.10352e-005" y="0" fill="#52ADAE" fill-opacity="1" stroke-width="2.05464" stroke-linecap="round" stroke-linejoin="round" width="64" height="64"/>
		<g>
			<path fill="#DA7F59" fill-opacity="1" stroke-width="0.32" stroke-linejoin="round" d="M 38.9642,50.9145L 38.9642,40.1092C 38.9642,37.5431 37.0472,35.4441 34.7043,35.4441L 31.8645,35.4441C 29.5216,35.4441 27.6047,37.5431 27.6047,40.1092L 27.6047,50.9145C 25.4448,51.7686 24.0548,53.0966 24.0548,54.59C 24.0548,57.1667 28.1871,59.2551 33.2844,59.2551C 38.3818,59.2551 42.514,57.1667 42.514,54.59C 42.514,53.0966 41.124,51.7686 38.9642,50.9145 Z "/>
			<path fill="#E79C6C" fill-opacity="1" stroke-width="0.32" stroke-linejoin="round" d="M 23.7364,33.4235C 24.0096,33.0662 24.1758,32.6387 24.2884,32.2044C 24.497,31.4014 24.5291,30.5374 24.2611,29.7519C 23.9105,28.7233 23.0325,27.8852 21.9794,27.5735C 21.3054,27.374 20.5369,27.3938 19.9409,27.7633C 17.8318,29.0692 18.2206,33.0159 20.1821,34.1793C 21.4702,34.9435 22.867,34.561 23.7364,33.4235 Z "/>
			<path fill="#E16150" fill-opacity="1" stroke-width="0.32" stroke-linejoin="round" d="M 21.9091,31.1134C 21.9342,31.0981 21.9421,31.0662 21.9268,31.0417L 21.8652,31.0189C 21.3598,31.1713 20.8131,31.009 20.5033,30.6898C 20.5377,30.4094 20.6195,30.1336 20.7559,29.8898C 20.9527,29.5446 21.2367,29.2399 21.6645,29.1111L 21.6715,29.1088C 21.707,29.0981 21.7361,29.0692 21.7446,29.0311C 21.7578,28.9739 21.7216,28.9176 21.6638,28.9046C 21.1183,28.7827 20.5471,29.1088 20.223,29.537C 19.8856,29.9781 19.7363,30.5328 19.7795,31.0753C 19.816,31.6147 20.0615,32.1557 20.4647,32.513C 20.8568,32.8741 21.3868,33.0822 21.9011,32.9579C 21.4572,32.7789 21.1079,32.4962 20.863,32.1595C 20.6623,31.8806 20.5469,31.5698 20.5044,31.2459C 20.9883,31.409 21.5132,31.3526 21.9091,31.1134 Z "/>
			<path fill="#E79C6C" fill-opacity="1" stroke-width="0.32" stroke-linejoin="round" d="M 44.5361,33.4235C 44.2629,33.0662 44.0967,32.6387 43.9841,32.2044C 43.7755,31.4014 43.7434,30.5374 44.0115,29.7519C 44.3621,28.7233 45.2401,27.8852 46.2932,27.5735C 46.9672,27.374 47.7356,27.3938 48.3316,27.7633C 50.4408,29.0692 50.052,33.0159 48.0905,34.1793C 46.8023,34.9435 45.4055,34.561 44.5361,33.4235 Z "/>
			<path fill="#E16150" fill-opacity="1" stroke-width="0.32" stroke-linejoin="round" d="M 46.3634,31.1134C 46.3383,31.0981 46.3305,31.0662 46.3458,31.0417L 46.4073,31.0189C 46.9127,31.1713 47.4595,31.009 47.7693,30.6898C 47.7348,30.4094 47.6531,30.1336 47.5166,29.8898C 47.3198,29.5446 47.0359,29.2399 46.608,29.1111L 46.601,29.1088C 46.5655,29.0981 46.5364,29.0692 46.5279,29.0311C 46.5147,28.9739 46.5509,28.9176 46.6087,28.9046C 47.1542,28.7827 47.7254,29.1088 48.0495,29.537C 48.3869,29.9781 48.5362,30.5328 48.493,31.0753C 48.4566,31.6147 48.211,32.1557 47.8079,32.513C 47.4157,32.8741 46.8857,33.0822 46.3715,32.9579C 46.8152,32.7789 47.1645,32.4962 47.4095,32.1595C 47.6102,31.8806 47.7255,31.5698 47.7682,31.2459C 47.2843,31.409 46.7593,31.3526 46.3634,31.1134 Z "/>
			<path fill="#763E30" fill-opacity="1" stroke-width="0.32" stroke-linejoin="round" d="M 45.624,11.2094C 45.9775,10.5412 46.4858,9.95529 47.0942,9.50043C 47.6475,9.0867 48.4385,9.53168 48.3807,10.2143C 48.3008,11.1606 47.8956,12.0269 47.2576,12.8276C 49.5233,15.4578 50.6005,21.8159 47.3167,23.9362C 47.0774,24.0909 46.8614,24.2875 46.7487,24.5473C 46.371,25.4174 46.4299,26.8665 46.3404,27.7618C 46.171,29.457 45.9187,31.1431 45.5846,32.8139C 44.9057,36.209 44.1628,40.5458 41.8748,43.2467C 38.8087,46.868 33.1684,48.0795 28.8545,46.0437C 26.8909,45.1172 25.2054,43.5698 24.2701,41.6307C 23.7239,40.4978 23.439,39.2597 23.217,38.0261C 22.9591,36.5922 22.7776,35.1469 22.6404,33.6978L 21.6705,23.4501C 20.1919,23.5804 18.6972,23.4464 17.2619,23.0783C 13.8707,22.2097 13.1084,17.8456 15.8994,15.7557C 17.2594,14.737 18.5221,13.5515 19.7218,12.3675C 22.4639,9.65967 25.2333,6.75146 28.8788,5.44174C 34.234,3.51871 38.7026,5.83868 42.622,9.19336C 42.6783,8.34692 43.3387,7.5408 44.0787,6.85736C 44.6886,6.29434 45.6932,6.64404 45.8043,7.46078C 45.9883,8.81393 46.0539,10.3972 45.624,11.2094 Z "/>
			<path fill="#E79C6C" fill-opacity="1" stroke-width="0.32" stroke-linejoin="round" d="M 24.8861,22.3271C 24.6838,22.3781 24.4651,22.4383 24.34,22.6036C 24.2469,22.7263 24.2231,22.8856 24.2042,23.0379C 23.7145,26.9808 24.5185,30.9564 25.3186,34.8497C 25.6332,36.3804 25.9631,37.95 26.8115,39.268C 28.2889,41.5644 31.4302,42.8109 34.1342,42.641C 34.4565,42.6212 34.7765,42.5747 35.096,42.5282C 36.0971,42.3842 37.1188,42.2334 38.02,41.7785C 40.7242,40.4132 41.3836,36.3423 42.2446,33.7739C 43.2559,30.756 44.0337,27.6619 44.5689,24.5275C 44.6039,24.3225 44.6378,24.1092 44.5851,23.908C 44.5022,23.5911 44.2269,23.3671 43.975,23.1545C 42.7835,22.1496 41.7952,20.9138 41.0644,19.5461C 40.6899,18.8459 39.8954,15.5598 39.3707,15.5583C 38.991,15.5576 37.7626,16.8779 37.399,17.1355C 36.6828,17.6422 35.9359,18.1061 35.1681,18.5336C 33.6785,19.3625 32.1098,20.0467 30.5076,20.6341C 28.6699,21.3077 26.785,21.8494 24.8861,22.3271 Z "/>
			<path fill="#2E2C35" fill-opacity="1" stroke-width="0.32" stroke-linejoin="round" d="M 40.381,27.4974C 40.381,28.3865 39.9168,29.1073 39.3443,29.1073C 38.7719,29.1073 38.3077,28.3865 38.3077,27.4974C 38.3077,26.6075 38.7719,25.8867 39.3443,25.8867C 39.9168,25.8867 40.381,26.6075 40.381,27.4974 Z "/>
			<path fill="#2E2C35" fill-opacity="1" stroke-width="0.32" stroke-linejoin="round" d="M 30.2135,27.4974C 30.2135,28.3865 29.7493,29.1073 29.1768,29.1073C 28.6042,29.1073 28.1401,28.3865 28.1401,27.4974C 28.1401,26.6075 28.6042,25.8867 29.1768,25.8867C 29.7493,25.8867 30.2135,26.6075 30.2135,27.4974 Z "/>
			<path fill="#E16150" fill-opacity="1" stroke-width="0.32" stroke-linejoin="round" d="M 30.3845,35.8067C 30.726,36.3507 31.2236,36.8284 31.7933,37.1004C 32.3547,37.4014 33.0006,37.5096 33.6518,37.524C 34.3066,37.5256 34.9753,37.4471 35.5442,37.1812C 36.1112,36.9297 36.591,36.436 36.7912,35.8463L 37.1529,35.8943C 37.0726,36.6989 36.538,37.3808 35.8536,37.7648C 35.1732,38.177 34.3927,38.2814 33.6471,38.2928C 32.8956,38.2936 32.1032,38.1328 31.4443,37.71C 30.7849,37.2924 30.2689,36.6821 30.0423,35.9339L 30.3845,35.8067 Z "/>
			<path fill="#62332A" fill-opacity="1" stroke-width="0.32" stroke-linejoin="round" d="M 30.1005,23.5126C 29.9722,23.3602 29.7133,23.1629 29.4838,23.0806C 29.244,22.9861 28.9903,22.9602 28.7279,23.006C 28.4644,23.0524 28.2022,23.1934 27.947,23.3595L 27.5819,23.6581L 27.2418,24.0094L 27.2146,24.0376C 27.0739,24.1823 26.842,24.1862 26.6968,24.0452C 26.5612,23.9141 26.5501,23.7023 26.6634,23.5568L 27.0117,23.1126C 27.1428,22.9724 27.2778,22.8337 27.4202,22.6996C 27.7253,22.449 28.0668,22.209 28.4886,22.0825C 28.9059,21.9553 29.3775,21.9477 29.806,22.0665C 30.2457,22.193 30.5981,22.3804 30.9671,22.7202C 31.2064,22.9404 31.2216,23.313 31.0012,23.5522C 30.7809,23.7915 30.4083,23.8067 30.1199,23.5355L 30.1005,23.5126 Z "/>
			<path fill="#62332A" fill-opacity="1" stroke-width="0.32" stroke-linejoin="round" d="M 37.3642,22.7202C 37.7333,22.3804 38.0857,22.193 38.5254,22.0665C 38.9539,21.9477 39.4255,21.9553 39.8428,22.0825C 40.2646,22.209 40.606,22.449 40.9112,22.6996C 41.0535,22.8337 41.1885,22.9724 41.3197,23.1126L 41.6679,23.5568C 41.7927,23.7161 41.7649,23.9461 41.6057,24.0703C 41.4572,24.1869 41.2468,24.1709 41.118,24.0383L 41.0896,24.0094L 40.7495,23.6581L 40.3843,23.3595C 40.1291,23.1934 39.867,23.0524 39.6035,23.006C 39.3411,22.9602 39.0874,22.9861 38.8477,23.0806C 38.618,23.1629 38.3592,23.3602 38.2309,23.5126L 38.2136,23.5324C 38.0041,23.7816 37.6326,23.8136 37.3838,23.6041C 37.1351,23.3945 37.1034,23.0227 37.3642,22.7202 Z "/>
			<path fill="#763E30" fill-opacity="1" stroke-width="0.32" stroke-linejoin="round" d="M 34.585,32.116C 34.4345,32.1008 34.2772,32.0718 34.1077,32.0261C 33.3798,31.8296 32.6091,31.6795 31.8551,31.8082C 30.6957,32.0063 29.7291,32.8612 29.1711,33.8837C 28.6131,34.9054 28.4144,36.081 28.332,37.2391C 30.0367,35.8334 32.6707,35.8646 34.2441,34.3172C 35.8093,35.5118 37.6132,36.5579 39.5151,37.0981C 39.7645,36.004 39.3392,34.5488 38.7832,33.5964C 38.2237,32.6379 37.2234,31.8707 36.103,31.8372C 35.5308,32.0497 35.097,32.1663 34.585,32.116 Z "/>
			<path fill="#E16150" fill-opacity="1" stroke-width="0.32" stroke-linejoin="round" d="M 33.3794,32.6882C 33.862,32.7462 34.3702,32.7667 34.8155,32.5739C 37.0504,31.6071 35.757,27.9005 34.7383,26.5663C 34.628,26.4216 34.5063,26.2783 34.3424,26.1976C 33.8432,25.9522 33.282,26.3949 32.9548,26.8406C 31.8947,28.2844 30.4216,32.3286 33.3794,32.6882 Z "/>
			<path fill="none" stroke-width="0.68488" stroke-linejoin="round" stroke="#E16150" stroke-opacity="1" d="M 31.6918,39.8616C 32.8047,39.5202 34.0355,39.5659 35.1192,39.9888"/>
		</g>
	</g>
</svg>
