<?xml version="1.0" encoding="utf-8"?>
<!DOCTYPE svg PUBLIC "-//W3C//DTD SVG 1.1//EN" "http://www.w3.org/Graphics/SVG/1.1/DTD/svg11.dtd">
<svg xmlns="http://www.w3.org/2000/svg" xmlns:xlink="http://www.w3.org/1999/xlink" version="1.1" baseProfile="full" width="60" height="60" viewBox="0 0 60.00 60.00" enable-background="new 0 0 60.00 60.00" xml:space="preserve">
	<g>
		<path fill="#9A9A9A" fill-opacity="1" stroke-width="0.2" stroke-linejoin="round" d="M 15,6.10352e-005L 44.9999,6.10352e-005C 53.2842,6.10352e-005 59.9999,6.71576 59.9999,15.0001L 59.9999,45.0001C 59.9999,53.2843 53.2842,60.0001 44.9999,60.0001L 15,60.0001C 6.71558,60.0001 0,53.2843 0,45.0001L 0,15.0001C 0,6.71576 6.71558,6.10352e-005 15,6.10352e-005 Z "/>
		<defs>
			<path id="SVG_CLIPPER1_" d="M 15,6.10352e-005L 44.9999,6.10352e-005C 53.2842,6.10352e-005 59.9999,6.71576 59.9999,15.0001L 59.9999,45.0001C 59.9999,53.2843 53.2842,60.0001 44.9999,60.0001L 15,60.0001C 6.71558,60.0001 0,53.2843 0,45.0001L 0,15.0001C 0,6.71576 6.71558,6.10352e-005 15,6.10352e-005 Z "/>
		</defs>
		<clipPath id="SVG_CLIPPER2_">
			<use xlink:href="#SVG_CLIPPER1_" overflow="visible"/>
		</clipPath>
		<g clip-path="url(#SVG_CLIPPER2_)">
			<g>
				<path fill="#EEACDC" fill-opacity="1" stroke-width="0.2" stroke-linejoin="round" d="M 14.9999,6.10352e-005L 44.9999,6.10352e-005C 53.2842,6.10352e-005 59.9999,6.71582 59.9999,15.0001L 59.9999,45.0001C 59.9999,53.2844 53.2842,60.0001 44.9999,60.0001L 14.9999,60.0001C 6.71558,60.0001 -0.00012207,53.2844 -0.00012207,45.0001L -0.00012207,15.0001C -0.00012207,6.71582 6.71558,6.10352e-005 14.9999,6.10352e-005 Z "/>
				<g>
					<g>
						<linearGradient id="SVGID_Fill1_" gradientUnits="objectBoundingBox" x1="0.583656" y1="1.10459" x2="1.19536" y2="1.10459" gradientTransform="rotate(-90.000000 0.583656 1.104594)">
							<stop offset="0" stop-color="#B6B6B6" stop-opacity="1"/>
							<stop offset="0.513043" stop-color="#DADADA" stop-opacity="1"/>
							<stop offset="1" stop-color="#FFFFFF" stop-opacity="1"/>
						</linearGradient>
						<path fill="url(#SVGID_Fill1_)" stroke-width="2" stroke-linejoin="round" stroke="#000000" stroke-opacity="1" d="M 4.69019,60.137C 4.69019,60.137 7.31714,28.8165 10.8728,23.699C 14.4286,18.5815 37.8398,18.5815 37.8398,18.5815C 37.8399,18.5815 45.1806,29.7545 46.4962,34.5581C 47.8116,39.3618 50.1959,60.1929 50.1959,60.1929"/>
						<linearGradient id="SVGID_Fill2_" gradientUnits="objectBoundingBox" x1="0.583945" y1="1.13728" x2="1.14307" y2="1.13728" gradientTransform="rotate(-90.000000 0.583945 1.137285)">
							<stop offset="0" stop-color="#B6B6B6" stop-opacity="1"/>
							<stop offset="0.513043" stop-color="#DADADA" stop-opacity="1"/>
							<stop offset="1" stop-color="#FFFFFF" stop-opacity="1"/>
						</linearGradient>
						<path fill="url(#SVGID_Fill2_)" stroke-width="2" stroke-linejoin="round" stroke="#000000" stroke-opacity="1" d="M 49.9086,58.2954C 49.9086,58.2954 46.699,32.6441 44.226,27.2507C 41.753,21.8574 33.3115,13.1754 29.3108,13.1754C 25.3098,13.1754 11.2344,11.0707 7.9458,16.4641C 4.65723,21.8574 4.52551,26.9876 5.84106,27.1192C 7.15686,27.2507 27.8584,29.9227 32.1338,28.3442"/>
						<path fill="#000000" fill-opacity="1" stroke-width="0.2" stroke-linejoin="round" d="M 9.27271,22.351C 9.78101,22.351 10.193,22.763 10.193,23.2712C 10.193,23.7795 9.78101,24.1915 9.27271,24.1915C 8.7644,24.1915 8.35242,23.7795 8.35242,23.2712C 8.35242,22.763 8.7644,22.351 9.27271,22.351 Z "/>
						<path fill="#000000" fill-opacity="1" stroke-width="0.2" stroke-linejoin="round" d="M 23.4797,23.0909C 23.988,23.0909 24.4,23.503 24.4,24.0112C 24.4,24.5195 23.988,24.9315 23.4797,24.9315C 22.9714,24.9315 22.5594,24.5195 22.5594,24.0112C 22.5594,23.503 22.9714,23.0909 23.4797,23.0909 Z "/>
						<path fill="#EAAFAF" fill-opacity="0.803922" stroke-width="0.2" stroke-linejoin="round" d="M 27.9801,23.3869C 28.8583,23.3869 29.5702,24.0988 29.5702,24.977C 29.5702,25.8552 28.8583,26.5671 27.9801,26.5671C 27.1018,26.5671 26.39,25.8552 26.39,24.977C 26.39,24.0988 27.1018,23.3869 27.9801,23.3869 Z "/>
					</g>
					<g>
						<g>
							<path fill="none" stroke-width="1.5" stroke-linejoin="round" stroke="#000000" stroke-opacity="1" d="M 35.1683,13.8083C 35.1683,13.8083 37.5082,4.93604 40.2038,4.21277C 43.566,3.31073 49.7953,7.5108 50.8395,14.2901C 51.8837,21.0693 55.1307,18.054 57.1328,16.0836"/>
							<path fill="none" stroke-width="1.5" stroke-linejoin="round" stroke="#000000" stroke-opacity="1" d="M 37.6834,13.3967C 37.6834,13.3967 40.9279,1.1795 42.608,8.3161C 44.288,15.4527 44.2484,27.5497 48.1884,24.4479C 52.1285,21.3462 53.1779,21.2465 53.1779,21.2465"/>
							<path fill="none" stroke-width="1.5" stroke-linejoin="round" stroke="#000000" stroke-opacity="1" d="M 38.7681,15.5371C 38.7681,15.5371 45.8046,9.63757 47.6932,12.5441C 50.9649,17.579 47.0052,17.0046 46.7549,19.6813C 46.5311,22.075 50.6579,25.7339 52.9351,24.9545C 55.2125,24.1752 57.693,23.9056 57.693,23.9056"/>
							<path fill="none" stroke-width="1.5" stroke-linejoin="round" stroke="#000000" stroke-opacity="1" d="M 37.9738,13.9828C 37.9738,13.9828 44.7059,5.68311 45.8621,10.626C 47.0182,15.5688 38.4993,18.1671 41.9432,20.1693C 45.3873,22.1714 49.9536,18.8734 49.9536,18.8734"/>
							<path fill="#FF8383" fill-opacity="1" stroke-width="0.2" stroke-linejoin="round" d="M 36.2095,12.6745C 34.9178,13.0794 33.5043,14.415 34.6044,15.2037C 36.2729,16.4001 36.3593,15.9964 37.6757,17.3521C 38.6188,18.3232 39.6862,15.5718 39.2814,14.2802C 38.8765,12.9885 37.5013,12.2696 36.2095,12.6745 Z "/>
						</g>
						<path fill="#E90080" fill-opacity="1" stroke-linejoin="round" stroke="#000000" stroke-opacity="1" d="M 36.5272,15.5865C 36.5272,15.5864 30.1919,14.4217 30.875,9.99304C 31.558,5.56433 34.6301,6.65759 35.6906,9.81293C 36.751,12.9685 36.5538,15.6028 36.5272,15.5865 Z "/>
						<path fill="#E90080" fill-opacity="1" stroke-linejoin="round" stroke="#000000" stroke-opacity="1" d="M 34.1935,13.9979C 34.1936,13.9979 37.8407,19.3074 41.6058,16.8776C 45.3709,14.4478 43.1198,12.0886 39.8063,12.4072C 36.4926,12.7258 34.1677,13.9803 34.1935,13.9979 Z "/>
					</g>
					<path fill="none" stroke-width="1.5" stroke-linejoin="round" stroke="#000000" stroke-opacity="1" d="M 6.72534,38.2208C 6.72534,38.2208 2.98364,42.6353 5.24988,45.7592C 7.51611,48.8831 10.4006,49.0988 12.9119,49.0987C 15.4235,49.0987 12.6671,47.6543 12.4832,43.795C 12.2993,39.9359 14.4875,38.7693 16.3423,41.9573C 16.959,43.0173 17.5217,42.2829 17.6616,42.2205C 18.2587,41.954 24.5739,37.8992 23.1034,42.0569C 21.6333,46.2147 17.7283,49.4995 17.7283,49.4995C 17.7283,49.4995 29.6672,50.2517 32.5,48.4185C 35.4049,46.5385 36.0838,43.96 36.9999,42.6684"/>
				</g>
			</g>
		</g>
	</g>
</svg>
