<?xml version="1.0" encoding="utf-8"?>
<!DOCTYPE svg PUBLIC "-//W3C//DTD SVG 1.1//EN" "http://www.w3.org/Graphics/SVG/1.1/DTD/svg11.dtd">
<svg xmlns="http://www.w3.org/2000/svg" xmlns:xlink="http://www.w3.org/1999/xlink" version="1.1" baseProfile="full" width="64" height="64" viewBox="0 0 64.00 64.00" enable-background="new 0 0 64.00 64.00" xml:space="preserve">
	<g>
		<rect x="1.52588e-005" y="0" fill="#97C153" fill-opacity="1" stroke-width="2.05464" stroke-linecap="round" stroke-linejoin="round" width="64" height="64"/>
		<g>
			<path fill="#34241E" fill-opacity="1" stroke-width="2.05464" stroke-linecap="round" stroke-linejoin="round" d="M 37.2275,53.5124C 39.066,55.1779 42.0945,55.3798 44.1433,53.9733C 45.1186,53.3036 45.9018,52.1752 45.7014,51.0202C 47.1856,51.0347 48.6629,50.371 49.6267,49.2571C 50.5898,48.1432 51.0218,46.5988 50.7734,45.155C 53.5345,43.4255 54.5943,39.4948 53.0675,36.6407C 54.9486,35.6282 55.8134,33.2945 55.5521,31.1962C 55.29,29.0979 54.0938,27.219 52.6904,25.6213C 52.698,25.6305 53.4393,23.4324 53.469,23.1764C 53.5681,22.3208 53.5063,21.4446 53.2968,20.6088C 52.8793,18.9455 51.9361,17.5497 50.362,16.7672C 51.0462,14.4754 50.4694,11.6297 48.8062,9.86362C 47.1803,8.13791 44.442,7.34552 42.2904,8.36725C 41.837,6.58743 40.3955,5.08569 38.6195,4.54245C 36.8435,3.99847 34.6972,4.31238 33.3022,5.52609C 32.0641,3.99011 29.8576,3.43542 27.8995,3.78741C 26.8641,3.97333 25.7639,4.37866 24.8839,4.95694C 24.6964,5.08038 22.9372,6.76038 23.1086,6.84799C 20.4458,5.48038 16.7955,6.55237 14.7429,8.59811C 12.7094,10.6248 11.9292,13.7889 12.7917,16.5112C 11.2907,17.021 10.1547,18.3368 9.63892,19.8187C 9.12311,21.3006 9.17263,22.9288 9.51929,24.4579C 9.81872,25.7783 10.3559,27.0613 11.6351,27.5474C 9.99016,28.4373 8.80996,30.093 8.44807,31.9093C 8.08693,33.7249 8.52882,35.6701 9.58407,37.2007C 10.1372,38.0031 10.8984,38.8434 11.8637,39.0293C 10.2195,39.8225 9.24043,41.7714 9.59625,43.5436C 9.95207,45.3151 11.6115,46.7482 13.4385,46.8617C 12.3932,47.8225 12.5723,49.6488 13.5803,50.6469C 14.589,51.645 16.1669,51.9025 17.5719,51.6495C 16.4458,52.7688 17.0637,54.8632 18.445,55.6564C 19.8271,56.4488 21.5917,56.2187 23.0721,55.6244C 24.4313,55.0789 25.7265,54.1866 26.3444,52.8732C 26.5532,53.741 27.2679,54.4617 28.0968,54.8168C 28.925,55.1726 29.9224,55.1193 30.7071,54.6781C 31.2945,54.3474 31.7456,53.8293 32.1844,53.3219C 32.5875,54.2827 33.6435,54.9371 34.6957,54.877C 35.7479,54.8175 36.9387,54.5128 37.2275,53.5124 Z "/>
			<path fill="#88302F" fill-opacity="1" stroke-width="2.05464" stroke-linecap="round" stroke-linejoin="round" d="M 36.8077,50.8465L 36.8077,42.525C 36.8077,40.0007 34.8275,37.936 32.4061,37.936L 30.2843,37.936C 27.8629,37.936 25.8827,40.0007 25.8827,42.525L 25.8827,51.0529C 23.3639,51.9688 21.7204,53.4674 21.7204,55.1619C 21.7204,57.9512 26.1654,60.2126 31.6496,60.2126C 37.133,60.2126 41.5787,57.9512 41.5787,55.1619C 41.5787,53.3341 39.6686,51.7325 36.8077,50.8465 Z "/>
			<path fill="#9E3E36" fill-opacity="1" stroke-width="2.05464" stroke-linecap="round" stroke-linejoin="round" d="M 41.4462,29.5703C 40.6987,29.0781 40.5364,28.0404 40.5341,27.1306C 40.5319,26.2332 40.6164,25.3356 40.7864,24.4541C 40.1067,24.3931 39.4606,24.0114 39.0705,23.4392C 38.7063,22.9052 38.3543,21.5474 38.7795,20.963C 38.0465,21.0484 37.3067,20.9905 36.6721,20.5623C 36.4008,20.3794 35.2519,19.152 35.6062,18.7535C 34.3231,20.1966 31.674,19.9055 30.7193,18.2164C 29.6854,19.9307 27.2892,20.6057 25.5429,19.6754C 25.8241,21.6343 24.2469,23.6617 22.3185,23.8194C 22.6187,23.795 23.0789,25.8529 23.1155,26.0701C 23.2618,26.9478 23.2283,27.8629 22.9502,28.7108C 22.7246,29.3973 22.2256,30.1059 21.5185,30.1242C 21.2732,30.1303 21.0332,30.0503 20.8054,29.9573C 20.7597,29.939 20.7163,29.9139 20.6713,29.8941C 20.7277,31.4583 20.8846,33.0156 21.1963,34.5478C 22.3048,39.9977 25.5353,45.2906 31.5536,45.2906C 39.5924,45.2906 42.5258,37.3607 42.6271,29.8773C 42.6279,29.8438 42.6263,29.811 42.6271,29.7783C 42.2157,29.8514 41.7997,29.8034 41.4462,29.5703 Z "/>
			<path fill="#9E3E36" fill-opacity="1" stroke-width="2.05464" stroke-linecap="round" stroke-linejoin="round" d="M 42.6439,35.1086C 41.706,35.0103 41.1025,34.3307 40.9555,33.4194C 40.8816,32.9615 40.9296,32.4937 40.9783,32.032C 41.0149,31.6868 41.0523,31.3371 41.1742,31.011C 41.4363,30.3086 42.1525,29.5947 42.9288,29.52C 43.6176,29.4545 44.3124,29.7836 44.7612,30.304C 45.2092,30.8244 45.4256,31.5146 45.4462,32.1973C 45.4698,32.9996 45.2176,33.8316 44.6454,34.403C 44.1303,34.9173 43.3722,35.184 42.6439,35.1086 Z "/>
			<path fill="#7D2724" fill-opacity="1" stroke-width="2.05464" stroke-linecap="round" stroke-linejoin="round" d="M 42.7658,32.5988C 43.082,32.6438 43.3928,32.4975 43.5483,32.2781C 43.501,32.1143 43.4264,31.9566 43.322,31.824C 43.1726,31.6358 42.9745,31.4796 42.7071,31.4415L 42.6515,31.4011C 42.6378,31.3684 42.6545,31.3311 42.6881,31.3181C 43.002,31.1954 43.3738,31.3379 43.6077,31.5642C 43.8507,31.7973 43.9917,32.1151 44.0168,32.4427C 44.045,32.768 43.9498,33.1139 43.7418,33.3638C 43.5414,33.6152 43.245,33.7882 42.9258,33.7607C 43.1742,33.6129 43.3563,33.4125 43.4713,33.1886C 43.565,33.0042 43.6046,32.8083 43.5993,32.6103C 43.3258,32.752 43.0073,32.7665 42.7482,32.6598 Z "/>
			<path fill="#9E3E36" fill-opacity="1" stroke-width="2.05464" stroke-linecap="round" stroke-linejoin="round" d="M 20.3627,35.1086C 21.3006,35.0103 21.9041,34.3307 22.0511,33.4194C 22.125,32.9615 22.077,32.4937 22.0282,32.032C 21.9917,31.6868 21.9543,31.3371 21.8324,31.011C 21.5704,30.3086 20.8542,29.5947 20.0778,29.52C 19.389,29.4545 18.6942,29.7836 18.2454,30.304C 17.7974,30.8244 17.581,31.5146 17.5604,32.1973C 17.5368,32.9996 17.789,33.8316 18.3612,34.403C 18.8762,34.9173 19.6343,35.184 20.3627,35.1086 Z "/>
			<path fill="#7D2724" fill-opacity="1" stroke-width="2.05464" stroke-linecap="round" stroke-linejoin="round" d="M 20.2408,32.5988C 19.9246,32.6438 19.6138,32.4975 19.4583,32.2781C 19.5056,32.1143 19.5803,31.9566 19.6846,31.824C 19.834,31.6358 20.0321,31.4796 20.2995,31.4415L 20.3551,31.4011C 20.3688,31.3684 20.3521,31.3311 20.3185,31.3181C 20.0046,31.1954 19.6328,31.3379 19.3989,31.5642C 19.1559,31.7973 19.0149,32.1151 18.9898,32.4427C 18.9616,32.768 19.0568,33.1139 19.2648,33.3638C 19.4652,33.6152 19.7616,33.7882 20.0808,33.7607C 19.8324,33.6129 19.6504,33.4125 19.5353,33.1886C 19.4416,33.0042 19.402,32.8083 19.4073,32.6103C 19.6808,32.752 19.9993,32.7665 20.2583,32.6598 Z "/>
			<path fill="#952030" fill-opacity="1" stroke-width="2.05464" stroke-linecap="round" stroke-linejoin="round" d="M 32.9844,41.5886C 33.1818,41.4659 33.4888,41.1383 33.3311,40.912C 33.2366,40.7764 33.034,40.7863 32.8679,40.8069C 32.3879,40.8663 31.9033,40.8884 31.4203,40.8724C 31.0454,40.8594 30.5319,40.691 30.1692,40.8C 30.0747,40.8282 29.9863,40.896 29.962,40.9897C 29.9345,41.0941 29.9886,41.2015 30.0549,41.2876C 30.2149,41.4956 30.4511,41.6381 30.7018,41.7219C 31.0789,41.8469 31.5681,41.9208 31.9635,41.8796C 32.2934,41.8453 32.6576,41.7646 32.9844,41.5886 Z "/>
			<path fill="#952030" fill-opacity="1" stroke-width="2.05464" stroke-linecap="round" stroke-linejoin="round" d="M 31.7494,36.8983C 31.8264,36.9013 31.9064,36.8952 31.9886,36.8762C 32.1258,36.8449 32.2637,36.8183 32.4031,36.7977C 32.6294,36.7634 32.8138,36.7809 33.0241,36.8815C 33.1216,36.928 33.2168,36.992 33.2694,37.0865C 33.3623,37.2541 33.2283,37.475 33.0888,37.5787C 32.9966,37.6472 32.8793,37.6716 32.7658,37.6945C 32.33,37.7806 31.8896,37.8674 31.4454,37.8568C 30.9471,37.8445 30.4823,37.6945 30.1448,37.3348C 30.0854,37.2709 30.0923,37.1657 30.1372,37.091C 30.269,36.8746 30.5799,36.7558 30.8222,36.7436C 31.1559,36.7261 31.4347,36.8853 31.7494,36.8983 Z "/>
			<path fill="#FEFEFE" fill-opacity="1" stroke-width="2.05464" stroke-linecap="round" stroke-linejoin="round" d="M 31.4667,40.067C 29.9368,40.0846 28.7704,39.7372 28.0968,39.4659C 29.1239,41.3547 31.7151,41.2815 31.7151,41.2815C 33.7669,41.1314 34.7627,40.3124 35.226,39.3973C 34.234,39.7059 32.8305,40.051 31.4667,40.067 Z "/>
			<path fill="#FEFEFE" fill-opacity="1" stroke-width="2.05464" stroke-linecap="round" stroke-linejoin="round" d="M 31.7585,38.7695C 33.2778,38.7147 34.637,38.3771 35.5841,38.0709C 35.6504,37.2274 35.453,36.5486 35.453,36.5486C 35.453,36.5486 34.2522,37.3211 31.6595,37.299C 29.1604,37.2777 27.7395,36.8053 27.7395,36.8053C 27.6664,37.2891 27.6641,37.7097 27.6968,38.0952C 28.6774,38.4434 30.1479,38.8275 31.7585,38.7695 Z "/>
			<path fill="#AF2C43" fill-opacity="1" stroke-width="2.05464" stroke-linecap="round" stroke-linejoin="round" d="M 33.2267,39.1215C 32.269,38.9951 31.293,39.0826 30.3429,39.2549C 30.0046,39.3166 29.6671,39.389 29.3471,39.5131C 29.1894,39.5748 29.0385,39.6511 28.8915,39.7333C 29.5559,39.9208 30.4244,40.0792 31.4667,40.067C 32.6218,40.0533 33.802,39.8042 34.7391,39.5406C 34.2591,39.3318 33.7471,39.1901 33.2267,39.1215 Z "/>
			<path fill="#56211D" fill-opacity="1" stroke-width="2.05464" stroke-linecap="round" stroke-linejoin="round" d="M 30.3429,39.2549C 31.293,39.0826 32.269,38.9951 33.2267,39.1215C 33.7471,39.1901 34.2591,39.3318 34.7391,39.5406C 34.9098,39.4926 35.0744,39.4446 35.226,39.3973C 35.45,38.9562 35.5513,38.493 35.5841,38.0709C 34.637,38.3771 33.2778,38.7147 31.7585,38.7695C 30.1479,38.8275 28.6774,38.4434 27.6968,38.0952C 27.7441,38.6431 27.8926,39.0895 28.0968,39.4659C 28.3117,39.552 28.5814,39.6457 28.8915,39.7333C 29.0385,39.6511 29.1894,39.5748 29.3471,39.5131C 29.6671,39.389 30.0046,39.3166 30.3429,39.2549 Z "/>
			<path fill="#28262E" fill-opacity="1" stroke-width="2.05464" stroke-linecap="round" stroke-linejoin="round" d="M 37.933,28.8183C 37.6465,28.9958 37.2679,29.024 36.9456,28.9128C 36.9448,28.8792 36.9403,28.8472 36.9387,28.8145C 37.0416,28.816 37.1452,28.8244 37.2473,28.8076C 37.5749,28.7543 37.8873,28.6095 38.1296,28.3825C 38.2408,28.2789 38.2454,28.1059 38.1402,27.9969C 38.0351,27.888 37.8606,27.8834 37.7502,27.9871C 37.5201,28.2019 37.1856,28.3017 36.8671,28.2766C 36.7094,27.5741 36.3345,27.0773 35.9025,27.0842C 35.3433,27.0933 34.9045,27.9421 34.9227,28.9783C 34.9403,30.0153 35.4081,30.848 35.9673,30.8389C 36.4275,30.8312 36.8016,30.2522 36.9113,29.4713C 37.1437,29.5284 37.386,29.5421 37.6222,29.5032C 37.8347,29.4689 38.042,29.3943 38.2263,29.28C 38.3559,29.2 38.3947,29.0316 38.3132,28.9044C 38.2332,28.7764 38.0603,28.7383 37.933,28.8183 Z "/>
			<path fill="#28262E" fill-opacity="1" stroke-width="2.05464" stroke-linecap="round" stroke-linejoin="round" d="M 25.21,28.8183C 25.4964,28.9958 25.8751,29.024 26.1974,28.9128C 26.1982,28.8792 26.2027,28.8472 26.2043,28.8145C 26.1014,28.816 25.9978,28.8244 25.8957,28.8076C 25.5681,28.7543 25.2557,28.6095 25.0126,28.3825C 24.9021,28.2789 24.8976,28.1059 25.0027,27.9969C 25.1079,27.888 25.2824,27.8834 25.3928,27.9871C 25.6229,28.2019 25.9574,28.3017 26.2759,28.2766C 26.4336,27.5741 26.8084,27.0773 27.2397,27.0842C 27.7997,27.0933 28.2385,27.9421 28.2203,28.9783C 28.2027,30.0153 27.7349,30.848 27.1757,30.8389C 26.7155,30.8312 26.3414,30.2522 26.2309,29.4713C 25.9993,29.5284 25.757,29.5421 25.5208,29.5032C 25.3075,29.4689 25.101,29.3943 24.9166,29.28C 24.7871,29.2 24.7482,29.0316 24.829,28.9044C 24.9098,28.7764 25.0827,28.7383 25.21,28.8183 Z "/>
			<path fill="#7D2724" fill-opacity="1" stroke-width="2.05464" stroke-linecap="round" stroke-linejoin="round" d="M 29.6763,32.2872C 29.5505,32.7078 29.5216,33.1261 29.6808,33.5322C 29.9513,34.2217 30.8115,34.6812 31.6237,34.5752C 32.4351,34.4701 33.1124,33.8164 33.1742,33.088C 33.2725,31.9139 32.5844,30.5242 32.2203,29.4149C 32.1296,29.1367 31.9688,28.8069 31.6442,28.7817C 31.4424,28.765 31.2519,28.8868 31.1429,29.0392C 31.0347,29.1924 30.9905,29.3737 30.9425,29.549C 30.7071,30.4099 29.9551,31.3562 29.6763,32.2872 Z "/>
			<path fill="#48241E" fill-opacity="1" stroke-width="2.05464" stroke-linecap="round" stroke-linejoin="round" d="M 37.8644,26.2308C 37.7502,26.0777 37.5825,25.9025 37.4165,25.7676C 37.2473,25.629 37.0629,25.5146 36.8717,25.4286C 36.4907,25.248 36.0785,25.2122 35.6808,25.2716C 35.405,25.3135 35.1482,25.1246 35.1056,24.8495C 35.0637,24.5745 35.2526,24.317 35.5848,24.269C 36.1723,24.2476 36.7803,24.3878 37.2671,24.6956C 37.5125,24.8442 37.7334,25.0225 37.9262,25.2228C 38.1212,25.4286 38.2812,25.6305 38.4328,25.8964C 38.5227,26.0541 38.4679,26.2552 38.3102,26.3452C 38.1646,26.4282 37.9818,26.3878 37.8842,26.2567L 37.8644,26.2308 Z "/>
			<path fill="#48241E" fill-opacity="1" stroke-width="2.05464" stroke-linecap="round" stroke-linejoin="round" d="M 25.0027,25.8964C 25.1551,25.6305 25.3151,25.4286 25.5094,25.2228C 25.7022,25.0225 25.9231,24.8442 26.1692,24.6956C 26.6553,24.3878 27.2633,24.2476 27.8507,24.269C 28.1288,24.2796 28.346,24.5135 28.3353,24.7924C 28.3246,25.0705 28.0907,25.2876 27.7555,25.2716C 27.357,25.2122 26.9448,25.248 26.5639,25.4286C 26.3734,25.5146 26.189,25.629 26.0191,25.7676C 25.853,25.9025 25.6854,26.0777 25.5711,26.2308L 25.5521,26.2567C 25.4431,26.4023 25.2366,26.432 25.0919,26.323C 24.957,26.2225 24.922,26.0388 25.0027,25.8964 Z "/>
		</g>
	</g>
</svg>
