<?xml version="1.0" encoding="utf-8"?>
<!DOCTYPE svg PUBLIC "-//W3C//DTD SVG 1.1//EN" "http://www.w3.org/Graphics/SVG/1.1/DTD/svg11.dtd">
<svg xmlns="http://www.w3.org/2000/svg" xmlns:xlink="http://www.w3.org/1999/xlink" version="1.1" baseProfile="full" width="303.445" height="120.985" viewBox="0 0 303.45 120.98" enable-background="new 0 0 303.45 120.98" xml:space="preserve">
	<g>
		<path fill="#FFFFFF" fill-opacity="0.501961" stroke-linejoin="round" d="M 6.95752,47.9424L 17.2896,32.7777L 26.2051,47.5675L 17.3312,55.2332L 6.95752,47.9424 Z "/>
		<path fill="#BEA0FF" fill-opacity="0.501961" stroke-linejoin="round" d="M 17.2479,54.6916L 17.2479,32.2361L 26.1635,47.0259L 17.2896,54.6916L 17.2479,54.6916 Z "/>
		<path fill="#FFFFFF" fill-opacity="0.501961" stroke-linejoin="round" d="M 3.75592,68.0788C 5.83017,68.0788 7.51181,69.7604 7.51181,71.8347C 7.51181,73.909 5.8302,75.5906 3.75592,75.5906C 1.68158,75.5906 0,73.909 0,71.8347C 0,69.7604 1.68161,68.0788 3.75592,68.0788 Z "/>
		<path fill="#FFFFFF" fill-opacity="0.501961" stroke-linejoin="round" d="M 77.9348,72.3799C 80.1743,72.3799 81.9898,74.1953 81.9898,76.4349C 81.9898,78.6745 80.1743,80.49 77.9348,80.49C 75.6952,80.49 73.8797,78.6745 73.8797,76.4349C 73.8797,74.1953 75.6953,72.3799 77.9348,72.3799 Z "/>
		<path fill="#FFFFFF" fill-opacity="0.501961" stroke-linejoin="round" d="M 145.011,34.1291C 146.653,34.1291 147.984,35.4602 147.984,37.1024C 147.984,38.7445 146.653,40.0757 145.011,40.0757C 143.369,40.0757 142.038,38.7445 142.038,37.1024C 142.038,35.4602 143.369,34.1291 145.011,34.1291 Z "/>
		<path fill="#FFFFFF" fill-opacity="0.501961" stroke-linejoin="round" d="M 286.519,-3.05176e-005C 289.25,-3.05176e-005 291.463,2.21335 291.463,4.94376C 291.463,7.67416 289.25,9.8876 286.519,9.8876C 283.789,9.8876 281.576,7.67416 281.576,4.94376C 281.576,2.21335 283.789,-3.05176e-005 286.519,-3.05176e-005 Z "/>
		<path fill="#FF6F79" fill-opacity="0.501961" stroke-linejoin="round" d="M 276.859,36.4622C 279.147,36.4622 281.002,38.3172 281.002,40.6054C 281.002,42.8936 279.147,44.7486 276.859,44.7486C 274.571,44.7486 272.716,42.8936 272.716,40.6054C 272.716,38.3172 274.571,36.4622 276.859,36.4622 Z "/>
		<path fill="#4C269A" fill-opacity="0.501961" stroke-linejoin="round" d="M 278.812,77.1194C 278.812,77.1194 273.813,71.5491 280.368,64.121C 286.922,56.6929 293.422,64.3988 293.422,64.3988L 278.812,77.1194 Z "/>
		<path fill="#A1A1A1" fill-opacity="0.501961" stroke-linejoin="round" d="M 168.736,30.0042C 163.336,28.8129 157.481,26.6881 152.572,22.9386C 139.482,12.94 138.038,-3.05176e-005 138.038,-3.05176e-005L 143.148,-3.05176e-005C 143.148,3.05176e-005 149.925,17.1896 160.035,18.8976C 159.813,18.8976 156.813,5.60751 161.479,1.71915C 161.59,1.608 167.701,3.94107 167.701,3.94107C 167.701,3.94107 162.812,13.9678 166.479,18.8976C 168.49,21.6019 170.468,23.3242 173.714,24.3098"/>
		<path fill="#FFFFFF" fill-opacity="1" stroke-linejoin="round" d="M 154.853,112.924C 154.853,112.924 160.078,112.924 164.738,109.503L 143.502,84.249C 142.379,84.6087 141.182,84.8028 139.939,84.8028C 133.496,84.8028 128.272,79.5794 128.272,73.136C 128.272,66.6925 133.496,61.4691 139.939,61.4691C 146.383,61.4691 151.606,66.6925 151.606,73.136C 151.606,75.4604 150.926,77.626 149.755,79.445L 170.054,102.741C 171.059,100.41 171.726,97.5459 171.85,94.0259C 172.517,75.1283 157.112,56.2306 164.815,37.333C 172.517,18.4356 190.407,13.9428 205.957,15.3871C 221.508,16.8315 237.676,23.9416 244.564,34.1625C 251.452,44.3834 252.956,116.139 278.201,112.924C 302.104,109.879 302.179,95.6566 302.119,94.1544L 303.445,118.152L 129.078,120.985L 154.853,112.924 Z "/>
		<path fill="#FF6F79" fill-opacity="1" stroke-linejoin="round" d="M 186.978,34.5694L 186.978,34.5694C 190.421,34.5694 193.212,37.3605 193.212,40.8036L 193.212,70.3299C 193.212,73.7729 190.421,76.5641 186.978,76.5641L 186.978,76.5641C 183.535,76.5641 180.744,73.7729 180.744,70.3299L 180.744,40.8036C 180.744,37.3605 183.535,34.5694 186.978,34.5694 Z "/>
		<path fill="#000000" fill-opacity="1" stroke-linejoin="round" d="M 171.048,36.3747L 171.048,36.3747C 172.244,36.3747 173.214,37.3446 173.214,38.5411L 173.214,38.7633C 173.214,39.9597 172.244,40.9297 171.048,40.9297L 171.048,40.9297C 169.851,40.9297 168.881,39.9597 168.881,38.7633L 168.881,38.5411C 168.881,37.3446 169.851,36.3747 171.048,36.3747 Z "/>
		<path fill="#000000" fill-opacity="1" stroke-linejoin="round" d="M 206.127,36.9093L 206.127,36.9093C 207.266,36.9093 208.189,37.8326 208.189,38.9716L 208.189,39.0965C 208.189,40.2355 207.266,41.1588 206.127,41.1588L 206.127,41.1588C 204.988,41.1588 204.065,40.2355 204.065,39.0965L 204.065,38.9716C 204.065,37.8326 204.988,36.9093 206.127,36.9093 Z "/>
		<path fill="#A1A1A1" fill-opacity="0.501961" stroke-linejoin="round" d="M 224.763,31.3821C 224.763,31.3821 244.577,32.9374 257.667,22.9387C 270.758,12.94 272.202,3.05176e-005 272.202,3.05176e-005L 267.091,3.05176e-005C 267.091,3.05176e-005 260.315,17.1896 250.205,18.8977C 250.427,18.8977 253.427,5.60757 248.76,1.71915C 248.649,1.60806 242.539,3.94107 242.539,3.94107C 242.539,3.94113 247.427,13.9678 243.761,18.8977C 240.095,23.8275 236.54,25.4939 225.208,25.3828C 225.541,25.4939 224.986,31.1599 224.763,31.3821 Z "/>
		<path fill="#BEA0FF" fill-opacity="0.501961" stroke-linejoin="round" d="M 52.7098,63.3319L 25.5189,72.5308C 23.339,73.2683 21.8994,75.4229 22.3033,77.3434L 26.509,97.3366C 26.913,99.2571 29.0077,100.216 31.1875,99.4787L 58.3785,90.2798C 60.5583,89.5423 61.998,87.3876 61.594,85.4671L 57.3883,65.4738C 56.9843,63.5534 54.8897,62.5944 52.7098,63.3319 Z M 34.5196,85.3923L 31.0551,86.5644L 31.0038,84.5125L 34.3758,83.3717L 39.2073,85.5838L 45.9307,75.521L 55.2562,72.3661L 55.6877,74.4176L 46.2071,77.625L 39.4953,87.6704L 34.5196,85.3923 Z "/>
		<path fill="#FFFFFF" fill-opacity="0.501961" stroke-linejoin="round" d="M 79.2412,103.137L 67.0333,103.137L 67.0743,105.054L 79.2401,105.054L 79.2412,103.137 Z "/>
		<path fill="#FFFFFF" fill-opacity="0.501961" stroke-linejoin="round" d="M 74.7406,100.471C 74.7406,99.7116 74.1251,99.0961 73.3658,99.0961C 72.6064,99.0961 71.9909,99.7116 71.9909,100.471C 71.9909,101.23 72.6065,101.846 73.3658,101.846C 74.1251,101.846 74.7406,101.23 74.7406,100.471 Z "/>
		<path fill="#FFFFFF" fill-opacity="0.501961" stroke-linejoin="round" d="M 73.7408,108.699C 73.7408,107.974 73.1533,107.387 72.4284,107.387C 71.7036,107.387 71.1161,107.974 71.1161,108.699C 71.1161,109.424 71.7036,110.011 72.4284,110.011C 73.1532,110.011 73.7408,109.424 73.7408,108.699 Z "/>
		<path fill="#FF6F79" fill-opacity="0.501961" stroke-linejoin="round" d="M 113.583,83.9128C 113.583,77.8155 108.64,74.229 102.543,75.9023C 96.4454,77.5755 91.5024,83.8749 91.5024,89.9723C 91.5024,96.0696 96.4454,99.6561 102.543,97.9828C 108.64,96.3095 113.583,90.0102 113.583,83.9128 Z M 100.335,92.1104C 100.335,91.3856 100.922,90.6369 101.647,90.4379C 102.372,90.239 102.959,90.6653 102.959,91.3902C 102.959,92.1149 102.372,92.8637 101.647,93.0626C 100.922,93.2615 100.335,92.8352 100.335,92.1104 Z M 101.21,83.6422C 101.21,82.8828 101.825,82.0984 102.584,81.89C 103.344,81.6817 103.959,82.1283 103.959,82.8876C 103.959,83.6469 103.344,84.4314 102.584,84.6397C 101.825,84.8481 101.21,84.4015 101.21,83.6422 Z M 96.2929,89.5742L 96.2519,87.669L 108.46,84.3188L 108.459,86.2356L 96.2929,89.5742 Z "/>
	</g>
</svg>
