<?xml version="1.0" encoding="utf-8"?>
<!DOCTYPE svg PUBLIC "-//W3C//DTD SVG 1.1//EN" "http://www.w3.org/Graphics/SVG/1.1/DTD/svg11.dtd">
<svg xmlns="http://www.w3.org/2000/svg" xmlns:xlink="http://www.w3.org/1999/xlink" version="1.1" baseProfile="full" width="61.119" height="48.6249" viewBox="0 0 61.12 48.62" enable-background="new 0 0 61.12 48.62" xml:space="preserve">
	<g>
		<g>
			<linearGradient id="SVGID_Fill1_" gradientUnits="objectBoundingBox" x1="-0.0464657" y1="2.95172" x2="3.01129" y2="2.95172" gradientTransform="rotate(253.275101 -0.046466 2.951717)">
				<stop offset="0" stop-color="#B6B6B6" stop-opacity="1"/>
				<stop offset="0.513043" stop-color="#DADADA" stop-opacity="1"/>
				<stop offset="1" stop-color="#FFFFFF" stop-opacity="1"/>
			</linearGradient>
			<path fill="url(#SVGID_Fill1_)" stroke-linejoin="round" stroke="#000000" stroke-opacity="1" d="M 39.4103,6.17853C 39.4103,6.17853 43.9872,8.54816 45.443,10.6078C 46.8989,12.6675 52.6812,16.8125 53.7708,16.9042C 54.8606,16.9961 59.3848,20.8741 59.8518,21.7927"/>
			<linearGradient id="SVGID_Fill2_" gradientUnits="objectBoundingBox" x1="-0.0464657" y1="2.9517" x2="3.01127" y2="2.9517" gradientTransform="rotate(253.275284 -0.046466 2.951705)">
				<stop offset="0" stop-color="#B6B6B6" stop-opacity="1"/>
				<stop offset="0.513043" stop-color="#DADADA" stop-opacity="1"/>
				<stop offset="1" stop-color="#FFFFFF" stop-opacity="1"/>
			</linearGradient>
			<path fill="url(#SVGID_Fill2_)" stroke-linejoin="round" stroke="#000000" stroke-opacity="1" d="M 37.4116,2.91809C 37.4116,2.91809 41.9885,5.28772 43.4443,7.34741C 44.9001,9.4071 50.6825,13.5521 51.7721,13.6438C 52.8619,13.7357 57.386,17.6137 57.8531,18.5323"/>
			<linearGradient id="SVGID_Fill3_" gradientUnits="objectBoundingBox" x1="-0.0464594" y1="2.95171" x2="3.01128" y2="2.95171" gradientTransform="rotate(253.275040 -0.046459 2.951709)">
				<stop offset="0" stop-color="#B6B6B6" stop-opacity="1"/>
				<stop offset="0.513043" stop-color="#DADADA" stop-opacity="1"/>
				<stop offset="1" stop-color="#FFFFFF" stop-opacity="1"/>
			</linearGradient>
			<path fill="url(#SVGID_Fill3_)" stroke-linejoin="round" stroke="#000000" stroke-opacity="1" d="M 40.1774,5.32904C 40.1774,5.32904 45.1375,7.62262 46.837,9.48627C 49.0273,11.8879 53.4482,15.9631 54.538,16.0548C 55.6278,16.1467 60.1519,20.0247 60.619,20.9433"/>
			<linearGradient id="SVGID_Fill4_" gradientUnits="objectBoundingBox" x1="-0.0464594" y1="2.95171" x2="3.01128" y2="2.95171" gradientTransform="rotate(253.275024 -0.046459 2.951709)">
				<stop offset="0" stop-color="#B6B6B6" stop-opacity="1"/>
				<stop offset="0.513043" stop-color="#DADADA" stop-opacity="1"/>
				<stop offset="1" stop-color="#FFFFFF" stop-opacity="1"/>
			</linearGradient>
			<path fill="url(#SVGID_Fill4_)" stroke-linejoin="round" stroke="#000000" stroke-opacity="1" d="M 38.179,2.06854C 38.179,2.06854 43.1392,4.36212 44.8386,6.22577C 47.0289,8.62738 51.45,12.7026 52.5396,12.7943C 53.6294,12.8862 58.1534,16.7642 58.6206,17.6828"/>
			<linearGradient id="SVGID_Fill5_" gradientUnits="objectBoundingBox" x1="-0.0464654" y1="2.95171" x2="3.01127" y2="2.95171" gradientTransform="rotate(253.275070 -0.046465 2.951709)">
				<stop offset="0" stop-color="#B6B6B6" stop-opacity="1"/>
				<stop offset="0.513043" stop-color="#DADADA" stop-opacity="1"/>
				<stop offset="1" stop-color="#FFFFFF" stop-opacity="1"/>
			</linearGradient>
			<path fill="url(#SVGID_Fill5_)" stroke-linejoin="round" stroke="#000000" stroke-opacity="1" d="M 38.9349,8.01886C 38.9349,8.01886 43.895,10.3124 45.5946,12.1761C 47.7849,14.5777 52.2058,18.6529 53.2955,18.7446C 54.3854,18.8365 58.9094,22.7145 59.3766,23.6331"/>
			<linearGradient id="SVGID_Fill6_" gradientUnits="objectBoundingBox" x1="-0.0464654" y1="2.9517" x2="3.01127" y2="2.9517" gradientTransform="rotate(253.275162 -0.046465 2.951705)">
				<stop offset="0" stop-color="#B6B6B6" stop-opacity="1"/>
				<stop offset="0.513043" stop-color="#DADADA" stop-opacity="1"/>
				<stop offset="1" stop-color="#FFFFFF" stop-opacity="1"/>
			</linearGradient>
			<path fill="url(#SVGID_Fill6_)" stroke-linejoin="round" stroke="#000000" stroke-opacity="1" d="M 36.9359,4.7583C 36.9359,4.7583 41.896,7.05188 43.5956,8.91553C 45.7859,11.3171 50.2068,15.3923 51.2965,15.4841C 52.3864,15.5759 56.9104,19.4539 57.3776,20.3726"/>
		</g>
		<g>
			<linearGradient id="SVGID_Fill7_" gradientUnits="objectBoundingBox" x1="1.12727" y1="2.82264" x2="4.06851" y2="2.82264" gradientTransform="rotate(-76.709030 1.127271 2.822637)">
				<stop offset="0" stop-color="#B6B6B6" stop-opacity="1"/>
				<stop offset="0.513043" stop-color="#DADADA" stop-opacity="1"/>
				<stop offset="1" stop-color="#FFFFFF" stop-opacity="1"/>
			</linearGradient>
			<path fill="url(#SVGID_Fill7_)" stroke-linejoin="round" stroke="#000000" stroke-opacity="1" d="M 21.189,6.54828C 21.189,6.54828 16.696,9.07373 15.3118,11.1822C 13.9275,13.2906 8.29102,17.6318 7.20508,17.7609C 6.11914,17.8901 1.73096,21.9212 1.29553,22.8553"/>
			<linearGradient id="SVGID_Fill8_" gradientUnits="objectBoundingBox" x1="1.12728" y1="2.82264" x2="4.06852" y2="2.82264" gradientTransform="rotate(-76.709152 1.127278 2.822637)">
				<stop offset="0" stop-color="#B6B6B6" stop-opacity="1"/>
				<stop offset="0.513043" stop-color="#DADADA" stop-opacity="1"/>
				<stop offset="1" stop-color="#FFFFFF" stop-opacity="1"/>
			</linearGradient>
			<path fill="url(#SVGID_Fill8_)" stroke-linejoin="round" stroke="#000000" stroke-opacity="1" d="M 23.0747,3.22113C 23.0747,3.22113 18.5819,5.74658 17.1976,7.85504C 15.8134,9.9635 10.1768,14.3046 9.09094,14.4337C 8.00488,14.5629 3.6167,18.5941 3.1814,19.5282"/>
			<linearGradient id="SVGID_Fill9_" gradientUnits="objectBoundingBox" x1="1.12728" y1="2.82264" x2="4.06853" y2="2.82264" gradientTransform="rotate(-76.709038 1.127277 2.822644)">
				<stop offset="0" stop-color="#B6B6B6" stop-opacity="1"/>
				<stop offset="0.513043" stop-color="#DADADA" stop-opacity="1"/>
				<stop offset="1" stop-color="#FFFFFF" stop-opacity="1"/>
			</linearGradient>
			<path fill="url(#SVGID_Fill9_)" stroke-linejoin="round" stroke="#000000" stroke-opacity="1" d="M 20.3933,5.72577C 20.3933,5.72577 15.5149,8.18829 13.8804,10.1092C 11.7738,12.5846 7.49536,16.8092 6.40942,16.9384C 5.32349,17.0676 0.935303,21.0987 0.499878,22.0328"/>
			<linearGradient id="SVGID_Fill10_" gradientUnits="objectBoundingBox" x1="1.12728" y1="2.82264" x2="4.06852" y2="2.82264" gradientTransform="rotate(-76.709061 1.127277 2.822637)">
				<stop offset="0" stop-color="#B6B6B6" stop-opacity="1"/>
				<stop offset="0.513043" stop-color="#DADADA" stop-opacity="1"/>
				<stop offset="1" stop-color="#FFFFFF" stop-opacity="1"/>
			</linearGradient>
			<path fill="url(#SVGID_Fill10_)" stroke-linejoin="round" stroke="#000000" stroke-opacity="1" d="M 22.2787,2.3985C 22.2787,2.3985 17.4003,4.86108 15.7657,6.78198C 13.6592,9.25739 9.38074,13.482 8.29492,13.6111C 7.20886,13.7404 2.82068,17.7714 2.38525,18.7056"/>
			<linearGradient id="SVGID_Fill11_" gradientUnits="objectBoundingBox" x1="1.12728" y1="2.82264" x2="4.06852" y2="2.82264" gradientTransform="rotate(-76.709152 1.127278 2.822637)">
				<stop offset="0" stop-color="#B6B6B6" stop-opacity="1"/>
				<stop offset="0.513043" stop-color="#DADADA" stop-opacity="1"/>
				<stop offset="1" stop-color="#FFFFFF" stop-opacity="1"/>
			</linearGradient>
			<path fill="url(#SVGID_Fill11_)" stroke-linejoin="round" stroke="#000000" stroke-opacity="1" d="M 21.7273,8.37122C 21.7273,8.37122 16.8489,10.8338 15.2144,12.7547C 13.1078,15.2301 8.82935,19.4547 7.74353,19.5838C 6.65747,19.713 2.26929,23.7441 1.83398,24.6783"/>
			<linearGradient id="SVGID_Fill12_" gradientUnits="objectBoundingBox" x1="1.12728" y1="2.82265" x2="4.06853" y2="2.82265" gradientTransform="rotate(-76.708984 1.127278 2.822647)">
				<stop offset="0" stop-color="#B6B6B6" stop-opacity="1"/>
				<stop offset="0.513043" stop-color="#DADADA" stop-opacity="1"/>
				<stop offset="1" stop-color="#FFFFFF" stop-opacity="1"/>
			</linearGradient>
			<path fill="url(#SVGID_Fill12_)" stroke-linejoin="round" stroke="#000000" stroke-opacity="1" d="M 23.613,5.04401C 23.613,5.04401 18.7346,7.50653 17.1001,9.42743C 14.9937,11.9029 10.7152,16.1275 9.62939,16.2566C 8.54321,16.3858 4.15503,20.4169 3.71973,21.351"/>
		</g>
		<g>
			<linearGradient id="SVGID_Fill13_" gradientUnits="objectBoundingBox" x1="0.545331" y1="1.00755" x2="1.23856" y2="1.00755" gradientTransform="rotate(261.905121 0.545331 1.007545)">
				<stop offset="0" stop-color="#ABABAB" stop-opacity="1"/>
				<stop offset="0.513043" stop-color="#D5D5D5" stop-opacity="1"/>
				<stop offset="1" stop-color="#FFFFFF" stop-opacity="1"/>
			</linearGradient>
			<path fill="url(#SVGID_Fill13_)" stroke-linejoin="round" stroke="#000000" stroke-opacity="1" d="M 14.446,47.7501C 14.446,47.7501 13.0571,11.6251 18.6892,6.25006C 24.3212,0.875 23.196,0.875061 28.9462,0.5C 34.6962,0.125 43.571,1.87518 45.9462,16.2499C 48.3212,30.6249 52.3212,48.1249 52.3212,48.1249"/>
			<path fill="#000000" fill-opacity="1" stroke-linejoin="round" stroke="#000000" stroke-opacity="1" d="M 19.2377,25.3126C 19.2317,25.2748 17.8313,12.6251 21.3627,8.84381C 24.894,5.0625 27.8939,2.56268 30.7378,6.34375C 33.5819,10.1246 38.4509,11.7813 38.019,23.9687C 37.9878,24.1562 36.6755,26.906 19.2377,25.3126 Z "/>
			<path fill="#EE7E7E" fill-opacity="1" stroke-linejoin="round" stroke="#000000" stroke-opacity="1" d="M 22.2064,25.6928C 22.2064,25.6928 23.3729,20.9638 26.2689,20.9844C 29.1649,21.0051 29.519,22.7968 29.519,22.7968L 31.4149,21.5884C 31.4149,21.5884 34.373,23.4949 34.5608,25.6197"/>
			<path fill="#EE7E7E" fill-opacity="1" stroke-linejoin="round" stroke="#000000" stroke-opacity="1" d="M 34.4983,25.4478C 34.4983,25.4478 33.5135,21.1409 31.248,21.5313C 28.9828,21.9216 28.623,21.9792 28.2795,22.6822C 27.9358,23.3853 28.1702,23.7759 28.1702,23.7759"/>
			<path fill="#000000" fill-opacity="1" stroke-width="0.2" stroke-linejoin="round" d="M 36.0764,3.72919C 36.5769,3.72919 36.9827,4.13501 36.9827,4.63544C 36.9827,5.13593 36.5769,5.54169 36.0764,5.54169C 35.5759,5.54169 35.1702,5.13593 35.1702,4.63544C 35.1702,4.13501 35.5759,3.72919 36.0764,3.72919 Z "/>
			<path fill="#000000" fill-opacity="1" stroke-width="0.2" stroke-linejoin="round" d="M 23.9825,2.77606C 24.3967,2.77606 24.7325,3.11176 24.7325,3.52606C 24.7325,3.94025 24.3967,4.27606 23.9825,4.27606C 23.5684,4.27606 23.2325,3.94025 23.2325,3.52606C 23.2325,3.11176 23.5684,2.77606 23.9825,2.77606 Z "/>
		</g>
		<path fill="none" stroke-linejoin="round" stroke="#000000" stroke-opacity="1" d="M 43.9615,34.6199L 51.524,32.1199L 50.3992,16.4947L 49.3992,17.4322L 50.1023,15.3072L 51.4929,15.6978L 51.2898,17.7291L 49.5398,18.1041L 50.6335,16.9478L 49.9773,15.9791L 50.3523,17.6353"/>
		<path fill="none" stroke-linejoin="round" stroke="#000000" stroke-opacity="1" d="M 14.4425,32.1199L 6.88,29.6199L 8.00488,13.9947L 9.00488,14.9322L 8.30176,12.8072L 6.91113,13.1978L 7.11426,15.2291L 8.86426,15.6041L 7.77051,14.4478L 8.42676,13.4791L 8.05176,15.1353"/>
	</g>
</svg>
