<?xml version="1.0" encoding="utf-8"?>
<!DOCTYPE svg PUBLIC "-//W3C//DTD SVG 1.1//EN" "http://www.w3.org/Graphics/SVG/1.1/DTD/svg11.dtd">
<svg xmlns="http://www.w3.org/2000/svg" xmlns:xlink="http://www.w3.org/1999/xlink" version="1.1" baseProfile="full" width="285.224" height="101.054" viewBox="0 0 285.22 101.05" enable-background="new 0 0 285.22 101.05" xml:space="preserve">
	<path fill="#FF6D76" fill-opacity="1" stroke-width="0.32" stroke-linejoin="round" d="M 98.4664,71.1033C 104.924,71.1033 110.159,76.3381 110.159,82.7957C 110.159,89.2533 104.924,94.4882 98.4664,94.4882C 92.0089,94.4882 86.774,89.2533 86.774,82.7957C 86.774,76.3381 92.0089,71.1033 98.4664,71.1033 Z "/>
	<path fill="#BEA0FF" fill-opacity="1" stroke-width="0.32" stroke-linejoin="round" d="M 26.6697,63.9669L 45.952,57.1291C 50.1313,55.647 54.4246,57.911 55.5413,62.1859L 61.0713,83.356C 62.188,87.6308 59.7051,92.2977 55.5258,93.7798L 36.2435,100.618C 32.0641,102.1 27.7708,99.8357 26.6541,95.5609L 21.1241,74.3907C 20.0074,70.1158 22.4903,65.4489 26.6697,63.9669 Z "/>
	<g>
		<path fill="#000000" fill-opacity="1" stroke-width="0.32" stroke-linejoin="round" d="M 98.4663,78.0614L 98.4663,78.0614C 99.0618,78.0614 99.5444,78.5441 99.5444,79.1395L 99.5444,79.1395C 99.5444,79.735 99.0618,80.2177 98.4663,80.2177L 98.4663,80.2177C 97.8708,80.2177 97.3882,79.735 97.3882,79.1395L 97.3882,79.1395C 97.3882,78.5441 97.8708,78.0614 98.4663,78.0614 Z "/>
		<path fill="#000000" fill-opacity="1" stroke-width="0.32" stroke-linejoin="round" d="M 98.4664,85.3739L 98.4664,85.3739C 99.0619,85.3739 99.5446,85.8566 99.5446,86.452L 99.5446,86.452C 99.5446,87.0474 99.0619,87.5302 98.4664,87.5302L 98.4664,87.5302C 97.871,87.5302 97.3883,87.0474 97.3883,86.452L 97.3883,86.452C 97.3883,85.8566 97.871,85.3739 98.4664,85.3739 Z "/>
		<path fill="#000000" fill-opacity="1" stroke-width="0.32" stroke-linejoin="round" d="M 93.7318,81.8876L 103.201,81.8876C 103.675,81.8876 104.06,82.2723 104.06,82.7469L 104.06,82.7469C 104.06,83.2216 103.675,83.6063 103.201,83.6063L 93.7318,83.6063C 93.2571,83.6063 92.8724,83.2216 92.8724,82.7469L 92.8724,82.7469C 92.8724,82.2723 93.2571,81.8876 93.7318,81.8876 Z "/>
	</g>
	<path fill="none" stroke-width="0.32" stroke-linejoin="round" stroke="#FFFFFF" stroke-opacity="1" d="M 30.0288,83.2963L 35.1277,81.4882L 41.2103,84.8683L 38.3801,74.0337C 38.3801,74.0337 50.7671,69.0927 50.8981,69.5947"/>
	<path fill="#FFFFFF" fill-opacity="1" stroke-width="0.32" stroke-linejoin="round" d="M 75.6609,70.6147C 77.4819,70.6147 78.9583,72.0909 78.9583,73.912C 78.9583,75.7331 77.4819,77.2094 75.6609,77.2094C 73.8398,77.2094 72.3635,75.7331 72.3635,73.912C 72.3635,72.0909 73.8398,70.6147 75.6609,70.6147 Z "/>
	<path fill="#4C269A" fill-opacity="1" stroke-width="0.32" stroke-linejoin="round" d="M 142.161,31.2006C 143.982,31.2006 145.458,32.6769 145.458,34.4979C 145.458,36.319 143.982,37.7953 142.161,37.7953C 140.34,37.7953 138.864,36.319 138.864,34.4979C 138.864,32.6769 140.34,31.2006 142.161,31.2006 Z "/>
	<ellipse fill="#FFFFFF" fill-opacity="1" stroke-width="0.32" stroke-linejoin="round" cx="279.622" cy="4.47913" rx="4.47922" ry="4.47919"/>
	<path fill="#FF6D76" fill-opacity="1" stroke-width="0.32" stroke-linejoin="round" d="M 272.169,35.3751C 273.991,35.3751 275.467,36.8513 275.467,38.6724C 275.467,40.4935 273.991,41.9698 272.169,41.9698C 270.348,41.9698 268.872,40.4935 268.872,38.6724C 268.872,36.8513 270.348,35.3751 272.169,35.3751 Z "/>
	<path fill="#FFFFFF" fill-opacity="1" stroke-width="0.32" stroke-linejoin="round" d="M 3.49988,66.0938C 5.43292,66.0938 6.99988,67.6608 6.99988,69.5938C 6.99988,71.5269 5.43292,73.0938 3.49988,73.0938C 1.56689,73.0938 -0.00012207,71.5269 -0.00012207,69.5938C -0.00012207,67.6608 1.56689,66.0938 3.49988,66.0938 Z "/>
	<path fill="none" stroke-width="0.32" stroke-linejoin="round" stroke="#4C269A" stroke-opacity="1" d="M 17.5416,29.2605L 7.54163,44.1355L 16.9166,51.8438L 25.9583,44.3438L 17.5416,29.2605 Z "/>
	<path fill="#BC9CFF" fill-opacity="1" stroke-width="0.32" stroke-linejoin="round" d="M 16.8905,51.6251L 17.5,29.4584L 25.9999,44.1095L 16.8905,51.6251 Z "/>
	<path fill="#4C269A" fill-opacity="1" stroke-width="0.32" stroke-linejoin="round" d="M 270.951,73.608L 285.224,61.74C 281.888,58.1536 276.291,57.7592 272.479,60.9291C 268.667,64.099 268.033,69.6743 270.951,73.608 Z "/>
</svg>
