<?xml version="1.0" encoding="utf-8"?>
<!DOCTYPE svg PUBLIC "-//W3C//DTD SVG 1.1//EN" "http://www.w3.org/Graphics/SVG/1.1/DTD/svg11.dtd">
<svg xmlns="http://www.w3.org/2000/svg" xmlns:xlink="http://www.w3.org/1999/xlink" version="1.1" baseProfile="full" width="64" height="72.1814" viewBox="0 0 64.00 72.18" enable-background="new 0 0 64.00 72.18" xml:space="preserve">
	<path fill="#FDEAD8" fill-opacity="1" stroke-width="0.32" stroke-linejoin="round" d="M 62.6875,31.4347C 60.2579,26.0742 55.2145,22.8212 51.4012,18.5656C 47.8476,14.5998 46.3319,9.31456 42.8088,5.38157C 38.4038,0.46423 31.2821,-0.618122 25.0342,0.263988C 23.09,0.538448 21.1848,1.00172 19.3956,1.61016C 17.5988,2.22102 15.8446,2.99432 14.1852,3.91584C 8.68527,6.97033 4.57761,11.3708 2.12506,17.166C 0.0380859,22.0976 -0.772583,27.5381 0.078125,32.8434C 1.47968,41.5843 6.94519,49.4793 14.3414,54.3437C 21.7374,59.2084 30.9193,61.1066 39.7191,60.1427C 46.8316,59.3635 53.957,56.6131 58.775,51.3235C 63.5931,46.0339 65.6415,37.9514 62.6875,31.4347 Z "/>
	<path fill="#F04954" fill-opacity="1" stroke-width="0.32" stroke-linejoin="round" d="M 40.4816,5.34349C 37.1776,4.8719 37.3278,8.15234 37.3278,8.15234L 38.9981,8.33915C 38.6395,7.42656 39.1851,6.46547 40.2589,6.51866C 41.3327,6.57194 41.141,7.89567 40.571,8.43782C 40.0715,8.91301 39.3072,9.56689 39.3072,9.56689L 38.925,11.1982L 40.4754,11.5097L 40.6243,9.96061C 40.6243,9.96061 41.4638,9.56005 42.1671,8.65771C 42.5118,8.21553 43.0379,5.70842 40.4816,5.34349 Z "/>
	<path fill="#F04954" fill-opacity="1" stroke-width="0.32" stroke-linejoin="round" d="M 39.5641,12.0314C 39.0422,11.9266 38.5572,12.1506 38.4805,12.5321C 38.4038,12.9133 38.7646,13.3076 39.2863,13.4125C 39.8079,13.5173 40.2931,13.2933 40.3696,12.9118C 40.4463,12.5304 40.0855,12.1363 39.5641,12.0314 Z "/>
	<path fill="#F04954" fill-opacity="1" stroke-width="0.32" stroke-linejoin="round" d="M 43.9933,12.7588C 42.2672,11.5736 41.438,13.4598 41.438,13.4598L 42.3251,14.03C 42.3777,13.417 42.9521,13.0286 43.5409,13.3574C 44.1297,13.6865 43.6534,14.3773 43.1821,14.5233C 42.7688,14.6514 42.1571,14.8063 42.1571,14.8063L 41.4879,15.6169L 42.2727,16.2238L 42.7879,15.3943C 42.7879,15.3943 43.3714,15.4028 44.0179,15.0914C 44.3348,14.9387 45.3289,13.6758 43.9933,12.7588 Z "/>
	<path fill="#F04954" fill-opacity="1" stroke-width="0.32" stroke-linejoin="round" d="M 41.6152,16.2633C 41.351,16.059 41.0158,16.05 40.8666,16.243C 40.7173,16.4361 40.8104,16.7581 41.0746,16.9622C 41.3386,17.1665 41.6736,17.1756 41.8229,16.9827C 41.9721,16.7895 41.8793,16.4675 41.6152,16.2633 Z "/>
	<path fill="#4652AC" fill-opacity="1" stroke-width="0.32" stroke-linejoin="round" d="M 21.1769,49.9588L 21.1267,98.0824L 28.0381,98.0824L 30.553,49.1245L 21.1769,49.9588 Z "/>
	<path fill="#4652AC" fill-opacity="1" stroke-width="0.32" stroke-linejoin="round" d="M 38.6686,49.7542L 41.5451,98.0824L 34.1405,98.0824L 28.7914,48.3445L 38.6686,49.7542 Z "/>
	<path fill="#314196" fill-opacity="1" stroke-width="0.32" stroke-linejoin="round" d="M 29.8192,54.8649C 29.7907,54.8649 29.7671,54.8422 29.7662,54.8135L 29.5726,48.508C 29.5718,48.4787 29.5948,48.4541 29.6239,48.4533C 29.6556,48.4546 29.6777,48.4752 29.6786,48.5045L 29.8722,54.8101C 29.873,54.8392 29.8501,54.864 29.8192,54.8649 Z "/>
	<path fill="#314196" fill-opacity="1" stroke-width="0.32" stroke-linejoin="round" d="M 29.7877,53.8414L 28.9756,53.8414C 28.9474,53.8414 28.9239,53.8193 28.9227,53.7908L 28.7385,49.4766C 28.7371,49.4473 28.7599,49.4225 28.7892,49.4212C 28.8188,49.4217 28.8431,49.4428 28.8444,49.4721L 29.0264,53.7356L 29.7877,53.7356C 29.817,53.7356 29.8408,53.7592 29.8408,53.7885C 29.8408,53.8178 29.817,53.8414 29.7877,53.8414 Z "/>
	<path fill="#314196" fill-opacity="1" stroke-width="0.32" stroke-linejoin="round" d="M 37.9074,53.4159C 37.4567,53.4159 37.048,53.2675 36.6888,52.9736C 35.3431,51.8719 35.1241,49.1243 35.1156,49.008C 35.1133,48.9787 35.1352,48.9535 35.1643,48.9513C 35.192,48.9456 35.2189,48.9709 35.221,49.0002C 35.2232,49.0283 35.4456,51.819 36.756,52.8917C 37.1622,53.2243 37.6368,53.3587 38.1646,53.2934C 38.1969,53.2906 38.2203,53.3106 38.2238,53.3394C 38.2277,53.3686 38.2069,53.3949 38.1779,53.3986C 38.0861,53.41 37.9958,53.4159 37.9074,53.4159 Z "/>
	<path fill="#314196" fill-opacity="1" stroke-width="0.32" stroke-linejoin="round" d="M 21.4672,53.5651C 21.4526,53.5651 21.4377,53.5588 21.4273,53.5469C 21.408,53.5247 21.4105,53.4912 21.4324,53.4721C 21.4467,53.4598 22.8466,52.2066 22.576,49.2577C 22.5734,49.2288 22.5948,49.203 22.6241,49.2001C 22.6532,49.1957 22.6788,49.2189 22.6816,49.2482C 22.9576,52.255 21.5166,53.5396 21.502,53.5523C 21.4918,53.5608 21.4797,53.5651 21.4672,53.5651 Z "/>
	<path fill="#F6948E" fill-opacity="1" stroke-width="0.32" stroke-linejoin="round" d="M 43.2796,41.5839C 42.3043,41.5839 41.3954,40.968 41.0686,39.9927L 36.0044,24.8923C 35.5948,23.6709 36.2525,22.349 37.4738,21.9394C 38.6954,21.5289 40.0173,22.188 40.4267,23.4089L 45.4909,38.5093C 45.9003,39.7307 45.2424,41.0526 44.0215,41.4622C 43.7753,41.5448 43.5253,41.5839 43.2796,41.5839 Z "/>
	<path fill="#F6948E" fill-opacity="1" stroke-width="0.32" stroke-linejoin="round" d="M 41.2165,38.2283L 47.4327,24.8161C 47.7822,24.0623 48.6766,23.7344 49.4305,24.0837C 50.1328,24.4093 50.4651,25.2075 50.2253,25.9245L 45.5521,39.9491C 45.1443,41.173 43.8212,41.8346 42.5974,41.4269C 41.3735,41.019 40.7118,39.6959 41.1196,38.4722C 41.1474,38.3889 41.1805,38.3062 41.2165,38.2283 Z "/>
	<path fill="#F6948E" fill-opacity="1" stroke-width="0.32" stroke-linejoin="round" d="M 47.3939,25.5875C 47.1367,24.8096 48.0323,23.8895 48.7628,23.4874C 50.0688,22.769 53.2856,22.3864 53.4415,22.6489C 53.5975,22.9115 51.7074,23.7635 51.7074,23.7635C 51.7074,23.7635 53.1334,23.7244 53.6522,23.9342C 53.6522,23.9342 55.0713,22.2766 55.3742,22.3683C 55.6771,22.4601 55.0853,23.4909 55.0853,23.4909C 55.0853,23.4909 56.4672,22.5722 56.661,22.7572C 56.8546,22.9422 54.8975,24.6596 54.4457,24.9357C 53.9939,25.2119 51.3273,26.3964 49.8575,26.5289C 48.3876,26.6614 47.6409,26.3348 47.3939,25.5875 Z "/>
	<path fill="#C75650" fill-opacity="1" stroke-width="0.32" stroke-linejoin="round" d="M 52.7046,25.631C 52.6921,25.631 52.6795,25.6257 52.671,25.6154C 52.6554,25.5969 52.6577,25.5693 52.6763,25.5537C 53.0848,25.21 53.7263,24.6034 53.709,24.4387C 53.7083,24.4311 53.7056,24.4274 53.699,24.4237C 53.5293,24.3344 52.5728,24.8065 52.0096,25.1254L 51.9978,25.132L 51.9842,25.1309C 51.9778,25.13 51.3202,25.0737 50.7448,25.212C 50.7202,25.2178 50.6974,25.2029 50.6917,25.1796C 50.686,25.156 50.7005,25.1323 50.724,25.1267C 51.2669,24.9963 51.8792,25.0349 51.9782,25.0424C 52.2538,24.8868 53.4827,24.2083 53.7401,24.3464C 53.773,24.3639 53.7923,24.3926 53.7961,24.4297C 53.8236,24.6889 52.9152,25.4674 52.7329,25.6207C 52.7245,25.6277 52.7144,25.631 52.7046,25.631 Z "/>
	<path fill="#C75650" fill-opacity="1" stroke-width="0.32" stroke-linejoin="round" d="M 53.2768,24.5049C 53.2676,24.5049 53.2589,24.5023 53.251,24.4964C 53.2314,24.4821 53.2272,24.4548 53.2415,24.4352L 53.5889,23.962C 53.6033,23.9422 53.6311,23.938 53.6502,23.9525C 53.6697,23.9666 53.674,23.9941 53.6597,24.0137L 53.3123,24.4869C 53.3036,24.4989 53.2903,24.5049 53.2768,24.5049 Z "/>
	<path fill="#C75650" fill-opacity="1" stroke-width="0.32" stroke-linejoin="round" d="M 53.4506,25.375C 53.4355,25.375 53.4207,25.3671 53.4127,25.3533C 53.4006,25.3321 53.4075,25.3055 53.4285,25.2934C 53.6679,25.1543 54.308,24.7687 54.3956,24.6553C 54.5037,24.5144 55.0074,23.5245 55.0126,23.5145C 55.0234,23.4927 55.05,23.4842 55.0715,23.4954C 55.0931,23.5064 55.1017,23.5326 55.0906,23.5543C 55.0698,23.5954 54.5782,24.5615 54.4651,24.7087C 54.3512,24.8566 53.5623,25.3172 53.4726,25.3691C 53.4658,25.373 53.4581,25.375 53.4506,25.375 Z "/>
	<path fill="#C75650" fill-opacity="1" stroke-width="0.32" stroke-linejoin="round" d="M 41.4212,37.6034C 41.4091,37.6064 41.3959,37.6052 41.3843,37.5991C 41.3582,37.5858 41.3479,37.5537 41.3613,37.5277L 42.7764,34.7823C 42.7899,34.7561 42.8223,34.7463 42.8477,34.7595C 42.8739,34.7729 42.8842,34.8049 42.8707,34.8307L 41.4557,37.5761C 41.4483,37.5904 41.4355,37.5999 41.4212,37.6034 Z "/>
	<path fill="#5BC6A7" fill-opacity="1" stroke-width="0.32" stroke-linejoin="round" d="M 36.2098,21.2861C 39.693,20.8421 40.5368,21.7037 40.9994,22.941C 41.4616,24.1781 43.7006,31.7006 43.7006,31.7006C 43.7006,31.7006 45.3349,27.7266 45.7379,27.4244C 46.141,27.1223 49.3986,28.3199 49.6447,28.9805C 49.8911,29.641 47.1036,38.5517 46.0738,40.3427C 45.0439,42.1338 42.0932,42.7831 40.7476,40.5666C 39.4019,38.3503 37.6461,32.4299 37.6461,32.4299L 36.2098,21.2861 Z "/>
	<path fill="#F6948E" fill-opacity="1" stroke-width="0.32" stroke-linejoin="round" d="M 7.62936,16.5592L 20.9898,11.3138C 21.7634,11.0102 22.6367,11.391 22.9405,12.1646C 23.2226,12.8834 22.9135,13.6883 22.2477,14.0423L 9.58234,20.7952C 8.44373,21.4023 7.02869,20.9715 6.42172,19.8329C 5.81467,18.6945 6.24542,17.2794 7.384,16.6723C 7.46399,16.6297 7.54718,16.5916 7.62936,16.5592 Z "/>
	<path fill="#F6948E" fill-opacity="1" stroke-width="0.32" stroke-linejoin="round" d="M 20.7345,13.8214C 20.7345,13.8214 23.1993,17.3425 23.6491,17.3646C 24.0991,17.3869 22.9879,14.7168 22.9879,14.7168C 22.9879,14.7168 29.7668,13.597 29.7586,13.2024C 29.7503,12.808 26.7527,13.1705 26.7527,13.1705C 26.7527,13.1705 30.0246,12.3258 29.9333,11.9297C 29.8504,11.5706 26.3977,12.2478 26.3977,12.2478C 26.3977,12.2478 29.706,11.0039 29.4324,10.7506C 29.1588,10.4974 26.0649,11.3946 26.0649,11.3946C 26.0649,11.3946 28.5764,10.0727 28.3763,9.91552C 28.1765,9.75834 25.373,10.6172 25.373,10.6172C 23.9849,10.804 22.3317,10.8775 21.6908,11.0516C 19.1444,11.7433 20.7345,13.8214 20.7345,13.8214 Z "/>
	<path fill="#F6948E" fill-opacity="1" stroke-width="0.32" stroke-linejoin="round" d="M 6.03278,18.8342C 6.02161,18.5478 6.06345,18.2543 6.16489,17.9676C 6.59372,16.7529 7.92627,16.1162 9.14056,16.5452L 24.4693,21.9597C 25.6841,22.3886 26.321,23.7216 25.8917,24.9356C 25.4627,26.15 24.1303,26.7868 22.9159,26.358L 7.5871,20.9434C 6.65939,20.6157 6.06873,19.7607 6.03278,18.8342 Z "/>
	<path fill="#C75650" fill-opacity="1" stroke-width="0.32" stroke-linejoin="round" d="M 10.6329,20.048C 10.6324,20.0325 10.6386,20.0167 10.6514,20.0057L 12.8875,18.088C 12.9098,18.0692 12.9432,18.0715 12.9624,18.0938C 12.981,18.1159 12.9787,18.1495 12.9565,18.1687L 10.7204,20.0862C 10.6983,20.1052 10.6647,20.1027 10.6458,20.0806C 10.6376,20.0711 10.6334,20.0596 10.6329,20.048 Z "/>
	<path fill="#5BC6A7" fill-opacity="1" stroke-width="0.32" stroke-linejoin="round" d="M 24.6716,21.0705L 15.3938,18.3615C 15.3938,18.3615 19.9612,16.055 20.1701,15.6052C 20.379,15.1554 19.1103,12.3345 18.2149,12.0958C 17.3192,11.8569 8.237,15.5165 6.44586,16.724C 4.65475,17.9316 5.55029,20.4986 7.29648,21.2861C 9.04291,22.0735 23.8194,28.0513 23.8194,28.0513L 24.6716,21.0705 Z "/>
	<path fill="#F36678" fill-opacity="1" stroke-width="0.32" stroke-linejoin="round" d="M 22.4228,32.0905C 21.7485,37.4284 21.1375,45.4063 20.9479,51.9008C 27.021,52.4273 33.0156,52.3636 38.9238,51.659C 38.4279,46.0229 38.2746,38.1818 38.7874,32.0395L 36.2098,21.2861L 29.5282,21.9197L 24.6716,21.0705L 22.4228,32.0905 Z "/>
	<path fill="#F04954" fill-opacity="1" stroke-width="0.32" stroke-linejoin="round" d="M 35.0582,29.8834C 32.1045,30.6121 29.0026,30.751 25.9966,30.2723C 25.1353,30.135 24.283,29.9476 23.4427,29.7145C 23.007,29.5938 22.821,30.2703 23.2562,30.391C 26.2801,31.2294 29.4703,31.4614 32.5826,31.0567C 33.479,30.9403 34.3671,30.7763 35.2447,30.5599C 35.6828,30.4517 35.4972,29.7751 35.0582,29.8834 Z "/>
	<path fill="#F04954" fill-opacity="1" stroke-width="0.32" stroke-linejoin="round" d="M 35.0582,31.6625C 32.1045,32.3911 29.0026,32.5302 25.9966,32.0513C 25.1353,31.9142 24.283,31.7266 23.4427,31.4937C 23.007,31.3728 22.821,32.0494 23.2562,32.1701C 26.2801,33.0086 29.4703,33.2404 32.5826,32.8359C 33.479,32.7193 34.3671,32.5555 35.2447,32.3389C 35.6828,32.2309 35.4972,31.5543 35.0582,31.6625 Z "/>
	<path fill="#F04954" fill-opacity="1" stroke-width="0.32" stroke-linejoin="round" d="M 35.0582,33.4416C 32.1045,34.1703 29.0026,34.3094 25.9966,33.8305C 25.1353,33.6932 24.283,33.5058 23.4427,33.2727C 23.007,33.152 22.821,33.8285 23.2562,33.9492C 26.2801,34.7877 29.4703,35.0196 32.5826,34.6149C 33.479,34.4985 34.3671,34.3346 35.2447,34.1181C 35.6828,34.0101 35.4972,33.3333 35.0582,33.4416 Z "/>
	<path fill="#2A9178" fill-opacity="1" stroke-width="0.32" stroke-linejoin="round" d="M 24.0208,50.1415C 24.0208,50.1415 24.0919,52.1677 23.9314,52.3318C 23.7708,52.496 20.4387,52.3094 20.2932,52.1079C 20.1476,51.9065 20.2373,50.1994 20.2373,50.1994L 24.0208,50.1415 Z "/>
	<path fill="#5BC6A7" fill-opacity="1" stroke-width="0.32" stroke-linejoin="round" d="M 26.6757,21.421C 24.7473,33.1114 24.4464,50.149 24.2,50.4399C 23.9537,50.731 20.5507,50.8429 20.1476,50.4399C 19.7448,50.037 21.9945,29.6503 22.6569,27.2454C 23.3192,24.8403 24.6716,21.0705 24.6716,21.0705L 26.6757,21.421 Z "/>
	<path fill="#84D4BA" fill-opacity="1" stroke-width="0.32" stroke-linejoin="round" d="M 26.6757,21.421C 26.2701,24.1257 25.7375,28.1716 25.7375,28.1716C 23.3571,25.0344 25.7984,21.2674 25.7984,21.2674L 26.6757,21.421 Z "/>
	<path fill="#2A9178" fill-opacity="1" stroke-width="0.32" stroke-linejoin="round" d="M 40.1296,50.1154L 33.5249,50.4512C 33.5249,50.4512 33.6034,52.2422 33.816,52.3877C 34.0286,52.5333 39.7601,52.4789 40.0065,52.2487C 40.2527,52.0183 40.1296,50.1154 40.1296,50.1154 Z "/>
	<path fill="#5BC6A7" fill-opacity="1" stroke-width="0.32" stroke-linejoin="round" d="M 33.2125,21.5703C 31.0488,40.072 32.7524,50.2834 33.2004,50.5967C 33.6479,50.9101 40.0511,50.9326 40.3871,50.3953C 40.7227,49.8579 39.1779,42.1561 39.0662,39.9846C 38.9542,37.8128 38.9238,31.5714 38.9238,31.5714L 36.3845,21.2649L 33.2125,21.5703 Z "/>
	<path fill="#FEFEFE" fill-opacity="1" stroke-width="0.32" stroke-linejoin="round" d="M 36.4283,30.1968C 36.2075,30.3347 35.9561,30.3969 35.6961,30.3752C 35.4156,30.3521 35.1913,30.2109 34.9694,30.0495C 34.5953,29.7772 34.0347,29.4981 33.6412,29.9058C 33.4843,30.0683 33.732,30.3167 33.889,30.1538C 34.0374,30.0003 34.2784,30.0417 34.4519,30.129C 34.6949,30.2515 34.8895,30.4512 35.1335,30.5725C 35.5995,30.8041 36.1644,30.7749 36.6053,30.4997C 36.7965,30.3804 36.6205,30.0768 36.4283,30.1968 Z "/>
	<path fill="#FEFEFE" fill-opacity="1" stroke-width="0.32" stroke-linejoin="round" d="M 36.4283,31.0403C 36.2075,31.178 35.9561,31.2402 35.6961,31.2186C 35.4156,31.1955 35.1913,31.0544 34.9694,30.8929C 34.5953,30.6206 34.0347,30.3415 33.6412,30.7492C 33.4843,30.9117 33.732,31.16 33.889,30.9972C 34.0374,30.8438 34.2784,30.8851 34.4519,30.9724C 34.6949,31.0948 34.8895,31.2946 35.1335,31.4159C 35.5995,31.6474 36.1644,31.6183 36.6053,31.3432C 36.7965,31.2239 36.6205,30.9203 36.4283,31.0403 Z "/>
	<path fill="#84D4BA" fill-opacity="1" stroke-width="0.32" stroke-linejoin="round" d="M 34.2601,21.4695L 33.2125,21.5703C 33.0906,22.8209 32.5681,28.1716 32.5681,28.1716C 32.5681,28.1716 35.6333,25.1409 34.2601,21.4695 Z "/>
	<path fill="#2A9178" fill-opacity="1" stroke-width="0.32" stroke-linejoin="round" d="M 22.6104,27.3044C 22.5867,27.3044 22.5672,27.2856 22.5665,27.2615C 22.5165,25.2514 23.0601,23.1957 24.0972,21.4729C 24.1097,21.4519 24.1367,21.4456 24.1574,21.4579C 24.1782,21.4705 24.1849,21.4973 24.1724,21.5181C 23.1437,23.2269 22.6046,25.2658 22.6542,27.2595C 22.6549,27.2836 22.6357,27.3036 22.6104,27.3044 Z "/>
	<path fill="#2A9178" fill-opacity="1" stroke-width="0.32" stroke-linejoin="round" d="M 38.6537,35.8016C 38.6345,35.8016 38.6169,35.7891 38.6114,35.77C 37.3969,31.5444 36.9974,26.9999 37.456,22.6273C 37.4583,22.6033 37.4798,22.5852 37.5041,22.5882C 37.5282,22.5907 37.5457,22.6123 37.5432,22.6364C 37.0858,26.9979 37.4843,31.5308 38.6957,35.7455C 38.7024,35.769 38.6891,35.7933 38.6537,35.8016 Z "/>
	<path fill="#2A9178" fill-opacity="1" stroke-width="0.32" stroke-linejoin="round" d="M 44.0496,35.8417C 44.0253,35.8417 44.0058,35.8217 44.006,35.7978C 44.0112,34.498 43.9037,33.1897 43.686,31.9086C 43.6821,31.8846 43.6979,31.862 43.7219,31.858C 43.7455,31.8535 43.7684,31.8698 43.7725,31.8937C 43.9908,33.1801 44.0988,34.4935 44.0936,35.7981C 44.0935,35.822 44.0739,35.8417 44.0497,35.8417 Z "/>
	<path fill="#2A9178" fill-opacity="1" stroke-width="0.32" stroke-linejoin="round" d="M 15.0836,18.3508C 13.8551,18.0793 12.5976,17.8822 11.3464,17.7651C 11.3223,17.7628 11.3046,17.7415 11.3068,17.7174C 11.309,17.6933 11.3309,17.6745 11.3546,17.6778C 12.6096,17.7952 13.8705,17.9929 15.1024,18.2651C 15.1262,18.2705 15.1411,18.2938 15.1358,18.3174C 15.1313,18.338 15.1132,18.3518 15.0929,18.3518 Z "/>
	<path fill="#2A9178" fill-opacity="1" stroke-width="0.32" stroke-linejoin="round" d="M 13.57,18.0351C 13.5622,18.0351 13.5542,18.0329 13.5471,18.0285L 12.4303,17.3426C 12.4096,17.33 12.4032,17.303 12.4158,17.2824C 12.4283,17.2618 12.4554,17.255 12.4762,17.2679L 13.593,17.9538C 13.6136,17.9666 13.6201,17.9934 13.6074,18.0142C 13.5991,18.0276 13.5848,18.0351 13.57,18.0351 Z "/>
	<path fill="#2A9178" fill-opacity="1" stroke-width="0.32" stroke-linejoin="round" d="M 44.66,35.4139C 44.6412,35.4139 44.624,35.4015 44.618,35.3826C 44.4428,34.7967 44.2149,34.2219 43.9406,33.6741C 43.93,33.6523 43.9386,33.626 43.9603,33.6152C 43.9817,33.6046 44.008,33.6134 44.0191,33.6347C 44.2956,34.1873 44.5255,34.7669 44.7021,35.3575C 44.7091,35.3806 44.696,35.405 44.66,35.4139 Z "/>
	<path fill="#F6948E" fill-opacity="1" stroke-width="0.32" stroke-linejoin="round" d="M 32.1201,17.4955L 32.4638,22.4132C 32.4638,22.4132 29.6577,23.8111 27.799,22.7226L 27.8638,18.9902L 32.1201,17.4955 Z "/>
	<path fill="#BE524D" fill-opacity="1" stroke-width="0.32" stroke-linejoin="round" d="M 27.8216,21.421C 30.2884,21.2117 31.1555,19.8652 31.1555,19.8652L 27.8445,20.0984L 27.8216,21.421 Z "/>
	<path fill="#F6948E" fill-opacity="1" stroke-width="0.32" stroke-linejoin="round" d="M 32.8978,21.6001L 29.5284,21.9197L 27.3573,21.5401C 27.3053,24.6862 31.9354,24.7603 32.8978,21.6001 Z "/>
	<path fill="#172840" fill-opacity="1" stroke-width="0.32" stroke-linejoin="round" d="M 32.3661,18.7173C 33.2677,18.27 33.9951,17.482 34.3692,16.5475C 34.7277,15.652 34.801,14.7126 34.8311,13.7482C 35.0712,13.6574 35.197,13.3787 35.1898,13.1221C 35.1826,12.8654 35.071,12.6247 34.9617,12.3925C 35.2645,12.3867 35.5146,12.1142 35.575,11.8176C 35.6356,11.5209 35.5429,11.2127 35.4063,10.9425C 35.0892,10.3148 34.5236,9.81689 33.8607,9.5822C 33.895,8.60327 33.4258,7.61547 32.711,6.9459C 32.3973,6.65196 32.0158,6.41291 31.5914,6.34533C 31.1668,6.27777 30.697,6.40551 30.4225,6.73643C 29.8396,6.20134 29.0197,5.93476 28.2335,6.02467C 27.4475,6.11467 26.7089,6.55969 26.262,7.21263C 25.8707,7.16137 25.5228,7.24308 25.1566,7.39048C 24.7905,7.53791 24.4693,7.81657 24.3163,8.18029C 24.1633,8.54406 24.1975,8.99202 24.4422,9.30174C 23.9783,9.68116 23.6473,10.3182 23.5962,10.9152C 23.545,11.5124 23.7449,12.127 24.1373,12.5798C 24.3149,13.6 24.679,14.5644 25.1342,15.4946C 26.2961,17.8699 29.7419,18.3914 32.3661,18.7173 Z "/>
	<path fill="#F6948E" fill-opacity="1" stroke-width="0.32" stroke-linejoin="round" d="M 27.1428,9.30006C 31.7346,8.73053 34.1453,10.9394 33.7568,15.2288C 33.4472,18.6432 31.4646,20.7677 28.2364,20.7782C 25.2628,20.7879 24.78,18.3608 24.74,15.815C 24.6826,12.1852 24.4163,9.63841 27.1428,9.30006 Z "/>
	<path fill="#172840" fill-opacity="1" stroke-width="0.32" stroke-linejoin="round" d="M 24.7117,11.2868C 24.7398,11.4063 24.8447,11.4961 24.9603,11.537C 25.0759,11.5779 25.2017,11.5776 25.3242,11.5715C 26.1214,11.5314 26.9054,11.2581 27.5548,10.794C 27.4363,10.9801 27.5421,11.2434 27.7249,11.3669C 27.9077,11.4903 28.1403,11.5081 28.3608,11.5112C 29.0653,11.5215 29.7714,11.4226 30.4459,11.219C 30.331,11.4572 30.5016,11.7551 30.7403,11.8689C 30.9792,11.9826 31.2581,11.9604 31.5203,11.9254C 31.3907,12.3611 31.4587,12.8598 31.6328,13.2798C 31.8069,13.6998 32.1288,14.0567 32.5287,14.273C 32.4081,14.7258 32.4761,15.2258 32.7133,15.63C 32.9505,16.0342 33.3537,16.3374 33.8078,16.453C 33.9392,15.2393 34.0609,14.0153 33.7992,12.8225C 33.5378,11.6298 32.9302,10.4773 31.9443,9.75702C 31.0747,9.12176 29.978,8.86592 28.9024,8.8137C 28.0009,8.76994 27.07,8.86576 26.265,9.27345C 25.4595,9.68133 24.5039,10.4086 24.7117,11.2868 Z "/>
	<path fill="#172840" fill-opacity="1" stroke-width="0.32" stroke-linejoin="round" d="M 24.9421,14.3104C 24.9421,14.3104 25.9937,13.8069 26.7103,13.7339C 26.1909,13.3252 25.2764,13.856 24.9421,14.3104 Z "/>
	<path fill="#172840" fill-opacity="1" stroke-width="0.32" stroke-linejoin="round" d="M 30.316,14.3417C 30.316,14.3417 29.2842,13.7991 28.5708,13.6991C 29.1052,13.3104 29.9991,13.8751 30.316,14.3417 Z "/>
	<path fill="#172840" fill-opacity="1" stroke-width="0.32" stroke-linejoin="round" d="M 26.3533,15.7551C 26.3533,15.9828 26.2034,16.1674 26.0188,16.1674C 25.8338,16.1674 25.6839,15.9828 25.6839,15.7551C 25.6839,15.5274 25.8338,15.3427 26.0188,15.3427C 26.2034,15.3427 26.3533,15.5274 26.3533,15.7551 Z "/>
	<path fill="#FEFEFE" fill-opacity="1" stroke-width="0.32" stroke-linejoin="round" d="M 26.0188,15.6052C 26.0188,15.6786 25.9717,15.7381 25.9137,15.7381C 25.8556,15.7381 25.8085,15.6786 25.8085,15.6052C 25.8085,15.5319 25.8556,15.4723 25.9137,15.4723C 25.9717,15.4723 26.0188,15.5319 26.0188,15.6052 Z "/>
	<path fill="#172840" fill-opacity="1" stroke-width="0.32" stroke-linejoin="round" d="M 29.5911,15.7551C 29.5911,15.9828 29.4412,16.1674 29.2564,16.1674C 29.0716,16.1674 28.9219,15.9828 28.9219,15.7551C 28.9219,15.5274 29.0716,15.3427 29.2564,15.3427C 29.4412,15.3427 29.5911,15.5274 29.5911,15.7551 Z "/>
	<path fill="#FEFEFE" fill-opacity="1" stroke-width="0.32" stroke-linejoin="round" d="M 29.2564,15.6052C 29.2564,15.6786 29.2095,15.7381 29.1515,15.7381C 29.0934,15.7381 29.0463,15.6786 29.0463,15.6052C 29.0463,15.5319 29.0934,15.4723 29.1515,15.4723C 29.2095,15.4723 29.2564,15.5319 29.2564,15.6052 Z "/>
	<path fill="#BE524D" fill-opacity="1" stroke-width="0.32" stroke-linejoin="round" d="M 27.2848,17.2736C 27.2783,17.2736 27.2718,17.2729 27.2651,17.2716C 27.0685,17.2352 26.9293,17.1532 26.8626,17.0349C 26.8252,16.9682 26.7929,16.8559 26.8517,16.7006C 26.8852,16.6124 26.9529,16.4996 27.0246,16.3799C 27.0902,16.2706 27.1581,16.1575 27.1853,16.0839C 27.2058,16.0294 27.2667,16.0013 27.3217,16.0217C 27.3766,16.0422 27.4045,16.1032 27.3841,16.1581C 27.3498,16.2498 27.2801,16.366 27.2064,16.489C 27.1426,16.5951 27.0767,16.7052 27.0501,16.7758C 27.0256,16.8399 27.025,16.8907 27.0476,16.931C 27.0817,16.992 27.1729,17.0389 27.3041,17.0634C 27.3616,17.0738 27.3995,17.1294 27.3888,17.1869C 27.3795,17.2378 27.3348,17.2736 27.2848,17.2736 Z "/>
	<path fill="#A13D39" fill-opacity="1" stroke-width="0.32" stroke-linejoin="round" d="M 28.6243,17.9815C 28.1905,17.8425 27.7244,17.8258 27.277,17.9338C 27.2108,17.9498 27.1887,18.0101 27.2009,18.0616C 27.2142,18.1161 27.2639,18.162 27.3339,18.1456C 27.738,18.0481 28.1638,18.064 28.5643,18.1923C 28.5763,18.1961 28.5877,18.1981 28.5991,18.1981C 28.623,18.1981 28.6451,18.1896 28.6633,18.173C 28.6927,18.1464 28.7065,18.1013 28.6978,18.0609C 28.6895,18.0226 28.6628,17.9938 28.6243,17.9815 Z "/>
	<path fill="#F6948E" fill-opacity="1" stroke-width="0.32" stroke-linejoin="round" d="M 32.9933,15.8644C 32.7209,16.537 32.9167,17.1861 33.4038,17.3834C 33.8908,17.5805 34.5063,17.1951 34.7784,16.5223C 35.0507,15.8496 34.8764,15.1443 34.3893,14.9472C 33.9023,14.7499 33.2652,15.1915 32.9933,15.8644 Z "/>
	<path fill="#BE524D" fill-opacity="1" stroke-width="0.32" stroke-linejoin="round" d="M 33.4629,16.7318C 33.4193,16.7318 33.3785,16.7051 33.3629,16.6615C 33.3432,16.6064 33.3718,16.5457 33.4271,16.5261C 33.5355,16.4873 33.6553,16.3847 33.6623,16.2506C 33.6651,16.198 33.6455,16.1465 33.6224,16.0869C 33.5997,16.0279 33.5741,15.9612 33.5695,15.8845C 33.5605,15.7443 33.6154,15.5979 33.7164,15.4927C 33.8451,15.359 34.0136,15.2937 34.167,15.319C 34.4226,15.3603 34.556,15.6092 34.556,15.8334C 34.556,15.892 34.5086,15.9396 34.4501,15.9396C 34.3914,15.9396 34.344,15.892 34.344,15.8334C 34.344,15.7022 34.2701,15.5505 34.133,15.528C 34.0321,15.5115 33.9284,15.5781 33.8692,15.6398C 33.8088,15.7027 33.7759,15.7892 33.7811,15.8713C 33.7837,15.9154 33.8015,15.9618 33.8203,16.0109C 33.8477,16.0828 33.8792,16.1641 33.874,16.2619C 33.8617,16.494 33.6766,16.6621 33.4984,16.7257C 33.4866,16.7298 33.4745,16.7318 33.4629,16.7318 Z "/>
</svg>
