<?xml version="1.0" encoding="utf-8"?>
<!DOCTYPE svg PUBLIC "-//W3C//DTD SVG 1.1//EN" "http://www.w3.org/Graphics/SVG/1.1/DTD/svg11.dtd">
<svg xmlns="http://www.w3.org/2000/svg" xmlns:xlink="http://www.w3.org/1999/xlink" version="1.1" baseProfile="full" width="455.265" height="308.512" viewBox="0 0 455.27 308.51" enable-background="new 0 0 455.27 308.51" xml:space="preserve">
	<path fill="#505050" fill-opacity="1" stroke-width="4.3" stroke-linejoin="round" d="M 108.013,119.154C 108.013,119.154 98.0208,62.4613 126.911,62.4613C 155.801,62.4612 353.683,62.4612 353.683,62.4612C 353.683,62.4612 367.301,62.4613 364.301,81.3589C 361.301,100.256 334.785,240.87 334.785,240.87L 100.301,243.37L 108.013,119.154 Z "/>
	<path fill="#151515" fill-opacity="1" stroke-width="0.32" stroke-linejoin="round" d="M 221.399,93.3698C 221.399,93.3696 126.911,77.8698 108.013,54.8698C 89.1158,31.8698 19.8015,35.8698 3.30145,90.8696C -13.1985,145.87 32.4229,224.006 126.911,251.438C 221.399,278.87 307.45,335.506 410.376,251.438C 513.301,167.37 413.715,81.8698 364.801,106.37C 315.887,130.87 221.399,125.483 221.399,112.87C 221.399,100.256 221.399,94.3696 221.399,93.3698 Z "/>
	<g>
		<path fill="#4D4D4D" fill-opacity="1" fill-rule="evenodd" stroke-width="4.3" stroke-linecap="round" stroke-linejoin="round" stroke="#939393" stroke-opacity="1" d="M 197.342,2.9447L 331.532,63.4296C 336.063,65.472 338.081,70.8014 336.039,75.3329L 261.379,240.97C 259.336,245.502 254.007,247.52 249.475,245.477L 115.286,184.992C 110.754,182.95 108.737,177.62 110.779,173.089L 185.439,7.45142C 187.482,2.91992 192.811,0.902222 197.342,2.9447 Z "/>
		<path fill="none" fill-rule="evenodd" stroke-width="4.3" stroke-linecap="round" stroke-linejoin="round" stroke="#939393" stroke-opacity="1" d="M 214.483,83.4674C 214.483,83.4674 229.983,65.8424 248.608,75.4674C 267.233,85.0924 264.905,106.06 264.905,106.06"/>
		<path fill="#939393" fill-opacity="1" fill-rule="evenodd" stroke-width="4.3" stroke-linecap="round" stroke-linejoin="round" d="M 227.796,45.5924C 230.108,45.5924 231.983,47.4672 231.983,49.7799C 231.983,52.0925 230.108,53.9674 227.796,53.9674C 225.483,53.9674 223.608,52.0925 223.608,49.7799C 223.608,47.4672 225.483,45.5924 227.796,45.5924 Z "/>
		<path fill="#939393" fill-opacity="1" fill-rule="evenodd" stroke-width="4.3" stroke-linecap="round" stroke-linejoin="round" d="M 279.615,70.5924C 281.927,70.5924 283.802,72.4672 283.802,74.7799C 283.802,77.0925 281.927,78.9674 279.615,78.9674C 277.302,78.9674 275.427,77.0925 275.427,74.7799C 275.427,72.4672 277.302,70.5924 279.615,70.5924 Z "/>
	</g>
	<path fill="#4D4D4D" fill-opacity="1" fill-rule="evenodd" stroke-width="4.3" stroke-linecap="square" stroke-linejoin="round" stroke="#939393" stroke-opacity="1" d="M 89.1158,77.453C 89.1158,77.453 81.387,80.5106 81.387,86.453C 81.3869,92.3954 81.387,251.438 81.387,251.438C 81.387,251.438 81.8979,262.703 89.1158,262.703C 96.3337,262.703 324.554,262.786 324.554,262.786C 324.554,262.786 335.358,262.693 335.358,251.982C 335.358,241.271 335.358,125.035 335.358,125.035C 335.358,125.035 334.306,114.036 322.304,114.036C 310.301,114.036 209.304,114.036 209.304,114.036C 209.304,114.036 195.054,114.627 195.054,105.286C 195.304,105.703 187.804,88.078 187.804,88.078C 187.804,88.078 184.969,77.6198 175.554,77.6196C 166.138,77.6196 89.1158,77.453 89.1158,77.453 Z "/>
	<g>
		<path fill="#FFFFFF" fill-opacity="1" stroke-width="4.3" stroke-linejoin="round" stroke="#696969" stroke-opacity="1" d="M 335.851,226.756L 335.851,226.564L 351.696,242.409L 410.789,301.501"/>
		<path fill="#262626" fill-opacity="1" stroke-width="4.3" stroke-linejoin="round" d="M 353.471,250.676L 360.236,243.911C 362.188,241.959 365.354,241.959 367.307,243.911L 416.607,293.212C 418.56,295.164 418.56,298.33 416.607,300.283L 409.842,307.048C 407.89,309 404.724,309 402.771,307.048L 353.471,257.747C 351.518,255.795 351.518,252.629 353.471,250.676 Z "/>
		<ellipse fill="#4D4D4D" fill-opacity="1" stroke-width="4.3" stroke-linejoin="round" stroke="#939393" stroke-opacity="1" cx="298.533" cy="189.178" rx="66.1417" ry="66.1417"/>
	</g>
</svg>
