<?xml version="1.0" encoding="utf-8"?>
<!DOCTYPE svg PUBLIC "-//W3C//DTD SVG 1.1//EN" "http://www.w3.org/Graphics/SVG/1.1/DTD/svg11.dtd">
<svg xmlns="http://www.w3.org/2000/svg" xmlns:xlink="http://www.w3.org/1999/xlink" version="1.1" baseProfile="full" width="158.783" height="165.72" viewBox="0 0 158.78 165.72" enable-background="new 0 0 158.78 165.72" xml:space="preserve">
	<path fill="#C46994" fill-opacity="1" fill-rule="evenodd" stroke-width="4.3" stroke-linecap="round" stroke-linejoin="round" d="M 63.594,8.86108L 143.656,17.2903C 152.994,18.2737 159.766,26.6399 158.783,35.9768L 146.715,150.594C 145.732,159.931 137.366,166.703 128.029,165.72L 47.9666,157.29C 38.6289,156.307 31.8567,147.941 32.8398,138.604L 44.9075,23.9875C 45.8906,14.6501 54.2568,7.87769 63.594,8.86108 Z "/>
	<path fill="#F29AC4" fill-opacity="1" fill-rule="evenodd" stroke-width="4.3" stroke-linecap="round" stroke-linejoin="round" d="M 60.47,6.3186L 140.533,14.7483C 149.87,15.7312 156.642,24.0974 155.659,33.4348L 143.592,148.051C 142.608,157.388 134.242,164.161 124.905,163.177L 44.8425,154.748C 35.5051,153.765 28.7332,145.399 29.7161,136.061L 41.7839,21.4451C 42.7668,12.1082 51.1331,5.33569 60.47,6.3186 Z "/>
	<path fill="#5584D6" fill-opacity="1" fill-rule="evenodd" stroke-width="4.3" stroke-linecap="round" stroke-linejoin="round" d="M 14.3623,11.6448L 94.0203,-0.000244141C 103.311,-1.35815 111.943,5.07202 113.301,14.3621L 129.972,128.4C 131.33,137.69 124.9,146.322 115.609,147.68L 35.9512,159.325C 26.6611,160.683 18.0293,154.253 16.6711,144.963L 0.000244141,30.9255C -1.35767,21.635 5.07227,13.0032 14.3623,11.6448 Z "/>
	<path fill="#C48615" fill-opacity="1" fill-rule="evenodd" stroke-width="4.3" stroke-linecap="round" stroke-linejoin="round" d="M 42.9658,6.38208L 123.471,6.38208C 132.86,6.38208 140.471,13.9934 140.471,23.3821L 140.471,138.633C 140.471,148.021 132.86,155.633 123.471,155.633L 42.9658,155.633C 33.5769,155.633 25.9656,148.021 25.9656,138.633L 25.9656,23.3821C 25.9656,13.9934 33.5769,6.38208 42.9658,6.38208 Z "/>
	<path fill="#E99906" fill-opacity="1" fill-rule="evenodd" stroke-width="4.3" stroke-linecap="round" stroke-linejoin="round" d="M 40.8406,4.63159L 121.346,4.63159C 130.735,4.63159 138.346,12.2429 138.346,21.6316L 138.346,136.882C 138.346,146.27 130.735,153.882 121.346,153.882L 40.8406,153.882C 31.4512,153.882 23.8401,146.27 23.8401,136.882L 23.8401,21.6316C 23.8401,12.2429 31.4512,4.63159 40.8406,4.63159 Z "/>
	<g>
		<g>
			<path fill="#CECECE" fill-opacity="1" fill-rule="evenodd" stroke-width="2" stroke-linecap="round" stroke-linejoin="round" stroke="#000000" stroke-opacity="1" d="M 76.6184,48.9133L 107.663,62.9065C 108.711,63.3792 109.178,64.6121 108.705,65.6604L 91.4333,103.98C 90.9607,105.029 89.7278,105.495 88.6794,105.023L 57.6348,91.0295C 56.5867,90.5574 56.1199,89.3245 56.5925,88.2761L 73.8645,49.9563C 74.3372,48.908 75.5701,48.4412 76.6184,48.9133 Z "/>
			<path fill="none" fill-rule="evenodd" stroke-width="2" stroke-linecap="round" stroke-linejoin="round" stroke="#000000" stroke-opacity="1" d="M 80.584,67.5422C 80.584,67.5422 84.1699,63.4646 88.4788,65.6912C 92.7878,67.9177 92.249,72.7688 92.249,72.7688"/>
			<path fill="#000000" fill-opacity="1" fill-rule="evenodd" stroke-width="2" stroke-linecap="round" stroke-linejoin="round" d="M 83.6638,58.7795C 84.199,58.7795 84.6328,59.2136 84.6328,59.7483C 84.6328,60.2834 84.199,60.717 83.6638,60.717C 83.1289,60.717 82.6951,60.2834 82.6951,59.7483C 82.6951,59.2136 83.1289,58.7795 83.6638,58.7795 Z "/>
			<path fill="#000000" fill-opacity="1" fill-rule="evenodd" stroke-width="2" stroke-linecap="round" stroke-linejoin="round" d="M 95.6526,64.5632C 96.1877,64.5632 96.6218,64.9968 96.6218,65.532C 96.6218,66.0671 96.1877,66.5007 95.6526,66.5007C 95.1179,66.5007 94.6838,66.0671 94.6838,65.532C 94.6838,64.9968 95.1179,64.5632 95.6526,64.5632 Z "/>
		</g>
		<path fill="#CECECE" fill-opacity="1" fill-rule="evenodd" stroke-width="2" stroke-linecap="square" stroke-linejoin="round" stroke="#000000" stroke-opacity="1" d="M 51.5808,66.1506C 51.5808,66.1506 49.7927,66.8582 49.7927,68.2327C 49.7927,69.6072 49.7927,106.402 49.7927,106.402C 49.7927,106.402 49.9109,109.008 51.5808,109.008C 53.2502,109.008 106.049,109.027 106.049,109.027C 106.049,109.027 108.548,109.005 108.548,106.528C 108.548,104.05 108.548,77.1584 108.548,77.1584C 108.548,77.1584 108.305,74.614 105.528,74.614C 102.751,74.614 79.3857,74.614 79.3857,74.614C 79.3857,74.614 76.0891,74.7507 76.0891,72.5896C 76.1467,72.6863 74.4119,68.6086 74.4119,68.6086C 74.4119,68.6086 73.7561,66.1892 71.5779,66.1892C 69.3994,66.1892 51.5808,66.1506 51.5808,66.1506 Z "/>
	</g>
</svg>
