<?xml version="1.0" encoding="utf-8"?>
<!DOCTYPE svg PUBLIC "-//W3C//DTD SVG 1.1//EN" "http://www.w3.org/Graphics/SVG/1.1/DTD/svg11.dtd">
<svg xmlns="http://www.w3.org/2000/svg" xmlns:xlink="http://www.w3.org/1999/xlink" version="1.1" baseProfile="full" width="55.6068" height="103.995" viewBox="0 0 55.61 104.00" enable-background="new 0 0 55.61 104.00" xml:space="preserve">
	<g>
		<path fill="#DBAA36" fill-opacity="1" stroke-width="0.32" stroke-linejoin="round" d="M 35.4045,95.8422C 35.4667,95.7146 37.5573,89.8801 37.5573,89.8801L 28.3842,90.3793C 28.3842,90.3793 28.1396,96.5272 28.1997,96.5111C 28.2598,96.4953 35.4045,95.8422 35.4045,95.8422 Z "/>
		<path fill="#EEC85C" fill-opacity="1" stroke-width="0.32" stroke-linejoin="round" d="M 27.807,96.6782C 27.807,96.6782 26.4187,103.995 28.1997,103.995C 29.9807,103.995 37.7804,103.995 38.4198,103.995C 39.0593,103.995 36.8853,101.742 34.5839,101.543C 34.5839,101.543 36.5659,96.9338 36.7577,96.1667C 36.9494,95.3996 28.2544,96.1667 27.807,96.6782 Z "/>
		<g>
			<defs>
				<path id="SVG_CLIPPER1_" d="M 27.807,96.6782C 27.807,96.6782 26.4187,103.995 28.1997,103.995C 29.9807,103.995 37.7804,103.995 38.4198,103.995C 39.0593,103.995 36.8853,101.742 34.5839,101.543C 34.5839,101.543 36.5659,96.9338 36.7577,96.1667C 36.9494,95.3996 28.2544,96.1667 27.807,96.6782 Z "/>
			</defs>
			<clipPath id="SVG_CLIPPER2_">
				<use xlink:href="#SVG_CLIPPER1_" overflow="visible"/>
			</clipPath>
			<g clip-path="url(#SVG_CLIPPER2_)">
				<path fill="#E9B543" fill-opacity="1" stroke-width="0.32" stroke-linejoin="round" d="M 30.7475,103.995C 29.6271,103.995 28.6875,103.995 28.1997,103.995C 27.9587,103.995 27.7758,103.861 27.6396,103.63C 28.2759,102.546 27.8917,99.3289 27.6396,97.6788C 27.7321,97.0728 27.807,96.6782 27.807,96.6782C 27.952,96.5123 28.9628,96.3199 30.2565,96.1613C 29.9437,97.2902 28.9248,101.073 29.0632,101.97C 29.2265,103.028 30.8688,103.995 30.7475,103.995 Z "/>
			</g>
		</g>
		<path fill="#E8BF46" fill-opacity="1" stroke-width="0.32" stroke-linejoin="round" d="M 34.5839,101.543C 34.5839,101.543 32.3253,101.784 31.2482,102.208C 30.1709,102.632 31.1664,102.208 31.1664,102.208C 31.1664,102.208 35.1826,101.82 36.6995,102.243C 36.6995,102.243 35.7896,101.667 34.5839,101.543 Z "/>
		<path fill="#E8BF46" fill-opacity="1" stroke-width="0.32" stroke-linejoin="round" d="M 19.8746,95.8422C 19.8121,95.7146 17.7218,89.8801 17.7218,89.8801L 26.8945,90.3793C 26.8945,90.3793 27.1391,96.5272 27.079,96.5111C 27.0194,96.4953 19.8746,95.8422 19.8746,95.8422 Z "/>
		<path fill="#FCDB60" fill-opacity="1" stroke-width="0.32" stroke-linejoin="round" d="M 27.4718,96.6782C 27.4718,96.6782 28.8604,103.995 27.079,103.995C 25.2981,103.995 17.4985,103.995 16.859,103.995C 16.2198,103.995 18.3935,101.742 20.6952,101.543C 20.6952,101.543 18.7133,96.9338 18.5212,96.1667C 18.3293,95.3996 27.0244,96.1667 27.4718,96.6782 Z "/>
		<g>
			<defs>
				<path id="SVG_CLIPPER3_" d="M 27.4718,96.6782C 27.4718,96.6782 28.8604,103.995 27.079,103.995C 25.2981,103.995 17.4985,103.995 16.859,103.995C 16.2198,103.995 18.3935,101.742 20.6952,101.543C 20.6952,101.543 18.7133,96.9338 18.5212,96.1667C 18.3293,95.3996 27.0244,96.1667 27.4718,96.6782 Z "/>
			</defs>
			<clipPath id="SVG_CLIPPER4_">
				<use xlink:href="#SVG_CLIPPER3_" overflow="visible"/>
			</clipPath>
			<g clip-path="url(#SVG_CLIPPER4_)">
				<path fill="#FBCC46" fill-opacity="1" stroke-width="0.32" stroke-linejoin="round" d="M 19.6832,103.995C 18.2286,103.995 17.0874,103.995 16.859,103.995C 16.7822,103.995 16.7458,103.963 16.7458,103.905C 16.7437,103.484 18.6699,101.718 20.6952,101.543L 20.6952,101.543C 20.6952,101.543 18.7133,96.9338 18.518,96.1427C 18.517,95.9272 19.2643,95.8422 20.3274,95.8422C 20.7204,95.8422 21.1564,95.8539 21.6139,95.8748C 21.7264,97.1752 21.8717,101.201 22.3665,101.787C 22.8701,102.384 20.2642,102.858 19.6832,103.995 Z "/>
			</g>
		</g>
		<path fill="#E8BF46" fill-opacity="1" stroke-width="0.32" stroke-linejoin="round" d="M 20.6952,101.543C 20.6952,101.543 22.9538,101.784 24.0309,102.208C 25.1079,102.632 24.1124,102.208 24.1124,102.208C 24.1124,102.208 20.0964,101.82 18.5793,102.243C 18.5793,102.243 19.4895,101.667 20.6952,101.543 Z "/>
		<path fill="#89B0B3" fill-opacity="1" stroke-width="0.32" stroke-linejoin="round" d="M 16.0622,54.7862C 16.0622,54.7862 11.632,73.1598 10.6526,77.0304C 9.67334,80.901 6.78198,89.0153 6.78198,89.0153C 6.78198,89.0153 9.11377,91.3467 10.5595,91.6734C 12.0051,91.9997 27.1533,91.3214 27.1533,91.3214L 28.3469,90.9382C 28.3469,90.9382 40.9644,89.8548 42.4567,89.2949C 43.9491,88.7354 37.0006,49.1434 36.9074,48.8638C 36.8142,48.5839 22.5908,48.6304 16.0622,54.7862 Z "/>
		<g>
			<defs>
				<path id="SVG_CLIPPER5_" d="M 16.0622,54.7862C 16.0622,54.7862 11.632,73.1598 10.6526,77.0304C 9.67334,80.901 6.78198,89.0153 6.78198,89.0153C 6.78198,89.0153 9.11377,91.3467 10.5595,91.6734C 12.0051,91.9997 27.1533,91.3214 27.1533,91.3214L 28.3469,90.9382C 28.3469,90.9382 40.9644,89.8548 42.4567,89.2949C 43.9491,88.7354 37.0006,49.1434 36.9074,48.8638C 36.8142,48.5839 22.5908,48.6304 16.0622,54.7862 Z "/>
			</defs>
			<clipPath id="SVG_CLIPPER6_">
				<use xlink:href="#SVG_CLIPPER5_" overflow="visible"/>
			</clipPath>
			<g clip-path="url(#SVG_CLIPPER6_)">
				<path fill="#263165" fill-opacity="1" stroke-width="0.32" stroke-linejoin="round" d="M 19.8762,53.3594L 19.504,60.2178L 14.9292,56.3949C 14.9292,56.3949 16.8549,54.1679 19.8762,53.3594 Z "/>
				<path fill="#263165" fill-opacity="1" stroke-width="0.32" stroke-linejoin="round" d="M 29.853,50.1406C 29.853,50.1406 32.5126,54.5195 36.9952,54.6566C 41.4781,54.7931 36.9952,54.6566 36.9952,54.6566L 36.7255,51.6722L 29.853,50.1406 Z "/>
				<path fill="#263165" fill-opacity="1" stroke-width="0.32" stroke-linejoin="round" d="M 15.8259,65.3045L 10.5595,91.6734L 5.67773,88.7648L 12.7033,65.6062L 15.8259,65.3045 Z "/>
				<path fill="#263165" fill-opacity="1" stroke-width="0.32" stroke-linejoin="round" d="M 35.4054,53.644L 37.8457,89.8801L 42.6667,89.7281L 38.5332,54.1612L 36.9952,54.6566"/>
				<path fill="#4861B5" fill-opacity="1" stroke-width="0.32" stroke-linejoin="round" d="M 19.8762,53.3594C 19.8762,53.3594 25.9059,50.3614 28.0654,50.5197C 30.2252,50.6777 31.1487,51.767 31.1487,51.767C 31.1487,51.767 31.9067,49.0989 28.9861,48.8253C 26.0656,48.551 19.8762,53.3594 19.8762,53.3594 Z "/>
				<path fill="#FCDB60" fill-opacity="1" stroke-width="0.32" stroke-linejoin="round" d="M 15.4833,66.2119L 15.4218,66.5218C 15.4047,66.6075 15.46,66.6906 15.5456,66.7076C 15.6312,66.7247 15.7143,66.6694 15.7314,66.5838L 15.7933,66.2738C 15.8104,66.1885 15.7551,66.1051 15.6694,66.0881C 15.5839,66.071 15.5007,66.1266 15.4833,66.2119 Z "/>
				<path fill="#FCDB60" fill-opacity="1" stroke-width="0.32" stroke-linejoin="round" d="M 15.3007,67.1269L 15.1797,67.7319C 15.1627,67.8175 15.2183,67.9009 15.3039,67.918C 15.3892,67.935 15.4726,67.8794 15.4897,67.7938L 15.6107,67.1888C 15.6278,67.1032 15.5721,67.0201 15.4865,67.003C 15.4009,66.986 15.3178,67.0413 15.3007,67.1269 Z M 15.059,68.3372L 14.9381,68.9423C 14.921,69.0279 14.9766,69.111 15.0622,69.1281C 15.1475,69.1451 15.2309,69.0898 15.248,69.0042L 15.3687,68.3992C 15.3861,68.3135 15.3304,68.2301 15.2448,68.2131C 15.1592,68.196 15.0761,68.2516 15.059,68.3372 Z M 14.8173,69.5473L 14.6964,70.1526C 14.6793,70.2383 14.7349,70.3214 14.8205,70.3384C 14.9059,70.3555 14.9892,70.2999 15.0063,70.2146L 15.127,69.6092C 15.144,69.5239 15.0887,69.4405 15.0031,69.4234C 14.9175,69.4064 14.8344,69.462 14.8173,69.5473 Z M 14.5757,70.7577L 14.4547,71.363C 14.4376,71.4483 14.4932,71.5317 14.5788,71.5488C 14.6642,71.5659 14.7476,71.5103 14.7646,71.4246L 14.8853,70.8196C 14.9023,70.734 14.847,70.6509 14.7614,70.6338C 14.6758,70.6168 14.5927,70.6721 14.5757,70.7577 Z M 14.334,71.9681L 14.213,72.5731C 14.1959,72.6587 14.2515,72.7418 14.3369,72.7589C 14.4225,72.7762 14.5059,72.7206 14.5229,72.635L 14.6436,72.03C 14.6606,71.9444 14.6053,71.8613 14.5197,71.8442C 14.4341,71.8268 14.351,71.8824 14.334,71.9681 Z M 14.092,73.1784L 13.9713,73.7834C 13.9542,73.8691 14.0098,73.9522 14.0952,73.9692C 14.1808,73.9863 14.2639,73.931 14.2812,73.8454L 14.4019,73.24C 14.4189,73.1547 14.3634,73.0713 14.278,73.0543C 14.1924,73.0372 14.1093,73.0928 14.092,73.1784 Z M 13.8503,74.3885L 13.7296,74.9938C 13.7125,75.0791 13.7678,75.1625 13.8535,75.1796C 13.9391,75.1967 14.0222,75.1411 14.0392,75.0554L 14.1602,74.4504C 14.1772,74.3648 14.1217,74.2817 14.0363,74.2646C 13.9507,74.2476 13.8676,74.3029 13.8503,74.3885 Z M 13.6086,75.5989L 13.4878,76.2039C 13.4707,76.2895 13.5262,76.3729 13.6118,76.39C 13.6974,76.407 13.7805,76.3514 13.7975,76.2658L 13.9185,75.6608C 13.9355,75.5751 13.88,75.4921 13.7947,75.475C 13.709,75.4576 13.6257,75.5132 13.6086,75.5989 Z M 13.3669,76.8092L 13.2461,77.4143C 13.229,77.4999 13.2844,77.583 13.3701,77.6C 13.4556,77.6171 13.5388,77.5618 13.5559,77.4762L 13.6768,76.8708C 13.6938,76.7855 13.6384,76.7021 13.5529,76.6851C 13.4672,76.668 13.384,76.7236 13.3669,76.8092 Z M 13.1252,78.0193L 13.0044,78.6246C 12.9872,78.7099 13.0427,78.7934 13.1284,78.8104C 13.2139,78.8275 13.2971,78.7719 13.3141,78.6866L 13.4351,78.0812C 13.4521,77.9956 13.3967,77.9125 13.311,77.8954C 13.2255,77.8784 13.1423,77.934 13.1252,78.0193 Z M 12.8835,79.2297L 12.7626,79.8347C 12.7455,79.9203 12.801,80.0037 12.8866,80.0208C 12.9722,80.0378 13.0554,79.9822 13.0724,79.8966L 13.1933,79.2916C 13.2104,79.206 13.1549,79.1229 13.0693,79.1058C 12.9838,79.0887 12.9006,79.144 12.8835,79.2297 Z M 12.6418,80.44L 12.5209,81.0451C 12.5038,81.1307 12.5593,81.2138 12.6449,81.2308C 12.7304,81.2479 12.8137,81.1926 12.8307,81.107L 12.9516,80.502C 12.9687,80.4163 12.9132,80.3333 12.8276,80.3159C 12.7421,80.2988 12.6589,80.3544 12.6418,80.44 Z M 12.4001,81.6504L 12.2792,82.2554C 12.2621,82.3411 12.3176,82.4241 12.4032,82.4412C 12.4887,82.4583 12.572,82.4027 12.5891,82.3174L 12.7099,81.712C 12.727,81.6267 12.6715,81.5433 12.5859,81.5262C 12.5004,81.5092 12.4172,81.5648 12.4001,81.6504 Z M 12.1584,82.8605L 12.0375,83.4658C 12.0204,83.5511 12.0759,83.6345 12.1615,83.6516C 12.247,83.6686 12.3302,83.613 12.3474,83.5274L 12.4681,82.9224C 12.4853,82.8368 12.4298,82.7537 12.3442,82.7366C 12.2587,82.7196 12.1754,82.7748 12.1584,82.8605 Z M 11.9166,84.0708L 11.7958,84.6759C 11.7787,84.7615 11.8342,84.8446 11.9197,84.8616C 12.0053,84.879 12.0885,84.8234 12.1056,84.7378L 12.2264,84.1328C 12.2435,84.0471 12.188,83.9641 12.1025,83.947C 12.017,83.9296 11.9337,83.9852 11.9166,84.0708 Z M 11.6749,85.2812L 11.5541,85.8862C 11.537,85.9719 11.5925,86.055 11.678,86.072C 11.7635,86.0891 11.8468,86.0338 11.8639,85.9482L 11.9847,85.3428C 12.0018,85.2575 11.9463,85.1741 11.8608,85.157C 11.7751,85.14 11.692,85.1956 11.6749,85.2812 Z M 11.4332,86.4913L 11.3124,87.0966C 11.2953,87.1819 11.3507,87.2653 11.4363,87.2824C 11.5219,87.2995 11.6051,87.2439 11.6222,87.1586L 11.743,86.5532C 11.7601,86.4676 11.7046,86.3845 11.619,86.3674C 11.5334,86.3504 11.4502,86.4057 11.4332,86.4913 Z M 11.1914,87.7016L 11.0706,88.3067C 11.0535,88.3923 11.109,88.4757 11.1945,88.4928C 11.2802,88.5098 11.3633,88.4542 11.3804,88.3686L 11.5013,87.7636C 11.5183,87.678 11.4628,87.5949 11.3773,87.5778C 11.2917,87.5604 11.2086,87.616 11.1914,87.7016 Z M 10.9497,88.912L 10.8289,89.517C 10.8118,89.6027 10.8673,89.6857 10.9528,89.7028C 11.0383,89.7199 11.1216,89.6646 11.1387,89.579L 11.2595,88.9736C 11.2766,88.8883 11.2211,88.8049 11.1356,88.7879C 11.05,88.7708 10.9668,88.8264 10.9497,88.912 Z M 10.708,90.1221L 10.5872,90.7274C 10.5701,90.8127 10.6256,90.8961 10.7111,90.9132C 10.7966,90.9303 10.8799,90.8746 10.897,90.7894L 11.0178,90.184C 11.0349,90.0984 10.9794,90.0153 10.8938,89.9982C 10.8083,89.9812 10.7251,90.0368 10.708,90.1221 Z "/>
				<path fill="#FCDB60" fill-opacity="1" stroke-width="0.32" stroke-linejoin="round" d="M 10.4664,91.3325L 10.4045,91.6424C 10.3875,91.728 10.443,91.8111 10.5285,91.8282C 10.6141,91.8452 10.6973,91.7896 10.7144,91.7043L 10.7762,91.3944C 10.7933,91.3088 10.7378,91.2257 10.6522,91.2086C 10.5667,91.1915 10.4835,91.2471 10.4664,91.3325 Z "/>
				<path fill="#627C98" fill-opacity="1" stroke-width="0.32" stroke-linejoin="round" d="M 12.7371,91.7621C 11.7975,91.7621 11.0798,91.7435 10.7155,91.6986L 10.7762,91.3944C 10.7933,91.3088 10.7378,91.2257 10.6523,91.2086L 10.7113,90.9132C 10.7216,90.9154 10.7321,90.9164 10.7422,90.9164C 10.816,90.9164 10.882,90.8642 10.897,90.7894L 11.0178,90.184C 11.0349,90.0987 10.9795,90.0153 10.894,89.9982L 10.953,89.7028C 10.9634,89.705 10.9738,89.706 10.9839,89.706C 11.0577,89.706 11.1237,89.6542 11.1387,89.579L 11.2595,88.9736C 11.2766,88.8883 11.2212,88.8052 11.1357,88.7879L 11.1947,88.4928C 11.2051,88.4947 11.2155,88.4956 11.2256,88.4956C 11.2994,88.4956 11.3654,88.4438 11.3804,88.3686L 11.5013,87.7636C 11.5183,87.678 11.4629,87.5949 11.3774,87.5778L 11.4365,87.2824C 11.4468,87.2846 11.4572,87.2856 11.4674,87.2856C 11.5412,87.2856 11.6071,87.2334 11.6222,87.1586L 11.743,86.5532C 11.7601,86.4676 11.7046,86.3845 11.6191,86.3674L 11.6782,86.072C 11.6885,86.0742 11.6989,86.0752 11.7091,86.0752C 11.7829,86.0752 11.8489,86.0234 11.8639,85.9482L 11.9847,85.3428C 12.0018,85.2575 11.9464,85.1744 11.861,85.157L 11.9199,84.8616C 11.9303,84.8638 11.9406,84.8648 11.9509,84.8648C 12.0246,84.8648 12.0906,84.813 12.1056,84.7378L 12.2264,84.1328C 12.2433,84.0484 12.1898,83.9666 12.1066,83.9476L 12.1926,83.6547C 12.2664,83.6547 12.3323,83.6026 12.3474,83.5274L 12.4681,82.9224C 12.4839,82.8434 12.438,82.7666 12.3638,82.7417L 12.4343,82.4444C 12.5081,82.4444 12.5741,82.3922 12.5891,82.3174L 12.7099,81.712C 12.7245,81.6387 12.6858,81.567 12.6205,81.5373L 12.6853,81.2337C 12.7553,81.2296 12.8163,81.179 12.8307,81.107L 12.9516,80.502C 12.9651,80.434 12.9332,80.368 12.877,80.3348L 12.9438,80.0217C 13.0065,80.011 13.0593,79.963 13.0724,79.8966L 13.1933,79.2916C 13.2057,79.23 13.1802,79.1693 13.133,79.1339L 13.2026,78.8076C 13.2577,78.7918 13.3022,78.7466 13.3141,78.6866L 13.4351,78.0812C 13.4462,78.0259 13.4268,77.9716 13.3886,77.9356L 13.462,77.5909C 13.5087,77.5713 13.5452,77.5296 13.5559,77.4762L 13.6768,76.8708C 13.6866,76.8225 13.6728,76.7748 13.6436,76.7394L 13.722,76.3716C 13.7599,76.3495 13.7883,76.3123 13.7975,76.2658L 13.9185,75.6608C 13.9267,75.6197 13.9182,75.5796 13.8979,75.5467L 13.9829,75.1483C 14.0111,75.1259 14.0316,75.0937 14.0392,75.0554L 14.1602,74.4504C 14.1665,74.4185 14.1627,74.3869 14.1511,74.3588L 14.2452,73.9184C 14.2626,73.8985 14.2755,73.8735 14.2812,73.8454L 14.4019,73.24C 14.406,73.2198 14.406,73.1996 14.4025,73.1803L 14.5109,72.671C 14.5163,72.6597 14.5204,72.6476 14.5229,72.635L 14.5836,72.3304L 16.0647,65.3844C 16.1826,65.3001 16.3044,65.2123 16.4308,65.1207C 18.2965,63.7668 19.504,60.2178 19.504,60.2178L 19.8762,53.3594C 19.8762,53.3594 20.5577,53.0207 21.5441,52.5768L 21.5554,52.5721L 19.5388,91.6152C 19.1464,91.6282 18.7509,91.6405 18.3575,91.6525C 16.2732,91.7154 14.2263,91.7621 12.7371,91.7621 Z "/>
				<path fill="#263165" fill-opacity="1" stroke-width="0.32" stroke-linejoin="round" d="M 19.504,60.2178L 19.504,60.2178C 18.1316,58.726 17.7323,55.9694 17.6318,55.0026L 17.6435,54.6313C 17.8387,54.5145 18.6978,54.0045 19.8762,53.3594L 19.504,60.2178 Z "/>
				<path fill="#263165" fill-opacity="1" stroke-width="0.32" stroke-linejoin="round" d="M 10.5562,91.2197L 10.6306,90.8702C 10.652,90.8914 10.6794,90.9069 10.7113,90.9132L 10.6522,91.2086C 10.6418,91.2064 10.6313,91.2054 10.6211,91.2054C 10.5983,91.2054 10.5763,91.2105 10.5562,91.2197 Z M 10.8157,90.0023L 10.8861,89.6722C 10.905,89.687 10.9277,89.6978 10.953,89.7028L 10.8938,89.9982C 10.8834,89.996 10.873,89.9951 10.8628,89.9951C 10.8466,89.9951 10.8307,89.9976 10.8157,90.0023 Z M 11.1356,88.7879C 11.1251,88.786 11.1147,88.785 11.1045,88.785C 11.0944,88.785 11.0844,88.786 11.0746,88.7879L 11.142,88.4719C 11.1577,88.4817 11.1754,88.4887 11.1947,88.4928L 11.1357,88.7879 Z M 11.3773,87.5778C 11.3669,87.5756 11.3564,87.5746 11.3333,87.5753L 11.3984,87.2698C 11.4102,87.2754 11.4229,87.2795 11.4365,87.2824L 11.3774,87.5778 Z M 11.5914,86.3643L 11.6782,86.072L 11.6191,86.3674 Z M 11.8491,85.1552L 11.9199,84.8616L 11.861,85.157 Z "/>
				<path fill="#3950A0" fill-opacity="1" stroke-width="0.32" stroke-linejoin="round" d="M 19.8778,53.3584C 20.0436,53.2674 20.2162,53.1739 20.3937,53.0785L 21.5441,52.5768C 20.5577,53.0207 19.8762,53.3594 19.8762,53.3594 Z "/>
				<path fill="#A49363" fill-opacity="1" stroke-width="0.32" stroke-linejoin="round" d="M 10.7422,90.9164C 10.7321,90.9164 10.7216,90.9154 10.7111,90.9132C 10.6794,90.9069 10.652,90.8914 10.6306,90.8702L 10.8157,90.0023C 10.8307,89.9976 10.8466,89.9951 10.8628,89.9951C 10.873,89.9951 10.8834,89.996 10.894,89.9982C 10.9795,90.0153 11.0349,90.0987 11.0178,90.184L 10.897,90.7894C 10.882,90.8642 10.816,90.9164 10.7422,90.9164 Z M 10.9839,89.706C 10.9738,89.706 10.9634,89.705 10.9528,89.7028C 10.9277,89.6978 10.905,89.687 10.8861,89.6722L 11.0746,88.7879C 11.0844,88.786 11.0944,88.785 11.1045,88.785C 11.1147,88.785 11.1251,88.786 11.1357,88.7879C 11.2212,88.8052 11.2766,88.8883 11.2595,88.9736L 11.1387,89.579C 11.1237,89.6542 11.0577,89.706 10.9839,89.706 Z M 11.2256,88.4956C 11.2155,88.4956 11.2051,88.4947 11.1945,88.4928C 11.1754,88.4887 11.1577,88.4817 11.142,88.4719L 11.3461,87.5746C 11.3564,87.5746 11.3669,87.5756 11.3774,87.5778C 11.4629,87.5949 11.5183,87.678 11.5013,87.7636L 11.3804,88.3686C 11.3654,88.4438 11.2994,88.4956 11.2256,88.4956 Z M 11.4674,87.2856C 11.4572,87.2856 11.4468,87.2846 11.4363,87.2824C 11.4229,87.2795 11.4102,87.2754 11.3984,87.2698L 11.6191,86.3674C 11.7046,86.3845 11.7601,86.4676 11.743,86.5532L 11.6222,87.1586C 11.6071,87.2334 11.5412,87.2856 11.4674,87.2856 Z M 11.7091,86.0752C 11.6989,86.0752 11.6885,86.0742 11.655,86.0657L 11.861,85.157C 11.9464,85.1744 12.0018,85.2575 11.9847,85.3428L 11.8639,85.9482C 11.8489,86.0234 11.7829,86.0752 11.7091,86.0752 Z M 11.9509,84.8648C 11.9406,84.8648 11.9303,84.8638 11.9121,84.8601L 12.1066,83.9476C 12.1898,83.9666 12.2433,84.0484 12.2264,84.1328L 12.1056,84.7378C 12.0906,84.813 12.0246,84.8648 11.9509,84.8648 Z M 12.1696,83.6528L 12.3638,82.7417C 12.438,82.7666 12.4839,82.8434 12.4681,82.9224L 12.3474,83.5274C 12.3323,83.6026 12.2664,83.6547 12.1926,83.6547 Z M 12.4272,82.444L 12.6205,81.5373C 12.6858,81.567 12.7245,81.6387 12.7099,81.712L 12.5891,82.3174C 12.5741,82.3922 12.5081,82.4444 12.4343,82.4444 Z M 12.6853,81.2337L 12.877,80.3348C 12.9332,80.368 12.9651,80.434 12.9516,80.502L 12.8307,81.107C 12.8163,81.179 12.7553,81.2296 12.6853,81.2337 Z M 12.9438,80.0217L 13.133,79.1339C 13.1802,79.1693 13.2057,79.23 13.1933,79.2916L 13.0724,79.8966C 13.0593,79.963 13.0065,80.011 12.9438,80.0217 Z M 13.2026,78.8076L 13.3886,77.9356C 13.4268,77.9716 13.4462,78.0259 13.4351,78.0812L 13.3141,78.6866C 13.3022,78.7466 13.2577,78.7918 13.2026,78.8076 Z M 13.462,77.5909L 13.6436,76.7394C 13.6728,76.7748 13.6866,76.8225 13.6768,76.8708L 13.5559,77.4762C 13.5452,77.5296 13.5087,77.5713 13.462,77.5909 Z M 13.722,76.3716L 13.8979,75.5467C 13.9182,75.5796 13.9267,75.6197 13.9185,75.6608L 13.7975,76.2658C 13.7883,76.3123 13.7599,76.3495 13.722,76.3716 Z M 13.9829,75.1483L 14.1511,74.3588C 14.1627,74.3869 14.1665,74.4185 14.1602,74.4504L 14.0392,75.0554C 14.0316,75.0937 14.0111,75.1259 13.9829,75.1483 Z M 14.2452,73.9184L 14.4025,73.1803C 14.406,73.1996 14.406,73.2198 14.4019,73.24L 14.2812,73.8454C 14.2755,73.8735 14.2626,73.8985 14.2452,73.9184 Z M 14.5109,72.671L 14.5836,72.3304L 14.5229,72.635C 14.5204,72.6476 14.5163,72.6597 14.5109,72.671 Z "/>
				<path fill="#A49363" fill-opacity="1" stroke-width="0.32" stroke-linejoin="round" d="M 10.7155,91.6986C 10.6528,91.691 10.6006,91.6825 10.5595,91.6734C 10.5283,91.6661 10.4966,91.6582 10.4645,91.6494L 10.5562,91.2197C 10.5763,91.2105 10.5983,91.2054 10.6211,91.2054C 10.6313,91.2054 10.6418,91.2064 10.6523,91.2086C 10.7378,91.2257 10.7933,91.3088 10.7762,91.3944L 10.7155,91.6986 Z "/>
			</g>
		</g>
		<path fill="#263165" fill-opacity="1" stroke-width="0.32" stroke-linejoin="round" d="M 22.5248,29.4201C 19.8762,29.6792 15.3596,35.1425 14.5504,36.6527C 13.7412,38.1632 26.4617,41.7248 30.2537,40.862C 34.0456,39.9988 36.2031,36.5465 36.2031,36.5465C 36.2031,36.5465 32.4425,28.4499 22.5248,29.4201 Z "/>
		<g>
			<defs>
				<path id="SVG_CLIPPER7_" d="M 22.5248,29.4201C 19.8762,29.6792 15.3596,35.1425 14.5504,36.6527C 13.7412,38.1632 26.4617,41.7248 30.2537,40.862C 34.0456,39.9988 36.2031,36.5465 36.2031,36.5465C 36.2031,36.5465 32.4425,28.4499 22.5248,29.4201 Z "/>
			</defs>
			<clipPath id="SVG_CLIPPER8_">
				<use xlink:href="#SVG_CLIPPER7_" overflow="visible"/>
			</clipPath>
			<g clip-path="url(#SVG_CLIPPER8_)">
				<path fill="#161C35" fill-opacity="1" stroke-width="0.32" stroke-linejoin="round" d="M 15.4177,35.3699C 17.0668,33.1918 20.3981,29.6283 22.5248,29.4201L 22.5248,29.4201C 22.556,29.7892 22.5773,30.1515 22.6104,30.452C 22.6211,30.5493 22.6606,30.6466 22.7245,30.7424C 21.5997,31.4469 19.5056,33.0174 18.8705,35.0865C 18.6058,35.0663 18.3452,35.0572 18.0905,35.0572C 17.0646,35.0572 16.1352,35.205 15.4177,35.3699 Z "/>
				<path fill="#161C35" fill-opacity="1" stroke-width="0.32" stroke-linejoin="round" d="M 27.9968,38.1316C 27.3701,38.1316 26.7805,38.0422 26.2181,37.894C 28.1561,37.7111 32.8431,36.9977 34.7217,34.3112C 34.8979,34.5264 35.0582,34.7343 35.2016,34.9302L 35.2168,35.0954C 34.9347,35.3895 32.9834,37.3007 29.2729,38.009C 28.83,38.0937 28.4054,38.1316 27.9968,38.1316 Z "/>
			</g>
		</g>
		<path fill="#FCDB60" fill-opacity="1" stroke-width="0.32" stroke-linejoin="round" d="M 13.9428,35.8138C 13.9428,35.8138 16.6868,34.6768 19.7236,35.1902C 22.7604,35.7039 25.2482,38.7774 29.2729,38.009C 33.2975,37.2406 35.2524,35.0572 35.2524,35.0572C 35.2524,35.0572 36.9197,37.5702 38.1639,41.8875C 39.4077,46.2049 39.9199,52.7904 35.31,52.3882C 30.6998,51.9853 30.9926,49.278 27.48,50.0464C 23.9677,50.8144 17.6014,54.6566 17.6014,54.6566C 17.6014,54.6566 17.821,58.3882 19.504,60.2178C 19.504,60.2178 18.2965,63.7668 16.4308,65.1207C 14.5646,66.4744 13.6501,67.0229 12.9548,66.5841C 12.2596,66.1449 7.24719,57.5469 8.93018,48.583C 10.6133,39.6188 13.9428,35.8138 13.9428,35.8138 Z "/>
		<g>
			<defs>
				<path id="SVG_CLIPPER9_" d="M 13.9428,35.8138C 13.9428,35.8138 16.6868,34.6768 19.7236,35.1902C 22.7604,35.7039 25.2482,38.7774 29.2729,38.009C 33.2975,37.2406 35.2524,35.0572 35.2524,35.0572C 35.2524,35.0572 36.9197,37.5702 38.1639,41.8875C 39.4077,46.2049 39.9199,52.7904 35.31,52.3882C 30.6998,51.9853 30.9926,49.278 27.48,50.0464C 23.9677,50.8144 17.6014,54.6566 17.6014,54.6566C 17.6014,54.6566 17.821,58.3882 19.504,60.2178C 19.504,60.2178 18.2965,63.7668 16.4308,65.1207C 14.5646,66.4744 13.6501,67.0229 12.9548,66.5841C 12.2596,66.1449 7.24719,57.5469 8.93018,48.583C 10.6133,39.6188 13.9428,35.8138 13.9428,35.8138 Z "/>
			</defs>
			<clipPath id="SVG_CLIPPER10_">
				<use xlink:href="#SVG_CLIPPER9_" overflow="visible"/>
			</clipPath>
			<g clip-path="url(#SVG_CLIPPER10_)">
				<path fill="#DBAA36" fill-opacity="1" stroke-width="0.32" stroke-linejoin="round" d="M 16.9629,34.6212C 16.9629,34.6212 10.059,48.3586 11.1157,53.7831C 12.1725,59.2078 16.2972,66.1822 16.2972,66.1822L 12.6713,68.7988C 12.6713,68.7988 6.18445,61.2462 7.45251,52.3717C 8.72058,43.4976 13.0884,35.2297 13.0884,35.2297L 16.9629,34.6212 Z "/>
				<path fill="#DBAA36" fill-opacity="1" stroke-width="0.32" stroke-linejoin="round" d="M 34.7714,33.7659C 34.7714,33.7659 34.9486,53.4431 35.1969,53.6105C 35.4453,53.778 37.4559,54.3925 38.7961,53.7224C 40.1367,53.0523 35.5116,33.5043 35.5116,33.5043L 34.7714,33.7659 Z "/>
			</g>
		</g>
		<path fill="#263165" fill-opacity="1" stroke-width="0.32" stroke-linejoin="round" d="M 27.1533,91.3214C 27.1533,91.3214 27.5782,66.5888 28.4963,65.4976C 29.4145,64.406 31.641,62.6067 31.641,62.6067C 31.641,62.6067 29.5466,65.6426 29.3071,67.1916C 29.0676,68.741 28.3469,90.9385 28.3469,90.9385L 27.1533,91.3214 Z "/>
		<path fill="#F36976" fill-opacity="1" stroke-width="0.32" stroke-linejoin="round" d="M 45.8874,69.2352C 46.4482,69.2352 46.4492,68.3628 45.8874,68.3628C 45.3263,68.3628 45.3254,69.2352 45.8874,69.2352 Z "/>
		<path fill="#F14A8F" fill-opacity="1" stroke-width="0.32" stroke-linejoin="round" d="M 35.2001,34.9137C 35.1262,34.0998 36.3223,31.2791 41.4506,30.731C 45.4609,30.3022 47.8361,33.0544 47.9641,33.9504L 48.6134,41.0291L 35.8234,41.7043L 35.2001,34.9137 Z "/>
		<g>
			<defs>
				<path id="SVG_CLIPPER11_" d="M 35.2001,34.9137C 35.1262,34.0998 36.3223,31.2791 41.4506,30.731C 45.4609,30.3022 47.8361,33.0544 47.9641,33.9504L 48.6134,41.0291L 35.8234,41.7043L 35.2001,34.9137 Z "/>
			</defs>
			<clipPath id="SVG_CLIPPER12_">
				<use xlink:href="#SVG_CLIPPER11_" overflow="visible"/>
			</clipPath>
			<g clip-path="url(#SVG_CLIPPER12_)">
				<path fill="#EF3A79" fill-opacity="1" stroke-width="0.32" stroke-linejoin="round" d="M 35.7507,40.9144L 35.2001,34.9137C 35.1979,34.8907 35.1969,34.866 35.1969,34.8398C 35.1972,34.1191 36.0155,32.2513 38.9159,31.2668L 39.3402,37.2767C 36.5406,38.2716 35.7454,40.0961 35.7451,40.8067C 35.7451,40.8329 35.746,40.8575 35.7482,40.8806L 35.7491,40.8857L 35.7516,40.9135L 35.7507,40.9144 Z "/>
				<path fill="#F472AD" fill-opacity="1" stroke-width="0.32" stroke-linejoin="round" d="M 48.0156,41.0607L 47.4469,32.4788C 47.4469,32.4788 48.2905,33.6936 48.4665,34.055C 48.6421,34.4164 48.8854,41.2907 48.8854,41.2907L 48.0156,41.0607 Z "/>
			</g>
		</g>
		<path fill="#FCDB60" fill-opacity="1" stroke-width="0.32" stroke-linejoin="round" d="M 40.5515,93.956L 53.3156,92.9924L 48.5129,39.9179L 48.5123,39.9179L 48.5123,39.917C 48.3843,39.021 46.009,36.2688 41.9988,36.6979C 36.8708,37.246 35.6746,40.0664 35.7482,40.8806L 35.7491,40.8857L 40.5515,93.956 Z "/>
		<g>
			<defs>
				<path id="SVG_CLIPPER13_" d="M 40.5515,93.956L 53.3156,92.9924L 48.5129,39.9179L 48.5123,39.9179L 48.5123,39.917C 48.3843,39.021 46.009,36.2688 41.9988,36.6979C 36.8708,37.246 35.6746,40.0664 35.7482,40.8806L 35.7491,40.8857L 40.5515,93.956 Z "/>
			</defs>
			<clipPath id="SVG_CLIPPER14_">
				<use xlink:href="#SVG_CLIPPER13_" overflow="visible"/>
			</clipPath>
			<g clip-path="url(#SVG_CLIPPER14_)">
				<path fill="#465FB4" fill-opacity="1" stroke-width="0.32" stroke-linejoin="round" d="M 29.5463,31.4639L 38.8214,30.8406L 44.267,99.8392L 34.9921,100.463L 29.5463,31.4639 Z "/>
				<path fill="#F3DEA3" fill-opacity="1" stroke-width="0.32" stroke-linejoin="round" d="M 53.3156,92.9924C 53.2637,92.6288 52.8417,91.9596 52.09,91.3211L 49.1028,53.4709L 49.6781,53.4769C 49.6989,53.4769 49.7195,53.4763 49.7397,53.475L 53.3156,92.9924 Z "/>
				<path fill="#F3DEA3" fill-opacity="1" stroke-width="0.32" stroke-linejoin="round" d="M 49.3865,49.5715C 49.2695,49.5178 49.1388,49.4866 49.0029,49.485L 48.7881,49.4828L 47.954,38.9139C 48.2886,39.3157 48.4785,39.681 48.5123,39.917L 48.5123,39.9179L 48.5129,39.9179L 49.3865,49.5715 Z "/>
				<path fill="#F9BD40" fill-opacity="1" stroke-width="0.32" stroke-linejoin="round" d="M 49.1028,53.4709L 48.361,53.463C 47.9186,53.4586 47.5284,53.1376 47.4946,52.7496C 47.465,52.4131 47.7133,52.1326 48.069,52.0675C 48.1774,52.1123 48.2965,52.1383 48.4194,52.1395L 48.9982,52.1455L 49.1028,53.4709 Z "/>
				<path fill="#FAC061" fill-opacity="1" stroke-width="0.32" stroke-linejoin="round" d="M 49.6686,53.4769L 49.1028,53.4709L 48.9982,52.1455L 49.62,52.1518L 49.7397,53.475C 49.7195,53.4763 49.6989,53.4769 49.6781,53.4769 Z "/>
				<path fill="#F9BD40" fill-opacity="1" stroke-width="0.32" stroke-linejoin="round" d="M 48.069,52.0675C 47.7875,51.9509 47.5778,51.7057 47.5531,51.4261C 47.5262,51.1216 47.7268,50.8631 48.0283,50.7683C 48.1609,50.8423 48.3158,50.8862 48.4772,50.8881L 48.8993,50.8925L 48.9916,52.0615L 48.2277,52.0533C 48.173,52.0533 48.1199,52.0583 48.069,52.0675 Z "/>
				<path fill="#FAC061" fill-opacity="1" stroke-width="0.32" stroke-linejoin="round" d="M 49.6127,52.0703C 49.5903,52.0684 49.5675,52.0675 49.5448,52.0672L 48.9916,52.0615L 48.8993,50.8925L 49.1362,50.895C 49.2695,50.895 49.3931,50.866 49.499,50.8148L 49.6127,52.0703 Z "/>
				<path fill="#F7A32F" fill-opacity="1" stroke-width="0.32" stroke-linejoin="round" d="M 48.9982,52.1455L 48.4194,52.1395C 48.2965,52.1383 48.1774,52.1123 48.069,52.0675C 48.1199,52.0583 48.173,52.0533 48.2374,52.0533L 48.9916,52.0615L 48.9982,52.1455 Z "/>
				<path fill="#F8A741" fill-opacity="1" stroke-width="0.32" stroke-linejoin="round" d="M 49.6101,52.1518L 48.9982,52.1455L 48.9916,52.0615L 49.5448,52.0672C 49.5675,52.0675 49.5903,52.0684 49.6127,52.0703L 49.6196,52.1518 Z "/>
				<path fill="#F9BD40" fill-opacity="1" stroke-width="0.32" stroke-linejoin="round" d="M 48.0283,50.7683C 47.7973,50.6398 47.6323,50.4208 47.6108,50.1747C 47.5771,49.7899 47.9059,49.4783 48.3537,49.4783L 48.7881,49.4828L 48.887,50.7358L 48.2861,50.7298C 48.1948,50.7298 48.1078,50.7434 48.0283,50.7683 Z "/>
				<path fill="#FAC061" fill-opacity="1" stroke-width="0.32" stroke-linejoin="round" d="M 49.4863,50.7421L 48.887,50.7358L 48.7881,49.4828L 49.0029,49.485C 49.1388,49.4866 49.2695,49.5178 49.3865,49.5715L 49.4923,50.7421 Z "/>
				<path fill="#F7A32F" fill-opacity="1" stroke-width="0.32" stroke-linejoin="round" d="M 48.8993,50.8925L 48.4772,50.8881C 48.3158,50.8862 48.1609,50.8423 48.0283,50.7683C 48.1078,50.7434 48.1948,50.7298 48.2958,50.7298L 48.887,50.7358L 48.8993,50.8925 Z "/>
				<path fill="#F8A741" fill-opacity="1" stroke-width="0.32" stroke-linejoin="round" d="M 49.1268,50.8947L 48.8993,50.8925L 48.887,50.7358L 49.4923,50.7421L 49.499,50.8148C 49.3931,50.866 49.2695,50.895 49.1362,50.895 Z "/>
			</g>
		</g>
		<path fill="#0F212D" fill-opacity="1" stroke-width="0.32" stroke-linejoin="round" d="M 44.915,100.409C 46.4384,102.356 47.8854,103.961 48.3495,103.872C 48.7441,103.795 49.6977,102.041 50.665,99.9589C 49.8541,99.3801 47.8188,98.4197 44.915,100.409 Z "/>
		<g>
			<defs>
				<path id="SVG_CLIPPER15_" d="M 44.915,100.409C 46.4384,102.356 47.8854,103.961 48.3495,103.872C 48.7441,103.795 49.6977,102.041 50.665,99.9589C 49.8541,99.3801 47.8188,98.4197 44.915,100.409 Z "/>
			</defs>
			<clipPath id="SVG_CLIPPER16_">
				<use xlink:href="#SVG_CLIPPER15_" overflow="visible"/>
			</clipPath>
			<g clip-path="url(#SVG_CLIPPER16_)">
				<path fill="#080C0F" fill-opacity="1" stroke-width="0.32" stroke-linejoin="round" d="M 48.5795,103.995L 46.8403,99.3688C 46.8403,99.3688 45.1955,99.5239 44.727,100.552C 44.2584,101.579 47.79,104.635 48.5795,103.995 Z "/>
				<path fill="#637277" fill-opacity="1" stroke-width="0.32" stroke-linejoin="round" d="M 50.2702,99.7574C 50.2702,99.7574 48.7875,103.592 48.4232,103.842C 48.4232,103.842 49.5602,102.992 50.1659,101.928C 50.7712,100.863 50.8414,99.6714 50.8414,99.6714L 50.2702,99.7574 Z "/>
			</g>
		</g>
		<path fill="#FBD0B6" fill-opacity="1" stroke-width="0.32" stroke-linejoin="round" d="M 50.665,99.9589C 52.0142,97.0557 53.3901,93.5143 53.3156,92.9924C 53.1879,92.0967 50.8124,89.3445 46.8021,89.7733C 41.6737,90.3215 40.4779,93.1422 40.5515,93.956C 40.5941,94.4271 42.8263,97.7391 44.915,100.409C 47.8188,98.4197 49.8541,99.3801 50.665,99.9589 Z "/>
		<g>
			<defs>
				<path id="SVG_CLIPPER17_" d="M 50.665,99.9589C 52.0142,97.0557 53.3901,93.5143 53.3156,92.9924C 53.1879,92.0967 50.8124,89.3445 46.8021,89.7733C 41.6737,90.3215 40.4779,93.1422 40.5515,93.956C 40.5941,94.4271 42.8263,97.7391 44.915,100.409C 47.8188,98.4197 49.8541,99.3801 50.665,99.9589 Z "/>
			</defs>
			<clipPath id="SVG_CLIPPER18_">
				<use xlink:href="#SVG_CLIPPER17_" overflow="visible"/>
			</clipPath>
			<g clip-path="url(#SVG_CLIPPER18_)">
				<path fill="#F8AD86" fill-opacity="1" stroke-width="0.32" stroke-linejoin="round" d="M 44.915,100.409C 42.8263,97.7391 40.5941,94.4271 40.5515,93.956C 40.5493,93.933 40.5483,93.9083 40.5483,93.8821C 40.5486,93.2272 41.2247,91.6244 43.5261,90.5985C 43.1198,93.3378 44.4969,96.9098 45.9424,99.8041C 45.6384,99.9532 45.3225,100.135 44.9958,100.354C 44.969,100.372 44.9421,100.39 44.915,100.409 Z "/>
				<path fill="#FDEADF" fill-opacity="1" stroke-width="0.32" stroke-linejoin="round" d="M 52.0527,91.2743C 52.0527,91.2743 52.672,94.8716 50.2702,99.7574L 51.3011,100.929C 51.3011,100.929 53.1801,94.2625 53.5803,93.2189C 53.9803,92.176 52.0527,91.2743 52.0527,91.2743 Z "/>
			</g>
		</g>
		<path fill="#465FB4" fill-opacity="1" stroke-width="0.32" stroke-linejoin="round" d="M 22.4628,28.8296C 22.4628,28.8296 14.5437,28.8296 13.3275,28.8296C 12.1112,28.8296 12.0352,26.9024 11.7311,26.8265C 11.427,26.7504 11.0849,28.8296 10.3628,28.8296C 9.64063,28.8296 6.44794,28.8296 4.28137,28.8296C 2.11475,28.8296 -1.15393,26.7987 0.290466,23.6959C 1.73474,20.593 5.30756,21.277 5.57367,20.8211C 5.83978,20.3649 2.00073,16.07 5.30756,13.4091C 7.53967,11.6133 10.3432,11.6879 12.1519,11.7621C 13.0227,11.7981 13.663,11.8338 13.8976,11.661C 14.7854,11.0067 12.1964,4.85122 19.2949,1.32244C 23.4628,-0.749485 27.4468,0.035305 29.9895,0.820095C 31.4587,1.27346 32.4467,1.72686 32.7107,1.62954C 33.4333,1.36352 39.2495,0.448238 44.1147,4.55325C 48.9799,8.65799 47.1556,15.9559 47.9916,16.4501C 48.8279,16.9442 50.2721,16.754 51.6404,19.0348C 53.009,21.3153 51.7545,23.3401 52.4388,23.6959C 53.1228,24.0516 54.6814,23.9379 55.4036,26.3324C 55.9454,28.1298 55.4036,28.8296 55.4036,28.8296C 55.4036,28.8296 47.9155,28.8296 47.1174,28.8296C 46.3193,28.8296 46.1674,27.8148 45.9013,27.8148C 45.6349,27.8148 46.0533,28.8296 45.5209,28.8296C 44.9889,28.8296 22.4628,28.8296 22.4628,28.8296 Z "/>
		<g>
			<defs>
				<path id="SVG_CLIPPER19_" d="M 22.4628,28.8296C 22.4628,28.8296 14.5437,28.8296 13.3275,28.8296C 12.1112,28.8296 12.0352,26.9024 11.7311,26.8265C 11.427,26.7504 11.0849,28.8296 10.3628,28.8296C 9.64063,28.8296 6.44794,28.8296 4.28137,28.8296C 2.11475,28.8296 -1.15393,26.7987 0.290466,23.6959C 1.73474,20.593 5.30756,21.277 5.57367,20.8211C 5.83978,20.3649 2.00073,16.07 5.30756,13.4091C 7.53967,11.6133 10.3432,11.6879 12.1519,11.7621C 13.0227,11.7981 13.663,11.8338 13.8976,11.661C 14.7854,11.0067 12.1964,4.85122 19.2949,1.32244C 23.4628,-0.749485 27.4468,0.035305 29.9895,0.820095C 31.4587,1.27346 32.4467,1.72686 32.7107,1.62954C 33.4333,1.36352 39.2495,0.448238 44.1147,4.55325C 48.9799,8.65799 47.1556,15.9559 47.9916,16.4501C 48.8279,16.9442 50.2721,16.754 51.6404,19.0348C 53.009,21.3153 51.7545,23.3401 52.4388,23.6959C 53.1228,24.0516 54.6814,23.9379 55.4036,26.3324C 55.9454,28.1298 55.4036,28.8296 55.4036,28.8296C 55.4036,28.8296 47.9155,28.8296 47.1174,28.8296C 46.3193,28.8296 46.1674,27.8148 45.9013,27.8148C 45.6349,27.8148 46.0533,28.8296 45.5209,28.8296C 44.9889,28.8296 22.4628,28.8296 22.4628,28.8296 Z "/>
			</defs>
			<clipPath id="SVG_CLIPPER20_">
				<use xlink:href="#SVG_CLIPPER19_" overflow="visible"/>
			</clipPath>
			<g clip-path="url(#SVG_CLIPPER20_)">
				<path fill="#293B7D" fill-opacity="1" stroke-width="0.32" stroke-linejoin="round" d="M 51.0635,28.8296C 49.2529,28.8296 47.4829,28.8296 47.1174,28.8296C 46.3193,28.8296 46.1674,27.8148 45.9013,27.8148C 45.8195,27.8148 45.8024,27.9102 45.8021,28.0426C 45.8021,28.1387 45.8113,28.254 45.8113,28.3668C 45.8116,28.5968 45.7744,28.8145 45.5209,28.8296C 45.3175,28.8296 41.8967,28.8296 37.7487,28.8296C 38.9357,28.6287 40.1761,28.3759 41.4269,28.0499C 44.5212,27.2427 45.7516,25.5868 46.1506,23.3569C 47.3496,22.3825 47.8302,20.6906 47.8422,19.1612C 48.1246,19.6964 48.4987,20.0948 49.0216,20.3061C 53.3038,22.0378 48.0791,24.6744 50.1204,25.3343C 51.278,25.7084 51.2575,27.4904 51.0635,28.8296 Z M 46.8075,14.8388C 46.592,14.8372 46.2625,14.8315 45.8558,14.8227C 45.8469,14.695 45.8388,14.5664 45.8308,14.4378C 45.4306,7.87225 37.5434,5.14975 34.621,5.14975L 34.621,5.14975C 35.0876,5.12417 35.5327,5.11184 35.9628,5.11184C 44.861,5.11184 46.0896,10.4544 46.8075,14.8388 Z M 27.5884,5.53555C 27.5878,5.53555 33.7653,5.19653 34.5413,5.1542C 29.3298,5.44012 27.5884,5.53555 27.5884,5.53555 Z M 34.5413,5.1542 Z M 34.5429,5.15387C 34.5938,5.15133 34.621,5.14975 34.621,5.14975C 34.595,5.15103 34.5688,5.15261 34.5429,5.15387 Z "/>
				<path fill="#293B7D" fill-opacity="1" stroke-width="0.32" stroke-linejoin="round" d="M 22.4628,28.8296C 22.4628,28.8296 14.5437,28.8296 13.3275,28.8296C 13.2903,28.8296 13.2543,28.8277 13.2192,28.8243C 12.8768,28.3194 12.6825,27.6259 12.8063,26.674C 12.9235,25.7723 13.4877,25.0172 14.2502,24.3948C 14.873,27.6205 20.88,27.2537 21.6897,27.369C 22.1716,27.4382 22.364,28.0856 22.4631,28.8296 Z "/>
			</g>
		</g>
		<path fill="#F7A3A4" fill-opacity="1" stroke-width="0.32" stroke-linejoin="round" d="M 34.621,5.14975C 37.5434,5.14975 45.4306,7.87225 45.8308,14.4378C 46.2311,21.0034 47.8728,26.3681 41.4269,28.0499C 34.9811,29.7313 28.8158,29.4511 28.7756,30.2918C 28.7358,31.1325 28.7756,31.8532 27.5748,32.2134C 26.3735,32.5738 22.7305,31.5328 22.6104,30.452C 22.4904,29.3708 22.5305,27.4894 21.6897,27.369C 20.849,27.2493 14.4032,27.6496 14.2028,24.0061C 14.0029,20.363 17.3256,19.4825 20.3684,21.6843C 20.3684,21.6843 25.4128,20.2028 30.2537,14.798C 33.7458,10.8993 34.621,5.14975 34.621,5.14975 Z "/>
		<path fill="#F36976" fill-opacity="1" stroke-width="0.32" stroke-linejoin="round" d="M 16.4552,23.9837C 16.4558,23.5202 16.5914,23.2033 16.7974,22.997C 17.0037,22.7913 17.2919,22.6868 17.6308,22.6861C 18.1714,22.6849 18.8276,22.9635 19.3618,23.5085L 19.4744,23.3976L 19.4889,23.2403C 19.4851,23.24 19.3831,23.2308 19.2285,23.2308C 18.9836,23.2314 18.6093,23.252 18.2744,23.3777C 18.1073,23.4409 17.9474,23.5322 17.8248,23.6706C 17.7023,23.808 17.6245,23.996 17.6257,24.2156L 17.6267,24.2611C 17.6371,24.5319 17.7294,24.7372 17.8798,24.8617C 18.0292,24.9865 18.2115,25.0216 18.3759,25.0216C 18.7228,25.0194 19.0339,24.8728 19.0444,24.8696C 19.1237,24.8336 19.1587,24.7398 19.1227,24.6605C 19.0864,24.5812 18.9929,24.5461 18.9133,24.5821L 18.9034,24.5865C 18.8517,24.6096 18.5979,24.7072 18.3759,24.7056C 18.2545,24.7056 18.1518,24.6785 18.0826,24.6197C 18.0141,24.5609 17.9531,24.4614 17.9423,24.2469L 17.9418,24.2156C 17.9426,24.0659 17.9869,23.966 18.0621,23.8795C 18.1736,23.7502 18.3765,23.6596 18.6001,23.6099C 18.8229,23.5591 19.0602,23.5467 19.2285,23.5467C 19.2997,23.5467 19.3584,23.549 19.3989,23.5509C 19.4396,23.5531 19.4601,23.555 19.4601,23.555L 19.8889,23.5939L 19.5872,23.2871C 19.0001,22.6906 18.277,22.3715 17.6308,22.3702C 17.2274,22.3696 16.8489,22.4988 16.574,22.7737C 16.2985,23.0482 16.1383,23.4592 16.1393,23.9837C 16.1393,24.0709 16.2101,24.1417 16.2972,24.1417C 16.3845,24.1417 16.4552,24.0709 16.4552,23.9837 Z "/>
		<path fill="#253064" fill-opacity="1" stroke-width="0.32" stroke-linejoin="round" d="M 42.2472,15.4776C 41.8923,16.01 44.631,17.4674 44.9001,16.4934C 45.1696,15.519 42.7861,14.6694 42.2472,15.4776 Z "/>
		<path fill="#253064" fill-opacity="1" stroke-width="0.32" stroke-linejoin="round" d="M 28.8174,17.2188C 28.9851,17.5331 32.1749,16.5603 31.7813,15.9878C 31.3872,15.4157 28.3201,16.2858 28.8174,17.2188 Z "/>
		<path fill="#253064" fill-opacity="1" stroke-width="0.32" stroke-linejoin="round" d="M 42.1748,19.436C 42.1748,19.934 42.5782,20.3377 43.0765,20.3377C 43.5741,20.3377 43.9779,19.934 43.9779,19.436L 42.1748,19.436 Z "/>
		<path fill="#253064" fill-opacity="1" stroke-width="0.32" stroke-linejoin="round" d="M 29.7756,19.436C 29.7756,20.1201 30.3301,20.6742 31.0139,20.6742C 31.6979,20.6742 32.252,20.1201 32.252,19.436L 29.7756,19.436 Z "/>
		<path fill="#F36976" fill-opacity="1" stroke-width="0.32" stroke-linejoin="round" d="M 32.1496,23.3284L 32.2233,23.2419L 32.1405,23.3196L 32.1496,23.3284L 32.2233,23.2419L 32.1405,23.3196L 32.1455,23.3149L 32.1401,23.3193L 32.1405,23.3196L 32.1455,23.3149L 32.1401,23.3193C 32.1471,23.3272 32.1759,23.3651 32.2141,23.4144C 32.3515,23.59 32.6393,23.9417 33.0637,24.2516C 33.4877,24.5613 34.0538,24.8323 34.7397,24.8323C 34.9975,24.8323 35.2711,24.7941 35.5577,24.7063L 35.4655,24.4042C 35.2076,24.4829 34.9662,24.5164 34.7397,24.5164C 34.0323,24.5167 33.4608,24.1865 33.0529,23.8409C 32.8495,23.6684 32.6887,23.4934 32.5752,23.3581C 32.5183,23.2905 32.4731,23.233 32.4399,23.1901L 32.3979,23.1357L 32.3809,23.1145L 32.3544,23.0877L 32.1496,23.3284 Z "/>
		<path fill="#F36976" fill-opacity="1" stroke-width="0.32" stroke-linejoin="round" d="M 31.8132,23.6273L 31.8334,23.6068C 31.8813,23.5581 32.0119,23.4311 32.1714,23.3108C 32.33,23.1894 32.5222,23.0785 32.6662,23.0523C 32.7518,23.0359 32.808,22.9531 32.7916,22.8672C 32.7748,22.7816 32.6921,22.7256 32.6064,22.7421C 32.3424,22.7955 32.0988,22.9645 31.9073,23.1158C 31.7177,23.2681 31.5866,23.4071 31.5834,23.4106C 31.5234,23.4741 31.5263,23.5739 31.5898,23.634C 31.6533,23.6937 31.7534,23.6908 31.8132,23.6273 Z "/>
		<path fill="#F257A8" fill-opacity="1" stroke-width="0.32" stroke-linejoin="round" d="M 31.0208,24.1401C 31.0208,25.9043 29.3994,27.3343 27.3991,27.3343C 25.3989,27.3343 23.7778,25.9043 23.7778,24.1401C 23.7778,22.3759 25.3989,20.9459 27.3991,20.9459C 29.3994,20.9459 31.0208,22.3759 31.0208,24.1401 Z "/>
		<path fill="#F257A8" fill-opacity="1" stroke-width="0.32" stroke-linejoin="round" d="M 45.4723,23.519C 45.4723,24.7129 44.6199,25.681 43.5684,25.681C 42.517,25.681 41.6646,24.7129 41.6646,23.519C 41.6646,22.325 42.517,21.357 43.5684,21.357C 44.6199,21.357 45.4723,22.325 45.4723,23.519 Z "/>
		<rect x="40.4443" y="19.278" fill="#F36976" fill-opacity="1" stroke-width="0.32" stroke-linejoin="round" width="3.81317" height="0.315979"/>
		<rect x="27.3991" y="19.219" fill="#F36976" fill-opacity="1" stroke-width="0.32" stroke-linejoin="round" width="5.23737" height="0.434113"/>
		<path fill="#465FB4" fill-opacity="1" stroke-width="0.32" stroke-linejoin="round" d="M 47.2043,17.1578C 47.1013,16.6542 47.0125,16.1126 46.9221,15.5487C 46.9525,15.549 46.9809,15.549 47.0068,15.549C 47.0264,15.549 47.0432,15.5506 47.0576,15.5534C 47.2355,15.7983 47.2372,16.4747 47.2043,17.1578 Z "/>
		<path fill="#293B7D" fill-opacity="1" stroke-width="0.32" stroke-linejoin="round" d="M 46.2874,22.1629C 46.3165,21.6758 46.319,21.1677 46.3035,20.6401C 46.7291,20.5093 46.7155,19.8171 46.2609,19.7238C 46.2529,19.5902 46.2438,19.456 46.2343,19.3201C 46.3993,19.2607 46.5344,19.1191 46.5458,18.8958C 46.593,17.965 46.5569,16.8858 45.9595,16.1483C 45.9418,15.9439 45.9247,15.7389 45.9083,15.5316C 46.3427,15.5411 46.695,15.5474 46.9221,15.5487C 47.0125,16.1126 47.1013,16.6542 47.2043,17.1578C 47.1945,17.359 47.1818,17.5612 47.1699,17.7527C 47.1417,18.1975 47.1127,18.6573 47.1127,19.0872C 47.1127,19.365 47.0766,20.9459 46.2874,22.1629 Z "/>
		<path fill="#C8A8A3" fill-opacity="1" stroke-width="0.32" stroke-linejoin="round" d="M 41.6797,23.2457C 40.4485,22.7695 39.8185,21.7247 39.6972,20.0297C 39.4877,17.1003 39.6675,15.6722 39.8409,15.4049C 40.4191,15.4059 41.3066,15.4226 42.2712,15.4444C 42.2629,15.4552 42.2551,15.4662 42.2472,15.4776C 41.9777,15.882 43.4941,16.8207 44.3561,16.8207C 44.6284,16.8207 44.8353,16.7271 44.9001,16.4934C 44.9074,16.4671 44.9128,16.4412 44.9162,16.4153C 44.9501,16.4763 44.9996,16.5325 45.0669,16.5799C 45.7219,17.0412 45.6328,18.2064 45.598,18.8958C 45.5825,19.2003 45.8116,19.3523 46.0485,19.3523C 46.1115,19.3523 46.1746,19.3416 46.2343,19.3201C 46.2438,19.456 46.2529,19.5902 46.2609,19.7238C 46.228,19.7172 46.1926,19.7134 46.1547,19.7134C 45.5449,19.7134 45.5439,20.6613 46.1547,20.6613C 46.2091,20.6613 46.2587,20.6537 46.3035,20.6401C 46.319,21.1677 46.3165,21.6758 46.2874,22.1629C 46.0663,22.5041 45.7856,22.8173 45.4303,23.0643C 45.2463,22.0887 44.4828,21.357 43.5684,21.357C 42.5985,21.357 41.7979,22.1806 41.6797,23.2457 Z M 42.1887,19.594C 42.2633,20.0168 42.6323,20.3377 43.0765,20.3377C 43.5204,20.3377 43.8894,20.0168 43.964,19.594L 44.2575,19.594L 44.2575,19.278L 40.4443,19.278L 40.4443,19.594L 42.1887,19.594 Z M 45.9595,16.1483C 45.8439,16.0056 45.707,15.8754 45.5456,15.7616C 45.4603,15.7019 45.3759,15.676 45.2969,15.676C 45.0818,15.676 44.9071,15.8681 44.8663,16.088C 44.7665,15.8592 44.5387,15.6523 44.2552,15.4918C 44.8663,15.507 45.436,15.5212 45.9083,15.5316C 45.9247,15.7389 45.9418,15.9439 45.9595,16.1483 Z "/>
		<path fill="#253064" fill-opacity="1" stroke-width="0.32" stroke-linejoin="round" d="M 44.3561,16.8207C 43.4941,16.8207 41.9777,15.882 42.2472,15.4776C 42.2551,15.4662 42.2629,15.4552 42.2712,15.4444C 42.91,15.4586 43.5826,15.4754 44.2221,15.4912C 44.2332,15.4915 44.2443,15.4915 44.2552,15.4918C 44.5387,15.6523 44.7665,15.8592 44.8663,16.088C 44.8461,16.197 44.8591,16.3126 44.9162,16.4153C 44.9128,16.4412 44.9074,16.4671 44.9001,16.4934C 44.8353,16.7271 44.6284,16.8207 44.3561,16.8207 Z "/>
		<path fill="#253064" fill-opacity="1" stroke-width="0.32" stroke-linejoin="round" d="M 43.0765,20.3377C 42.6323,20.3377 42.2633,20.0168 42.1887,19.594L 43.964,19.594C 43.8894,20.0168 43.5204,20.3377 43.0765,20.3377 Z "/>
		<path fill="#E15BAC" fill-opacity="1" stroke-width="0.32" stroke-linejoin="round" d="M 43.6202,23.5512C 42.8563,23.5512 42.2118,23.4517 41.6797,23.2457C 41.7979,22.1806 42.5985,21.357 43.5684,21.357C 44.4828,21.357 45.2463,22.0887 45.4303,23.0643C 45.2868,23.1642 45.1313,23.2529 44.9626,23.3291C 44.6113,23.4649 44.206,23.5452 43.7372,23.5505C 43.6979,23.5509 43.6588,23.5512 43.6202,23.5512 Z "/>
		<path fill="#CE6F76" fill-opacity="1" stroke-width="0.32" stroke-linejoin="round" d="M 44.2575,19.594L 43.964,19.594L 42.1887,19.594L 40.4443,19.594L 40.4443,19.278L 44.2575,19.278L 44.2575,19.594 Z "/>
		<path fill="#465FB4" fill-opacity="1" stroke-width="0.32" stroke-linejoin="round" d="M 24.2988,19.7971C 24.2959,19.6923 24.2947,19.5855 24.2947,19.4781L 24.2947,16.0141C 24.2947,15.1358 24.9006,14.8084 25.2827,14.8084L 30.2445,14.8084C 28.1599,17.1334 26.0387,18.7312 24.2988,19.7971 Z "/>
		<path fill="#C8A8A3" fill-opacity="1" stroke-width="0.32" stroke-linejoin="round" d="M 31.8008,24.9268C 31.4934,24.9268 31.198,24.9217 30.9143,24.9116C 30.9838,24.6646 31.0208,24.4061 31.0208,24.1401C 31.0208,22.3759 29.3994,20.9459 27.3991,20.9459C 26.3195,20.9459 25.3505,21.3623 24.6871,22.0233C 24.4293,21.3734 24.3199,20.6271 24.2988,19.7971C 26.0387,18.7312 28.1599,17.1334 30.2445,14.8084L 35.4521,14.8084C 35.6208,14.8084 35.7991,14.8195 35.9665,14.8508C 36.226,14.9607 36.4108,15.1525 36.4108,15.476C 36.4108,15.554 36.4193,15.6928 36.4309,15.8817C 36.5182,17.2785 36.7832,21.5295 34.7382,23.706C 34.4952,23.9648 34.2253,24.1856 33.9299,24.3682C 33.5853,24.2396 33.2911,24.0431 33.0529,23.8409C 32.8495,23.6684 32.6887,23.4934 32.5752,23.3581C 32.5183,23.2905 32.4731,23.233 32.4399,23.1901L 32.4113,23.1531C 32.5016,23.1032 32.5903,23.0662 32.6662,23.0523C 32.7518,23.0359 32.808,22.9531 32.7916,22.8672C 32.7768,22.7917 32.7107,22.7392 32.6365,22.7392C 32.6267,22.7392 32.6166,22.7402 32.6064,22.7421C 32.3424,22.7955 32.0988,22.9645 31.9073,23.1158C 31.7177,23.2681 31.5866,23.4071 31.5834,23.4106C 31.5234,23.4741 31.5263,23.5739 31.5898,23.634C 31.6205,23.6627 31.6593,23.6769 31.6982,23.6769C 31.7402,23.6769 31.7822,23.6602 31.8132,23.6273L 31.8334,23.6068C 31.8788,23.5607 31.999,23.4435 32.1477,23.3287C 32.1603,23.3446 32.1843,23.3758 32.2141,23.4144C 32.3515,23.59 32.6393,23.9417 33.0637,24.2516C 33.2169,24.3638 33.3891,24.4706 33.5786,24.5616C 33.3625,24.6668 33.1347,24.7537 32.895,24.8225C 32.5521,24.892 32.1872,24.9268 31.8008,24.9268 Z M 29.7946,19.6531C 29.8972,20.2335 30.4041,20.6742 31.0139,20.6742C 31.6239,20.6742 32.1306,20.2335 32.233,19.6531L 32.6365,19.6531L 32.6365,19.219L 27.3991,19.219L 27.3991,19.6531L 29.7946,19.6531 Z M 35.5116,18.9969C 34.9018,18.9969 34.9008,19.9447 35.5116,19.9447C 36.1217,19.9447 36.1226,18.9969 35.5116,18.9969 Z M 34.6537,14.9594C 34.2693,14.9594 34.0127,15.5743 34.4238,15.8637C 35.0787,16.3243 34.9896,17.4898 34.9548,18.1792C 34.9394,18.4838 35.1685,18.6358 35.4054,18.6358C 35.6423,18.6358 35.8872,18.4835 35.9027,18.1792C 35.9589,17.0681 35.8967,15.7449 34.9025,15.0451C 34.8171,14.9854 34.7328,14.9594 34.6537,14.9594 Z M 31.1923,15.8049C 30.2015,15.8049 28.4304,16.4927 28.8174,17.2188C 28.8398,17.2608 28.9166,17.2798 29.0316,17.2798C 29.7753,17.2798 32.1222,16.4835 31.7813,15.9878C 31.6937,15.8608 31.4748,15.8049 31.1923,15.8049 Z "/>
		<path fill="#253064" fill-opacity="1" stroke-width="0.32" stroke-linejoin="round" d="M 29.0316,17.2798C 28.9166,17.2798 28.8398,17.2608 28.8174,17.2188C 28.4304,16.4927 30.2015,15.8049 31.1923,15.8049C 31.4748,15.8049 31.6937,15.8608 31.7813,15.9878C 32.1222,16.4835 29.7753,17.2798 29.0316,17.2798 Z "/>
		<path fill="#253064" fill-opacity="1" stroke-width="0.32" stroke-linejoin="round" d="M 31.0139,20.6742C 30.4041,20.6742 29.8972,20.2335 29.7946,19.6531L 32.233,19.6531C 32.1306,20.2335 31.6239,20.6742 31.0139,20.6742 Z "/>
		<path fill="#CE6F76" fill-opacity="1" stroke-width="0.32" stroke-linejoin="round" d="M 33.5786,24.5616C 33.3891,24.4706 33.2169,24.3638 33.0637,24.2516C 32.6393,23.9417 32.3515,23.59 32.2141,23.4144C 32.1843,23.3758 32.1603,23.3446 32.1714,23.3108C 32.2469,23.2532 32.3297,23.1979 32.4113,23.1531L 32.4399,23.1901C 32.4731,23.233 32.5183,23.2905 32.5752,23.3581C 32.6887,23.4934 32.8495,23.6684 33.0529,23.8409C 33.2911,24.0431 33.5853,24.2396 33.9299,24.3682C 33.8165,24.4384 33.6996,24.5028 33.5786,24.5616 Z "/>
		<path fill="#CE6F76" fill-opacity="1" stroke-width="0.32" stroke-linejoin="round" d="M 31.6982,23.6769C 31.6593,23.6769 31.6205,23.6627 31.5898,23.634C 31.5263,23.5739 31.5234,23.4741 31.5834,23.4106C 31.5866,23.4071 31.7177,23.2681 31.9073,23.1158C 32.0988,22.9645 32.3424,22.7955 32.6064,22.7421C 32.6166,22.7402 32.6267,22.7392 32.6365,22.7392C 32.7107,22.7392 32.7768,22.7917 32.7916,22.8672C 32.808,22.9531 32.7518,23.0359 32.6662,23.0523C 32.5903,23.0662 32.5016,23.1032 32.4113,23.1531C 32.3297,23.1979 32.2469,23.2532 32.1477,23.3287C 31.999,23.4435 31.8788,23.5607 31.8334,23.6068L 31.8132,23.6273C 31.7822,23.6602 31.7402,23.6769 31.6982,23.6769 Z "/>
		<path fill="#E15BAC" fill-opacity="1" stroke-width="0.32" stroke-linejoin="round" d="M 30.9143,24.9116C 27.0734,24.7764 25.3657,23.7344 24.6871,22.0233C 25.3505,21.3623 26.3195,20.9459 27.3991,20.9459C 29.3994,20.9459 31.0208,22.3759 31.0208,24.1401C 31.0208,24.4061 30.9838,24.6646 30.9143,24.9116 Z "/>
		<path fill="#CE6F76" fill-opacity="1" stroke-width="0.32" stroke-linejoin="round" d="M 32.6365,19.6531L 32.233,19.6531L 29.7946,19.6531L 27.3991,19.6531L 27.3991,19.219L 32.6365,19.219L 32.6365,19.6531 Z "/>
		<path fill="#DBAA36" fill-opacity="1" stroke-width="0.32" stroke-linejoin="round" d="M 39.5983,15.3241C 39.4213,15.5964 39.2385,17.05 39.4517,20.0325C 39.6311,22.5417 40.9056,23.6517 43.5649,23.6172C 47.0134,23.578 47.1127,19.5469 47.1127,19.0872C 47.1127,18.6573 47.1417,18.1975 47.1699,17.7527C 47.2241,16.8829 47.2924,15.7999 47.0334,15.524C 47.0074,15.4962 46.9727,15.471 46.8937,15.471C 46.4542,15.471 45.344,15.4435 44.0585,15.4119C 42.4244,15.3714 40.5764,15.326 39.5983,15.3241 Z M 43.4645,24.2497C 40.541,24.2497 39.0223,22.8842 38.8214,20.0777C 38.701,18.3953 38.5847,15.4811 39.1569,14.8662C 39.2912,14.7225 39.4381,14.6922 39.538,14.6922C 40.507,14.6922 42.402,14.7389 44.0739,14.78C 45.3554,14.8116 46.4621,14.8391 46.8937,14.8391C 47.1313,14.8391 47.3389,14.9263 47.494,15.0915C 47.9404,15.5667 47.8754,16.5982 47.8005,17.7925C 47.7729,18.2273 47.7446,18.6768 47.7446,19.0872C 47.7446,21.4467 46.6517,24.2144 43.5719,24.2491C 43.5361,24.2494 43.4999,24.2497 43.4645,24.2497 Z "/>
		<path fill="#DBAA36" fill-opacity="1" stroke-width="0.32" stroke-linejoin="round" d="M 24.7758,14.7165C 24.3869,14.7165 23.7699,15.0498 23.7699,15.9442L 23.7699,19.4708C 23.7699,22.8959 25.0485,25.0184 31.4122,25.0184C 32.8011,25.0184 33.9202,24.577 34.7382,23.706C 36.7832,21.5295 36.5182,17.2785 36.4309,15.8817C 36.4193,15.6928 36.4108,15.554 36.4108,15.476C 36.4108,14.8482 35.7141,14.7165 35.1296,14.7165L 24.7758,14.7165 Z M 31.4122,25.6503C 25.5354,25.6503 23.1381,23.8602 23.1381,19.4708L 23.1381,15.9442C 23.1381,14.6615 24.0956,14.0846 24.7758,14.0846L 35.1296,14.0846C 36.3276,14.0846 37.0426,14.6049 37.0426,15.476C 37.0426,15.5468 37.0508,15.6719 37.0615,15.8422C 37.1528,17.3066 37.4309,21.763 35.1987,24.1385C 34.2563,25.1416 32.9824,25.6503 31.4122,25.6503 Z "/>
		<path fill="#FCDB60" fill-opacity="1" stroke-width="0.32" stroke-linejoin="round" d="M 39.8409,15.4049C 39.6675,15.6722 39.4877,17.1003 39.6972,20.0297C 39.8735,22.494 41.1255,23.5843 43.7372,23.5505C 47.1244,23.512 47.2219,19.5526 47.2219,19.1011C 47.2219,18.6787 47.2504,18.2273 47.2778,17.7906C 47.3312,16.936 47.3983,15.8725 47.1439,15.6011C 47.1183,15.5743 47.0842,15.549 47.0068,15.549C 46.5752,15.549 45.4846,15.5225 44.2221,15.4912C 42.6168,15.4517 40.802,15.4068 39.8409,15.4049 Z M 43.6382,24.1717C 40.767,24.1717 39.2754,22.8305 39.0782,20.0739C 38.9601,18.4215 38.8457,15.5591 39.4077,14.9553C 39.5395,14.8141 39.6838,14.7841 39.7819,14.7841C 40.7338,14.7841 42.595,14.8302 44.2372,14.8707C 45.496,14.9019 46.5828,14.9285 47.0068,14.9285C 47.2399,14.9285 47.4441,15.0141 47.5964,15.1765C 48.0345,15.6432 47.9707,16.6564 47.8972,17.8295C 47.8703,18.2566 47.8425,18.698 47.8425,19.1011C 47.8425,21.4186 46.7692,24.1369 43.7441,24.1711C 43.7087,24.1714 43.6733,24.1717 43.6382,24.1717 Z "/>
		<path fill="#FCDB60" fill-opacity="1" stroke-width="0.32" stroke-linejoin="round" d="M 25.2827,14.8084C 24.9006,14.8084 24.2947,15.1358 24.2947,16.0141L 24.2947,19.4781C 24.2947,22.8419 25.5502,24.9268 31.8008,24.9268C 33.1647,24.9268 34.2639,24.493 35.0676,23.6374C 37.0761,21.4998 36.8158,17.3246 36.7302,15.9524C 36.7184,15.7673 36.7106,15.6312 36.7106,15.554C 36.7106,14.9376 36.0262,14.8084 35.4521,14.8084L 25.2827,14.8084 Z M 31.8008,25.5473C 26.0286,25.5473 23.6738,23.7888 23.6738,19.4781L 23.6738,16.0141C 23.6738,14.7544 24.6147,14.1876 25.2827,14.1876L 35.4521,14.1876C 36.6288,14.1876 37.3311,14.6985 37.3311,15.554C 37.3311,15.6236 37.3393,15.7465 37.3497,15.9139C 37.4395,17.3521 37.7124,21.7291 35.5201,24.0627C 34.5944,25.0478 33.3433,25.5473 31.8008,25.5473 Z "/>
		<path fill="#F7A3A4" fill-opacity="1" stroke-width="0.32" stroke-linejoin="round" d="M 38.1848,19.4708C 38.1604,19.6202 38.0631,22.1968 38.1848,22.1484C 38.3061,22.0997 39.8599,21.0546 40.4443,21.9781C 41.0286,22.9019 39.0397,23.6959 39.0397,23.6959"/>
		<path fill="#F36976" fill-opacity="1" stroke-width="0.32" stroke-linejoin="round" d="M 38.0568,19.4503C 38.0533,19.4733 38.0515,19.4989 38.0486,19.5406C 38.0293,19.8234 37.9955,20.7194 37.9955,21.3873C 37.9955,21.6037 37.999,21.7958 38.0082,21.9377C 38.0129,22.0091 38.0186,22.0669 38.0278,22.1149L 38.0486,22.1866L 38.0802,22.2343C 38.0966,22.253 38.1339,22.2786 38.1813,22.2783L 38.2316,22.2688L 38.2321,22.2688L 38.2328,22.2685C 38.2603,22.2568 38.2783,22.2457 38.3112,22.2277C 38.4196,22.1661 38.6344,22.0404 38.8925,21.9301C 39.1497,21.8195 39.4489,21.7269 39.7092,21.7276C 39.8394,21.7276 39.9591,21.75 40.063,21.7996C 40.167,21.8495 40.2577,21.926 40.3347,22.0473C 40.3982,22.1481 40.422,22.2378 40.4222,22.3253C 40.4229,22.4729 40.348,22.6274 40.2175,22.7784C 40.0232,23.0049 39.7142,23.209 39.4557,23.3512C 39.3263,23.4226 39.2094,23.4788 39.1254,23.5174C 39.0833,23.5366 39.0495,23.5515 39.0264,23.5613L 38.9916,23.5758L 39.0878,23.816C 39.0922,23.814 39.476,23.6614 39.8665,23.4065C 40.0618,23.2789 40.2595,23.1259 40.4135,22.9474C 40.5663,22.7698 40.6804,22.5613 40.681,22.3253C 40.6813,22.1876 40.6399,22.0448 40.5536,21.9089C 40.4529,21.7494 40.3212,21.6356 40.1743,21.5661C 40.0276,21.496 39.8684,21.4688 39.7092,21.4688C 39.3446,21.4698 38.9724,21.6066 38.676,21.743C 38.5278,21.8116 38.3989,21.8811 38.3022,21.9351C 38.2539,21.962 38.2135,21.9854 38.1835,22.0024L 38.1472,22.0223L 38.1371,22.0277L 38.1367,22.028L 38.1377,22.0277L 38.1813,22.1395L 38.1813,22.0195L 38.1377,22.0277L 38.1813,22.1395L 38.1813,22.0195L 38.1813,22.138L 38.2672,22.0558C 38.2556,22.0422 38.2233,22.0192 38.1813,22.0195L 38.1813,22.138L 38.2672,22.0558L 38.2009,22.119L 38.2846,22.0805L 38.2672,22.0558L 38.2009,22.119L 38.2846,22.0805L 38.2502,22.0963L 38.2858,22.0833L 38.2846,22.0805L 38.2502,22.0963L 38.2858,22.0833C 38.2853,22.0833 38.2786,22.0549 38.2745,22.0154C 38.2603,21.8934 38.2539,21.6593 38.2543,21.3873C 38.2543,21.0107 38.2653,20.5561 38.2783,20.1848C 38.2849,19.9991 38.2919,19.8341 38.2982,19.7103C 38.3014,19.6483 38.3042,19.5965 38.3068,19.558C 38.3093,19.5207 38.3121,19.492 38.3124,19.4917L 38.0568,19.4503 Z "/>
		<path fill="#DBAA36" fill-opacity="1" stroke-width="0.32" stroke-linejoin="round" d="M 20.3684,21.6843L 19.8153,21.3168L 23.2941,18.9833L 23.6141,19.5283L 20.3684,21.6843 Z "/>
		<path fill="#DBAA36" fill-opacity="1" stroke-width="0.32" stroke-linejoin="round" d="M 37.0449,19.5716L 39.0273,19.5716L 39.0273,18.9397L 37.0449,18.9397"/>
		<path fill="#FCDB60" fill-opacity="1" stroke-width="0.32" stroke-linejoin="round" d="M 37.0426,19.4136L 39.4033,19.4136L 39.4033,18.4658L 37.0426,18.4658"/>
		<path fill="#FEFEFE" fill-opacity="1" stroke-width="0.32" stroke-linejoin="round" d="M 47.3285,15.6034C 47.4318,15.7563 47.4819,15.9303 47.4561,16.1155C 47.4352,16.2649 47.6637,16.3294 47.6848,16.1787C 47.7196,15.9294 47.675,15.6937 47.5328,15.4836C 47.4479,15.3579 47.2426,15.4763 47.3285,15.6034 Z "/>
		<path fill="#FEFEFE" fill-opacity="1" stroke-width="0.32" stroke-linejoin="round" d="M 47.6927,16.7016C 47.8453,16.7016 47.8453,16.4646 47.6927,16.4646C 47.5402,16.4646 47.5402,16.7016 47.6927,16.7016 Z "/>
		<path fill="#FEFEFE" fill-opacity="1" stroke-width="0.32" stroke-linejoin="round" d="M 37.7722,18.8809C 38.125,18.8743 38.478,18.8768 38.8308,18.8882C 38.9832,18.8932 38.9832,18.6563 38.8308,18.6512C 38.478,18.6399 38.125,18.6373 37.7722,18.644C 37.6198,18.6468 37.6193,18.8838 37.7722,18.8809 Z "/>
		<path fill="#FEFEFE" fill-opacity="1" stroke-width="0.32" stroke-linejoin="round" d="M 36.5343,14.823C 36.7229,15.0217 36.9494,15.2586 36.8928,15.5582C 36.8651,15.707 37.0935,15.7711 37.1216,15.621C 37.1958,15.2258 36.9583,14.926 36.7018,14.6555C 36.5966,14.5446 36.4291,14.7124 36.5343,14.823 Z "/>
		<path fill="#FEFEFE" fill-opacity="1" stroke-width="0.32" stroke-linejoin="round" d="M 37.0158,16.112C 37.1684,16.112 37.1684,15.8751 37.0158,15.8751C 36.8635,15.8751 36.8632,16.112 37.0158,16.112 Z "/>
		<path fill="#F6919F" fill-opacity="1" stroke-width="0.32" stroke-linejoin="round" d="M 49.7543,50.3652L 48.5609,50.5867C 48.1572,50.6612 47.7651,50.3923 47.6906,49.9883C 47.6154,49.5845 47.8845,49.1927 48.2886,49.1175L 49.4819,48.8964C 49.8857,48.8215 50.2775,49.0907 50.3523,49.4948C 50.4272,49.8985 50.1583,50.29 49.7543,50.3652 Z "/>
		<path fill="#F6919F" fill-opacity="1" stroke-width="0.32" stroke-linejoin="round" d="M 49.7795,51.7048L 48.6926,51.9067C 48.2889,51.9812 47.8972,51.712 47.8223,51.3083C 47.7473,50.9045 48.0165,50.5124 48.4203,50.4375L 49.5072,50.236C 49.9109,50.1611 50.3027,50.4306 50.3776,50.8344C 50.4525,51.2381 50.1833,51.6302 49.7795,51.7048 Z "/>
		<path fill="#F6919F" fill-opacity="1" stroke-width="0.32" stroke-linejoin="round" d="M 49.4753,53.0513L 48.8826,53.1613C 48.4785,53.2365 48.0867,52.967 48.0118,52.5632C 47.937,52.1591 48.2062,51.7673 48.6102,51.6925L 49.2029,51.5825C 49.6067,51.5076 49.9985,51.7768 50.0734,52.1809C 50.1482,52.5847 49.879,52.9765 49.4753,53.0513 Z "/>
		<path fill="#DBAA36" fill-opacity="1" stroke-width="0.32" stroke-linejoin="round" d="M 17.6014,54.6566C 17.6014,54.6566 16.9889,46.244 19.1183,42.9936L 19.8762,53.3594L 17.6014,54.6566 Z "/>
		<path fill="#FCDB60" fill-opacity="1" stroke-width="0.32" stroke-linejoin="round" d="M 13.681,67.0741L 13.5863,66.979L 13.6489,67.0981L 13.681,67.0741L 13.5863,66.979L 13.6489,67.0981L 13.6295,67.0612L 13.6454,67.1L 13.6489,67.0981L 13.6295,67.0612L 13.6454,67.1C 13.6574,67.0943 13.7305,67.0719 13.8295,67.0406C 13.9302,67.0087 14.0638,66.9648 14.2234,66.9054C 14.3052,66.8751 14.3469,66.7844 14.3166,66.7026C 14.2863,66.6207 14.1953,66.579 14.1135,66.6094C 13.9387,66.6741 13.7969,66.7196 13.6948,66.7518C 13.6438,66.768 13.603,66.7803 13.5708,66.791L 13.5263,66.8071L 13.5019,66.8185L 13.458,66.8504C 13.3962,66.912 13.3961,67.0119 13.4576,67.0738C 13.5192,67.1354 13.6193,67.1357 13.681,67.0741 Z M 14.8186,66.6577C 14.9974,66.5752 15.1902,66.4786 15.3927,66.3655C 15.4689,66.3228 15.4963,66.2264 15.4536,66.1503C 15.4113,66.0742 15.3149,66.047 15.2388,66.0893C 15.0436,66.1983 14.8581,66.2915 14.6862,66.3711C 14.6069,66.4078 14.5725,66.5016 14.6091,66.5806C 14.6458,66.6599 14.7396,66.6943 14.8186,66.6577 Z M 15.9427,66.0306C 16.114,65.9174 16.289,65.793 16.4662,65.6558C 16.5352,65.6024 16.5478,65.5032 16.4944,65.4344C 16.441,65.3652 16.3418,65.3525 16.2729,65.4059C 16.102,65.538 15.9333,65.658 15.7687,65.767C 15.6957,65.8151 15.6758,65.913 15.7238,65.986C 15.7722,66.0587 15.8701,66.0786 15.9427,66.0306 Z M 16.9601,65.2435C 17.1143,65.1048 17.2687,64.9557 17.4223,64.7962C 17.4827,64.7333 17.4807,64.6331 17.4176,64.5728C 17.3547,64.5125 17.2548,64.5143 17.1942,64.5772C 17.0463,64.7314 16.8976,64.8748 16.7487,65.0088C 16.684,65.0669 16.6786,65.1668 16.737,65.2319C 16.7952,65.2966 16.8953,65.302 16.9601,65.2435 Z M 17.8505,64.3169C 17.9838,64.1567 18.1152,63.9877 18.2438,63.8088C 18.2946,63.7381 18.2788,63.6392 18.208,63.5883C 18.137,63.5375 18.0385,63.5536 17.9875,63.6243C 17.863,63.7968 17.7363,63.9602 17.6078,64.115C 17.5519,64.182 17.561,64.2815 17.6279,64.3374C 17.6953,64.393 17.7948,64.3839 17.8505,64.3169 Z M 18.6011,63.2755C 18.7114,63.0986 18.8188,62.9138 18.9224,62.7204C 18.9638,62.6433 18.9348,62.5476 18.8579,62.5065C 18.7812,62.4651 18.6854,62.4939 18.644,62.571C 18.5436,62.7583 18.4396,62.9371 18.3329,63.1084C 18.2867,63.1826 18.3095,63.28 18.3834,63.3261C 18.4576,63.3722 18.5549,63.3495 18.6011,63.2755 Z M 19.208,62.1467C 19.2952,61.9574 19.3793,61.7612 19.4592,61.5574C 19.4911,61.4762 19.4509,61.3846 19.3698,61.3527C 19.2886,61.3208 19.197,61.3609 19.165,61.4421C 19.0873,61.6399 19.0058,61.8307 18.9211,62.0143C 18.8848,62.0936 18.9192,62.1874 18.9985,62.2241C 19.0778,62.2604 19.1716,62.226 19.208,62.1467 Z M 19.6769,60.9556L 19.6962,60.8971C 19.7233,60.8143 19.6779,60.7253 19.5951,60.6981C 19.512,60.6709 19.4229,60.7164 19.3957,60.7992L 19.3771,60.856C 19.3495,60.9388 19.3944,61.0282 19.4772,61.0557C 19.56,61.0832 19.6494,61.0383 19.6769,60.9556 Z "/>
		<path fill="#B1C1E7" fill-opacity="1" stroke-width="0.32" stroke-linejoin="round" d="M 52.7588,25.8137C 53.6267,26.1871 53.6482,26.975 53.5977,27.8151C 53.561,28.4243 54.5089,28.4221 54.5455,27.8151C 54.6144,26.6676 54.4039,25.4974 53.2372,24.9951C 52.6827,24.7565 52.1996,25.5726 52.7588,25.8137 Z "/>
		<path fill="#B1C1E7" fill-opacity="1" stroke-width="0.32" stroke-linejoin="round" d="M 49.403,18.4674C 50.1442,18.9479 50.6385,19.6702 50.8464,20.5254C 50.9908,21.1178 51.9049,20.8669 51.7604,20.2736C 51.4941,19.1782 50.8246,18.2604 49.8812,17.6491C 49.3679,17.3164 48.8923,18.1363 49.403,18.4674 Z "/>
		<path fill="#B1C1E7" fill-opacity="1" stroke-width="0.32" stroke-linejoin="round" d="M 32.1806,6.39868C 31.9673,8.70126 30.9067,10.717 29.467,12.4739C 29.0834,12.9422 29.75,13.6167 30.1371,13.1444C 31.7499,11.1761 32.8899,8.97424 33.1284,6.39868C 33.1847,5.79177 32.2365,5.79556 32.1806,6.39868 Z "/>
		<path fill="#E6D7D3" fill-opacity="1" stroke-width="0.32" stroke-linejoin="round" d="M 35.4054,18.6358C 35.1685,18.6358 34.9394,18.4838 34.9548,18.1792C 34.9896,17.4898 35.0787,16.3243 34.4238,15.8637C 34.0127,15.5743 34.2693,14.9594 34.6537,14.9594C 34.7328,14.9594 34.8171,14.9854 34.9025,15.0451C 35.8967,15.7449 35.9589,17.0681 35.9027,18.1792C 35.8872,18.4835 35.6423,18.6358 35.4054,18.6358 Z "/>
		<path fill="#E6D7D3" fill-opacity="1" stroke-width="0.32" stroke-linejoin="round" d="M 35.5116,19.9447C 34.9008,19.9447 34.9018,18.9969 35.5116,18.9969C 36.1226,18.9969 36.1217,19.9447 35.5116,19.9447 Z "/>
		<path fill="#8F96CB" fill-opacity="1" stroke-width="0.32" stroke-linejoin="round" d="M 46.2343,19.3201C 46.163,18.3151 46.0549,17.2529 45.9595,16.1483C 46.5569,16.8858 46.593,17.965 46.5458,18.8958C 46.5344,19.1191 46.3993,19.2607 46.2343,19.3201 Z "/>
		<path fill="#E6D7D3" fill-opacity="1" stroke-width="0.32" stroke-linejoin="round" d="M 46.0485,19.3523C 45.8116,19.3523 45.5825,19.2003 45.598,18.8958C 45.6328,18.2064 45.7219,17.0412 45.0669,16.5799C 44.9996,16.5325 44.9501,16.4763 44.9162,16.4153C 44.9314,16.3032 44.9125,16.1932 44.8663,16.088C 44.9071,15.8681 45.0818,15.676 45.2969,15.676C 45.3759,15.676 45.4603,15.7019 45.5456,15.7616C 45.707,15.8754 45.8439,16.0056 45.9595,16.1483C 46.0549,17.2529 46.163,18.3151 46.2343,19.3201C 46.1746,19.3416 46.1115,19.3523 46.0485,19.3523 Z "/>
		<path fill="#9498B6" fill-opacity="1" stroke-width="0.32" stroke-linejoin="round" d="M 44.9162,16.4153C 44.8591,16.3126 44.8461,16.197 44.8663,16.088C 44.9125,16.1932 44.9314,16.3032 44.9162,16.4153 Z "/>
		<path fill="#8F96CB" fill-opacity="1" stroke-width="0.32" stroke-linejoin="round" d="M 46.3035,20.6401C 46.2947,20.3406 46.2802,20.0354 46.2609,19.7238C 46.7155,19.8171 46.7291,20.5093 46.3035,20.6401 Z "/>
		<path fill="#E6D7D3" fill-opacity="1" stroke-width="0.32" stroke-linejoin="round" d="M 46.1547,20.6613C 45.5439,20.6613 45.5449,19.7134 46.1547,19.7134C 46.1926,19.7134 46.228,19.7172 46.2609,19.7238C 46.2802,20.0354 46.2947,20.3406 46.3035,20.6401C 46.2587,20.6537 46.2091,20.6613 46.1547,20.6613 Z "/>
		<path fill="#FEFEFE" fill-opacity="1" stroke-width="0.32" stroke-linejoin="round" d="M 50.0314,67.3092C 50.569,74.3607 51.1071,81.4116 51.6451,88.4631C 51.6913,89.0675 52.6394,89.0722 52.593,88.4631C 52.0549,81.4116 51.5168,74.3607 50.9791,67.3092C 50.933,66.7051 49.9846,66.7 50.0314,67.3092 Z "/>
		<path fill="#FEFEFE" fill-opacity="1" stroke-width="0.32" stroke-linejoin="round" d="M 52.2527,90.6687C 52.8628,90.6687 52.8637,89.7208 52.2527,89.7208C 51.6429,89.7208 51.642,90.6687 52.2527,90.6687 Z "/>
		<path fill="#C08618" fill-opacity="1" stroke-width="0.32" stroke-linejoin="round" d="M 28.3469,90.9385L 28.5422,90.9653L 35.7451,91.9621L 34.6272,95.8422L 35.4045,95.8422L 37.5573,89.8801"/>
		<path fill="#E0A624" fill-opacity="1" stroke-width="0.32" stroke-linejoin="round" d="M 26.9413,91.5874L 21.0322,93.1956L 21.6139,95.8751L 19.8746,95.8422C 19.8746,95.8422 18.3552,91.6462 18.3341,91.5874C 18.3132,91.529 26.9331,91.3719 26.9331,91.3719L 26.9413,91.5874 Z "/>
	</g>
</svg>
