<?xml version="1.0" encoding="utf-8"?>
<!DOCTYPE svg PUBLIC "-//W3C//DTD SVG 1.1//EN" "http://www.w3.org/Graphics/SVG/1.1/DTD/svg11.dtd">
<svg xmlns="http://www.w3.org/2000/svg" xmlns:xlink="http://www.w3.org/1999/xlink" version="1.1" baseProfile="full" width="58.9663" height="55.3465" viewBox="0 0 58.97 55.35" enable-background="new 0 0 58.97 55.35" xml:space="preserve">
	<g>
		<linearGradient id="SVGID_Fill1_" gradientUnits="objectBoundingBox" x1="0.416343" y1="1.10459" x2="1.02805" y2="1.10459" gradientTransform="rotate(-90.000000 0.416343 1.104592)">
			<stop offset="0" stop-color="#B6B6B6" stop-opacity="1"/>
			<stop offset="0.513043" stop-color="#DADADA" stop-opacity="1"/>
			<stop offset="1" stop-color="#FFFFFF" stop-opacity="1"/>
		</linearGradient>
		<path fill="url(#SVGID_Fill1_)" stroke-width="2" stroke-linejoin="round" stroke="#000000" stroke-opacity="1" d="M 46.5056,54.2906C 46.5056,54.2906 43.8787,22.97 40.323,17.8525C 36.7672,12.735 13.3561,12.735 13.3561,12.735C 13.356,12.735 6.01514,23.908 4.69971,28.7117C 3.38416,33.5153 1,54.3466 1,54.3466"/>
		<linearGradient id="SVGID_Fill2_" gradientUnits="objectBoundingBox" x1="0.416055" y1="1.13728" x2="0.975183" y2="1.13728" gradientTransform="rotate(-90.000000 0.416055 1.137285)">
			<stop offset="0" stop-color="#B6B6B6" stop-opacity="1"/>
			<stop offset="0.513043" stop-color="#DADADA" stop-opacity="1"/>
			<stop offset="1" stop-color="#FFFFFF" stop-opacity="1"/>
		</linearGradient>
		<path fill="url(#SVGID_Fill2_)" stroke-width="2" stroke-linejoin="round" stroke="#000000" stroke-opacity="1" d="M 1.28711,52.449C 1.28711,52.449 4.49683,26.7977 6.96985,21.4043C 9.44287,16.0109 17.8843,7.32898 21.885,7.32898C 25.886,7.32898 39.9614,5.22424 43.25,10.6176C 46.5386,16.0109 46.6703,21.1412 45.3547,21.2728C 44.3335,21.3749 29.2937,24.2338 21.8199,23.5731C 19.6646,23.3826 19.3828,21.3126 19.6533,20.0939"/>
		<path fill="#000000" fill-opacity="1" stroke-width="0.2" stroke-linejoin="round" d="M 41.9229,16.5046C 41.4146,16.5046 41.0027,16.9166 41.0027,17.4248C 41.0027,17.933 41.4146,18.3451 41.9229,18.3451C 42.4312,18.3451 42.8431,17.933 42.8431,17.4248C 42.8431,16.9166 42.4312,16.5046 41.9229,16.5046 Z "/>
		<path fill="#000000" fill-opacity="1" stroke-width="0.2" stroke-linejoin="round" d="M 27.7162,17.2446C 27.2079,17.2446 26.7959,17.6566 26.7959,18.1648C 26.7959,18.673 27.2079,19.0851 27.7162,19.0851C 28.2245,19.0851 28.6365,18.673 28.6365,18.1648C 28.6365,17.6566 28.2245,17.2446 27.7162,17.2446 Z "/>
		<path fill="#EAAFAF" fill-opacity="0.803922" stroke-width="0.2" stroke-linejoin="round" d="M 23.2152,17.5405C 22.337,17.5405 21.6251,18.2524 21.6251,19.1306C 21.6251,20.0087 22.337,20.7206 23.2152,20.7206C 24.0935,20.7206 24.8053,20.0087 24.8053,19.1306C 24.8053,18.2524 24.0935,17.5405 23.2152,17.5405 Z "/>
		<path fill="none" stroke-width="2" stroke-linejoin="round" stroke="#000000" stroke-opacity="1" d="M 43.6534,31.6356C 43.6534,31.6356 46.194,49.6357 51.6738,46.7189C 57.1536,43.8022 54.7369,27.8855 54.7369,27.8855C 54.7369,27.8855 54.6743,26.1356 55.4869,30.1042C 56.2994,34.073 54.7161,30.0417 54.7161,30.0417L 57.9661,29.4584L 55.0494,31.8334L 57.5911,31.1667L 55.0286,32.1459L 56.7369,32.1667L 55.6328,33.0001"/>
		<path fill="none" stroke-width="2" stroke-linejoin="round" stroke="#000000" stroke-opacity="1" d="M 12.6472,38.9585L 3.27222,23.4585L 7.93909,1.06256L 11.8141,1.00006L 12.3141,5.31256L 8.06409,5.18756L 9.2041,3.31256L 10.6891,2.75006L 10.5016,2.25006L 10.7516,3.18756"/>
		<path fill="#000000" fill-opacity="1" stroke-width="2" stroke-linejoin="round" stroke="#000000" stroke-opacity="1" d="M 23.0649,24.5143C 23.0651,24.5142 26.1663,32.6774 31.7839,31.9653C 37.4016,31.2532 41.093,22.8015 41.093,22.8015L 23.0649,24.5143 Z "/>
		<path fill="#EE7E7E" fill-opacity="1" stroke-width="0.2" stroke-linejoin="round" stroke="#000000" stroke-opacity="1" d="M 27.0597,30.3491C 27.0598,30.3491 27.5123,28.1409 29.7937,28.2034C 32.0753,28.2657 34.1222,28.0522 34.9973,29.8178C 35.8727,31.5833 32.0753,31.8491 30.5754,31.9428C 29.0754,32.0366 27.1067,30.3959 27.0597,30.3491 Z "/>
		<path fill="#EE7E7E" fill-opacity="1" stroke-linejoin="round" stroke="#000000" stroke-opacity="1" d="M 27.2004,30.1563C 27.2004,30.1563 27.6846,27.0471 30.4504,28.0469C 30.5132,28.0937 31.1714,28.0313 31.5454,29.3906"/>
	</g>
</svg>
