<?xml version="1.0" encoding="utf-8"?>
<!DOCTYPE svg PUBLIC "-//W3C//DTD SVG 1.1//EN" "http://www.w3.org/Graphics/SVG/1.1/DTD/svg11.dtd">
<svg xmlns="http://www.w3.org/2000/svg" xmlns:xlink="http://www.w3.org/1999/xlink" version="1.1" baseProfile="full" width="238.778" height="72.1547" viewBox="0 0 238.78 72.15" enable-background="new 0 0 238.78 72.15" xml:space="preserve">
	<g>
		<g>
			<path fill="#3D6472" fill-opacity="1" stroke-width="0.32" stroke-linejoin="round" d="M 21.945,44.9152C 20.5963,44.1782 19.2251,43.5691 17.8312,43.0877C 16.4374,42.6065 15.1289,42.3658 13.9055,42.3658C 12.4014,42.3658 11.2157,42.6704 10.3483,43.2796C 9.48092,43.8887 9.04723,44.8025 9.04723,46.0208C 9.04723,46.8531 9.37563,47.5988 10.0324,48.2581C 10.6892,48.9174 11.539,49.5041 12.5819,50.018C 13.6247,50.5319 14.7077,50.9969 15.8308,51.413C 16.8586,51.7991 17.8776,52.2566 18.8879,52.7855C 19.8981,53.3145 20.8044,53.9713 21.6066,54.7559C 22.4088,55.5406 23.0505,56.5195 23.5318,57.6927C 24.0131,58.8659 24.2538,60.3023 24.2538,62.002C 24.2538,63.7969 23.7888,65.4652 22.8587,67.0069C 21.9287,68.5486 20.565,69.792 18.7675,70.7371C 16.9701,71.6822 14.7578,72.1547 12.1307,72.1547C 10.782,72.1547 9.40946,72.0181 8.01315,71.7448C 6.61683,71.4716 5.24433,71.0542 3.89565,70.4927C 2.54696,69.9311 1.24841,69.2192 0,68.3568L 3.0759,62.9119C 3.9132,63.5236 4.82068,64.0626 5.79835,64.5289C 6.77602,64.9951 7.76247,65.3562 8.75769,65.6118C 9.75291,65.8675 10.6667,65.9954 11.4989,65.9954C 12.3362,65.9954 13.1798,65.8751 14.0296,65.6344C 14.8794,65.3938 15.5851,64.9851 16.1466,64.4085C 16.7082,63.832 16.9889,63.0297 16.9889,62.002C 16.9889,61.295 16.7558,60.6533 16.2895,60.0767C 15.8232,59.5001 15.1978,58.9712 14.4131,58.4899C 13.6285,58.0086 12.7699,57.5899 11.8373,57.234C 10.7494,56.8178 9.62756,56.3365 8.4719,55.79C 7.31625,55.2435 6.23328,54.578 5.22302,53.7933C 4.21277,53.0086 3.39428,52.031 2.76756,50.8603C 2.14085,49.6895 1.82749,48.2519 1.82749,46.5472C 1.82749,44.4966 2.285,42.7168 3.19999,41.2076C 4.115,39.6985 5.40603,38.5028 7.07308,37.6203C 8.74014,36.7379 10.6667,36.2491 12.8526,36.1538C 15.7054,36.1538 18.023,36.491 19.8054,37.1654C 21.5878,37.8397 23.1834,38.6406 24.5922,39.5681L 21.945,44.9152 Z "/>
			<rect x="30.9471" y="36.3493" fill="#3D6472" fill-opacity="1" stroke-width="0.32" stroke-linejoin="round" width="6.97908" height="35.4219"/>
			<path fill="#3D6472" fill-opacity="1" stroke-width="0.32" stroke-linejoin="round" d="M 47.3118,71.7712L 47.3118,34.9054L 47.3569,34.9054L 67.0458,62.8217L 64.0601,62.1449L 83.6963,34.9054L 83.7941,34.9054L 83.7941,71.7712L 76.815,71.7712L 76.815,50.6384L 77.2512,54.2483L 65.2634,71.2899L 65.1656,71.2899L 52.847,54.2483L 54.0502,50.9317L 54.0502,71.7712L 47.3118,71.7712 Z "/>
			<path fill="#3D6472" fill-opacity="1" stroke-width="0.32" stroke-linejoin="round" d="M 89.1863,68.3042C 89.1863,67.3115 89.5473,66.478 90.2693,65.8036C 90.9913,65.1292 91.7859,64.7921 92.6533,64.7921C 93.4555,64.7921 94.2176,65.1292 94.9395,65.8036C 95.6615,66.478 96.0225,67.3115 96.0225,68.3042C 96.0225,69.3621 95.6615,70.2044 94.9395,70.8311C 94.2176,71.4578 93.4555,71.7712 92.6533,71.7712C 91.7859,71.7712 90.9913,71.4578 90.2693,70.8311C 89.5473,70.2044 89.1863,69.3621 89.1863,68.3042 Z "/>
			<path fill="#3D6472" fill-opacity="1" stroke-width="0.32" stroke-linejoin="round" d="M 101.219,36.3493L 125.383,36.3493L 125.383,43.0877L 108.198,43.0877L 108.198,50.6384L 123.405,50.6384L 123.405,57.3768L 108.198,57.3768L 108.198,65.0328L 126.052,65.0328L 126.052,71.7712L 101.219,71.7712L 101.219,36.3493 Z "/>
			<path fill="#3D6472" fill-opacity="1" stroke-width="0.32" stroke-linejoin="round" d="M 130.579,36.3493L 139.484,36.3493L 162.587,71.7712L 153.585,71.7712L 130.579,36.3493 Z M 130.098,71.7712L 142.71,51.9395L 145.982,58.9712L 138.762,71.7712L 130.098,71.7712 Z M 146.463,49.3449L 153.78,36.3493L 162.249,36.3493L 150.073,55.3613L 146.463,49.3449 Z "/>
			<path fill="#3D6472" fill-opacity="1" stroke-width="0.32" stroke-linejoin="round" d="M 164.61,71.7712L 180.591,34.9505L 180.975,34.9505L 196.956,71.7712L 188.864,71.7712L 178.666,45.8779L 183.72,42.4109L 171.491,71.7712L 164.61,71.7712 Z M 175.537,58.9712L 186.171,58.9712L 188.623,64.8372L 173.371,64.8372L 175.537,58.9712 Z "/>
			<path fill="#3D6472" fill-opacity="1" stroke-width="0.32" stroke-linejoin="round" d="M 202.296,71.7712L 202.296,34.9054L 202.341,34.9054L 222.029,62.8217L 219.044,62.1449L 238.68,34.9054L 238.778,34.9054L 238.778,71.7712L 231.799,71.7712L 231.799,50.6384L 232.235,54.2483L 220.247,71.2899L 220.149,71.2899L 207.831,54.2483L 209.034,50.9317L 209.034,71.7712L 202.296,71.7712 Z "/>
		</g>
		<g>
			<path fill="#3D6472" fill-opacity="1" stroke-width="0.2" stroke-linejoin="round" d="M 87.4227,25.7602L 62.7546,19.6345L 61.6653,23.3413C 62.5146,23.9274 62.8551,25.0522 62.4218,26.0304C 62.1441,26.6574 61.608,27.0894 60.9941,27.2569L 60.5616,36.0305L 54.2829,33.638L 58.6244,26.3997C 58.1998,25.792 58.0941,24.9835 58.4162,24.2562C 58.7727,23.4514 59.5546,22.9678 60.38,22.9526L 61.2862,19.2699L 51.9548,16.9527L 87.3497,8.39233e-005L 124.572,13.0333L 92.8163,25.4729L 87.4227,25.7602 Z "/>
			<path fill="#3D6472" fill-opacity="1" stroke-width="0.2" stroke-linejoin="round" d="M 70.8486,36.7301L 71.2073,36.7042C 73.2952,34.7735 75.6441,33.1086 78.2542,31.7093C 83.2627,29.0239 88.7996,27.7769 94.8651,27.9681C 101.35,28.1726 106.86,29.9312 111.393,33.2438L 109.745,18.5872C 109.745,18.5872 104.415,14.8057 89.254,16.5787C 74.0934,18.3516 69.2107,21.0409 69.2107,21.0409L 70.8486,36.7301 Z "/>
		</g>
	</g>
</svg>
