<?xml version="1.0" encoding="utf-8"?>
<!DOCTYPE svg PUBLIC "-//W3C//DTD SVG 1.1//EN" "http://www.w3.org/Graphics/SVG/1.1/DTD/svg11.dtd">
<svg xmlns="http://www.w3.org/2000/svg" xmlns:xlink="http://www.w3.org/1999/xlink" version="1.1" baseProfile="full" width="99.2544" height="78.143" viewBox="0 0 99.25 78.14" enable-background="new 0 0 99.25 78.14" xml:space="preserve">
	<g>
		<g>
			<path fill="#3D6472" fill-opacity="1" stroke-width="0.32" stroke-linejoin="round" d="M 16.5081,77.9253C 13.3605,77.9253 10.305,77.3728 7.34158,76.2678C 4.37816,75.1628 1.93097,73.4997 0,71.2785L 4.18562,65.5024C 6.03846,67.2883 7.94711,68.6276 9.91156,69.5206C 11.876,70.4135 13.8237,70.86 15.7547,70.86C 17.1834,70.86 18.506,70.6814 19.7227,70.3242C 20.9393,69.967 21.9215,69.3783 22.6693,68.5579C 23.4172,67.7375 23.7911,66.613 23.7911,65.1843C 23.7911,63.6105 23.2721,62.3576 22.234,61.4256C 21.196,60.4936 19.8733,59.743 18.2661,59.1737C 16.6588,58.6045 14.9622,58.0687 13.1763,57.5665C 9.53764,56.3498 6.75281,54.67 4.82184,52.5269C 2.89087,50.3839 1.92538,47.7777 1.92538,44.7082C 1.92538,42.3531 2.51695,40.157 3.70009,38.12C 4.88323,36.083 6.63561,34.4227 8.95724,33.1391C 11.2789,31.8555 14.153,31.2138 17.5796,31.2138C 20.6491,31.2138 23.3976,31.5877 25.8253,32.3355C 28.253,33.0833 30.5383,34.3167 32.6814,36.0356L 28.7134,42.2471C 27.4298,40.8853 25.8951,39.8836 24.1092,39.2418C 22.3233,38.6 20.716,38.2456 19.2874,38.1786C 18.0707,38.1005 16.9099,38.2763 15.8049,38.706C 14.6999,39.1357 13.7902,39.7441 13.0759,40.531C 12.3615,41.3178 12.0044,42.2471 12.0044,43.3186C 12.0044,44.8143 12.5039,46.0281 13.5028,46.9601C 14.5018,47.892 15.8049,48.6259 17.4122,49.1617C 19.0195,49.6975 20.61,50.25 22.1838,50.8192C 24.3938,51.4666 26.3583,52.326 28.0772,53.3975C 29.7961,54.4691 31.1717,55.7889 32.2042,57.3572C 33.2367,58.9254 33.7529,60.887 33.7529,63.2421C 33.7529,65.8874 33.1278,68.3347 31.8777,70.5837C 30.6276,72.8328 28.7357,74.6187 26.202,75.9413C 23.6683,77.264 20.437,77.9253 16.5081,77.9253 Z "/>
			<path fill="#3D6472" fill-opacity="1" stroke-width="0.32" stroke-linejoin="round" d="M 33.3343,71.3957C 33.3343,69.8219 33.9231,68.4825 35.1007,67.3775C 36.2782,66.2725 37.5813,65.72 39.01,65.72C 40.2936,65.72 41.5242,66.2725 42.7017,67.3775C 43.8793,68.4825 44.4681,69.8219 44.4681,71.3957C 44.4681,73.1035 43.8793,74.4764 42.7017,75.5144C 41.5242,76.5524 40.2936,77.0715 39.01,77.0715C 37.5813,77.0715 36.2782,76.5524 35.1007,75.5144C 33.9231,74.4764 33.3343,73.1035 33.3343,71.3957 Z "/>
			<path fill="#3D6472" fill-opacity="1" stroke-width="0.32" stroke-linejoin="round" d="M 67.5057,78.143C 62.4384,78.143 58.0825,77.1245 54.4382,75.0875C 50.7939,73.0505 47.9896,70.2656 46.0251,66.733C 44.0607,63.2003 43.0784,59.1458 43.0784,54.5695C 43.0784,50.2165 44.1862,46.2541 46.4018,42.6824C 48.6174,39.1106 51.5808,36.2533 55.2921,34.1102C 59.0033,31.9672 63.1471,30.8956 67.7234,30.8956C 73.5833,30.8956 78.4414,32.609 82.2977,36.0356C 86.1541,39.4622 88.7631,44.178 90.1248,50.183L 53.576,63.0412L 51.2153,57.1479L 81.2178,46.215L 79.0748,47.6047C 78.2265,45.2496 76.8006,43.1958 74.7971,41.4434C 72.7936,39.691 70.1845,38.8149 66.97,38.8149C 64.2577,38.8149 61.83,39.4762 59.687,40.7988C 57.5439,42.1215 55.8641,43.9269 54.6475,46.215C 53.4309,48.5032 52.8226,51.1094 52.8226,54.0338C 52.8226,57.1032 53.4672,59.7988 54.7563,62.1204C 56.0455,64.442 57.8146,66.2641 60.0637,67.5868C 62.3128,68.9095 64.866,69.5708 67.7234,69.5708C 69.6544,69.5708 71.5295,69.2136 73.3489,68.4993C 75.1682,67.785 76.8648,66.8585 78.4386,65.72L 83.0428,73.1035C 80.8328,74.6103 78.3521,75.827 75.6007,76.7533C 72.8494,77.6798 70.1511,78.143 67.5057,78.143 Z "/>
		</g>
		<g>
			<path fill="#3D6472" fill-opacity="1" stroke-width="0.2" stroke-linejoin="round" d="M 62.105,25.7603L 37.4368,19.6345L 36.5486,22.3418C 37.398,22.9278 37.7385,24.0526 37.3052,25.0308C 37.0275,25.6579 36.4914,26.0899 35.8775,26.2573L 35.445,35.0309L 29.1662,32.6384L 33.5078,25.4002C 33.0832,24.7924 32.9775,23.9839 33.2996,23.2566C 33.6561,22.4519 34.4379,21.9682 35.2634,21.953L 35.9685,19.2699L 26.6371,16.9528L 62.0319,7.62939e-005L 99.2544,13.0333L 67.4986,25.4729L 62.105,25.7603 Z "/>
			<path fill="#3D6472" fill-opacity="1" stroke-width="0.2" stroke-linejoin="round" d="M 45.5305,36.73L 45.8893,36.7042C 47.9771,34.7735 50.3261,33.1086 52.9361,31.7092C 57.9446,29.0239 63.4816,27.7769 69.547,27.9681C 76.0321,28.1726 81.5415,29.9312 86.0754,33.2438L 84.4265,18.5872C 84.4265,18.5872 79.0965,14.8057 63.9359,16.5787C 48.7754,18.3516 43.8927,21.0408 43.8927,21.0408L 45.5305,36.73 Z "/>
		</g>
	</g>
</svg>
