<?xml version="1.0" encoding="utf-8"?>
<!DOCTYPE svg PUBLIC "-//W3C//DTD SVG 1.1//EN" "http://www.w3.org/Graphics/SVG/1.1/DTD/svg11.dtd">
<svg xmlns="http://www.w3.org/2000/svg" xmlns:xlink="http://www.w3.org/1999/xlink" version="1.1" baseProfile="full" width="111.137" height="96.3361" viewBox="0 0 111.14 96.34" enable-background="new 0 0 111.14 96.34" xml:space="preserve">
	<g>
		<g>
			<path fill="#FFFFFF" fill-opacity="1" stroke-width="0.2" stroke-linejoin="round" d="M 73.3947,26.1716L 48.3326,19.9481L 45.9035,27.7763C 46.7664,28.3718 47.1123,29.5146 46.6721,30.5083C 46.39,31.1454 45.8453,31.5844 45.2216,31.7545L 44.7822,40.6682L 38.4031,38.2375L 42.814,30.8836C 42.3827,30.2662 42.2753,29.4447 42.6026,28.7058C 42.9647,27.8882 43.759,27.3969 44.5977,27.3814L 46.8408,19.5776L 37.3603,17.2234L 73.3205,-3.05176e-005L 111.137,13.2414L 78.8745,25.8797L 73.3947,26.1716 Z "/>
			<path fill="#FFFFFF" fill-opacity="1" stroke-width="0.2" stroke-linejoin="round" d="M 56.5554,37.3163L 56.9198,37.2901C 59.041,35.3286 61.4275,33.6371 64.0793,32.2154C 69.1678,29.4872 74.7931,28.2202 80.9554,28.4145C 87.5441,28.6223 93.1415,30.4089 97.7478,33.7744L 96.0726,18.8837C 96.0726,18.8837 90.6575,15.0419 75.2547,16.8432C 59.852,18.6444 54.8913,21.3766 54.8913,21.3766L 56.5554,37.3163 Z "/>
		</g>
		<path fill="#FFFFFF" fill-opacity="1" stroke-width="0.2" stroke-linejoin="round" d="M 44.0297,94.4641C 47.789,93.2159 51.0145,91.5317 53.7062,89.4114L 46.7815,80.8852C 45.0372,82.2385 43.0823,83.2988 40.917,84.0656C 38.7515,84.8325 36.3756,85.216 33.7891,85.216C 29.8343,85.216 26.3193,84.325 23.2442,82.5431C 20.169,80.7612 17.763,78.3062 16.0261,75.1784C 14.2894,72.0507 13.421,68.6598 13.421,65.0057C 13.421,61.1561 14.263,57.6938 15.9472,54.6186C 17.6314,51.5434 19.9435,49.1149 22.8833,47.3329C 25.8231,45.551 29.0223,44.66 32.4809,44.66C 35.6538,44.66 38.4921,45.1901 40.9959,46.2502C 43.4996,47.3104 45.6161,48.5096 47.3454,49.8479L 53.9995,41.1863C 52.2243,39.6775 50.2148,38.3723 47.9706,37.2709L 47.6151,44.4842L 34.0433,39.3127L 37.204,34.0435C 35.3382,33.7979 33.3805,33.6752 31.3306,33.6752C 25.8418,33.6752 20.7141,34.9533 15.9472,37.5097C 11.1803,40.0661 7.33075,43.7014 4.39853,48.4156C 1.46617,53.1299 0,58.6599 0,65.0057C 0,71.3665 1.37219,76.8777 4.11658,81.5394C 6.86082,86.2009 10.6879,89.8325 15.5975,92.4339C 20.5074,95.0354 26.2328,96.3361 32.7741,96.3361C 36.5184,96.3361 40.2703,95.7121 44.0297,94.4641 Z "/>
		<path fill="#FFFFFF" fill-opacity="1" stroke-width="0.2" stroke-linejoin="round" d="M 96.1344,55.1938L 99.0216,53.3216L 95.8589,54.4739C 95.9554,54.7116 96.0471,54.9514 96.1344,55.1938 Z "/>
		<path fill="#FFFFFF" fill-opacity="1" stroke-width="0.2" stroke-linejoin="round" d="M 58.6009,68.0507L 61.7813,75.9905L 63.6976,75.3164C 63.5864,75.1301 63.4778,74.9413 63.3716,74.7499C 62.1177,72.4919 61.3164,69.9714 60.9677,67.1882L 58.6009,68.0507 Z "/>
		<path fill="#FFFFFF" fill-opacity="1" stroke-width="0.2" stroke-linejoin="round" d="M 60.9677,67.1882C 61.3164,69.9714 62.1177,72.4919 63.3716,74.7499C 63.4778,74.9413 63.5864,75.1301 63.6976,75.3164L 111.021,58.6674C 109.187,50.5773 105.672,44.2239 100.476,39.6075C 95.281,34.991 88.736,32.6826 80.8413,32.6826C 74.6759,32.6826 69.0933,34.1263 64.0933,37.0135C 59.0934,39.9007 55.101,43.7502 52.116,48.5622C 49.1311,53.3742 47.6386,58.7126 47.6386,64.5771C 47.6386,70.7425 48.9619,76.2048 51.6085,80.9641C 54.2551,85.7235 58.0332,89.4753 62.943,92.2197C 67.8527,94.9641 73.7211,96.3361 80.5481,96.3361C 84.1119,96.3361 87.7472,95.7121 91.4539,94.4641C 95.1607,93.2159 98.5027,91.5768 101.48,89.5468L 95.2773,79.5995C 93.1569,81.1334 90.8713,82.3814 88.4201,83.3438C 85.9691,84.3062 83.4428,84.7874 80.8413,84.7874C 76.9916,84.7874 73.5519,83.8965 70.5218,82.1146C 67.6772,80.4416 65.4025,78.1756 63.6976,75.3164L 61.7813,75.9905L 58.6009,68.0507L 60.9677,67.1882C 60.8335,66.1162 60.7663,65.0053 60.7663,63.8553C 60.7663,59.9155 61.5858,56.4043 63.2249,53.3216C 64.864,50.2389 67.1271,47.8066 70.0143,46.0247C 72.9015,44.2426 76.1721,43.3518 79.8262,43.3518C 84.1571,43.3518 87.672,44.5322 90.3713,46.893C 92.8644,49.0737 94.6936,51.6006 95.8589,54.4739L 99.0216,53.3216L 96.1344,55.1938C 96.0471,54.9514 95.9554,54.7116 95.8589,54.4739L 60.9677,67.1882 Z "/>
	</g>
</svg>
