<?xml version="1.0" encoding="utf-8"?>
<!DOCTYPE svg PUBLIC "-//W3C//DTD SVG 1.1//EN" "http://www.w3.org/Graphics/SVG/1.1/DTD/svg11.dtd">
<svg xmlns="http://www.w3.org/2000/svg" xmlns:xlink="http://www.w3.org/1999/xlink" version="1.1" baseProfile="full" width="176.479" height="134.206" viewBox="0 0 176.48 134.21" enable-background="new 0 0 176.48 134.21" xml:space="preserve">
	<g>
		<path fill="#FFFFFF" fill-opacity="1" stroke-width="0.2" stroke-linejoin="round" d="M 20.0692,131.889C 19.7996,132.113 19.3006,132.415 18.5723,132.795C 17.844,133.175 16.9528,133.511 15.8989,133.804C 14.8449,134.096 13.6806,134.23 12.406,134.206C 10.4557,134.16 8.71277,133.807 7.17733,133.147C 5.6419,132.487 4.34194,131.586 3.27747,130.442C 2.21298,129.299 1.40063,127.988 0.84037,126.508C 0.280121,125.029 0,123.449 0,121.768C 0,119.888 0.285378,118.163 0.856133,116.595C 1.42689,115.026 2.2445,113.67 3.30898,112.527C 4.37345,111.383 5.64539,110.497 7.12481,109.869C 8.60422,109.24 10.2403,108.926 12.0331,108.926C 13.6929,108.926 15.1609,109.15 16.4372,109.598C 17.7135,110.047 18.7561,110.53 19.565,111.048L 17.6479,115.649C 17.0876,115.225 16.3427,114.783 15.413,114.323C 14.4833,113.862 13.4127,113.632 12.2012,113.632C 11.2593,113.632 10.3576,113.828 9.49624,114.22C 8.63486,114.613 7.87326,115.168 7.21146,115.885C 6.54967,116.603 6.02795,117.438 5.64627,118.391C 5.2646,119.343 5.07376,120.38 5.07376,121.5C 5.07376,122.687 5.24796,123.774 5.59637,124.759C 5.94479,125.745 6.44376,126.591 7.09329,127.299C 7.74283,128.006 8.52106,128.55 9.42796,128.93C 10.3349,129.31 11.3608,129.5 12.5058,129.5C 13.8259,129.5 14.9569,129.287 15.8989,128.861C 16.8408,128.436 17.5586,127.989 18.0523,127.519L 20.0692,131.889 Z "/>
		<path fill="#FFFFFF" fill-opacity="1" stroke-width="0.2" stroke-linejoin="round" d="M 23.5305,121.6C 23.5305,119.898 23.8553,118.285 24.5048,116.76C 25.1544,115.235 26.056,113.884 27.2098,112.708C 28.3635,111.531 29.7029,110.607 31.2278,109.935C 32.7528,109.262 34.3889,108.926 36.1361,108.926C 37.8624,108.926 39.4871,109.262 41.0103,109.935C 42.5335,110.607 43.8833,111.531 45.0599,112.708C 46.2364,113.884 47.1556,115.235 47.8174,116.76C 48.4792,118.285 48.81,119.898 48.81,121.6C 48.81,123.347 48.4792,124.983 47.8174,126.508C 47.1556,128.033 46.2364,129.373 45.0599,130.526C 43.8833,131.68 42.5335,132.582 41.0103,133.231C 39.4871,133.881 37.8624,134.206 36.1361,134.206C 34.3889,134.206 32.7528,133.881 31.2278,133.231C 29.7029,132.582 28.3635,131.68 27.2098,130.526C 26.056,129.373 25.1544,128.033 24.5048,126.508C 23.8553,124.983 23.5305,123.347 23.5305,121.6 Z M 28.5728,121.6C 28.5728,122.7 28.7688,123.725 29.161,124.678C 29.5532,125.63 30.1021,126.471 30.8076,127.199C 31.5132,127.927 32.3308,128.493 33.2605,128.896C 34.1901,129.298 35.2047,129.5 36.3042,129.5C 37.3582,129.5 38.3386,129.298 39.2455,128.896C 40.1524,128.493 40.942,127.927 41.6143,127.199C 42.2866,126.471 42.8136,125.63 43.1953,124.678C 43.577,123.725 43.7678,122.7 43.7678,121.6C 43.7678,120.479 43.5717,119.438 43.1795,118.475C 42.7874,117.512 42.249,116.666 41.5644,115.938C 40.8799,115.21 40.0789,114.643 39.1615,114.239C 38.2441,113.834 37.2461,113.632 36.1676,113.632C 35.0927,113.632 34.0956,113.834 33.1764,114.239C 32.2573,114.643 31.451,115.21 30.7577,115.938C 30.0644,116.666 29.5269,117.512 29.1453,118.475C 28.7636,119.438 28.5728,120.479 28.5728,121.6 Z "/>
		<path fill="#FFFFFF" fill-opacity="1" stroke-width="0.2" stroke-linejoin="round" d="M 50.827,133.938L 61.9882,108.222L 62.2561,108.222L 73.4173,133.938L 67.7658,133.938L 60.6436,115.854L 64.1732,113.433L 55.6329,133.938L 50.827,133.938 Z M 58.4586,124.998L 65.8854,124.998L 67.5977,129.095L 56.9459,129.095L 58.4586,124.998 Z "/>
		<path fill="#FFFFFF" fill-opacity="1" stroke-width="0.2" stroke-linejoin="round" d="M 95.703,131.889C 95.4334,132.113 94.9344,132.415 94.2061,132.795C 93.4778,133.175 92.5866,133.511 91.5326,133.804C 90.4787,134.096 89.3144,134.23 88.0398,134.206C 86.0895,134.16 84.3465,133.807 82.8111,133.147C 81.2757,132.487 79.9757,131.586 78.9112,130.442C 77.8468,129.299 77.0344,127.988 76.4742,126.508C 75.9139,125.029 75.6338,123.449 75.6338,121.768C 75.6338,119.888 75.9192,118.163 76.4899,116.595C 77.0607,115.026 77.8783,113.67 78.9428,112.527C 80.0072,111.383 81.2792,110.497 82.7586,109.869C 84.238,109.24 85.8741,108.926 87.6669,108.926C 89.3266,108.926 90.7947,109.15 92.071,109.598C 93.3473,110.047 94.3899,110.53 95.1988,111.048L 93.2817,115.649C 92.7214,115.225 91.9765,114.783 91.0468,114.323C 90.1171,113.862 89.0465,113.632 87.835,113.632C 86.8931,113.632 85.9914,113.828 85.13,114.22C 84.2686,114.613 83.507,115.168 82.8453,115.885C 82.1835,116.603 81.6617,117.438 81.2801,118.391C 80.8984,119.343 80.7076,120.38 80.7076,121.5C 80.7076,122.687 80.8818,123.774 81.2301,124.759C 81.5786,125.745 82.0775,126.591 82.7271,127.299C 83.3766,128.006 84.1548,128.55 85.0618,128.93C 85.9687,129.31 86.9946,129.5 88.1396,129.5C 89.4597,129.5 90.5907,129.287 91.5326,128.861C 92.4746,128.436 93.1924,127.989 93.6861,127.519L 95.703,131.889 Z "/>
		<path fill="#FFFFFF" fill-opacity="1" stroke-width="0.2" stroke-linejoin="round" d="M 121.487,109.199L 121.487,133.938L 116.613,133.938L 116.613,123.885L 105.551,123.885L 105.551,133.938L 100.677,133.938L 100.677,109.199L 105.551,109.199L 105.551,119.179L 116.613,119.179L 116.613,109.199L 121.487,109.199 Z "/>
		<path fill="#FFFFFF" fill-opacity="1" stroke-width="0.2" stroke-linejoin="round" d="M 125.216,131.516C 125.216,130.823 125.468,130.241 125.972,129.77C 126.477,129.299 127.032,129.064 127.637,129.064C 128.198,129.064 128.73,129.299 129.234,129.77C 129.738,130.241 129.99,130.823 129.99,131.516C 129.99,132.255 129.738,132.844 129.234,133.281C 128.73,133.719 128.198,133.938 127.637,133.938C 127.032,133.938 126.477,133.719 125.972,133.281C 125.468,132.844 125.216,132.255 125.216,131.516 Z "/>
		<path fill="#FFFFFF" fill-opacity="1" stroke-width="0.2" stroke-linejoin="round" d="M 133.62,109.199L 150.495,109.199L 150.495,113.905L 138.494,113.905L 138.494,119.179L 149.114,119.179L 149.114,123.885L 138.494,123.885L 138.494,129.232L 150.963,129.232L 150.963,133.938L 133.62,133.938L 133.62,109.199 Z "/>
		<path fill="#FFFFFF" fill-opacity="1" stroke-width="0.2" stroke-linejoin="round" d="M 154.125,109.199L 160.344,109.199L 176.479,133.938L 170.192,133.938L 154.125,109.199 Z M 153.789,133.938L 162.597,120.087L 164.882,124.998L 159.839,133.938L 153.789,133.938 Z M 165.218,118.275L 170.328,109.199L 176.242,109.199L 167.739,122.477L 165.218,118.275 Z "/>
	</g>
	<g>
		<g>
			<path fill="#FFFFFF" fill-opacity="1" stroke-width="0.2" stroke-linejoin="round" d="M 106.065,26.1716L 81.0032,19.9481L 78.5741,27.7764C 79.437,28.3718 79.7829,29.5146 79.3428,30.5084C 79.0606,31.1454 78.5159,31.5844 77.8922,31.7545L 77.4528,40.6682L 71.0738,38.2375L 75.4846,30.8837C 75.0533,30.2662 74.9459,29.4448 75.2732,28.7058C 75.6353,27.8882 76.4297,27.3969 77.2684,27.3814L 79.5114,19.5776L 70.031,17.2234L 105.991,0L 143.808,13.2414L 111.545,25.8797L 106.065,26.1716 Z "/>
			<path fill="#FFFFFF" fill-opacity="1" stroke-width="0.2" stroke-linejoin="round" d="M 89.226,37.3164L 89.5905,37.2902C 91.7117,35.3287 94.0982,33.6371 96.7499,32.2154C 101.838,29.4872 107.464,28.2202 113.626,28.4145C 120.215,28.6223 125.812,30.4089 130.418,33.7745L 128.743,18.8838C 128.743,18.8838 123.328,15.0419 107.925,16.8432C 92.5227,18.6444 87.562,21.3766 87.562,21.3766L 89.226,37.3164 Z "/>
		</g>
		<path fill="#FFFFFF" fill-opacity="1" stroke-width="0.2" stroke-linejoin="round" d="M 76.7003,94.4641C 80.4597,93.2159 83.6851,91.5317 86.3769,89.4114L 79.4522,80.8852C 77.7078,82.2385 75.7529,83.2988 73.5876,84.0656C 71.4222,84.8325 69.0462,85.2161 66.4597,85.2161C 62.5049,85.2161 58.99,84.325 55.9148,82.5432C 52.8396,80.7612 50.4336,78.3063 48.6967,75.1785C 46.96,72.0507 46.0916,68.6598 46.0916,65.0057C 46.0916,61.1561 46.9337,57.6938 48.6178,54.6186C 50.3021,51.5435 52.6141,49.1149 55.5539,47.3329C 58.4937,45.551 61.693,44.66 65.1515,44.66C 68.3245,44.66 71.1627,45.1901 73.6665,46.2502C 76.1702,47.3104 78.2868,48.5096 80.0161,49.848L 86.6701,41.1864C 84.8949,39.6775 82.8854,38.3724 80.6413,37.271L 80.2858,44.4843L 66.7139,39.3127L 69.8746,34.0436C 68.0089,33.798 66.0511,33.6752 64.0012,33.6752C 58.5125,33.6752 53.3847,34.9533 48.6178,37.5097C 43.8509,40.0662 40.0014,43.7014 37.0692,48.4156C 34.1368,53.1299 32.6706,58.6599 32.6706,65.0057C 32.6706,71.3665 34.0428,76.8778 36.7872,81.5394C 39.5315,86.2009 43.3585,89.8325 48.2682,92.434C 53.178,95.0355 58.9034,96.3362 65.4447,96.3362C 69.1891,96.3362 72.9409,95.7122 76.7003,94.4641 Z "/>
		<path fill="#FFFFFF" fill-opacity="1" stroke-width="0.2" stroke-linejoin="round" d="M 128.805,55.1938L 131.692,53.3216L 128.53,54.474C 128.626,54.7116 128.718,54.9515 128.805,55.1938 Z "/>
		<path fill="#FFFFFF" fill-opacity="1" stroke-width="0.2" stroke-linejoin="round" d="M 91.2715,68.0508L 94.4519,75.9906L 96.3682,75.3164C 96.2571,75.1301 96.1484,74.9413 96.0422,74.7499C 94.7883,72.4919 93.987,69.9714 93.6384,67.1882L 91.2715,68.0508 Z "/>
		<path fill="#FFFFFF" fill-opacity="1" stroke-width="0.2" stroke-linejoin="round" d="M 93.6384,67.1882C 93.987,69.9714 94.7883,72.4919 96.0422,74.7499C 96.1484,74.9413 96.2571,75.1301 96.3682,75.3164L 143.692,58.6674C 141.857,50.5773 138.342,44.224 133.147,39.6075C 127.952,34.991 121.407,32.6827 113.512,32.6827C 107.347,32.6827 101.764,34.1263 96.7639,37.0135C 91.7641,39.9007 87.7716,43.7502 84.7866,48.5623C 81.8018,53.3742 80.3093,58.7126 80.3093,64.5771C 80.3093,70.7425 81.6325,76.2048 84.2791,80.9641C 86.9257,85.7236 90.7038,89.4753 95.6136,92.2197C 100.523,94.9641 106.392,96.3362 113.219,96.3362C 116.783,96.3362 120.418,95.7122 124.125,94.4641C 127.831,93.2159 131.173,91.5769 134.151,89.5468L 127.948,79.5995C 125.828,81.1334 123.542,82.3815 121.091,83.3438C 118.64,84.3062 116.113,84.7875 113.512,84.7875C 109.662,84.7875 106.223,83.8965 103.192,82.1146C 100.348,80.4416 98.0731,78.1756 96.3682,75.3164L 94.4519,75.9906L 91.2715,68.0508L 93.6384,67.1882C 93.5041,66.1163 93.4369,65.0053 93.4369,63.8553C 93.4369,59.9155 94.2565,56.4043 95.8956,53.3216C 97.5347,50.239 99.7978,47.8066 102.685,46.0247C 105.572,44.2427 108.843,43.3518 112.497,43.3518C 116.828,43.3518 120.343,44.5322 123.042,46.8931C 125.535,49.0737 127.364,51.6006 128.53,54.474L 131.692,53.3216L 128.805,55.1938C 128.718,54.9515 128.626,54.7116 128.53,54.474L 93.6384,67.1882 Z "/>
	</g>
</svg>
