<?xml version="1.0" encoding="utf-8"?>
<!DOCTYPE svg PUBLIC "-//W3C//DTD SVG 1.1//EN" "http://www.w3.org/Graphics/SVG/1.1/DTD/svg11.dtd">
<svg xmlns="http://www.w3.org/2000/svg" xmlns:xlink="http://www.w3.org/1999/xlink" version="1.1" baseProfile="full" width="57.7248" height="61.0993" viewBox="0 0 57.72 61.10" enable-background="new 0 0 57.72 61.10" xml:space="preserve">
	<g>
		<linearGradient id="SVGID_Fill1_" gradientUnits="objectBoundingBox" x1="0.303091" y1="1.10538" x2="0.91158" y2="1.10538" gradientTransform="rotate(-90.000000 0.303091 1.105379)">
			<stop offset="0" stop-color="#B6B6B6" stop-opacity="1"/>
			<stop offset="0.513043" stop-color="#DADADA" stop-opacity="1"/>
			<stop offset="1" stop-color="#FFFFFF" stop-opacity="1"/>
		</linearGradient>
		<path fill="url(#SVGID_Fill1_)" stroke-width="2" stroke-linejoin="round" stroke="#000000" stroke-opacity="1" d="M 50.3361,60.0973C 50.3361,60.0973 47.1781,22.4451 42.9036,16.293C 38.6292,10.141 24.5165,9.8092 24.5165,9.8092C 24.5164,9.8092 6.96387,24.0704 5.38232,29.8452C 3.8009,35.62 4.88135,59.9993 4.88135,59.9993"/>
		<linearGradient id="SVGID_Fill2_" gradientUnits="objectBoundingBox" x1="0.314778" y1="1.08962" x2="0.832469" y2="1.08962" gradientTransform="rotate(-90.000000 0.314778 1.089622)">
			<stop offset="0" stop-color="#B6B6B6" stop-opacity="1"/>
			<stop offset="0.513043" stop-color="#DADADA" stop-opacity="1"/>
			<stop offset="1" stop-color="#FFFFFF" stop-opacity="1"/>
		</linearGradient>
		<path fill="url(#SVGID_Fill2_)" stroke-width="2" stroke-linejoin="round" stroke="#000000" stroke-opacity="1" d="M 5.18127,60.0992C 5.18127,60.0992 4.11182,26.9117 7.08484,20.4281C 10.0577,13.9445 14.0311,7.67517 18.1719,5.22864C 21.1868,3.44739 32.6337,-1.44867 39.1346,2.47632C 45.6355,6.40112 48.6245,11.7982 47.2948,12.6689C 46.2625,13.3448 31.8135,24.7434 23.4775,28.1886C 21.0737,29.1821 22.1494,31.4449 21.7612,29.9954"/>
		<path fill="#000000" fill-opacity="1" stroke-width="0.2" stroke-linejoin="round" d="M 41.7632,9.56677C 41.2146,9.83582 40.9882,10.4987 41.2573,11.0472C 41.5264,11.5957 42.1892,11.8223 42.7378,11.5531C 43.2864,11.2839 43.5128,10.6211 43.2437,10.0726C 42.9745,9.52405 42.3118,9.29749 41.7632,9.56677 Z "/>
		<path fill="#000000" fill-opacity="1" stroke-width="0.2" stroke-linejoin="round" d="M 26.8247,17.889C 26.2761,18.1581 26.0497,18.8209 26.3188,19.3695C 26.5879,19.918 27.2507,20.1445 27.7993,19.8754C 28.3479,19.6062 28.5743,18.9434 28.3052,18.3949C 28.036,17.8463 27.3733,17.6198 26.8247,17.889 Z "/>
		<path fill="none" stroke-width="2" stroke-linejoin="round" stroke="#000000" stroke-opacity="1" d="M 47.2078,30.6967L 56.7249,37.0079L 49.5121,50.432L 50.4137,51.6342L 52.6177,48.623L 50.5139,46.9257L 49.7124,48.623L 52.3171,52.8363L 51.7161,48.623"/>
		<path fill="none" stroke-width="2" stroke-linejoin="round" stroke="#000000" stroke-opacity="1" d="M 15.6262,39.287L 1,27.2654L 12.4137,16.8613L 14.0485,15.2689L 14.7184,14.1683L 15.4509,12.9647L 15.9519,15.6696L 15.2958,15.5573L 12.4456,15.0685L 13.1469,12.7644L 14.349,18.675L 15.5511,17.0721L 14.1487,12.4639"/>
		<g>
			<path fill="none" stroke-width="2" stroke-linejoin="round" stroke="#000000" stroke-opacity="1" d="M 48.8855,3.87354C 48.8855,3.87354 50.0876,1.56946 51.0144,1.97009C 51.9413,2.37073 53.6689,2.42102 52.968,4.87524C 52.2667,7.32971 52.0664,7.70532 52.3669,8.55688"/>
			<path fill="#000000" fill-opacity="1" stroke-width="0.2" stroke-linejoin="round" d="M 53.0936,9.65869C 53.8268,9.65869 54.421,10.2529 54.421,10.986C 54.421,11.7191 53.8268,12.3134 53.0936,12.3134C 52.3605,12.3134 51.7664,11.7191 51.7664,10.986C 51.7664,10.2529 52.3605,9.65869 53.0936,9.65869 Z "/>
		</g>
	</g>
</svg>
