<?xml version="1.0" encoding="utf-8"?>
<!DOCTYPE svg PUBLIC "-//W3C//DTD SVG 1.1//EN" "http://www.w3.org/Graphics/SVG/1.1/DTD/svg11.dtd">
<svg xmlns="http://www.w3.org/2000/svg" xmlns:xlink="http://www.w3.org/1999/xlink" version="1.1" baseProfile="full" width="66.5281" height="117.924" viewBox="0 0 66.53 117.92" enable-background="new 0 0 66.53 117.92" xml:space="preserve">
	<g>
		<path fill="#F8F8F7" fill-opacity="1" stroke-width="4.096" stroke-linejoin="round" stroke="#000000" stroke-opacity="1" d="M 60.6888,15.5865L 5.83929,15.5865C 3.75409,15.5865 2.04803,17.2929 2.04803,19.3778L 2.04803,112.085C 2.04803,114.17 3.75409,115.876 5.83929,115.876L 53.7096,115.876C 60.2066,115.876 64.48,110.155 64.48,104.422L 64.48,19.3778C 64.48,17.2929 62.7737,15.5865 60.6888,15.5865 Z "/>
		<radialGradient id="SVGID_Fill1_" cx="12.125" cy="64.3948" r="92.492" gradientUnits="userSpaceOnUse">
			<stop offset="0" stop-color="#778080" stop-opacity="1"/>
			<stop offset="0.0110594" stop-color="#778080" stop-opacity="1"/>
			<stop offset="0.0221188" stop-color="#778080" stop-opacity="1"/>
			<stop offset="0.0331782" stop-color="#778080" stop-opacity="1"/>
			<stop offset="0.0442376" stop-color="#778080" stop-opacity="1"/>
			<stop offset="0.055297" stop-color="#778080" stop-opacity="1"/>
			<stop offset="0.0663564" stop-color="#778080" stop-opacity="1"/>
			<stop offset="0.0774158" stop-color="#778080" stop-opacity="1"/>
			<stop offset="0.0884752" stop-color="#778080" stop-opacity="1"/>
			<stop offset="0.0995346" stop-color="#778080" stop-opacity="1"/>
			<stop offset="0.110594" stop-color="#778080" stop-opacity="1"/>
			<stop offset="0.121653" stop-color="#778080" stop-opacity="1"/>
			<stop offset="0.132713" stop-color="#778080" stop-opacity="1"/>
			<stop offset="0.143772" stop-color="#778080" stop-opacity="1"/>
			<stop offset="0.154832" stop-color="#778080" stop-opacity="1"/>
			<stop offset="0.165891" stop-color="#778080" stop-opacity="1"/>
			<stop offset="0.17695" stop-color="#778080" stop-opacity="1"/>
			<stop offset="0.18801" stop-color="#778080" stop-opacity="1"/>
			<stop offset="0.199069" stop-color="#778080" stop-opacity="1"/>
			<stop offset="0.210129" stop-color="#778080" stop-opacity="1"/>
			<stop offset="0.221188" stop-color="#778080" stop-opacity="1"/>
			<stop offset="0.232247" stop-color="#778080" stop-opacity="1"/>
			<stop offset="0.243307" stop-color="#778080" stop-opacity="1"/>
			<stop offset="0.254366" stop-color="#778080" stop-opacity="1"/>
			<stop offset="0.265426" stop-color="#778080" stop-opacity="1"/>
			<stop offset="0.276485" stop-color="#778080" stop-opacity="1"/>
			<stop offset="0.287544" stop-color="#778080" stop-opacity="1"/>
			<stop offset="0.298604" stop-color="#778080" stop-opacity="1"/>
			<stop offset="0.309663" stop-color="#778080" stop-opacity="1"/>
			<stop offset="0.320723" stop-color="#778080" stop-opacity="1"/>
			<stop offset="0.331782" stop-color="#778080" stop-opacity="1"/>
			<stop offset="0.342841" stop-color="#778080" stop-opacity="1"/>
			<stop offset="0.353901" stop-color="#778080" stop-opacity="1"/>
			<stop offset="0.36496" stop-color="#778080" stop-opacity="1"/>
			<stop offset="0.376019" stop-color="#778080" stop-opacity="1"/>
			<stop offset="0.387079" stop-color="#778080" stop-opacity="1"/>
			<stop offset="0.398138" stop-color="#778080" stop-opacity="1"/>
			<stop offset="0.409198" stop-color="#778080" stop-opacity="1"/>
			<stop offset="0.420257" stop-color="#778080" stop-opacity="1"/>
			<stop offset="0.431316" stop-color="#778080" stop-opacity="1"/>
			<stop offset="0.442376" stop-color="#778080" stop-opacity="1"/>
			<stop offset="0.453435" stop-color="#778080" stop-opacity="1"/>
			<stop offset="0.464495" stop-color="#778080" stop-opacity="1"/>
			<stop offset="0.475554" stop-color="#778080" stop-opacity="1"/>
			<stop offset="0.486613" stop-color="#778080" stop-opacity="1"/>
			<stop offset="0.497673" stop-color="#778080" stop-opacity="1"/>
			<stop offset="0.508732" stop-color="#778080" stop-opacity="1"/>
			<stop offset="0.519792" stop-color="#778080" stop-opacity="1"/>
			<stop offset="0.530851" stop-color="#778080" stop-opacity="1"/>
			<stop offset="0.54191" stop-color="#778080" stop-opacity="1"/>
			<stop offset="0.55297" stop-color="#778080" stop-opacity="1"/>
			<stop offset="0.564029" stop-color="#778080" stop-opacity="1"/>
			<stop offset="0.575089" stop-color="#778080" stop-opacity="1"/>
			<stop offset="0.586148" stop-color="#778080" stop-opacity="1"/>
			<stop offset="0.597207" stop-color="#778080" stop-opacity="1"/>
			<stop offset="0.608267" stop-color="#778080" stop-opacity="1"/>
			<stop offset="0.619326" stop-color="#778080" stop-opacity="1"/>
			<stop offset="0.630386" stop-color="#778080" stop-opacity="1"/>
			<stop offset="0.641445" stop-color="#778080" stop-opacity="1"/>
			<stop offset="0.652504" stop-color="#778080" stop-opacity="1"/>
			<stop offset="0.663564" stop-color="#778080" stop-opacity="1"/>
			<stop offset="0.674623" stop-color="#778080" stop-opacity="1"/>
			<stop offset="0.685683" stop-color="#778080" stop-opacity="1"/>
			<stop offset="0.696742" stop-color="#778080" stop-opacity="1"/>
			<stop offset="0.696742" stop-color="#778080" stop-opacity="1"/>
			<stop offset="0.701556" stop-color="#778080" stop-opacity="1"/>
			<stop offset="0.706369" stop-color="#778080" stop-opacity="1"/>
			<stop offset="0.711183" stop-color="#778080" stop-opacity="1"/>
			<stop offset="0.715997" stop-color="#778080" stop-opacity="1"/>
			<stop offset="0.72081" stop-color="#778080" stop-opacity="1"/>
			<stop offset="0.725624" stop-color="#778080" stop-opacity="1"/>
			<stop offset="0.730437" stop-color="#778080" stop-opacity="1"/>
			<stop offset="0.735251" stop-color="#778080" stop-opacity="1"/>
			<stop offset="0.740065" stop-color="#778080" stop-opacity="1"/>
			<stop offset="0.744878" stop-color="#778080" stop-opacity="1"/>
			<stop offset="0.749692" stop-color="#777E7F" stop-opacity="1"/>
			<stop offset="0.754505" stop-color="#767E7F" stop-opacity="1"/>
			<stop offset="0.759319" stop-color="#767E7F" stop-opacity="1"/>
			<stop offset="0.764133" stop-color="#767E7F" stop-opacity="1"/>
			<stop offset="0.768946" stop-color="#767E7F" stop-opacity="1"/>
			<stop offset="0.77376" stop-color="#767E7F" stop-opacity="1"/>
			<stop offset="0.778574" stop-color="#767E7F" stop-opacity="1"/>
			<stop offset="0.783387" stop-color="#767E7F" stop-opacity="1"/>
			<stop offset="0.788201" stop-color="#767F7F" stop-opacity="1"/>
			<stop offset="0.793014" stop-color="#767D7E" stop-opacity="1"/>
			<stop offset="0.797828" stop-color="#767D7E" stop-opacity="1"/>
			<stop offset="0.802642" stop-color="#757D7F" stop-opacity="1"/>
			<stop offset="0.807455" stop-color="#757D7F" stop-opacity="1"/>
			<stop offset="0.812269" stop-color="#757D7F" stop-opacity="1"/>
			<stop offset="0.817082" stop-color="#757D7F" stop-opacity="1"/>
			<stop offset="0.821896" stop-color="#757E7E" stop-opacity="1"/>
			<stop offset="0.82671" stop-color="#757C7E" stop-opacity="1"/>
			<stop offset="0.831523" stop-color="#757C7E" stop-opacity="1"/>
			<stop offset="0.836337" stop-color="#757C7E" stop-opacity="1"/>
			<stop offset="0.841151" stop-color="#757C7E" stop-opacity="1"/>
			<stop offset="0.845964" stop-color="#737D7E" stop-opacity="1"/>
			<stop offset="0.850778" stop-color="#737D7E" stop-opacity="1"/>
			<stop offset="0.855591" stop-color="#747D7D" stop-opacity="1"/>
			<stop offset="0.860405" stop-color="#747C7D" stop-opacity="1"/>
			<stop offset="0.865219" stop-color="#727B7D" stop-opacity="1"/>
			<stop offset="0.870032" stop-color="#727B7D" stop-opacity="1"/>
			<stop offset="0.874846" stop-color="#727B7D" stop-opacity="1"/>
			<stop offset="0.87966" stop-color="#727B7D" stop-opacity="1"/>
			<stop offset="0.884473" stop-color="#737C7C" stop-opacity="1"/>
			<stop offset="0.889287" stop-color="#737A7C" stop-opacity="1"/>
			<stop offset="0.8941" stop-color="#737B7B" stop-opacity="1"/>
			<stop offset="0.898914" stop-color="#727B7B" stop-opacity="1"/>
			<stop offset="0.903728" stop-color="#727A7B" stop-opacity="1"/>
			<stop offset="0.908541" stop-color="#727A7B" stop-opacity="1"/>
			<stop offset="0.913355" stop-color="#727A7B" stop-opacity="1"/>
			<stop offset="0.918168" stop-color="#727A7B" stop-opacity="1"/>
			<stop offset="0.922982" stop-color="#727A7A" stop-opacity="1"/>
			<stop offset="0.927796" stop-color="#727A7A" stop-opacity="1"/>
			<stop offset="0.932609" stop-color="#71797A" stop-opacity="1"/>
			<stop offset="0.937423" stop-color="#71797A" stop-opacity="1"/>
			<stop offset="0.942237" stop-color="#71797A" stop-opacity="1"/>
			<stop offset="0.94705" stop-color="#717979" stop-opacity="1"/>
			<stop offset="0.951864" stop-color="#717979" stop-opacity="1"/>
			<stop offset="0.956677" stop-color="#717879" stop-opacity="1"/>
			<stop offset="0.961491" stop-color="#717879" stop-opacity="1"/>
			<stop offset="0.966305" stop-color="#707779" stop-opacity="1"/>
			<stop offset="0.971118" stop-color="#707878" stop-opacity="1"/>
			<stop offset="0.975932" stop-color="#707878" stop-opacity="1"/>
			<stop offset="0.980745" stop-color="#707878" stop-opacity="1"/>
			<stop offset="0.985559" stop-color="#707678" stop-opacity="1"/>
			<stop offset="0.990373" stop-color="#707678" stop-opacity="1"/>
			<stop offset="0.995186" stop-color="#707677" stop-opacity="1"/>
			<stop offset="1" stop-color="#707677" stop-opacity="1"/>
		</radialGradient>
		<path fill="url(#SVGID_Fill1_)" stroke-width="0.32" stroke-linejoin="round" d="M 47.6811,9.37612L 18.847,9.37612C 19.0694,7.4988 20.6776,6.03054 22.6121,6.03054L 25.9898,6.03054L 25.9898,4.73913C 25.9898,2.65389 27.6959,0.947838 29.7811,0.947838L 36.7473,0.947838C 38.8322,0.947838 40.5386,2.65389 40.5386,4.73913L 40.5386,6.03054L 43.916,6.03054C 45.8509,6.03054 47.4587,7.4988 47.6811,9.37612 Z M 30.9823,3.20724C 30.4218,3.20724 29.9637,3.66558 29.9637,4.22585C 29.9637,4.78619 30.4218,5.24453 30.9823,5.24453L 35.5461,5.24453C 36.1063,5.24453 36.5644,4.78619 36.5644,4.22585C 36.5644,3.66558 36.1063,3.20724 35.5461,3.20724L 30.9823,3.20724 Z "/>
		<path fill="#151930" fill-opacity="1" stroke-width="0.32" stroke-linejoin="round" d="M 47.7073,15.0569L 18.8207,15.0569L 18.8207,9.82183C 18.8207,9.67113 18.8299,9.52236 18.847,9.37612L 47.6811,9.37612C 47.6985,9.52236 47.7073,9.67113 47.7073,9.82183L 47.7073,15.0569 Z "/>
		<path fill="#090D13" fill-opacity="1" stroke-width="0.32" stroke-linejoin="round" d="M 47.7064,15.5865L 18.8217,15.5865C 18.8211,15.5595 18.8207,15.5327 18.8207,15.5056L 18.8207,15.0569L 47.7073,15.0569L 47.7073,15.5056C 47.7073,15.5327 47.707,15.5595 47.7064,15.5865 Z "/>
		<path fill="#747D7E" fill-opacity="1" stroke-width="0.32" stroke-linejoin="round" d="M 43.916,19.2969L 22.6121,19.2969C 20.554,19.2969 18.8653,17.6347 18.8217,15.5865L 47.7064,15.5865C 47.6628,17.6347 45.9744,19.2969 43.916,19.2969 Z "/>
		<path fill="#153C53" fill-opacity="1" stroke-width="0.32" stroke-linejoin="round" d="M 10.2018,31.237L 42.864,31.237C 43.0383,31.237 43.1799,31.0955 43.1799,30.921C 43.1799,30.7463 43.0383,30.6051 42.864,30.6051L 10.2018,30.6051C 10.0272,30.6051 9.88593,30.7463 9.88593,30.921C 9.88593,31.0955 10.0272,31.237 10.2018,31.237 Z "/>
		<path fill="#153C53" fill-opacity="1" stroke-width="0.32" stroke-linejoin="round" d="M 53.2161,38.2111L 53.2161,37.8952L 50.9009,37.8952C 49.9455,37.8949 49.0782,37.5047 48.4467,36.8737C 47.8157,36.2425 47.4258,35.3752 47.4255,34.4198L 47.4255,32.1046C 47.4258,31.1488 47.8157,30.2816 48.4467,29.6503C 49.0782,29.0194 49.9455,28.6292 50.9009,28.6292L 53.2161,28.6292C 54.1715,28.6292 55.0388,29.0194 55.67,29.6503C 56.301,30.2816 56.6912,31.1492 56.6915,32.1046L 56.6915,34.4198C 56.6912,35.3752 56.301,36.2425 55.67,36.8737C 55.0388,37.5047 54.1715,37.8949 53.2161,37.8952L 53.2161,38.2111L 53.2161,38.5271C 55.477,38.5258 57.3221,36.6807 57.3234,34.4198L 57.3234,32.1046C 57.3221,29.8434 55.477,27.9986 53.2161,27.9973L 50.9009,27.9973C 48.6397,27.9986 46.7949,29.8434 46.7936,32.1046L 46.7936,34.4198C 46.7949,36.6807 48.6397,38.5258 50.9009,38.5271L 53.2161,38.5271L 53.2161,38.2111 Z "/>
		<path fill="#153C53" fill-opacity="1" stroke-width="0.32" stroke-linejoin="round" d="M 10.2018,53.6367L 42.864,53.6367C 43.0383,53.6367 43.1799,53.4951 43.1799,53.3207C 43.1799,53.1463 43.0383,53.0048 42.864,53.0048L 10.2018,53.0048C 10.0272,53.0048 9.88593,53.1463 9.88593,53.3207C 9.88593,53.4951 10.0272,53.6367 10.2018,53.6367 Z "/>
		<path fill="#153C53" fill-opacity="1" stroke-width="0.32" stroke-linejoin="round" d="M 53.2161,60.6108L 53.2161,60.2948L 50.9009,60.2948C 49.9455,60.2948 49.0782,59.9046 48.4467,59.2737C 47.8157,58.6424 47.4258,57.7749 47.4255,56.8195L 47.4255,54.5042C 47.4258,53.5488 47.8157,52.6815 48.4467,52.05C 49.0782,51.4191 49.9455,51.0292 50.9009,51.0289L 53.2161,51.0289C 54.1715,51.0292 55.0388,51.4191 55.67,52.05C 56.301,52.6815 56.6912,53.5488 56.6915,54.5042L 56.6915,56.8195C 56.6912,57.7749 56.301,58.6424 55.67,59.2737C 55.0388,59.9046 54.1715,60.2948 53.2161,60.2948L 53.2161,60.6108L 53.2161,60.9267C 55.477,60.9254 57.3221,59.0807 57.3234,56.8195L 57.3234,54.5042C 57.3221,52.2434 55.477,50.3982 53.2161,50.397L 50.9009,50.397C 48.6397,50.3982 46.7949,52.2434 46.7936,54.5042L 46.7936,56.8195C 46.7949,59.0807 48.6397,60.9254 50.9009,60.9267L 53.2161,60.9267L 53.2161,60.6108 Z "/>
		<path fill="#153C53" fill-opacity="1" stroke-width="0.32" stroke-linejoin="round" d="M 10.2018,76.0366L 42.864,76.0366C 43.0383,76.0366 43.1799,75.8951 43.1799,75.7207C 43.1799,75.546 43.0383,75.4047 42.864,75.4047L 10.2018,75.4047C 10.0272,75.4047 9.88593,75.546 9.88593,75.7207C 9.88593,75.8951 10.0272,76.0366 10.2018,76.0366 Z "/>
		<path fill="#153C53" fill-opacity="1" stroke-width="0.32" stroke-linejoin="round" d="M 53.2161,83.0104L 53.2161,82.6945L 50.9009,82.6945C 49.9455,82.6945 49.0782,82.3043 48.4467,81.6733C 47.816,81.0421 47.4258,80.1749 47.4255,79.2191L 47.4255,76.9042C 47.4258,75.9488 47.8157,75.0812 48.4467,74.45C 49.0782,73.8191 49.9455,73.4289 50.9009,73.4289L 53.2161,73.4289C 54.1715,73.4289 55.0388,73.8191 55.67,74.45C 56.301,75.0812 56.6912,75.9488 56.6915,76.9042L 56.6915,79.2191C 56.6912,80.1745 56.301,81.0421 55.67,81.6733C 55.0388,82.3043 54.1715,82.6945 53.2161,82.6945L 53.2161,83.0104L 53.2161,83.3264C 55.477,83.3251 57.3221,81.4803 57.3234,79.2191L 57.3234,76.9042C 57.3221,74.643 55.477,72.7982 53.2161,72.797L 50.9009,72.797C 48.6397,72.7982 46.7949,74.6433 46.7936,76.9042L 46.7936,79.2191C 46.7949,81.4803 48.6397,83.3251 50.9009,83.3264L 53.2161,83.3264L 53.2161,83.0104 Z "/>
		<path fill="#153C53" fill-opacity="1" stroke-width="0.32" stroke-linejoin="round" d="M 10.2018,35.0991L 42.864,35.0991C 43.0383,35.0991 43.1799,34.9578 43.1799,34.7831C 43.1799,34.6087 43.0383,34.4672 42.864,34.4672L 10.2018,34.4672C 10.0272,34.4672 9.88593,34.6087 9.88593,34.7831C 9.88593,34.9578 10.0272,35.0991 10.2018,35.0991 Z "/>
		<path fill="#153C53" fill-opacity="1" stroke-width="0.32" stroke-linejoin="round" d="M 10.2018,57.499L 42.864,57.499C 43.0383,57.499 43.1799,57.3575 43.1799,57.1831C 43.1799,57.0087 43.0383,56.8671 42.864,56.8671L 10.2018,56.8671C 10.0272,56.8671 9.88593,57.0087 9.88593,57.1831C 9.88593,57.3575 10.0272,57.499 10.2018,57.499 Z "/>
		<path fill="#153C53" fill-opacity="1" stroke-width="0.32" stroke-linejoin="round" d="M 10.2018,79.8987L 42.864,79.8987C 43.0383,79.8987 43.1799,79.7575 43.1799,79.5828C 43.1799,79.4084 43.0383,79.2668 42.864,79.2668L 10.2018,79.2668C 10.0272,79.2668 9.88593,79.4084 9.88593,79.5828C 9.88593,79.7575 10.0272,79.8987 10.2018,79.8987 Z "/>
		<path fill="#F14A8F" fill-opacity="1" stroke-width="0.32" stroke-linejoin="round" d="M 48.2081,34.5228C 48.8508,35.3114 49.7426,36.1998 50.7615,36.4481C 51.9928,36.7483 52.9728,35.9294 53.7674,35.0868C 55.5281,33.2183 56.5616,30.8553 57.5053,28.5034C 58.1862,26.8053 55.4372,26.0675 54.7632,27.7477C 54.2088,29.1297 53.6044,30.4974 52.7883,31.7479C 52.4686,32.2379 51.971,33.1507 51.4371,33.4006C 51.2121,33.5058 51.5208,33.7074 51.0452,33.3917C 50.7341,33.1854 50.451,32.7968 50.2188,32.5121C 49.0621,31.0932 47.0612,33.1156 48.2081,34.5228 Z "/>
		<path fill="#F14A8F" fill-opacity="1" stroke-width="0.32" stroke-linejoin="round" d="M 48.2081,56.2236C 48.8508,57.0122 49.7426,57.9006 50.7615,58.1489C 51.9928,58.4491 52.9728,57.6305 53.7674,56.7876C 55.5281,54.9191 56.5616,52.5561 57.5053,50.2043C 58.1862,48.5061 55.4372,47.7683 54.7632,49.4485C 54.2088,50.8305 53.6044,52.1982 52.7883,53.4487C 52.4686,53.9387 51.971,54.8515 51.4371,55.1014C 51.2121,55.2066 51.5208,55.4081 51.0452,55.0925C 50.7341,54.8862 50.451,54.4976 50.2188,54.2129C 49.0621,52.794 47.0612,54.8164 48.2081,56.2236 Z "/>
		<path fill="#F14A8F" fill-opacity="1" stroke-width="0.32" stroke-linejoin="round" d="M 49.0814,78.6236C 49.7237,79.4118 50.6159,80.3006 51.6345,80.5486C 52.8657,80.8487 53.8461,80.0301 54.6401,79.1872C 56.4014,77.3187 57.4349,74.9561 58.378,72.6039C 59.0594,70.9057 56.3104,70.168 55.6365,71.8482C 55.0821,73.2304 54.4777,74.5982 53.6616,75.8487C 53.3419,76.3387 52.8439,77.2511 52.3096,77.501C 52.085,77.6062 52.3937,77.8078 51.9179,77.4922C 51.6074,77.2862 51.3236,76.8973 51.0917,76.6129C 49.9354,75.1937 47.9342,77.216 49.0814,78.6236 Z "/>
		<path fill="#153C53" fill-opacity="1" stroke-width="0.32" stroke-linejoin="round" d="M 10.2018,96.2933L 42.864,96.2933C 43.0383,96.2933 43.1799,96.1517 43.1799,95.9773C 43.1799,95.8029 43.0383,95.6614 42.864,95.6614L 10.2018,95.6614C 10.0272,95.6614 9.88593,95.8029 9.88593,95.9773C 9.88593,96.1517 10.0272,96.2933 10.2018,96.2933 Z "/>
		<path fill="#153C53" fill-opacity="1" stroke-width="0.32" stroke-linejoin="round" d="M 53.2161,103.267L 53.2161,102.951L 50.9009,102.951C 49.9455,102.951 49.0782,102.561 48.4467,101.93C 47.8157,101.299 47.4258,100.431 47.4255,99.4761L 47.4255,97.1608C 47.4258,96.2054 47.8157,95.3382 48.4467,94.7066C 49.0782,94.0757 49.9455,93.6855 50.9009,93.6855L 53.2161,93.6855C 54.1715,93.6855 55.0388,94.0757 55.67,94.7066C 56.301,95.3382 56.6912,96.2054 56.6915,97.1608L 56.6915,99.4761C 56.6912,100.431 56.301,101.299 55.67,101.93C 55.0388,102.561 54.1715,102.951 53.2161,102.951L 53.2161,103.267L 53.2161,103.583C 55.477,103.582 57.3221,101.737 57.3234,99.4761L 57.3234,97.1608C 57.3221,94.9 55.477,93.0549 53.2161,93.0536L 50.9009,93.0536C 48.6397,93.0549 46.7949,94.9 46.7936,97.1608L 46.7936,99.4761C 46.7949,101.737 48.6397,103.582 50.9009,103.583L 53.2161,103.583L 53.2161,103.267 Z "/>
		<path fill="#153C53" fill-opacity="1" stroke-width="0.32" stroke-linejoin="round" d="M 10.2018,100.156L 42.864,100.156C 43.0383,100.156 43.1799,100.014 43.1799,99.8394C 43.1799,99.665 43.0383,99.5238 42.864,99.5238L 10.2018,99.5238C 10.0272,99.5238 9.88593,99.665 9.88593,99.8394C 9.88593,100.014 10.0272,100.156 10.2018,100.156 Z "/>
		<path fill="#F14A8F" fill-opacity="1" stroke-width="0.32" stroke-linejoin="round" d="M 49.0814,98.8802C 49.7237,99.6688 50.6159,100.557 51.6345,100.806C 52.8657,101.105 53.8461,100.287 54.6401,99.4441C 56.4014,97.5754 57.4349,95.2127 58.378,92.8609C 59.0594,91.163 56.3104,90.425 55.6365,92.1048C 55.0821,93.4871 54.4777,94.8548 53.6616,96.1053C 53.3419,96.5953 52.8439,97.5081 52.3096,97.7583C 52.085,97.8632 52.3937,98.0644 51.9179,97.7491C 51.6074,97.5428 51.3236,97.1545 51.0917,96.8695C 49.9354,95.4506 47.9342,97.4727 49.0814,98.8802 Z "/>
		<path fill="#DFECE9" fill-opacity="1" stroke-width="0.32" stroke-linejoin="round" d="M 35.5461,4.29671L 30.9823,4.29671C 30.4218,4.29671 29.9637,3.83837 29.9637,3.27804C 29.9637,2.71774 30.4218,2.25942 30.9823,2.25942L 35.5461,2.25942C 36.1063,2.25942 36.5644,2.71774 36.5644,3.27804C 36.5644,3.83837 36.1063,4.29671 35.5461,4.29671 Z M 43.916,5.08266L 40.5386,5.08266L 40.5386,3.79128C 40.5386,1.70605 38.8322,-7.62939e-006 36.7473,-7.62939e-006L 29.7811,-7.62939e-006C 27.6959,-7.62939e-006 25.9898,1.70605 25.9898,3.79128L 25.9898,5.08266L 22.6121,5.08266C 20.5269,5.08266 18.8207,6.78872 18.8207,8.87399L 18.8207,14.5577C 18.8207,16.643 20.5269,18.3491 22.6121,18.3491L 43.916,18.3491C 46.0015,18.3491 47.7073,16.643 47.7073,14.5577L 47.7073,8.87399C 47.7073,6.78872 46.0015,5.08266 43.916,5.08266 Z "/>
		<image x="0" y="0" width="8" height="4" transform="matrix(0.32,0.00,0.00,0.33,40.84,95.17)" xlink:href="quiz_files/image2.png"/>
		<image x="0" y="0" width="8" height="4" transform="matrix(0.32,0.00,0.00,0.33,40.84,99.27)" xlink:href="quiz_files/image3.png"/>
		<path fill="#F3FBFB" fill-opacity="1" stroke-width="0.32" stroke-linejoin="round" d="M 42.0355,6.76345C 42.9948,6.93316 43.9255,6.65066 44.5618,7.58013C 45.278,8.62579 45.1865,9.97887 45.1242,11.1823C 45.0929,11.792 46.0407,11.7903 46.072,11.1823C 46.1485,9.70058 46.1722,8.10589 45.2133,6.87557C 44.377,5.80221 43.4946,6.06307 42.2877,5.84939C 41.6912,5.74374 41.4352,6.65701 42.0355,6.76345 Z "/>
		<path fill="#F3FBFB" fill-opacity="1" stroke-width="0.32" stroke-linejoin="round" d="M 45.9374,13.4547C 46.5472,13.4547 46.5485,12.5069 45.9374,12.5069C 45.3277,12.5069 45.3267,13.4547 45.9374,13.4547 Z "/>
		<path fill="#F3FBFB" fill-opacity="1" stroke-width="0.32" stroke-linejoin="round" d="M 37.4487,1.83086C 38.1548,2.02187 38.6786,2.56271 38.8559,3.27096C 39.0044,3.8623 39.9188,3.61175 39.7702,3.01904C 39.514,1.99795 38.7156,1.19155 37.7008,0.916832C 37.1113,0.757286 36.8598,1.67153 37.4487,1.83086 Z "/>
		<path fill="#F3FBFB" fill-opacity="1" stroke-width="0.32" stroke-linejoin="round" d="M 35.3398,17.534C 37.6136,17.534 39.8875,17.534 42.1616,17.534C 42.7714,17.534 42.7726,16.5861 42.1616,16.5861C 39.8875,16.5861 37.6136,16.5861 35.3398,16.5861C 34.7297,16.5861 34.7288,17.534 35.3398,17.534 Z "/>
	</g>
</svg>
