<?xml version="1.0" encoding="utf-8"?>
<!DOCTYPE svg PUBLIC "-//W3C//DTD SVG 1.1//EN" "http://www.w3.org/Graphics/SVG/1.1/DTD/svg11.dtd">
<svg xmlns="http://www.w3.org/2000/svg" xmlns:xlink="http://www.w3.org/1999/xlink" version="1.1" baseProfile="full" width="58.9662" height="49.3958" viewBox="0 0 58.97 49.40" enable-background="new 0 0 58.97 49.40" xml:space="preserve">
	<g>
		<linearGradient id="SVGID_Fill1_" gradientUnits="objectBoundingBox" x1="0.416343" y1="1.10459" x2="1.02805" y2="1.10459" gradientTransform="rotate(-90.000000 0.416343 1.104594)">
			<stop offset="0" stop-color="#B6B6B6" stop-opacity="1"/>
			<stop offset="0.513043" stop-color="#DADADA" stop-opacity="1"/>
			<stop offset="1" stop-color="#FFFFFF" stop-opacity="1"/>
		</linearGradient>
		<path fill="url(#SVGID_Fill1_)" stroke-width="2" stroke-linejoin="round" stroke="#000000" stroke-opacity="1" d="M 46.5056,48.3398C 46.5056,48.3398 43.8787,17.0193 40.323,11.9018C 36.7672,6.7843 13.3561,6.7843 13.3561,6.7843C 13.356,6.7843 6.01514,17.9572 4.69971,22.7609C 3.38416,27.5645 1,48.3958 1,48.3958"/>
		<linearGradient id="SVGID_Fill2_" gradientUnits="objectBoundingBox" x1="0.416055" y1="1.13728" x2="0.975183" y2="1.13728" gradientTransform="rotate(-90.000000 0.416055 1.137285)">
			<stop offset="0" stop-color="#B6B6B6" stop-opacity="1"/>
			<stop offset="0.513043" stop-color="#DADADA" stop-opacity="1"/>
			<stop offset="1" stop-color="#FFFFFF" stop-opacity="1"/>
		</linearGradient>
		<path fill="url(#SVGID_Fill2_)" stroke-width="2" stroke-linejoin="round" stroke="#000000" stroke-opacity="1" d="M 1.28711,46.4982C 1.28711,46.4982 4.49683,20.8469 6.96985,15.4536C 9.44287,10.0602 17.8843,1.37817 21.885,1.37817C 25.886,1.37817 39.9614,-0.726501 43.25,4.66681C 46.5386,10.0602 46.6703,15.1904 45.3547,15.322C 44.3335,15.4241 29.2937,18.283 21.8199,17.6223C 19.6646,17.4318 19.3828,15.3618 19.6533,14.1431"/>
		<path fill="#000000" fill-opacity="1" stroke-width="0.2" stroke-linejoin="round" d="M 41.9229,10.5538C 41.4146,10.5538 41.0027,10.9658 41.0027,11.4741C 41.0027,11.9823 41.4146,12.3943 41.9229,12.3943C 42.4312,12.3943 42.8431,11.9823 42.8431,11.4741C 42.8431,10.9658 42.4312,10.5538 41.9229,10.5538 Z "/>
		<path fill="#000000" fill-opacity="1" stroke-width="0.2" stroke-linejoin="round" d="M 27.7162,11.2938C 27.2079,11.2938 26.7959,11.7058 26.7959,12.2141C 26.7959,12.7223 27.2079,13.1343 27.7162,13.1343C 28.2245,13.1343 28.6365,12.7223 28.6365,12.2141C 28.6365,11.7058 28.2245,11.2938 27.7162,11.2938 Z "/>
		<path fill="#EAAFAF" fill-opacity="0.803922" stroke-width="0.2" stroke-linejoin="round" d="M 23.2152,11.5897C 22.337,11.5897 21.6251,12.3016 21.6251,13.1797C 21.6251,14.0579 22.337,14.7698 23.2152,14.7698C 24.0935,14.7698 24.8053,14.0579 24.8053,13.1797C 24.8053,12.3016 24.0935,11.5897 23.2152,11.5897 Z "/>
		<path fill="none" stroke-width="2" stroke-linejoin="round" stroke="#000000" stroke-opacity="1" d="M 14.8201,26.2681C 14.8201,26.2681 17.3606,44.2682 22.8403,41.3514C 28.3202,38.4347 25.9036,22.5181 25.9036,22.5181C 25.9036,22.5181 25.8408,20.7681 26.6536,24.7368C 27.4661,28.7056 25.8827,24.6743 25.8827,24.6743L 29.1327,24.0909L 26.2161,26.4659L 28.7577,25.7993L 26.1952,26.7784L 27.9036,26.7993L 26.7993,27.6326"/>
		<path fill="none" stroke-width="2" stroke-linejoin="round" stroke="#000000" stroke-opacity="1" d="M 43.6533,25.6848C 43.6533,25.6848 46.1938,43.6849 51.6737,40.7681C 57.1536,37.8514 54.7368,21.9347 54.7368,21.9347C 54.7368,21.9347 54.6742,20.1848 55.4868,24.1534C 56.2993,28.1222 54.7161,24.0909 54.7161,24.0909L 57.9661,23.5076L 55.0493,25.8826L 57.5911,25.2159L 55.0286,26.1951L 56.7368,26.2159L 55.6327,27.0493"/>
	</g>
</svg>
